<svg width="16" height="25" viewBox="0 0 16 25" fill="none" xmlns="http://www.w3.org/2000/svg">
<path d="M13.8481 4.81158L13.8403 4.82496L13.8334 4.83878L7.13344 18.2388L7.0138 18.4781L7.14062 18.7136C7.25048 18.9176 7.36651 19.2347 7.45506 19.5852C7.54348 19.9353 7.59441 20.2788 7.59441 20.5308C7.59441 22.2386 6.20994 23.6231 4.5021 23.6231C2.79427 23.6231 1.40979 22.2386 1.40979 20.5308C1.40979 18.823 2.79427 17.4385 4.5021 17.4385H4.79999L4.94869 17.1804L12.6698 3.77706C12.6699 3.77697 12.6699 3.77688 12.67 3.77678C12.67 3.77673 12.67 3.77668 12.6701 3.77663C12.7003 3.72424 12.7453 3.63157 12.7908 3.53823C12.7966 3.52629 12.8024 3.51434 12.8082 3.50246C12.8656 3.38457 12.9378 3.23716 13.0231 3.07177C13.1947 2.73911 13.4143 2.34348 13.6611 1.98752C13.9147 1.62177 14.1666 1.34307 14.3905 1.19973C14.4976 1.13116 14.5746 1.1091 14.6245 1.10537C14.6651 1.10234 14.712 1.10874 14.7783 1.1525C14.8766 1.21731 14.9695 1.35772 14.969 1.69865C14.9685 2.03717 14.8714 2.46415 14.7169 2.91722C14.4104 3.81595 13.9323 4.66574 13.8481 4.81158Z" fill="white" stroke="#6F6464" stroke-width="1.03077"/>
</svg>
