<svg width="24" height="20" viewBox="0 0 24 20" fill="none" xmlns="http://www.w3.org/2000/svg">
<path d="M3.51128 17.059V18.3693C3.51128 18.7311 3.38397 19.0386 3.12935 19.2919C2.87473 19.5451 2.56555 19.6718 2.20182 19.6718C1.83808 19.6718 1.53122 19.5451 1.28122 19.2919C1.03124 19.0386 0.90625 18.7311 0.90625 18.3693V9.09876C0.90625 8.97289 0.915217 8.84703 0.93315 8.72116C0.951106 8.59529 0.981161 8.46894 1.02332 8.34209L3.40108 1.6693C3.55659 1.21394 3.82718 0.84796 4.21285 0.57136C4.59854 0.294782 5.0365 0.156494 5.52672 0.156494H18.4677C18.9579 0.156494 19.3959 0.294782 19.7816 0.57136C20.1673 0.84796 20.44 1.21394 20.5998 1.6693L22.9711 8.34156C23.0133 8.46687 23.0433 8.59277 23.0613 8.71926C23.0792 8.84575 23.0882 8.97225 23.0882 9.09876V18.3693C23.0882 18.7311 22.9609 19.0386 22.7063 19.2919C22.4517 19.5451 22.1425 19.6718 21.7788 19.6718C21.415 19.6718 21.1081 19.5451 20.8582 19.2919C20.6082 19.0386 20.4832 18.7311 20.4832 18.3693V17.059H3.51128ZM3.52795 6.84496H20.4665L18.8601 2.29106C18.8259 2.20559 18.7746 2.13935 18.7062 2.09233C18.6378 2.04533 18.5566 2.02183 18.4626 2.02183H5.53185C5.43783 2.02183 5.35663 2.04533 5.28825 2.09233C5.21987 2.13935 5.16858 2.20559 5.13438 2.29106L3.52795 6.84496ZM5.99962 13.6282C6.46895 13.6282 6.86793 13.464 7.19655 13.1354C7.5252 12.8069 7.68952 12.408 7.68952 11.9386C7.68952 11.4693 7.52525 11.0703 7.19672 10.7417C6.86818 10.4131 6.46925 10.2488 5.99992 10.2488C5.53061 10.2488 5.13163 10.413 4.80298 10.7416C4.47436 11.0701 4.31005 11.469 4.31005 11.9383C4.31005 12.4077 4.47432 12.8066 4.80285 13.1353C5.13138 13.4639 5.53031 13.6282 5.99962 13.6282ZM17.9945 13.6282C18.4638 13.6282 18.8628 13.464 19.1915 13.1354C19.5201 12.8069 19.6844 12.408 19.6844 11.9386C19.6844 11.4693 19.5201 11.0703 19.1916 10.7417C18.8631 10.4131 18.4641 10.2488 17.9948 10.2488C17.5255 10.2488 17.1265 10.413 16.7979 10.7416C16.4692 11.0701 16.3049 11.469 16.3049 11.9383C16.3049 12.4077 16.4692 12.8066 16.7977 13.1353C17.1263 13.4639 17.5252 13.6282 17.9945 13.6282Z" fill="#2D65F2"/>
</svg>
