<svg width="52" height="28" viewBox="0 0 52 28" fill="none" xmlns="http://www.w3.org/2000/svg">
<path d="M0 2.08C0 0.931247 0.931248 0 2.08 0H49.92C51.0688 0 52 0.931248 52 2.08V25.92C52 27.0688 51.0688 28 49.92 28H2.08C0.931249 28 0 27.0688 0 25.92V2.08Z" fill="#2D65F2"/>
<rect x="1" y="4" width="50" height="23" rx="2.08" fill="#F6F6F6"/>
<path d="M11.1454 9.1465H10.793V21.9629H11.1454V9.1465Z" fill="#2D65F2"/>
<path d="M12.579 9.1465H12.2266V21.9629H12.579V9.1465Z" fill="#2D65F2"/>
<path d="M4.9518 9.1465H3.89453V21.9629H4.9518V9.1465Z" fill="#2D65F2"/>
<path d="M9.35978 9.1465H7.59766V21.9629H9.35978V9.1465Z" fill="#2D65F2"/>
<path d="M24.8798 9.1465H24.5273V21.9629H24.8798V9.1465Z" fill="#2D65F2"/>
<path d="M26.3212 9.1465H25.9688V21.9629H26.3212V9.1465Z" fill="#2D65F2"/>
<path d="M23.0902 9.1465H21.3281V21.9629H23.0902V9.1465Z" fill="#2D65F2"/>
<path d="M6.39539 9.1465H6.04297V21.9629H6.39539V9.1465Z" fill="#2D65F2"/>
<path d="M14.8502 9.1465H13.793V21.9629H14.8502V9.1465Z" fill="#2D65F2"/>
<path d="M16.2938 9.1465H15.9414V21.9629H16.2938V9.1465Z" fill="#2D65F2"/>
<path d="M18.651 9.1465H17.5938V21.9629H18.651V9.1465Z" fill="#2D65F2"/>
<path d="M20.0985 9.1465H19.7461V21.9629H20.0985V9.1465Z" fill="#2D65F2"/>
<path d="M31.0555 9.1465H30.7031V21.9629H31.0555V9.1465Z" fill="#2D65F2"/>
<path d="M32.4852 9.1465H32.1328V21.9629H32.4852V9.1465Z" fill="#2D65F2"/>
<path d="M29.266 9.1465H27.5039V21.9629H29.266V9.1465Z" fill="#2D65F2"/>
<path d="M43.0082 9.1465H41.2461V21.9629H43.0082V9.1465Z" fill="#2D65F2"/>
<path d="M34.7643 9.1465H33.707V21.9629H34.7643V9.1465Z" fill="#2D65F2"/>
<path d="M36.2079 9.1465H35.8555V21.9629H36.2079V9.1465Z" fill="#2D65F2"/>
<path d="M38.5651 9.1465H37.5078V21.9629H38.5651V9.1465Z" fill="#2D65F2"/>
<path d="M45.4791 9.1465H44.4219V21.9629H45.4791V9.1465Z" fill="#2D65F2"/>
<path d="M48.1002 9.1465H47.043V21.9629H48.1002V9.1465Z" fill="#2D65F2"/>
<path d="M40.0126 9.1465H39.6602V21.9629H40.0126V9.1465Z" fill="#2D65F2"/>
</svg>
