<svg width="124" height="48" viewBox="0 0 124 48" fill="none" xmlns="http://www.w3.org/2000/svg">
<path d="M123.273 31.2872C123.273 31.2872 123.259 31.9059 123.183 32.7711C123.012 34.8466 122.516 38.3701 121.12 38.7694C121.12 38.7694 118.238 39.5083 117.664 39.1852C117.664 39.1852 117.536 29.3736 109.411 27.1516C104.6 25.8479 95.3599 26.121 94.5201 40.4285C94.5201 40.4285 40.1609 41.1132 36.5088 41.8471C36.5088 41.8471 35.0761 41.6407 35.2865 39.4084C35.2853 38.99 35.2612 38.572 35.2145 38.1562C34.9239 35.1835 33.3739 27.8598 25.3795 26.4658C25.3795 26.4658 13.9095 24.2669 11.9658 37.1381C11.877 37.7447 11.8042 38.3804 11.7622 39.0519C11.7203 39.7234 11.6904 40.4204 11.6879 41.157C11.6879 41.157 7.36337 42.3303 5.50901 40.9216C5.50901 40.9216 1.00051 41.1169 0.910358 40.8797L0.679192 39.6259L0.792175 39.4774C1.177 38.971 2.33057 37.3258 1.27987 37.2386C0.680684 34.7149 0.487516 32.1118 0.70763 29.5273C1.154 25.1579 3.23398 20.4213 9.96756 19.637C9.96756 19.637 26.1585 15.7399 30.5432 13.2875C38.5221 8.82256 51.9568 -0.373601 72.1805 0.0117424C80.9109 0.183028 95.2868 -0.530625 107.053 2.1719C107.433 2.66125 107.72 3.21667 107.898 3.81019C107.898 3.81019 116.292 12.052 116.763 12.4677C117.168 12.823 117.558 13.1529 117.911 13.4989C118.469 14.0041 118.985 14.5547 119.452 15.145C120.869 16.9436 121.448 19.0988 120.16 22.4108C120.193 22.4096 124.067 28.3228 123.273 31.2872Z" fill="#999999"/>
<path d="M14.4996 41.5751L11.6899 41.1639C11.6899 41.1639 10.1054 26.9604 22.8862 26.2536C27.751 25.9859 36.0878 28.9403 35.3913 41.203C35.3913 41.203 34.3808 43.3167 32.1714 43.7274C32.1714 43.7274 38.0967 32.5383 25.7369 28.7879C21.3828 27.4452 13.006 30.9513 14.4996 41.5751Z" fill="#303030"/>
<path d="M96.2466 40.2241L94.4536 40.3826C94.4536 40.3826 93.0128 27.6729 105.199 26.292C110.042 25.7438 118.272 29.5128 117.662 39.1961C117.662 39.1961 117.449 38.2342 116.006 38.7462C116.006 38.7462 115.835 31.9862 108.494 29.3283C104.209 27.7683 96.045 29.7083 96.2466 40.2241Z" fill="#303030"/>
<path d="M34.0332 38.2445C34.0859 32.8025 29.5746 28.3468 23.9571 28.2925C18.3396 28.2381 13.743 32.6057 13.6903 38.0477C13.6377 43.4897 18.1489 47.9454 23.7665 47.9997C29.384 48.0541 33.9806 43.6865 34.0332 38.2445Z" fill="#151515"/>
<path d="M30.8584 38.4343C30.8972 34.4305 27.6415 31.1529 23.5866 31.1136C19.5318 31.0744 16.2133 34.2884 16.1746 38.2923C16.1359 42.2961 19.3916 45.5737 23.4464 45.613C27.5012 45.6522 30.8197 42.4382 30.8584 38.4343Z" fill="#999999"/>
<path d="M28.6616 38.219C28.6438 39.2165 28.3312 40.1865 27.763 41.0065C27.1948 41.8266 26.3966 42.4602 25.4689 42.8273C24.5413 43.1944 23.5257 43.2786 22.5502 43.0694C21.5747 42.8602 20.683 42.3669 19.9875 41.6516C19.2919 40.9364 18.8237 40.0312 18.6418 39.0503C18.4599 38.0693 18.5724 37.0565 18.9653 36.1394C19.3581 35.2223 20.0136 34.442 20.8492 33.8969C21.6849 33.3519 22.6631 33.0664 23.6607 33.0764C25.0056 33.0959 26.2877 33.6485 27.2254 34.6128C28.1631 35.577 28.6796 36.8741 28.6616 38.219Z" fill="#151515"/>
<path d="M29.8699 39.3884L30.0062 37.4586L26.0361 37.3973C26.0143 37.3259 25.987 37.2564 25.9544 37.1893L28.9744 34.7649L27.7134 33.2862L24.8524 36.0084C24.7864 35.9726 24.7185 35.9405 24.6489 35.9122L25.1225 31.9786L23.1894 31.8535L23.0664 35.7557C22.9672 35.7771 22.8694 35.8042 22.7733 35.8368L20.2366 32.7838L18.8047 34.1061L21.4949 36.8055C21.3784 36.9762 21.2844 37.1613 21.2153 37.3562L17.3032 37.1595L17.3114 39.0951L21.2222 38.9513C21.243 39.0134 21.2673 39.0717 21.2917 39.1301L18.2958 41.809L19.6639 43.1801L22.3744 40.2895C22.4825 40.3472 22.5944 40.3975 22.7094 40.4401L22.0311 44.3405L23.9472 44.6106L24.3292 40.5027L24.5449 40.4318L24.5018 40.4667L26.904 43.6875L28.4177 42.477L25.7387 39.4774C25.841 39.3226 25.9256 39.1569 25.9907 38.9832L29.8699 39.3884Z" fill="#999999"/>
<path d="M116.334 38.0961C116.278 43.5393 111.682 47.8909 106.066 47.8495C100.449 47.808 95.9395 43.3395 95.9912 37.9002C96.0429 32.4608 100.643 28.1053 106.259 28.1468C111.876 28.1883 116.382 32.6568 116.334 38.0961Z" fill="#151515"/>
<path d="M113.179 38.2813C113.218 34.2774 109.963 30.9993 105.908 30.9594C101.853 30.9194 98.5344 34.1328 98.495 38.1367C98.4556 42.1406 101.711 45.4187 105.766 45.4586C109.82 45.4986 113.139 42.2852 113.179 38.2813Z" fill="#999999"/>
<path d="M110.994 38.0561C110.976 39.0527 110.664 40.0218 110.096 40.8412C109.529 41.6606 108.731 42.2937 107.805 42.6607C106.878 43.0276 105.863 43.112 104.888 42.9032C103.914 42.6944 103.023 42.2018 102.328 41.4874C101.632 40.7731 101.164 39.8689 100.982 38.8889C100.8 37.9089 100.912 36.8968 101.304 35.9804C101.696 35.0639 102.35 34.2839 103.185 33.7388C104.019 33.1937 104.997 32.9079 105.993 32.9172C107.338 32.9367 108.619 33.4888 109.557 34.4523C110.494 35.4157 111.011 36.7118 110.994 38.0561Z" fill="#151515"/>
<path d="M112.198 39.2292L112.334 37.2994L108.368 37.238C108.343 37.1649 108.314 37.0956 108.286 37.0263L111.302 34.6057L110.046 33.138L107.185 35.8601C107.12 35.8255 107.052 35.791 106.981 35.7603L107.451 31.8342L105.522 31.709L105.402 35.611C105.304 35.6302 105.207 35.6573 105.113 35.692L102.573 32.6391L101.141 33.9577L103.831 36.6571C103.714 36.8292 103.62 37.0155 103.551 37.2115L99.6392 37.0148L99.6474 38.9504L103.558 38.8066C103.579 38.8676 103.603 38.9273 103.631 38.9853L100.632 41.6644L102 43.0354L104.71 40.1449C104.82 40.2025 104.933 40.2528 105.049 40.2953L104.367 44.1958L106.283 44.4659L106.665 40.358C106.738 40.337 106.81 40.3121 106.881 40.2834L106.838 40.322L109.24 43.5428L110.754 42.3323L108.075 39.3327C108.178 39.1783 108.262 39.0125 108.327 38.8385L112.198 39.2292Z" fill="#999999"/>
<path d="M117.938 13.4977L117.912 13.4986C116.697 13.6766 112.233 12.7414 112.233 12.7414C109.749 12.755 106.788 12.8454 103.477 12.993C84.9711 13.8289 55.4888 16.5231 36.3618 18.3812C25.2974 19.4617 17.7056 20.2591 17.7056 20.2591C12.3065 24.4219 0.746845 29.5478 0.746845 29.5478L0.705505 29.5308C1.15188 25.1615 3.23186 20.4248 9.96544 19.6405C9.96544 19.6405 12.7831 18.9595 16.3859 17.9905C21.422 16.643 28.0138 14.7202 30.5523 13.2943C38.5312 8.82938 51.9659 -0.366765 72.1896 0.0185783C80.92 0.189864 95.2959 -0.5238 107.062 2.17872C107.442 2.66807 107.729 3.22351 107.907 3.81702C108.114 4.02408 115.249 11.0351 116.576 12.2856C116.668 12.3784 116.733 12.4353 116.764 12.4637C117.18 12.8112 117.57 13.1522 117.938 13.4977Z" fill="#999999"/>
<path opacity="0.5" d="M70.5693 19.2238C70.5624 20.0421 68.8391 20.6903 66.7213 20.6719C64.6034 20.6536 62.8941 19.9687 62.9009 19.1467C62.9077 18.3248 64.631 17.6803 66.7489 17.6986C68.8668 17.717 70.5761 18.4018 70.5693 19.2238Z" fill="#6F6464"/>
<path opacity="0.5" d="M100.882 16.7054C100.875 17.5237 99.1519 18.1719 97.034 18.1535C94.9162 18.1351 93.2068 17.4503 93.2173 16.6282C93.2278 15.8061 94.9475 15.1617 97.0653 15.1801C99.1832 15.1984 100.893 15.8833 100.882 16.7054Z" fill="#6F6464"/>
<path d="M120.187 22.4078C118.142 22.6421 111.553 16.6992 111.553 16.6992C109.026 13.6052 119.234 15.1139 119.234 15.1139L119.48 15.1456C120.897 16.9553 121.483 19.1028 120.187 22.4078Z" fill="white"/>
<path d="M17.7087 20.2578L17.5912 20.3842C17.5491 20.4354 17.5039 20.484 17.4559 20.5299C12.3431 25.9332 4.55707 25.6754 4.55707 25.6754C4.55956 24.8258 4.74798 23.9869 5.10911 23.2178C5.47024 22.4487 5.99533 21.768 6.64751 21.2234C7.4051 20.5771 8.27679 20.0781 9.21769 19.752C9.41841 19.6742 9.62679 19.6037 9.83914 19.5403C9.83914 19.5403 12.8013 18.965 16.4077 17.9922L16.4529 18.0127C16.4529 18.0127 20.2824 18.8824 17.7087 20.2578Z" fill="white"/>
<path opacity="0.5" d="M98.6853 26.83C97.4838 27.4739 96.2788 28.8248 95.2638 30.2131C94.2976 31.5579 93.4292 32.9703 92.6654 34.4395C92.6059 34.6342 92.5459 34.8141 92.4821 34.9904C91.1378 38.6969 88.4114 38.2345 88.4114 38.2345L41.5371 38.7365C41.0304 38.8663 40.5079 38.9242 39.9851 38.9084C37.3492 38.7943 37.7281 36.1116 37.7281 36.1116C36.4372 33.3163 35.9327 30.0665 35.8021 27.1175C35.6839 24.1882 35.8738 21.2545 36.3686 18.3649C40.0879 17.5433 56.6792 16.1819 72.4379 15.025C88.4068 13.8493 103.525 12.8789 103.525 12.8789C105.537 21.9105 98.6853 26.83 98.6853 26.83Z" stroke="#6F6464" stroke-width="0.5" stroke-miterlimit="10"/>
<path opacity="0.5" d="M72.336 15.167C72.336 15.167 69.9459 34.2212 71.7308 38.168" stroke="#6F6464" stroke-width="0.5" stroke-miterlimit="10"/>
<path d="M103.522 12.8808C103.521 12.9216 103.51 12.9614 103.489 12.9967C94.8536 13.3883 83.8268 14.1824 72.5751 15.1032C59.7185 16.1645 46.5758 17.3954 36.3742 18.385L36.3735 18.3665C36.3735 18.3665 35.9141 11.5097 38.3192 10.2812C38.3192 10.2812 54.6932 0.18859 75.1738 0.816188C81.8994 1.02417 101.056 0.974973 101.784 4.78292C101.777 4.78319 103.506 11.4452 103.522 12.8808Z" fill="#999999"/>
<path d="M39.3275 11.2038C40.5859 10.0952 43.6784 8.73784 45.2685 8.09084C45.3248 8.06677 45.3866 8.05836 45.4473 8.06648C45.508 8.07461 45.5654 8.09898 45.6134 8.13702C45.6615 8.17505 45.6983 8.22534 45.7201 8.28259C45.742 8.33983 45.7479 8.40191 45.7374 8.46226C45.5234 9.89149 44.9087 13.8081 44.5403 14.0585C44.5403 14.0585 40.5143 15.2948 38.9152 14.3875C38.9155 14.3949 38.4384 11.9879 39.3275 11.2038Z" fill="white"/>
<path d="M44.8251 11.9594C44.8251 11.9594 46.5204 14.9804 45.0369 16.3083C45.0369 16.3083 40.6219 17.0332 40.4595 14.0262C40.4595 14.0262 40.6754 11.3421 44.8251 11.9594Z" fill="#6F6464"/>
<path d="M77.6981 2.86612C77.2634 5.63971 75.9521 14.0681 75.9875 14.6294L96.3228 13.419C96.3228 13.419 100.18 8.0951 99.1872 4.54857C99.0676 4.1125 85.6236 1.88253 78.7348 1.96926C78.4841 1.97283 78.2427 2.06474 78.0531 2.22879C77.8634 2.39284 77.7377 2.61852 77.6981 2.86612Z" fill="white"/>
<path d="M47.8082 6.74693C50.7271 5.59948 63.2166 0.998302 71.5814 1.99736C71.6448 2.00723 71.7054 2.02985 71.7597 2.06385C71.814 2.09786 71.8609 2.14253 71.8974 2.19518C71.934 2.24782 71.9595 2.30734 71.9723 2.37012C71.9852 2.4329 71.9852 2.49764 71.9723 2.56041C71.5938 4.44728 70.2225 11.2455 69.3995 14.1296C69.3281 14.3841 69.1809 14.6108 68.9775 14.7796C68.7742 14.9484 68.5242 15.0513 68.261 15.0746L46.9465 17.0354L45.5728 13.6991L46.9679 7.65136C47.0311 7.44722 47.1395 7.25992 47.2849 7.10335C47.4304 6.94678 47.6092 6.82497 47.8082 6.74693Z" fill="white"/>
</svg>
