<svg width="32" height="30" viewBox="0 0 32 30" fill="none" xmlns="http://www.w3.org/2000/svg">
<path d="M2.85671 27.6363V28.8217C2.85671 29.149 2.74153 29.4272 2.51118 29.6564C2.28083 29.8855 2.00113 30 1.67207 30C1.34301 30 1.06539 29.8855 0.839223 29.6564C0.613075 29.4272 0.5 29.149 0.5 28.8217V20.4349C0.5 20.321 0.508112 20.2072 0.524336 20.0933C0.54058 19.9794 0.56777 19.8651 0.605907 19.7504L2.75701 13.7137C2.8977 13.3017 3.14249 12.9706 3.4914 12.7204C3.84032 12.4702 4.23653 12.3451 4.68002 12.3451H9.73077C9.65112 12.6142 9.69285 12.8799 9.69285 13.1652C9.65496 13.4429 9.63214 13.732 9.6244 14.0326H4.67999C4.59493 14.0326 4.52147 14.0539 4.45961 14.0964C4.39773 14.1389 4.35133 14.1988 4.32041 14.2762L2.87179 18.396H10.8228C12.0385 18.4616 12.4496 19.0463 13.1923 19.6154C13.7692 20.1923 14.3462 20.7693 15.1986 21.7304C14.9651 21.8511 14.7788 22.0239 14.6396 22.249C14.5004 22.4741 14.4308 22.7257 14.4308 23.004C14.4308 23.4286 14.5794 23.7895 14.8766 24.0868C15.1738 24.384 15.5347 24.5326 15.9593 24.5326C16.3839 24.5326 16.7448 24.384 17.0422 24.0868C17.3395 23.7895 17.4881 23.4286 17.4881 23.004C17.4881 22.8264 17.4533 22.6575 17.3837 22.4973C17.3141 22.3371 17.2132 22.1986 17.081 22.0819C17.1359 22.0896 17.1883 22.0935 17.2381 22.0935H17.4011C17.988 22.0935 18.5283 22.0393 19.022 21.9311C19.5385 21.9311 20.1154 21.9231 20.5674 21.9311V28.8217C20.5674 29.149 20.4523 29.4272 20.2219 29.6564C19.9916 29.8855 19.7119 30 19.3828 30C19.0537 30 18.7761 29.8855 18.55 29.6564C18.3238 29.4272 18.2107 29.149 18.2107 28.8217V27.6363H2.85671ZM5.10784 24.5326C5.53243 24.5326 5.89338 24.384 6.19067 24.0868C6.48799 23.7896 6.63665 23.4287 6.63665 23.0041C6.63665 22.5795 6.48804 22.2186 6.19082 21.9212C5.89361 21.6239 5.5327 21.4753 5.10811 21.4753C4.68354 21.4753 4.32259 21.6239 4.02528 21.9211C3.72798 22.2183 3.57933 22.5792 3.57933 23.0038C3.57933 23.4284 3.72794 23.7893 4.02516 24.0866C4.32237 24.384 4.68327 24.5326 5.10784 24.5326Z" fill="#2D65F2"/>
<path d="M28.5588 3.04122C26.5977 1.08003 23.9902 0 21.2167 0C18.4432 0 15.8357 1.08003 13.8745 3.04122C11.9134 5.00238 10.8334 7.60985 10.8334 10.3833C10.8334 13.1568 11.9134 15.7643 13.8745 17.7254C15.8357 19.6866 18.4432 20.7667 21.2167 20.7667C23.9902 20.7667 26.5976 19.6866 28.5588 17.7254C30.52 15.7643 31.6 13.1568 31.6 10.3833C31.6 7.60985 30.52 5.00238 28.5588 3.04122ZM21.2167 2.32258C25.3044 2.32258 28.6909 5.38116 29.2086 9.32991L24.212 8.84328C23.6517 7.7581 22.5198 7.01394 21.2167 7.01394C19.9135 7.01394 18.7816 7.7581 18.2214 8.84328L13.2248 9.32991C13.7425 5.38116 17.129 2.32258 21.2167 2.32258ZM13.2219 11.4125L18.1593 11.7972C18.4712 12.4685 18.9976 13.0207 19.6503 13.3651L19.9738 18.3482C16.4514 17.8007 13.6766 14.9643 13.2219 11.4125ZM21.2167 11.4301C20.6394 11.4301 20.1699 10.9605 20.1699 10.3833C20.1699 9.80613 20.6395 9.33652 21.2167 9.33652C21.7939 9.33652 22.2635 9.80617 22.2635 10.3833C22.2635 10.9605 21.7939 11.4301 21.2167 11.4301ZM22.4596 18.3482L22.7832 13.3651C23.4358 13.0208 23.9622 12.4685 24.2742 11.7972L29.2116 11.4125C28.7568 14.9643 25.9819 17.8007 22.4596 18.3482Z" fill="#2D65F2"/>
</svg>
