<svg width="77" height="80" viewBox="0 0 77 80" fill="none" xmlns="http://www.w3.org/2000/svg">
<path d="M8.16827 77.4554C8.13426 77.4565 8.10038 77.4508 8.06863 77.4386C8.03689 77.4263 8.00793 77.4079 7.98348 77.3842C7.95903 77.3605 7.9396 77.3322 7.92633 77.3009C7.91306 77.2695 7.90623 77.2359 7.90625 77.2018V2.82451C7.90625 2.75502 7.93386 2.68838 7.98299 2.63924C8.03213 2.59011 8.09878 2.5625 8.16827 2.5625C8.23776 2.5625 8.3044 2.59011 8.35354 2.63924C8.40267 2.68838 8.43028 2.75502 8.43028 2.82451V77.2018C8.4303 77.2359 8.42347 77.2695 8.4102 77.3009C8.39693 77.3322 8.37749 77.3605 8.35305 77.3842C8.3286 77.4079 8.29964 77.4263 8.26789 77.4386C8.23615 77.4508 8.20227 77.4565 8.16827 77.4554Z" fill="#DDDDDD"/>
<path d="M20.3053 77.4554C20.2713 77.4565 20.2374 77.4508 20.2057 77.4386C20.1739 77.4263 20.145 77.4078 20.1205 77.3842C20.0961 77.3605 20.0766 77.3322 20.0634 77.3008C20.0501 77.2695 20.0433 77.2358 20.0433 77.2018V2.8245C20.0364 2.78675 20.0379 2.74794 20.0477 2.71083C20.0575 2.67372 20.0753 2.63922 20.0999 2.60975C20.1245 2.58029 20.1553 2.55659 20.19 2.54032C20.2248 2.52406 20.2627 2.51562 20.3011 2.51562C20.3395 2.51562 20.3774 2.52406 20.4121 2.54032C20.4469 2.55659 20.4776 2.58029 20.5022 2.60975C20.5268 2.63922 20.5446 2.67372 20.5544 2.71083C20.5642 2.74794 20.5657 2.78675 20.5589 2.8245V77.2018C20.56 77.2354 20.5543 77.2689 20.542 77.3002C20.5296 77.3315 20.511 77.36 20.4872 77.3837C20.4634 77.4075 20.435 77.4262 20.4037 77.4385C20.3724 77.4508 20.3389 77.4566 20.3053 77.4554Z" fill="#DDDDDD"/>
<path d="M32.4358 77.4554C32.4018 77.4565 32.368 77.4508 32.3362 77.4386C32.3045 77.4263 32.2755 77.4079 32.2511 77.3842C32.2266 77.3605 32.2072 77.3322 32.1939 77.3009C32.1806 77.2695 32.1738 77.2359 32.1738 77.2018V2.82451C32.1738 2.75502 32.2014 2.68838 32.2506 2.63924C32.2997 2.59011 32.3663 2.5625 32.4358 2.5625C32.5053 2.5625 32.572 2.59011 32.6211 2.63924C32.6703 2.68838 32.6978 2.75502 32.6978 2.82451V77.2018C32.6979 77.2359 32.691 77.2695 32.6778 77.3009C32.6645 77.3322 32.6451 77.3605 32.6206 77.3842C32.5962 77.4079 32.5672 77.4263 32.5355 77.4386C32.5037 77.4508 32.4698 77.4565 32.4358 77.4554Z" fill="#DDDDDD"/>
<path d="M44.5623 77.4554C44.5287 77.4566 44.4952 77.4508 44.4639 77.4385C44.4326 77.4262 44.4042 77.4075 44.3804 77.3838C44.3566 77.36 44.338 77.3315 44.3256 77.3002C44.3133 77.269 44.3076 77.2355 44.3087 77.2018V2.82451C44.3076 2.79051 44.3133 2.75663 44.3256 2.72488C44.3378 2.69314 44.3563 2.66418 44.3799 2.63973C44.4036 2.61528 44.4319 2.59584 44.4633 2.58258C44.4946 2.56931 44.5283 2.56248 44.5623 2.5625C44.6318 2.5625 44.6984 2.59011 44.7476 2.63924C44.7967 2.68838 44.8243 2.75502 44.8243 2.82451V77.2018C44.8243 77.2359 44.8175 77.2695 44.8042 77.3009C44.791 77.3322 44.7715 77.3605 44.7471 77.3842C44.7226 77.4078 44.6937 77.4263 44.6619 77.4386C44.6302 77.4508 44.5963 77.4565 44.5623 77.4554Z" fill="#DDDDDD"/>
<path d="M56.7015 77.4554C56.6675 77.4565 56.6336 77.4508 56.6018 77.4386C56.5701 77.4263 56.5411 77.4079 56.5167 77.3842C56.4922 77.3605 56.4728 77.3322 56.4595 77.3009C56.4463 77.2695 56.4394 77.2359 56.4395 77.2018V2.82451C56.4395 2.75502 56.4671 2.68838 56.5162 2.63924C56.5653 2.59011 56.632 2.5625 56.7015 2.5625C56.771 2.5625 56.8376 2.59011 56.8867 2.63924C56.9359 2.68838 56.9635 2.75502 56.9635 2.82451V77.2018C56.9635 77.2359 56.9567 77.2695 56.9434 77.3009C56.9301 77.3322 56.9107 77.3605 56.8862 77.3842C56.8618 77.4079 56.8329 77.4263 56.8011 77.4386C56.7694 77.4508 56.7355 77.4565 56.7015 77.4554Z" fill="#DDDDDD"/>
<path d="M68.8304 77.4554C68.7964 77.4565 68.7625 77.4508 68.7307 77.4386C68.699 77.4263 68.67 77.4079 68.6456 77.3842C68.6211 77.3605 68.6017 77.3322 68.5884 77.3009C68.5752 77.2695 68.5683 77.2359 68.5684 77.2018V2.82451C68.5684 2.75502 68.596 2.68838 68.6451 2.63924C68.6942 2.59011 68.7609 2.5625 68.8304 2.5625C68.8999 2.5625 68.9665 2.59011 69.0156 2.63924C69.0648 2.68838 69.0924 2.75502 69.0924 2.82451V77.2018C69.0924 77.2359 69.0856 77.2695 69.0723 77.3009C69.059 77.3322 69.0396 77.3605 69.0152 77.3842C68.9907 77.4079 68.9617 77.4263 68.93 77.4386C68.8983 77.4508 68.8644 77.4565 68.8304 77.4554Z" fill="#DDDDDD"/>
<path d="M72.5651 9.92196H4.4417C4.37221 9.92196 4.30557 9.89436 4.25643 9.84522C4.20729 9.79608 4.17969 9.72944 4.17969 9.65995C4.17967 9.62593 4.18649 9.59225 4.19976 9.56092C4.21303 9.5296 4.23247 9.50126 4.25691 9.4776C4.28136 9.45394 4.31032 9.43544 4.34206 9.42321C4.37381 9.41098 4.4077 9.40526 4.4417 9.40639H72.5651C72.5991 9.40526 72.633 9.41098 72.6647 9.42321C72.6964 9.43544 72.7254 9.45394 72.7499 9.4776C72.7743 9.50126 72.7938 9.5296 72.807 9.56092C72.8203 9.59225 72.8271 9.62593 72.8271 9.65995C72.8271 9.72944 72.7995 9.79608 72.7504 9.84522C72.7012 9.89436 72.6346 9.92196 72.5651 9.92196Z" fill="#DDDDDD"/>
<path d="M72.5651 22.0592H4.4417C4.37221 22.0592 4.30557 22.0316 4.25643 21.9824C4.20729 21.9333 4.17969 21.8667 4.17969 21.7972C4.17969 21.7277 4.20729 21.661 4.25643 21.6119C4.30557 21.5628 4.37221 21.5352 4.4417 21.5352H72.5651C72.6346 21.5352 72.7012 21.5628 72.7504 21.6119C72.7995 21.661 72.8271 21.7277 72.8271 21.7972C72.8271 21.8667 72.7995 21.9333 72.7504 21.9824C72.7012 22.0316 72.6346 22.0592 72.5651 22.0592Z" fill="#DDDDDD"/>
<path d="M72.5651 34.1876H4.4417C4.37221 34.1876 4.30557 34.16 4.25643 34.1108C4.20729 34.0617 4.17969 33.9951 4.17969 33.9256C4.17967 33.8916 4.18649 33.8579 4.19976 33.8265C4.21303 33.7952 4.23247 33.7669 4.25691 33.7432C4.28136 33.7196 4.31032 33.7011 4.34206 33.6888C4.37381 33.6766 4.4077 33.6709 4.4417 33.672H72.5651C72.5991 33.6709 72.633 33.6766 72.6647 33.6888C72.6964 33.7011 72.7254 33.7196 72.7499 33.7432C72.7743 33.7669 72.7938 33.7952 72.807 33.8265C72.8203 33.8579 72.8271 33.8916 72.8271 33.9256C72.8271 33.9951 72.7995 34.0617 72.7504 34.1108C72.7012 34.16 72.6346 34.1876 72.5651 34.1876Z" fill="#DDDDDD"/>
<path d="M72.5651 46.3248H4.4417C4.37221 46.3248 4.30557 46.2972 4.25643 46.2481C4.20729 46.1989 4.17969 46.1323 4.17969 46.0628C4.17969 45.9933 4.20729 45.9267 4.25643 45.8775C4.30557 45.8284 4.37221 45.8008 4.4417 45.8008H72.5651C72.6346 45.8008 72.7012 45.8284 72.7504 45.8775C72.7995 45.9267 72.8271 45.9933 72.8271 46.0628C72.8271 46.1323 72.7995 46.1989 72.7504 46.2481C72.7012 46.2972 72.6346 46.3248 72.5651 46.3248Z" fill="#DDDDDD"/>
<path d="M72.5651 58.4498H4.4417C4.37221 58.4498 4.30557 58.4222 4.25643 58.3731C4.20729 58.3239 4.17969 58.2573 4.17969 58.1878C4.17969 58.1183 4.20729 58.0517 4.25643 58.0025C4.30557 57.9534 4.37221 57.9258 4.4417 57.9258H72.5651C72.6346 57.9258 72.7012 57.9534 72.7504 58.0025C72.7995 58.0517 72.8271 58.1183 72.8271 58.1878C72.8271 58.2573 72.7995 58.3239 72.7504 58.3731C72.7012 58.4222 72.6346 58.4498 72.5651 58.4498Z" fill="#DDDDDD"/>
<path d="M72.5651 70.5904H4.4417C4.37221 70.5904 4.30557 70.5628 4.25643 70.5137C4.20729 70.4645 4.17969 70.3979 4.17969 70.3284C4.17969 70.2589 4.20729 70.1923 4.25643 70.1431C4.30557 70.094 4.37221 70.0664 4.4417 70.0664H72.5651C72.6346 70.0664 72.7012 70.094 72.7504 70.1431C72.7995 70.1923 72.8271 70.2589 72.8271 70.3284C72.8271 70.3979 72.7995 70.4645 72.7504 70.5137C72.7012 70.5628 72.6346 70.5904 72.5651 70.5904Z" fill="#DDDDDD"/>
<path d="M50.8267 18.163C49.9573 16.7749 48.8601 15.5434 47.5812 14.5202C45.0455 12.4495 40.8787 10.9873 38.1064 12.4156C35.3257 10.9873 31.1927 12.4156 28.6232 14.5202C27.3443 15.5434 26.2471 16.7749 25.3777 18.163C23.6344 20.9158 22.6597 24.0851 22.5547 27.3418C22.5547 29.0322 25.8341 36.7404 26.5187 37.4842C27.7696 38.7773 29.553 40.5945 31.3702 40.9579H31.4378L38.1064 35.3458L44.7413 40.9495H44.8173C46.6261 40.5861 48.4095 38.7689 49.6604 37.4757C50.3534 36.7573 53.6582 29.0238 53.6244 27.3334C53.5296 24.0812 52.5634 20.9142 50.8267 18.163Z" fill="#151515"/>
<path d="M44.8091 44.7301L38.5038 42.0508L32.1902 44.7301C32.1902 44.7301 32.9678 54.323 29.8574 56.5628C29.8574 56.5628 32.1057 63.7385 38.5038 63.7385C44.902 63.7385 47.1418 56.5628 47.1418 56.5628C44.0315 54.323 44.8091 44.7301 44.8091 44.7301Z" fill="#FFC3B1"/>
<path d="M35.7303 55.9458C38.8237 53.6976 42.2045 52.4298 44.7993 49.6576C44.6911 48.0168 44.6911 46.3708 44.7993 44.7301L38.4941 42.0508L32.1804 44.7301C32.1804 44.7301 32.958 54.323 29.8477 56.5628C30.6451 58.0831 31.8511 59.3505 33.3299 60.2225C33.3357 59.3648 33.5589 58.5226 33.9787 57.7747C34.3985 57.0268 35.0011 56.3975 35.7303 55.9458Z" fill="#F09982"/>
<path d="M27.7106 34.5887C27.7106 34.5887 26.3668 33.3209 25.5385 33.9548C25.2881 34.1749 25.117 34.471 25.0513 34.7978C24.9856 35.1246 25.0291 35.4639 25.175 35.7636C26.2315 38.4428 26.5105 40.4375 27.4993 40.8347C28.2938 41.1644 29.4264 40.0994 29.4264 40.0994L27.7106 34.5887Z" fill="#FFC3B1"/>
<path d="M28.3944 38.9048C28.2423 35 25.918 35 25.918 35C26.4031 35.6275 26.6966 36.3818 26.7632 37.1722C26.8521 37.6289 26.8973 38.093 26.8984 38.5583C26.7294 40.2909 28.4451 40.4008 28.3944 38.9048Z" fill="#F09982"/>
<path d="M49.2978 34.5887C49.2978 34.5887 50.6332 33.3209 51.47 33.9548C51.7168 34.1773 51.8854 34.4733 51.9509 34.7991C52.0163 35.1248 51.9751 35.463 51.8334 35.7636C50.7684 38.4428 50.4895 40.4375 49.5006 40.8347C48.7062 41.1644 47.582 40.0994 47.582 40.0994L49.2978 34.5887Z" fill="#FFC3B1"/>
<path d="M48.6128 38.9048C48.765 35 51.0808 35 51.0808 35C50.5957 35.6275 50.3022 36.3818 50.2356 37.1722C50.1496 37.6291 50.1072 38.0933 50.1088 38.5583C50.2779 40.2909 48.5537 40.4008 48.6128 38.9048Z" fill="#F09982"/>
<path d="M38.5031 16.93C38.5031 16.93 31.4964 15.9749 25.9688 20.1249C25.9688 20.1249 26.4843 37.7557 28.217 42.1C29.9497 46.4443 36.3394 50 38.5031 50C40.6668 50 47.0566 46.4189 48.7892 42.1C50.5219 37.781 51.029 20.1249 51.029 20.1249C45.5014 15.9411 38.5031 16.93 38.5031 16.93Z" fill="#FFC3B1"/>
<path d="M38.5025 14.6293C21.666 14.5448 24.6496 26.9101 24.6496 26.9101C33.4904 26.6818 27.3887 18.5941 38.7989 22.8201C47.2509 28.3138 43.5145 26.6818 52.3469 26.9101C52.3469 26.9101 55.3305 14.5448 38.5025 14.6293Z" fill="#151515"/>
<path d="M60.2083 56.9546C57.005 54.1909 46.3385 55.6108 46.3385 55.6108C46.0812 56.8815 45.4988 58.0639 44.6481 59.0423C43.8812 59.907 42.9397 60.5993 41.8856 61.0734C40.8315 61.5475 39.6889 61.7926 38.5331 61.7926C37.3772 61.7926 36.2346 61.5475 35.1805 61.0734C34.1264 60.5993 33.1849 59.907 32.418 59.0423C31.567 58.0641 30.9845 56.8817 30.7276 55.6108C30.7276 55.6108 20.0527 54.1909 16.8494 56.9546C13.646 59.7184 11.626 64.9502 11.4062 69.1424H65.7106C65.4401 64.9502 63.4032 59.7184 60.2083 56.9546Z" fill="#303030"/>
<path d="M4.98438 13.8088H6.58181V6.51475H13.8675V4.92578H4.98438V13.8088Z" fill="#B8CBFC"/>
<path d="M63.1406 4.92578V6.51475H70.4263V13.8088H72.0153V4.92578H63.1406Z" fill="#B8CBFC"/>
<path d="M70.4263 73.4731H63.1406V75.0621H72.0153V66.1875H70.4263V73.4731Z" fill="#B8CBFC"/>
<path d="M6.57986 66.1875H4.98242V75.0621H13.8655V73.4731H6.57986V66.1875Z" fill="#B8CBFC"/>
<path d="M0.275391 10.1255H2.09258V1.81717H10.4009V0H0.275391V10.1255Z" fill="#B8CBFC"/>
<path d="M66.5977 0V1.81717H74.9145V10.1255H76.7232V0H66.5977Z" fill="#B8CBFC"/>
<path d="M74.9145 78.1833H66.5977V80.0005H76.7232V69.875H74.9145V78.1833Z" fill="#B8CBFC"/>
<path d="M2.09258 69.875H0.275391V80.0005H10.4009V78.1833H2.09258V69.875Z" fill="#B8CBFC"/>
<path d="M60.2338 6.0758H58.2645V5.33203H60.2507L60.2338 6.0758ZM55.9401 6.0758H53.6412V5.33203H55.9401V6.0758ZM51.3338 6.0758H49.0348V5.33203H51.3338V6.0758ZM46.7274 6.0758H44.42V5.33203H46.7274V6.0758ZM42.1211 6.0758H39.8137V5.33203H42.1211V6.0758ZM37.5063 6.0758H35.2073V5.33203H37.5063V6.0758ZM32.8999 6.0758H30.5925V5.33203H32.9084L32.8999 6.0758ZM28.2935 6.0758H25.9861V5.33203H28.2935V6.0758ZM23.6872 6.0758H21.3798V5.33203H23.6872V6.0758ZM19.0724 6.0758H16.7734V5.33203H19.0724V6.0758Z" fill="#B8CBFC"/>
<path d="M60.2338 74.6728H58.2645V73.9375H60.2507L60.2338 74.6728ZM55.9401 74.6728H53.6412V73.9375H55.9401V74.6728ZM51.3338 74.6728H49.0348V73.9375H51.3338V74.6728ZM46.7274 74.6728H44.42V73.9375H46.7274V74.6728ZM42.1211 74.6728H39.8137V73.9375H42.1211V74.6728ZM37.5063 74.6728H35.2073V73.9375H37.5063V74.6728ZM32.8999 74.6728H30.5925V73.9375H32.9084L32.8999 74.6728ZM28.2935 74.6728H25.9861V73.9375H28.2935V74.6728ZM23.6872 74.6728H21.3798V73.9375H23.6872V74.6728ZM19.0724 74.6728H16.7734V73.9375H19.0724V74.6728Z" fill="#B8CBFC"/>
<path d="M70.832 61.7217V59.7355H71.5674V61.7217H70.832ZM70.832 57.4366V55.1292H71.5674V57.4366H70.832ZM70.832 52.8303V50.5229H71.5674V52.8303H70.832ZM70.832 48.2155V45.9166H71.5674V48.1986L70.832 48.2155ZM70.832 43.6092V41.3018H71.5674V43.6092H70.832ZM70.832 39.0028V36.6955H71.5674V39.0028H70.832ZM70.832 34.3965V32.0891H71.5674V34.3965H70.832ZM70.832 29.7817V27.4828H71.5674V29.7817H70.832ZM70.832 25.1754V22.8427H71.5674V25.1501L70.832 25.1754ZM70.832 20.5691V18.2617H71.5674V20.5691H70.832Z" fill="#B8CBFC"/>
<path d="M5.33984 61.7217V59.7355H6.08363V61.7217H5.33984ZM5.33984 57.4366V55.1292H6.08363V57.4366H5.33984ZM5.33984 52.8303V50.5229H6.08363V52.8303H5.33984ZM5.33984 48.2155V45.9166H6.08363V48.1986L5.33984 48.2155ZM5.33984 43.6092V41.3018H6.08363V43.6092H5.33984ZM5.33984 39.0028V36.6955H6.08363V39.0028H5.33984ZM5.33984 34.3965V32.0891H6.08363V34.3965H5.33984ZM5.33984 29.7817V27.4828H6.08363V29.7817H5.33984ZM5.33984 25.1754V22.8427H6.08363V25.1501L5.33984 25.1754ZM5.33984 20.5691V18.2617H6.08363V20.5691H5.33984Z" fill="#B8CBFC"/>
</svg>
