<svg width="109" height="20" viewBox="0 0 109 20" fill="none" xmlns="http://www.w3.org/2000/svg">
<path d="M26.9902 2.6792C27.2251 2.6792 27.343 2.79708 27.343 3.03203V4.54804C27.343 4.78381 27.2251 4.90087 26.9902 4.90087H19.8256V9.01282H26.2631C26.498 9.01282 26.6159 9.1307 26.6159 9.36565V10.819C26.6159 11.068 26.498 11.1924 26.2631 11.1924H19.8256V16.8418C19.8256 17.0908 19.7011 17.2153 19.4521 17.2153H17.5833C17.3475 17.2153 17.2305 17.0908 17.2305 16.8418V3.03203C17.2305 2.79708 17.3484 2.6792 17.5833 2.6792H26.9902Z" fill="white"/>
<path d="M29.9398 17.2161C29.6909 17.2161 29.5664 17.0916 29.5664 16.8427V3.03203C29.5664 2.79708 29.6909 2.6792 29.9398 2.6792H31.6636C31.9126 2.6792 32.037 2.79708 32.037 3.03203V16.8418C32.037 17.0908 31.9126 17.2153 31.6636 17.2153H29.9398V17.2161Z" fill="white"/>
<path d="M37.4985 12.5848V14.0802C37.4985 14.593 37.5991 14.9491 37.7994 15.1494C37.9997 15.3506 38.3567 15.4503 38.8686 15.4503H41.0697C41.8033 15.4503 42.1702 15.0901 42.1702 14.3704V13.997C42.1702 13.748 42.2947 13.6235 42.5436 13.6235H44.3086C44.5435 13.6235 44.6614 13.748 44.6614 13.997V14.4124C44.6614 15.4231 44.4158 16.1601 43.9244 16.6242C43.4331 17.0883 42.6335 17.32 41.5255 17.32H38.2858C37.1778 17.32 36.3576 17.0537 35.825 16.5204C35.2917 15.9878 35.0254 15.1676 35.0254 14.0596V9.65749C35.0254 8.55036 35.2917 7.73342 35.825 7.20665C36.3576 6.6807 37.1778 6.41772 38.2858 6.41772H41.5049C42.612 6.41772 43.429 6.6807 43.9558 7.20665C44.4817 7.73259 44.7447 8.54954 44.7447 9.65749V12.2328C44.7447 12.4686 44.6202 12.5856 44.3713 12.5856H37.4985V12.5848ZM38.8694 8.28657C38.3575 8.28657 38.0005 8.38384 37.8002 8.57757C37.5991 8.7713 37.4993 9.13154 37.4993 9.65749V10.7168H42.2757V9.65749C42.2757 9.13154 42.1784 8.7713 41.9847 8.57757C41.791 8.38384 41.4307 8.28657 40.9048 8.28657H38.8694Z" fill="white"/>
<path d="M49.854 12.5848V14.0802C49.854 14.593 49.9545 14.9491 50.1549 15.1494C50.3552 15.3506 50.7121 15.4503 51.2241 15.4503H53.4251C54.1588 15.4503 54.5257 15.0901 54.5257 14.3704V13.997C54.5257 13.748 54.6501 13.6235 54.8991 13.6235H56.6641C56.899 13.6235 57.0169 13.748 57.0169 13.997V14.4124C57.0169 15.4231 56.7712 16.1601 56.2799 16.6242C55.7886 17.0883 54.9889 17.32 53.881 17.32H50.6412C49.5333 17.32 48.713 17.0537 48.1805 16.5204C47.6471 15.9878 47.3809 15.1676 47.3809 14.0596V9.65749C47.3809 8.55036 47.6471 7.73342 48.1805 7.20665C48.713 6.6807 49.5333 6.41772 50.6412 6.41772H53.8604C54.9675 6.41772 55.7845 6.6807 56.3112 7.20665C56.8372 7.73259 57.1002 8.54954 57.1002 9.65749V12.2328C57.1002 12.4686 56.9757 12.5856 56.7267 12.5856H49.854V12.5848ZM51.2241 8.28657C50.7121 8.28657 50.3552 8.38384 50.1549 8.57757C49.9537 8.7713 49.854 9.13154 49.854 9.65749V10.7168H54.6304V9.65749C54.6304 9.13154 54.5331 8.7713 54.3393 8.57757C54.1456 8.38384 53.7854 8.28657 53.2594 8.28657H51.2241Z" fill="white"/>
<path d="M62.9984 8.53545V13.7067C62.9984 14.2186 63.099 14.5756 63.2993 14.7759C63.4996 14.9771 63.8566 15.0768 64.3685 15.0768H65.6355C65.8845 15.0768 66.009 15.2013 66.009 15.4503V16.8418C66.009 17.0907 65.8845 17.2152 65.6355 17.2152H63.7667C62.6587 17.2152 61.8426 16.9489 61.3167 16.4156C60.7907 15.883 60.5277 15.0628 60.5277 13.9548V8.53463H58.804C58.5682 8.53463 58.4512 8.41757 58.4512 8.1818V6.87353C58.4512 6.63858 58.5691 6.5207 58.804 6.5207H60.5277V4.81755C60.5277 4.58261 60.6456 4.46472 60.8806 4.46472H62.6249C62.8739 4.46472 62.9984 4.58261 62.9984 4.81755V6.5207H65.6355C65.8845 6.5207 66.009 6.63858 66.009 6.87353V8.1818C66.009 8.41757 65.8845 8.53463 65.6355 8.53463H62.9984V8.53545Z" fill="white"/>
<path d="M68.8539 17.2161C68.6049 17.2161 68.4805 17.0916 68.4805 16.8427V3.03203C68.4805 2.79708 68.6049 2.6792 68.8539 2.6792H70.5777C70.8266 2.6792 70.9511 2.79708 70.9511 3.03203V7.68393H71.0756C71.2141 7.36573 71.4869 7.07473 71.8958 6.81176C72.3039 6.54878 72.8546 6.41688 73.547 6.41688H74.8965C76.0036 6.41688 76.8206 6.67986 77.3465 7.2058C77.8725 7.73175 78.1355 8.5487 78.1355 9.65665V13.9557C78.1355 15.0637 77.8725 15.8839 77.3465 16.4165C76.8206 16.9498 76.0036 17.2161 74.8965 17.2161H68.8539ZM74.2947 15.1807C74.8207 15.1807 75.1809 15.0802 75.3747 14.8798C75.5684 14.6795 75.6657 14.3226 75.6657 13.8106V9.80256C75.6657 9.27661 75.5684 8.91637 75.3747 8.72264C75.1809 8.52891 74.8207 8.43164 74.2947 8.43164H72.322C71.8101 8.43164 71.4531 8.52891 71.2528 8.72264C71.0517 8.91637 70.9519 9.27661 70.9519 9.80256V15.1807H74.2947Z" fill="white"/>
<path d="M81.5023 17.2161C81.2534 17.2161 81.1289 17.0916 81.1289 16.8427V3.03203C81.1289 2.79708 81.2534 2.6792 81.5023 2.6792H83.2261C83.4751 2.6792 83.5995 2.79708 83.5995 3.03203V16.8418C83.5995 17.0908 83.4751 17.2153 83.2261 17.2153H81.5023V17.2161Z" fill="white"/>
<path d="M89.8502 17.32C88.7423 17.32 87.922 17.0537 87.3895 16.5204C86.8561 15.9878 86.5898 15.1676 86.5898 14.0596V9.65749C86.5898 8.55036 86.8561 7.73342 87.3895 7.20665C87.922 6.6807 88.7423 6.41772 89.8502 6.41772H93.4016C94.5087 6.41772 95.3257 6.6807 95.8524 7.20665C96.3784 7.73259 96.6414 8.54954 96.6414 9.65749V14.0596C96.6414 15.1676 96.3784 15.9878 95.8524 16.5204C95.3265 17.0537 94.5095 17.32 93.4016 17.32H89.8502ZM92.799 15.2434C93.3109 15.2434 93.6679 15.1428 93.8682 14.9425C94.0685 14.7422 94.1691 14.3786 94.1691 13.8519V9.86441C94.1691 9.33846 94.0718 8.97821 93.8781 8.78449C93.6844 8.59076 93.3241 8.49348 92.7982 8.49348H90.4306C89.9186 8.49348 89.5617 8.59076 89.3614 8.78449C89.1602 8.97821 89.0605 9.33846 89.0605 9.86441V13.8519C89.0605 14.3778 89.161 14.7414 89.3614 14.9425C89.5617 15.1437 89.9186 15.2434 90.4306 15.2434H92.799Z" fill="white"/>
<path d="M98.4886 17.2162C98.3641 17.2162 98.2669 17.189 98.1976 17.1329C98.1284 17.0777 98.0938 17.0084 98.0938 16.9252C98.0938 16.8287 98.121 16.7454 98.177 16.6762L101.604 11.6302L98.5101 7.04099C98.4548 6.97174 98.4268 6.88848 98.4268 6.79203C98.4268 6.70877 98.4581 6.64364 98.52 6.59501C98.5826 6.54637 98.6683 6.52246 98.7796 6.52246H100.545C100.683 6.52246 100.794 6.54307 100.877 6.58511C100.96 6.62633 101.036 6.70299 101.105 6.81346L101.915 8.03848L103.015 9.74162H103.16L104.261 8.03848L105.07 6.81346C105.14 6.70299 105.215 6.62633 105.299 6.58511C105.382 6.5439 105.492 6.52246 105.631 6.52246H107.417C107.637 6.52246 107.749 6.61232 107.749 6.79203C107.749 6.88931 107.721 6.97256 107.665 7.04099L104.572 11.6302L107.977 16.6762C108.032 16.7454 108.06 16.8287 108.06 16.9252C108.06 17.0084 108.029 17.0777 107.967 17.1329C107.905 17.1881 107.811 17.2162 107.687 17.2162H105.943C105.804 17.2162 105.694 17.1923 105.61 17.1436C105.527 17.095 105.451 17.0158 105.382 16.9046L104.343 15.3473L103.159 13.5197H103.014L101.831 15.3473L100.793 16.9046C100.723 17.0158 100.648 17.095 100.564 17.1436C100.481 17.1923 100.371 17.2162 100.232 17.2162H98.4886Z" fill="white"/>
<path d="M13.1383 0.833436V5.22155C13.1383 5.68154 12.7657 6.05499 12.3049 6.05499H9.85489C8.99672 6.05499 8.1707 6.35918 7.51945 6.9082C7.44114 6.97333 7.3653 7.0434 7.29275 7.11595L7.12458 7.28412C7.071 7.3377 7.01989 7.39293 6.97042 7.44899C6.3876 8.10848 6.06362 8.96088 6.06362 9.84625V12.2963C6.06362 12.7563 5.69101 13.1297 5.23018 13.1297H0.842072C0.381251 13.1297 0.0078125 12.7563 0.0078125 12.2963V7.90816C0.0078125 7.44817 0.381251 7.07473 0.842072 7.07473H3.45944C4.42065 7.07473 5.34147 6.69305 6.02075 6.01377C6.36039 5.67413 6.62666 5.27348 6.8072 4.83822C6.98774 4.40295 7.08254 3.93141 7.08254 3.4508V0.833436C7.08254 0.373439 7.45598 1.36223e-06 7.9168 1.36223e-06H12.3049C12.7657 -0.000823006 13.1383 0.372614 13.1383 0.833436Z" fill="white"/>
<path d="M13.1386 7.50756V13.1306H7.51891C7.21636 13.1306 6.9707 12.8849 6.9707 12.5824V9.38959C6.99708 8.79109 7.23945 8.233 7.66317 7.8068L7.80909 7.65924C8.25754 7.20831 8.85274 6.95935 9.48668 6.95935H12.5904C12.8938 6.95935 13.1386 7.20419 13.1386 7.50756Z" fill="white"/>
<path d="M6.17573 14.377V20H0.556017C0.253474 20 0.0078125 19.7543 0.0078125 19.4518V16.2598C0.0341923 15.6613 0.276556 15.1032 0.700281 14.677L0.846193 14.5295C1.29465 14.0786 1.88984 13.8296 2.52378 13.8296H5.62753C5.93007 13.8288 6.17573 14.0744 6.17573 14.377Z" fill="white"/>
<path d="M3.09177 6.16792C4.79499 6.16792 6.17573 4.78718 6.17573 3.08396C6.17573 1.38073 4.79499 0 3.09177 0C1.38855 0 0.0078125 1.38073 0.0078125 3.08396C0.0078125 4.78718 1.38855 6.16792 3.09177 6.16792Z" fill="white"/>
</svg>
