<svg width="56" height="48" viewBox="0 0 56 48" fill="none" xmlns="http://www.w3.org/2000/svg">
<path d="M7.79609 34.7752L6.67934 34.7793C4.76689 34.7863 3.22487 37.0613 3.23513 39.8606L3.24639 42.9313C3.25665 45.7306 4.8153 47.9942 6.72775 47.9872L7.8445 47.9831C9.75694 47.9761 11.299 45.7011 11.2887 42.9018L11.2774 39.8311C11.2672 37.0318 9.70853 34.7682 7.79609 34.7752Z" fill="#151515"/>
<path d="M49.3303 34.6237L48.2071 34.6279C46.2837 34.6349 44.7327 36.9099 44.7429 39.7092L44.7542 42.7799C44.7645 45.5792 46.3321 47.8428 48.2555 47.8357L49.3787 47.8316C51.3022 47.8246 52.8532 45.5496 52.8429 42.7503L52.8317 39.6796C52.8214 36.8803 51.2538 34.6167 49.3303 34.6237Z" fill="#151515"/>
<path d="M55.224 38.3576C55.224 38.3576 54.0751 44.6638 47.6885 44.9468C47.6885 44.9468 30.8774 48.8032 7.69657 44.9468C7.69657 44.9468 0.465241 45.3692 0.43145 35.46C0.43145 35.46 -0.835721 28.9046 1.60992 22.7167V22.6913C1.60992 22.6913 1.53812 19.8233 4.00065 16.6217C4.00065 16.6217 6.16752 13.1116 6.16752 12.968C6.16752 12.968 10.8687 2.73787 14.7252 1.01454C18.0647 0.357529 21.459 0.0181065 24.8625 0.000812034C24.8625 0.000812034 33.3103 -0.0625469 38.1847 0.930058C38.2354 0.930058 41.3231 0.951179 46.358 9.01029C46.358 9.01029 50.7508 16.0937 51.0761 16.5499C51.0761 16.5499 55.0001 19.8951 54.658 24.2711C54.66 24.2879 54.66 24.3049 54.658 24.3217C54.772 24.6934 56.9684 32.4273 55.224 38.3576Z" fill="#999999"/>
<path d="M6.14986 13.9593C6.01779 14.2101 5.8467 14.4382 5.64299 14.6352C4.45847 14.554 3.31758 14.1557 2.3399 13.4821C2.3399 13.4821 2.21318 12.3585 2.31033 12.3078C2.40748 12.2571 2.73272 10.4747 6.84681 10.7788C6.84681 10.7957 6.87215 12.6626 6.14986 13.9593Z" fill="#6F6464"/>
<path d="M52.0976 12.1688L52.068 12.1941C51.0989 12.8535 49.9722 13.2441 48.8029 13.3261C48.5228 13.0544 48.2735 12.7527 48.0595 12.4264C47.5048 11.5556 47.054 10.6228 46.7163 9.64711H46.8599C51.0838 9.10646 52.0215 10.965 52.1187 11.0114C52.2158 11.0579 52.0976 12.1688 52.0976 12.1688Z" fill="#6F6464"/>
<path d="M52.1157 10.9962L48.4324 11.1187L46.8569 9.68262V9.65305C51.102 9.09128 52.0185 10.9498 52.1157 10.9962Z" fill="#6F6464"/>
<path d="M6.84751 10.7964C6.47257 11.4208 6.0119 11.9895 5.47896 12.4859C4.76512 13.073 2.31104 12.317 2.31104 12.317C2.39551 12.2747 2.74187 10.4923 6.84751 10.7964Z" fill="#6F6464"/>
<path d="M55.224 38.3584C55.224 38.3584 54.5017 42.3161 51.0254 44.0986C49.988 44.6201 48.8491 44.9084 47.6885 44.9434C47.6885 44.9434 30.8774 48.7997 7.69657 44.9434C6.89449 44.9474 6.09847 44.8043 5.34808 44.521C3.23612 43.7522 0.45257 41.5643 0.43145 35.4439C0.43145 35.4439 -0.835721 28.8885 1.60992 22.7006C1.48743 23.0723 0.127331 27.2539 1.30158 29.6784C1.30158 29.6784 7.21504 33.5812 9.01443 33.7037C9.01443 33.7037 33.6863 37.0828 47.4309 33.125C50.6115 32.2127 53.2049 30.9117 54.7762 29.0912C54.7762 29.0912 54.9579 25.4334 54.6706 24.331C54.8354 24.8632 56.9473 32.4914 55.224 38.3584Z" fill="#999999"/>
<path d="M35.7354 11.8407C20.4871 11.8956 13.6908 11.79 10.6876 11.676C10.5258 11.669 10.3684 11.6207 10.2305 11.5358C10.0925 11.4509 9.97858 11.3321 9.89945 11.1908C9.82031 11.0494 9.77861 10.8902 9.77832 10.7282C9.77803 10.5662 9.81915 10.4068 9.89778 10.2652C11.8281 6.79744 13.8978 3.45215 14.8566 2.46799C15.0123 2.30488 15.2231 2.20551 15.448 2.18922C16.4153 2.10896 17.6444 2.07095 19.1946 2.0625C22.0373 2.0625 25.6783 2.16387 29.5389 2.28214C32.6308 2.37507 35.8283 2.47221 39.1314 2.52712C39.3682 2.5309 39.5947 2.62451 39.765 2.789C40.9604 3.92099 44.2297 7.18603 45.9319 10.3919C46.0098 10.5369 46.0486 10.6997 46.0443 10.8643C46.04 11.0288 45.9929 11.1894 45.9076 11.3301C45.8223 11.4709 45.7017 11.5869 45.5579 11.6669C45.414 11.7468 45.2517 11.7878 45.0871 11.7858C42.9752 11.7943 39.5876 11.828 35.7354 11.8407Z" fill="white"/>
<path d="M10.9504 22.5905C4.9567 23.1058 2.38434 19.8619 2.24072 19.6718C2.6759 18.5791 3.27092 17.557 4.00632 16.6391C4.50617 16.5927 5.00805 16.5715 5.51003 16.5757C5.51003 16.5757 6.88702 19.8957 10.9504 22.5905Z" fill="white"/>
<path d="M53.7064 20.0096L53.6599 20.0561C50.5089 22.8227 45.9006 22.7762 45.9006 22.7762C49.9429 20.0519 50.4371 16.8164 50.4371 16.8164C50.6853 16.7672 50.9365 16.7347 51.189 16.7192C52.2987 17.5797 53.1661 18.7135 53.7064 20.0096Z" fill="white"/>
<path d="M45.7122 42.8342C45.7147 42.8455 45.7147 42.8571 45.7122 42.8684C45.1885 43.0711 44.6266 43.212 44.0461 43.2862C43.7501 43.324 43.4514 43.3485 43.1515 43.3595C43.1515 43.3595 30.2507 45.5901 12.4619 43.3595C12.1177 43.3641 11.774 43.3386 11.4376 43.2837C11.1732 43.245 10.9131 43.1911 10.6597 43.1225C10.7023 42.4834 10.9197 41.8579 11.2982 41.2852C11.2982 41.2852 11.5024 38.5659 13.47 36.8874C14.1002 36.3297 14.9345 35.9244 15.8686 35.722C15.8686 35.722 22.8085 34.1388 23.2849 34.1192C23.7614 34.0997 31.45 32.7022 41.5632 35.8295C42.0851 35.9994 42.5609 36.2405 42.9668 36.5405C44.0202 37.2734 45.2649 38.7027 45.1904 41.2632C45.1806 41.2632 45.7835 42.4237 45.7122 42.8342Z" fill="#6F6464"/>
<path d="M11.2034 23.4108L25.3872 26.6505C25.3872 26.6505 28.7664 23.9599 32.0821 26.68L45.6282 23.622L43.9682 27.1953L35.381 28.8849C35.381 28.8849 30.118 38.8363 21.2647 28.7708L12.8169 27.0813L11.2034 23.4108Z" fill="#6F6464"/>
</svg>
