<svg width="20" height="20" viewBox="0 0 20 20" fill="none" xmlns="http://www.w3.org/2000/svg">
<path d="M10.0236 17.0393C8.06474 17.0393 6.40182 16.3558 5.03483 14.9889C3.66786 13.6219 2.98438 11.9589 2.98438 10.0001C2.98438 8.39647 3.48757 6.95178 4.49396 5.666C5.50035 4.38021 6.82218 3.55248 8.45946 3.18281C8.6571 3.13901 8.82376 3.13767 8.95946 3.17881C9.09514 3.21994 9.20251 3.29579 9.28156 3.40637C9.35795 3.51 9.39522 3.64314 9.39335 3.80579C9.39148 3.96846 9.34274 4.14247 9.24713 4.32783C9.1045 4.62271 8.99713 4.92999 8.92502 5.24969C8.8529 5.5694 8.81683 5.90286 8.81683 6.25008C8.81683 7.62883 9.29828 8.79964 10.2612 9.76252C11.224 10.7254 12.3949 11.2068 13.7736 11.2068C14.1673 11.2068 14.5359 11.1624 14.8794 11.0734C15.2228 10.9845 15.5324 10.8829 15.808 10.7686C15.9854 10.6906 16.147 10.6526 16.2928 10.6548C16.4386 10.6569 16.5594 10.6914 16.655 10.7581C16.7565 10.8276 16.8265 10.9235 16.8649 11.0458C16.9034 11.1681 16.9034 11.3196 16.8649 11.5001C16.5508 13.0829 15.7501 14.4018 14.4627 15.4568C13.1753 16.5118 11.6956 17.0393 10.0236 17.0393Z" fill="#2D65F2"/>
</svg>
