<svg width="18" height="20" viewBox="0 0 18 20" fill="none" xmlns="http://www.w3.org/2000/svg">
<path d="M5.29436 14.4657C4.17798 14.4657 3.22906 14.0318 2.44758 13.1641C1.66612 12.2964 1.27539 11.2427 1.27539 10.0031C1.27539 8.76344 1.66612 7.7088 2.44758 6.83915C3.22906 5.96949 4.17798 5.53467 5.29436 5.53467C6.24243 5.53467 7.05866 5.84009 7.74303 6.45094C8.4274 7.06179 8.88737 7.80176 9.12294 8.67088H15.5867C15.899 8.67088 16.1664 8.79445 16.3888 9.0416C16.6113 9.28874 16.7225 9.58583 16.7225 9.93288V10.0675C16.7225 10.4254 16.6097 10.7252 16.3843 10.9669C16.1588 11.2086 15.8929 11.3295 15.5867 11.3295H15.1078V13.0434C15.1078 13.3905 14.9966 13.6876 14.7742 13.9347C14.5517 14.1819 14.2843 14.3054 13.972 14.3054H13.8357C13.5233 14.3054 13.256 14.1819 13.0335 13.9347C12.8111 13.6876 12.6999 13.3905 12.6999 13.0434V11.3295H9.12294C8.88737 12.1986 8.4274 12.9386 7.74303 13.5494C7.05866 14.1603 6.24243 14.4657 5.29436 14.4657ZM5.29635 11.279C5.61185 11.279 5.88222 11.1531 6.10745 10.9014C6.33269 10.6497 6.44531 10.3485 6.44531 9.99798C6.44531 9.64742 6.33202 9.34701 6.10545 9.09675C5.87888 8.84649 5.60786 8.72136 5.29237 8.72136C4.97687 8.72136 4.7065 8.84723 4.48127 9.09898C4.25603 9.35072 4.14341 9.65185 4.14341 10.0024C4.14341 10.353 4.2567 10.6534 4.48327 10.9036C4.70983 11.1539 4.98086 11.279 5.29635 11.279Z" fill="#2D65F2"/>
</svg>
