<svg width="18" height="18" viewBox="0 0 18 18" fill="none" xmlns="http://www.w3.org/2000/svg">
<path d="M5.11686 13.6357C5.3491 13.6357 5.54646 13.555 5.70896 13.3937C5.87146 13.2323 5.95271 13.0355 5.95271 12.8033C5.95271 12.571 5.87124 12.3737 5.70829 12.2112C5.54534 12.0487 5.34775 11.9674 5.11551 11.9674C4.88326 11.9674 4.6867 12.0489 4.52581 12.2118C4.36491 12.3748 4.28446 12.5724 4.28446 12.8046C4.28446 13.0369 4.36514 13.2334 4.52649 13.3943C4.68782 13.5552 4.88461 13.6357 5.11686 13.6357ZM5.11686 9.83183C5.3491 9.83183 5.54646 9.75116 5.70896 9.58981C5.87146 9.42846 5.95271 9.23167 5.95271 8.99943C5.95271 8.7672 5.87124 8.56983 5.70829 8.40733C5.54534 8.24483 5.34775 8.16358 5.11551 8.16358C4.88326 8.16358 4.6867 8.24506 4.52581 8.40801C4.36491 8.57096 4.28446 8.76855 4.28446 9.00078C4.28446 9.23302 4.36514 9.42958 4.52649 9.59048C4.68782 9.75138 4.88461 9.83183 5.11686 9.83183ZM5.11686 6.00781C5.3491 6.00781 5.54646 5.92713 5.70896 5.76578C5.87146 5.60443 5.95271 5.40764 5.95271 5.17541C5.95271 4.94316 5.87124 4.74579 5.70829 4.58329C5.54534 4.4208 5.34775 4.33956 5.11551 4.33956C4.88326 4.33956 4.6867 4.42103 4.52581 4.58396C4.36491 4.74691 4.28446 4.94451 4.28446 5.17676C4.28446 5.40899 4.36514 5.60556 4.52649 5.76646C4.68782 5.92736 4.88461 6.00781 5.11686 6.00781ZM8.81616 13.5135H12.9883C13.1785 13.5135 13.3423 13.445 13.4795 13.3079C13.6168 13.1709 13.6854 13.0061 13.6854 12.8137C13.6854 12.6213 13.6168 12.4567 13.4795 12.3198C13.3423 12.183 13.1785 12.1145 12.9883 12.1145H8.81616C8.62226 12.1145 8.4568 12.1832 8.31979 12.3205C8.18277 12.4579 8.11426 12.6217 8.11426 12.812C8.11426 13.006 8.18277 13.1714 8.31979 13.3083C8.4568 13.4451 8.62226 13.5135 8.81616 13.5135ZM8.81616 9.68951H12.9883C13.1785 9.68951 13.3423 9.62097 13.4795 9.48388C13.6168 9.34682 13.6854 9.18208 13.6854 8.98968C13.6854 8.79728 13.6168 8.63265 13.4795 8.49578C13.3423 8.35893 13.1785 8.29051 12.9883 8.29051H8.81616C8.62226 8.29051 8.4568 8.35917 8.31979 8.49648C8.18277 8.63382 8.11426 8.79763 8.11426 8.98793C8.11426 9.18195 8.18277 9.34738 8.31979 9.48423C8.4568 9.62108 8.62226 9.68951 8.81616 9.68951ZM8.81616 5.88568H12.9883C13.1785 5.88568 13.3423 5.81714 13.4795 5.68006C13.6168 5.54298 13.6854 5.37823 13.6854 5.18583C13.6854 4.99343 13.6168 4.82881 13.4795 4.69196C13.3423 4.55511 13.1785 4.48669 12.9883 4.48669H8.81616C8.62226 4.48669 8.4568 4.55534 8.31979 4.69266C8.18277 4.82998 8.11426 4.99379 8.11426 5.18411C8.11426 5.37811 8.18277 5.54353 8.31979 5.68038C8.4568 5.81725 8.62226 5.88568 8.81616 5.88568ZM2.38411 17.3183C1.91063 17.3183 1.50819 17.1526 1.17679 16.8212C0.845388 16.4898 0.679687 16.0874 0.679688 15.6139V2.38631C0.679688 1.91283 0.845388 1.51039 1.17679 1.17899C1.50819 0.847586 1.91063 0.681885 2.38411 0.681885H15.6117C16.0852 0.681885 16.4876 0.847586 16.819 1.17899C17.1504 1.51039 17.3161 1.91283 17.3161 2.38631V15.6139C17.3161 16.0874 17.1504 16.4898 16.819 16.8212C16.4876 17.1526 16.0852 17.3183 15.6117 17.3183H2.38411Z" fill="#2D65F2"/>
</svg>
