<svg width="46" height="46" viewBox="0 0 46 46" fill="none" xmlns="http://www.w3.org/2000/svg">
<path d="M39.2635 39.2635C48.2455 30.2815 48.2455 15.7187 39.2635 6.73661C30.2814 -2.24545 15.7186 -2.24546 6.73654 6.73661C-2.24551 15.7187 -2.24552 30.2815 6.73654 39.2635C15.7186 48.2456 30.2814 48.2456 39.2635 39.2635Z" fill="#2D65F2"/>
<path d="M23.0017 42.9428C34.016 42.9428 42.9448 34.0139 42.9448 22.9997C42.9448 11.9854 34.016 3.05655 23.0017 3.05655C11.9874 3.05655 3.05859 11.9854 3.05859 22.9997C3.05859 34.0139 11.9874 42.9428 23.0017 42.9428Z" fill="#F6F6F6"/>
<path d="M5.82305 29.8237C5.72792 29.5852 5.6376 29.344 5.55211 29.1003L8.8569 27.9408C8.92601 28.1378 8.99925 28.3332 9.07662 28.5267L5.82305 29.8237ZM40.6309 28.3311L37.278 27.3168C37.3382 27.1186 37.394 26.9189 37.4453 26.7175L40.8392 27.5836C40.7749 27.8348 40.7055 28.0839 40.6309 28.3311ZM4.66758 25.3478C4.63509 25.0934 4.6081 24.8372 4.58594 24.5792L8.07616 24.2824C8.09351 24.4911 8.11581 24.6978 8.14211 24.9039L4.66758 25.3478ZM41.3977 23.7716L37.8978 23.6272C37.9064 23.4192 37.9109 23.2103 37.9109 23.0005V22.9328H41.4134V23.0005C41.4135 23.259 41.4083 23.5158 41.3977 23.7716ZM8.13454 21.1554L4.65808 20.7306C4.6896 20.4727 4.7265 20.2168 4.76876 19.9625L8.22347 20.5398C8.18933 20.7434 8.15987 20.9488 8.13454 21.1554ZM37.5754 19.8344C37.5314 19.6302 37.483 19.4273 37.4307 19.2264L40.8204 18.3439C40.8851 18.5926 40.9449 18.8433 40.9993 19.096L37.5754 19.8344ZM9.05404 17.5313L5.79565 16.2451C5.89078 16.0046 5.99032 15.7662 6.09522 15.5306L9.29552 16.9536C9.21099 17.1441 9.13072 17.3367 9.05404 17.5313ZM36.331 16.305C36.2379 16.1189 36.1409 15.9357 36.04 15.7543L39.102 14.0533C39.2269 14.278 39.3472 14.5058 39.463 14.7364L36.331 16.305ZM10.8538 14.2456L8.01752 12.1906C8.16868 11.9819 8.32397 11.7764 8.48408 11.5743L11.2313 13.7463C11.1022 13.9101 10.9763 14.0767 10.8538 14.2456ZM34.2463 13.1973C34.1091 13.0395 33.9688 12.8853 33.8255 12.7339L36.3704 10.3275C36.5473 10.5142 36.7203 10.7049 36.889 10.8987L34.2463 13.1973ZM13.4128 11.5086L11.1731 8.81589C11.3703 8.65137 11.5715 8.49098 11.7761 8.33459L13.9021 11.1181C13.7359 11.2452 13.5731 11.3755 13.4128 11.5086ZM31.4547 10.6988C31.283 10.5801 31.1089 10.4652 30.9324 10.3538L32.8014 7.39154C33.0196 7.52908 33.2346 7.67143 33.4468 7.81819L31.4547 10.6988ZM16.5671 9.49143L15.0649 6.32749C15.2969 6.21735 15.5312 6.11203 15.7681 6.01153L17.1363 9.23564C16.9444 9.31701 16.7545 9.4025 16.5671 9.49143ZM28.1308 8.97228C27.9361 8.90041 27.7391 8.8324 27.5403 8.7688L28.6096 5.43318C28.8569 5.51248 29.1018 5.59701 29.3444 5.68663L28.1308 8.97228ZM20.119 8.32674L19.4589 4.88704C19.7107 4.83871 19.964 4.79549 20.219 4.75708L20.7369 8.22128C20.5293 8.25226 20.3235 8.2875 20.119 8.32674ZM24.4814 8.1318C24.2759 8.11087 24.0685 8.09449 23.8605 8.08224L24.0651 4.58582C24.3243 4.60082 24.5815 4.62134 24.8377 4.64763L24.4814 8.1318Z" fill="#303030"/>
<path d="M36.5395 33.1641L35.2941 35.0171L9.89844 16.605L36.5395 33.1641Z" fill="#303030"/>
<path d="M22.9997 24.8904C16.0162 24.8904 9.87487 28.4825 6.3125 33.917C9.875 39.3516 16.0162 42.9437 22.9997 42.9437C29.9832 42.9437 36.1245 39.3514 39.6869 33.917C36.1245 28.4825 29.9832 24.8904 22.9997 24.8904Z" fill="#2D65F2"/>
<path d="M31.6072 30.6727H14.3983C14.0942 30.6727 13.8477 30.9193 13.8477 31.2234V35.6289C13.8477 35.933 14.0942 36.1795 14.3983 36.1795H31.6072C31.9113 36.1795 32.1579 35.933 32.1579 35.6289V31.2234C32.1579 30.9193 31.9113 30.6727 31.6072 30.6727Z" fill="white"/>
</svg>
