<svg width="35" height="39" viewBox="0 0 35 39" fill="none" xmlns="http://www.w3.org/2000/svg">
<path d="M18.3737 4.93928C20.5472 4.93928 22.6718 5.5838 24.479 6.79133C26.2861 7.99887 27.6946 9.71518 28.5264 11.7232C29.3581 13.7313 29.5757 15.9409 29.1517 18.0727C28.7277 20.2044 27.6811 22.1625 26.1442 23.6994C24.6074 25.2363 22.6493 26.283 20.5176 26.707C18.3859 27.131 16.1764 26.9134 14.1684 26.0816C12.1604 25.2499 10.4441 23.8413 9.2366 22.0341C8.0291 20.2269 7.3846 18.1022 7.3846 15.9287C7.3846 13.0141 8.54238 10.2189 10.6032 8.15801C12.6641 6.09709 15.4592 4.93928 18.3737 4.93928ZM18.3737 3.05764C15.1924 3.06128 12.1258 4.24644 9.76879 6.38323C7.4118 8.52001 5.93244 11.4561 5.61768 14.6219C5.30293 17.7878 6.17521 20.9577 8.06533 23.5167C9.95545 26.0758 12.7287 27.8416 15.847 28.4716C18.9654 29.1016 22.2066 28.5509 24.9419 26.9263C27.6772 25.3018 29.7116 22.7191 30.6505 19.6794C31.5894 16.6396 31.3658 13.3595 30.0232 10.4753C28.6806 7.59105 26.3146 5.30832 23.3841 4.0699C21.7991 3.39892 20.0949 3.05463 18.3737 3.05764Z" fill="#999999"/>
<path d="M12.4465 26.0444L10.2617 24.417L8.69147 26.5252L10.8763 28.1526L12.4465 26.0444Z" fill="#999999"/>
<path opacity="0.5" d="M26.3413 23.8929C30.7397 19.4943 30.7397 12.3629 26.3413 7.96433C21.9429 3.56579 14.8117 3.56579 10.4133 7.96433C6.01484 12.3629 6.01484 19.4943 10.4133 23.8929C14.8117 28.2914 21.9429 28.2914 26.3413 23.8929Z" fill="#DDDDDD"/>
<g opacity="0.49">
<path d="M27.9451 16.7316C27.7321 16.7316 27.5278 16.647 27.3772 16.4964C27.2266 16.3458 27.142 16.1415 27.142 15.9285C27.1402 13.6024 26.2153 11.372 24.5705 9.72714C22.9257 8.08228 20.6954 7.15741 18.3693 7.15558C18.2616 7.15911 18.1542 7.14094 18.0537 7.10214C17.9531 7.06335 17.8614 7.00473 17.7839 6.92976C17.7065 6.8548 17.6449 6.76503 17.6028 6.66578C17.5607 6.56654 17.5391 6.45985 17.5391 6.35205C17.5391 6.24426 17.5607 6.13757 17.6028 6.03833C17.6449 5.93908 17.7065 5.84931 17.7839 5.77435C17.8614 5.69938 17.9531 5.64076 18.0537 5.60197C18.1542 5.56317 18.2616 5.545 18.3693 5.54853C21.1213 5.55149 23.7597 6.64605 25.7056 8.59204C27.6515 10.538 28.7461 13.1765 28.749 15.9285C28.7488 16.1416 28.664 16.3459 28.5133 16.4965C28.3625 16.6471 28.1582 16.7316 27.9451 16.7316Z" fill="white"/>
</g>
<g style="mix-blend-mode:multiply">
<path d="M18.3722 4.66553C16.1446 4.66553 13.9671 5.3261 12.1149 6.56371C10.2628 7.80133 8.81917 9.56039 7.96671 11.6185C7.11426 13.6765 6.89121 15.9412 7.32579 18.126C7.76037 20.3109 8.83305 22.3178 10.4082 23.893C11.9833 25.4681 13.9902 26.5408 16.175 26.9754C18.3597 27.41 20.6243 27.187 22.6823 26.3345C24.7403 25.482 26.4994 24.0384 27.7369 22.1862C28.9745 20.334 29.6351 18.1563 29.6351 15.9287C29.6351 14.4496 29.3438 12.985 28.7777 11.6185C28.2117 10.252 27.3821 9.01031 26.3363 7.96443C25.2904 6.91855 24.0488 6.08891 22.6823 5.52288C21.3159 4.95686 19.8513 4.66553 18.3722 4.66553ZM18.3722 26.9173C16.1987 26.9173 14.0741 26.2727 12.2669 25.0652C10.4597 23.8576 9.05123 22.1412 8.21951 20.1331C7.3878 18.125 7.17023 15.9153 7.59431 13.7836C8.0184 11.6518 9.0651 9.69369 10.602 8.15682C12.139 6.61995 14.0971 5.57338 16.2289 5.14945C18.3606 4.72551 20.5702 4.94326 22.5782 5.77516C24.5862 6.60706 26.3024 8.01574 27.5098 9.82305C28.7172 11.6304 29.3615 13.7552 29.3614 15.9287C29.3614 17.3718 29.0771 18.8008 28.5248 20.134C27.9726 21.4673 27.1631 22.6787 26.1427 23.6991C25.1222 24.7195 23.9108 25.5289 22.5775 26.0811C21.2443 26.6332 19.8153 26.9174 18.3722 26.9173Z" fill="#002D9F"/>
</g>
<g style="mix-blend-mode:multiply">
<path d="M11.7886 26.9391L10.2186 29.048L9.64453 28.6202L11.2154 26.5122L11.7886 26.9391Z" fill="#6F6464"/>
</g>
<path d="M10.8294 28.0904L8.77158 26.5577C8.41664 26.2933 7.91459 26.3667 7.65022 26.7217L1.17538 35.4149C0.911009 35.7699 0.984429 36.2719 1.33937 36.5363L3.39716 38.0691C3.7521 38.3334 4.25415 38.26 4.51852 37.9051L10.9934 29.2118C11.2577 28.8569 11.1843 28.3548 10.8294 28.0904Z" fill="#303030"/>
<g style="mix-blend-mode:screen">
<path d="M9.34364 26.9876C9.18413 26.8746 8.98672 26.8286 8.79368 26.8593C8.60063 26.89 8.42728 26.9951 8.31074 27.1521L1.76908 35.9319C1.65175 36.089 1.60096 36.286 1.62769 36.4802C1.65443 36.6745 1.75655 36.8504 1.91196 36.97L1.28706 36.5043C1.20854 36.4455 1.14239 36.3717 1.0924 36.2873C1.04241 36.2029 1.00956 36.1094 0.995733 36.0123C0.981902 35.9151 0.987362 35.8162 1.0118 35.7212C1.03624 35.6262 1.07918 35.5369 1.13815 35.4585L7.67982 26.6786C7.73847 26.5998 7.8121 26.5333 7.89648 26.483C7.98085 26.4327 8.07433 26.3995 8.17155 26.3854C8.26877 26.3712 8.36783 26.3764 8.46305 26.4005C8.55827 26.4247 8.64779 26.4675 8.72648 26.5263L9.34364 26.9876Z" fill="#6F6464"/>
</g>
</svg>
