<svg width="39" height="40" viewBox="0 0 39 40" fill="none" xmlns="http://www.w3.org/2000/svg">
<path d="M19.829 38.5692C9.58196 38.5692 1.27512 30.2624 1.27512 20.0154C1.27512 9.76839 9.58196 1.46155 19.829 1.46155C30.076 1.46155 38.3828 9.76839 38.3828 20.0154C38.3828 30.2624 30.076 38.5692 19.829 38.5692Z" fill="white"/>
<path d="M37.352 15.8923L26.3902 19.0243C25.3934 19.3091 25.3934 20.7217 26.3902 21.0065L37.352 24.1385M2.30589 15.8923L13.2678 19.0243C14.2646 19.3091 14.2646 20.7217 13.2678 21.0065L2.30589 24.1385M25.015 2.7792L22.2464 13.8385C21.9947 14.8441 23.2181 15.5504 23.9631 14.8296L32.1564 6.90228M7.49195 33.1301L15.6853 25.2028C16.4303 24.4819 17.6537 25.1882 17.4019 26.1939L14.6333 37.2531M7.49195 6.90228L15.6853 14.8296C16.4303 15.5504 17.6537 14.8441 17.4019 13.8385L14.6333 2.7792M25.015 37.2531L22.2464 26.1939C21.9947 25.1882 23.2181 24.4819 23.9631 25.2028L32.1564 33.1301M19.829 38.5692C9.58196 38.5692 1.27512 30.2624 1.27512 20.0154C1.27512 9.76839 9.58196 1.46155 19.829 1.46155C30.076 1.46155 38.3828 9.76839 38.3828 20.0154C38.3828 30.2624 30.076 38.5692 19.829 38.5692Z" stroke="#6F6464" stroke-width="1.03077"/>
</svg>
