<svg width="39" height="39" viewBox="0 0 39 39" fill="none" xmlns="http://www.w3.org/2000/svg">
<path d="M19.829 37.8155C9.58196 37.8155 1.27512 29.5086 1.27512 19.2616C1.27512 9.0146 9.58196 0.707764 19.829 0.707764C30.076 0.707764 38.3828 9.0146 38.3828 19.2616C38.3828 29.5086 30.076 37.8155 19.829 37.8155Z" fill="white"/>
<path d="M37.352 15.1385L26.3902 18.2705C25.3934 18.5553 25.3934 19.9679 26.3902 20.2527L37.352 23.3847M2.30589 15.1385L13.2678 18.2705C14.2646 18.5553 14.2646 19.9679 13.2678 20.2527L2.30589 23.3847M25.015 2.02542L22.2464 13.0847C21.9947 14.0903 23.2181 14.7966 23.9631 14.0758L32.1564 6.14849M7.49195 32.3763L15.6853 24.449C16.4303 23.7281 17.6537 24.4344 17.4019 25.4401L14.6333 36.4994M7.49195 6.14849L15.6853 14.0758C16.4303 14.7966 17.6537 14.0903 17.4019 13.0847L14.6333 2.02542M25.015 36.4994L22.2464 25.4401C21.9947 24.4345 23.2181 23.7281 23.9631 24.449L32.1564 32.3763M19.829 37.8155C9.58196 37.8155 1.27512 29.5086 1.27512 19.2616C1.27512 9.0146 9.58196 0.707764 19.829 0.707764C30.076 0.707764 38.3828 9.0146 38.3828 19.2616C38.3828 29.5086 30.076 37.8155 19.829 37.8155Z" stroke="#6F6464" stroke-width="1.03077"/>
</svg>
