<svg width="89" height="89" viewBox="0 0 89 89" fill="none" xmlns="http://www.w3.org/2000/svg">
<path d="M62.8004 13.4354C72.7997 25.1012 85.8743 49.33 88.4456 75.4162V87.7409L57.0892 82.6834L57.0892 82.6833L57.08 82.682C42.7927 80.641 13.9711 81.1177 0.830162 81.6254V4.33841C0.830162 3.90049 1.06295 3.14289 1.87614 2.48405C2.68665 1.82739 4.10619 1.2461 6.4994 1.2461C10.8666 1.2461 30.0374 1.51422 42.9778 1.69521C44.6839 1.71907 46.2817 1.74141 47.723 1.76143L47.7523 1.76184L47.7814 1.75892C48.4777 1.6893 49.9049 1.88312 52.3439 3.48104C54.779 5.07646 58.1789 8.04358 62.8004 13.4354Z" fill="white" stroke="#6F6464" stroke-width="1.03077"/>
</svg>
