<svg width="5" height="19" viewBox="0 0 5 19" fill="none" xmlns="http://www.w3.org/2000/svg">
<path d="M2.1446 18.255C2.1446 18.2551 2.14548 18.255 2.14724 18.2544C2.14549 18.2546 2.1446 18.2549 2.1446 18.255ZM2.08893 18.2016C2.12146 18.2315 2.1434 18.2451 2.15529 18.2509C2.16718 18.2451 2.18912 18.2315 2.22164 18.2016C2.29636 18.1328 2.39321 18.0065 2.50149 17.8004C2.71749 17.3893 2.92761 16.7606 3.1099 15.9402C3.47264 14.3079 3.70144 12.028 3.70144 9.49226C3.70144 6.95654 3.47264 4.67658 3.1099 3.04428C2.92761 2.22395 2.71749 1.59519 2.50149 1.18407C2.39321 0.977974 2.29636 0.851733 2.22164 0.782936C2.18912 0.752982 2.16718 0.73944 2.15529 0.733592C2.1434 0.73944 2.12146 0.752982 2.08893 0.782936C2.01422 0.851733 1.91737 0.977974 1.80909 1.18407C1.59309 1.59519 1.38297 2.22395 1.20067 3.04428C0.83794 4.67658 0.609135 6.95654 0.609135 9.49226C0.609135 12.028 0.83794 14.3079 1.20067 15.9402C1.38297 16.7606 1.59309 17.3893 1.80909 17.8004C1.91737 18.0065 2.01422 18.1328 2.08893 18.2016ZM2.1446 0.729494C2.14461 0.729574 2.14549 0.729874 2.14724 0.730157C2.14547 0.729557 2.1446 0.729415 2.1446 0.729494ZM2.16597 0.729494C2.16598 0.729415 2.1651 0.729556 2.16334 0.730156C2.16508 0.729874 2.16597 0.729574 2.16597 0.729494ZM2.16331 18.2543C2.1651 18.255 2.16598 18.2551 2.16597 18.255C2.16597 18.2549 2.16508 18.2546 2.16331 18.2543Z" fill="white" stroke="#6F6464" stroke-width="1.03077"/>
</svg>
