<svg width="86" height="133" viewBox="0 0 86 133" fill="none" xmlns="http://www.w3.org/2000/svg">
<path d="M84.3642 127.891L77.8011 131.829C74.5974 126.406 69.5219 118.371 64.366 111.322C61.7165 107.7 59.0387 104.328 56.5775 101.703C54.1369 99.0989 51.8437 97.1553 49.9613 96.4909L49.8781 96.4615H49.7898H1.33979V77.3928H4.32902C19.7811 77.3928 32.2629 64.2151 32.2629 48.0159C32.2629 41.6567 29.8382 35.6299 26.5977 30.8484V1.40267L38.0025 6.63034C41.9792 24.9642 50.3187 64.1215 51.3411 71.2805L51.3577 71.3963L51.4225 71.4936C54.4627 76.0532 55.2135 77.2343 56.4669 79.2061C56.9121 79.9064 57.4207 80.7065 58.1178 81.7932C63.1494 89.6365 68.8677 98.6895 73.7796 106.95C78.6983 115.222 82.787 122.664 84.5793 127.299C84.6617 127.512 84.5791 127.762 84.3642 127.891Z" fill="white" stroke="#6F6464" stroke-width="1.03077"/>
</svg>
