<svg width="4" height="140" viewBox="0 0 4 140" fill="none" xmlns="http://www.w3.org/2000/svg">
<path d="M3.26587 2.65773V72.2347C3.26587 72.7875 3.11554 73.2648 2.89957 73.5887C2.6812 73.9163 2.43612 74.0385 2.2351 74.0385C2.03407 74.0385 1.789 73.9163 1.57063 73.5887C1.35466 73.2648 1.20433 72.7875 1.20433 72.2347V2.65773C1.20433 2.10485 1.35466 1.62763 1.57063 1.30367C1.789 0.976116 2.03407 0.853886 2.2351 0.853886C2.43612 0.853886 2.6812 0.976116 2.89957 1.30367C3.11554 1.62763 3.26587 2.10485 3.26587 2.65773ZM3.26587 82.5746V137.656C3.26587 138.472 2.72493 138.977 2.2351 138.977C1.74526 138.977 1.20433 138.472 1.20433 137.656V82.5746C1.20433 81.7586 1.74526 81.2539 2.2351 81.2539C2.72493 81.2539 3.26587 81.7586 3.26587 82.5746Z" fill="white" stroke="#6F6464" stroke-width="1.03077"/>
</svg>
