<svg width="141" height="37" viewBox="0 0 141 37" fill="none" xmlns="http://www.w3.org/2000/svg">
<path d="M135.44 7.79229V8.30767H135.956C136.332 8.30767 136.93 8.40647 137.614 8.60448C139.533 9.15969 140.315 11.2803 139.894 13.5049L137.434 26.5062C137.28 27.3199 137.263 28.1435 137.253 28.923C137.253 28.9673 137.252 29.0115 137.252 29.0555C137.242 29.7997 137.233 30.5021 137.13 31.1881C136.762 33.6379 134.652 35.6231 131.975 35.6231H8.90927C5.96924 35.6231 3.64629 33.3529 3.40466 30.5887C3.36259 30.1074 3.36118 29.6219 3.35968 29.1109C3.3595 29.0485 3.35931 28.9857 3.35905 28.9224C3.3567 28.3515 3.34804 27.7514 3.26688 27.1509L1.21794 11.9887C1.12659 11.3127 1.13617 10.6315 1.30029 10.0642C1.46135 9.50743 1.76178 9.08399 2.25137 8.84245C3.22203 8.36357 4.36224 8.21496 4.97495 8.30249L5.56322 8.38653V7.79229V1.09229H25.1478H114.309H135.44V7.79229Z" fill="white" stroke="#6F6464" stroke-width="1.03077"/>
</svg>
