<svg width="127" height="42" viewBox="0 0 127 42" fill="none" xmlns="http://www.w3.org/2000/svg">
<path d="M12.2301 1.62547C12.231 1.62359 12.2318 1.62173 12.2327 1.61986C30.502 7.71059 51.2595 9.35585 69.9565 8.77957C88.5178 8.20747 105.086 5.44468 115.227 2.64118L120.736 18.1647L126.225 33.6333C107.553 39.2491 57.3156 46.8804 1.23889 33.5865C1.30822 33.2891 1.40727 32.8674 1.53167 32.3467C1.79063 31.2627 2.15926 29.7496 2.59792 28.0335C3.47621 24.5976 4.63158 20.3627 5.74706 17.1296C6.84331 13.9523 8.51134 9.97381 9.90947 6.78141C10.6077 5.187 11.2372 3.79198 11.6921 2.79565C11.9196 2.29753 12.1033 1.89916 12.2301 1.62547Z" fill="white" stroke="#6F6464" stroke-width="1.03077"/>
</svg>
