<svg width="5" height="20" viewBox="0 0 5 20" fill="none" xmlns="http://www.w3.org/2000/svg">
<path d="M2.1446 18.9474C2.1446 18.9475 2.14548 18.9473 2.14724 18.9467C2.14549 18.947 2.1446 18.9473 2.1446 18.9474ZM2.08893 18.894C2.12146 18.9239 2.1434 18.9375 2.15529 18.9433C2.16718 18.9375 2.18912 18.9239 2.22164 18.894C2.29636 18.8252 2.39321 18.6989 2.50149 18.4928C2.71749 18.0817 2.92761 17.4529 3.1099 16.6326C3.47264 15.0003 3.70144 12.7204 3.70144 10.1846C3.70144 7.64893 3.47264 5.36896 3.1099 3.73667C2.92761 2.91634 2.71749 2.28757 2.50149 1.87645C2.39321 1.67036 2.29636 1.54412 2.22164 1.47532C2.18912 1.44537 2.16718 1.43182 2.15529 1.42597C2.1434 1.43182 2.12146 1.44537 2.08893 1.47532C2.01422 1.54412 1.91737 1.67036 1.80909 1.87645C1.59309 2.28757 1.38297 2.91634 1.20067 3.73667C0.83794 5.36896 0.609135 7.64893 0.609135 10.1846C0.609135 12.7204 0.83794 15.0003 1.20067 16.6326C1.38297 17.4529 1.59309 18.0817 1.80909 18.4928C1.91737 18.6989 2.01422 18.8252 2.08893 18.894ZM2.1446 1.42188C2.14461 1.42196 2.14549 1.42226 2.14724 1.42254C2.14547 1.42194 2.1446 1.4218 2.1446 1.42188ZM2.16597 1.42188C2.16598 1.4218 2.1651 1.42194 2.16334 1.42254C2.16508 1.42226 2.16597 1.42196 2.16597 1.42188ZM2.16331 18.9467C2.1651 18.9473 2.16598 18.9475 2.16597 18.9474C2.16597 18.9473 2.16508 18.947 2.16331 18.9467Z" fill="white" stroke="#6F6464" stroke-width="1.03077"/>
</svg>
