<svg width="93" height="107" viewBox="0 0 93 107" fill="none" xmlns="http://www.w3.org/2000/svg">
<path d="M59.5844 101.119L59.584 101.129V101.139C59.584 102.698 58.9929 103.829 57.9935 104.585C56.9745 105.357 55.4779 105.777 53.6191 105.777H30.2071L30.2088 49.6973C31.5401 46.2616 32.2699 42.1809 32.2699 38.2616C32.2699 22.0624 19.7881 8.88468 4.33608 8.88468H1.34685V2.09177C4.84439 1.42545 13.2348 0.606312 21.87 2.17636C26.2095 2.96535 29.9735 6.35594 32.9369 10.3882C35.8899 14.406 37.9807 18.9701 38.9978 21.9364L39.1172 22.2847H39.4853H52.8853H52.9628L53.0369 22.2619L86.2547 12.041L91.986 17.2948C90.1596 23.5482 86.9225 32.8237 80.3223 41.0212C76.9601 44.8153 71.9493 51.0149 67.8256 57.306C65.7623 60.4537 63.9137 63.6357 62.6051 66.5582C61.3075 69.456 60.513 72.1586 60.6156 74.3411L59.5844 101.119Z" fill="white" stroke="#6F6464" stroke-width="1.03077"/>
</svg>
