<svg width="39" height="39" viewBox="0 0 39 39" fill="none" xmlns="http://www.w3.org/2000/svg">
<path d="M19.1962 37.8155C8.94915 37.8155 0.642308 29.5086 0.642308 19.2616C0.642308 9.0146 8.94915 0.707764 19.1962 0.707764C29.4432 0.707764 37.75 9.0146 37.75 19.2616C37.75 29.5086 29.4432 37.8155 19.1962 37.8155Z" fill="white"/>
<path d="M36.7192 15.1385L25.7573 18.2705C24.7606 18.5553 24.7606 19.9679 25.7573 20.2527L36.7192 23.3847M1.67308 15.1385L12.635 18.2705C13.6318 18.5553 13.6318 19.9679 12.635 20.2527L1.67308 23.3847M24.3822 2.02542L21.6136 13.0847C21.3619 14.0903 22.5852 14.7966 23.3303 14.0758L31.5236 6.14849M6.85913 32.3763L15.0524 24.449C15.7975 23.7281 17.0208 24.4344 16.7691 25.4401L14.0005 36.4994M6.85913 6.14849L15.0524 14.0758C15.7975 14.7966 17.0208 14.0903 16.7691 13.0847L14.0005 2.02542M24.3822 36.4994L21.6136 25.4401C21.3619 24.4345 22.5852 23.7281 23.3303 24.449L31.5236 32.3763M19.1962 37.8155C8.94915 37.8155 0.642308 29.5086 0.642308 19.2616C0.642308 9.0146 8.94915 0.707764 19.1962 0.707764C29.4432 0.707764 37.75 9.0146 37.75 19.2616C37.75 29.5086 29.4432 37.8155 19.1962 37.8155Z" stroke="#6F6464" stroke-width="1.03077"/>
</svg>
