<svg width="39" height="40" viewBox="0 0 39 40" fill="none" xmlns="http://www.w3.org/2000/svg">
<path d="M19.1962 38.5692C8.94915 38.5692 0.642308 30.2624 0.642308 20.0154C0.642308 9.76839 8.94915 1.46155 19.1962 1.46155C29.4432 1.46155 37.75 9.76839 37.75 20.0154C37.75 30.2624 29.4432 38.5692 19.1962 38.5692Z" fill="white"/>
<path d="M36.7192 15.8923L25.7573 19.0243C24.7606 19.3091 24.7606 20.7217 25.7573 21.0065L36.7192 24.1385M1.67308 15.8923L12.635 19.0243C13.6318 19.3091 13.6318 20.7217 12.635 21.0065L1.67308 24.1385M24.3822 2.7792L21.6136 13.8385C21.3619 14.8441 22.5852 15.5504 23.3303 14.8296L31.5236 6.90228M6.85913 33.1301L15.0524 25.2028C15.7975 24.4819 17.0208 25.1882 16.7691 26.1939L14.0005 37.2531M6.85913 6.90228L15.0524 14.8296C15.7975 15.5504 17.0208 14.8441 16.7691 13.8385L14.0005 2.7792M24.3822 37.2531L21.6136 26.1939C21.3619 25.1882 22.5852 24.4819 23.3303 25.2028L31.5236 33.1301M19.1962 38.5692C8.94915 38.5692 0.642308 30.2624 0.642308 20.0154C0.642308 9.76839 8.94915 1.46155 19.1962 1.46155C29.4432 1.46155 37.75 9.76839 37.75 20.0154C37.75 30.2624 29.4432 38.5692 19.1962 38.5692Z" stroke="#6F6464" stroke-width="1.03077"/>
</svg>
