<svg width="89" height="89" viewBox="0 0 89 89" fill="none" xmlns="http://www.w3.org/2000/svg">
<path d="M26.1996 13.4354C16.2003 25.1012 3.12566 49.33 0.554447 75.4162V87.7409L31.9108 82.6834L31.9108 82.6833L31.92 82.682C46.2073 80.641 75.0289 81.1177 88.1698 81.6254V4.33841C88.1698 3.90049 87.937 3.14289 87.1239 2.48405C86.3134 1.82739 84.8938 1.2461 82.5006 1.2461C78.1334 1.2461 58.9626 1.51422 46.0222 1.69521C44.3161 1.71907 42.7183 1.74141 41.277 1.76143L41.2477 1.76184L41.2186 1.75892C40.5223 1.6893 39.0951 1.88312 36.6561 3.48104C34.221 5.07646 30.8211 8.04358 26.1996 13.4354Z" fill="white" stroke="#6F6464" stroke-width="1.03077"/>
</svg>
