<svg width="5" height="20" viewBox="0 0 5 20" fill="none" xmlns="http://www.w3.org/2000/svg">
<path d="M2.8554 18.9474C2.8554 18.9475 2.85452 18.9473 2.85276 18.9467C2.85451 18.947 2.8554 18.9473 2.8554 18.9474ZM2.91107 18.894C2.87854 18.9239 2.8566 18.9375 2.84471 18.9433C2.83282 18.9375 2.81088 18.9239 2.77836 18.894C2.70364 18.8252 2.60679 18.6989 2.49851 18.4928C2.28251 18.0817 2.07239 17.4529 1.8901 16.6326C1.52736 15.0003 1.29856 12.7204 1.29856 10.1846C1.29856 7.64893 1.52736 5.36896 1.8901 3.73667C2.07239 2.91634 2.28251 2.28757 2.49851 1.87645C2.60679 1.67036 2.70364 1.54412 2.77836 1.47532C2.81088 1.44537 2.83282 1.43182 2.84471 1.42597C2.8566 1.43182 2.87854 1.44537 2.91107 1.47532C2.98578 1.54412 3.08263 1.67036 3.19091 1.87645C3.40691 2.28757 3.61703 2.91634 3.79933 3.73667C4.16206 5.36896 4.39087 7.64893 4.39087 10.1846C4.39087 12.7204 4.16206 15.0003 3.79933 16.6326C3.61703 17.4529 3.40691 18.0817 3.19091 18.4928C3.08263 18.6989 2.98578 18.8252 2.91107 18.894ZM2.8554 1.42188C2.85539 1.42196 2.85451 1.42226 2.85276 1.42254C2.85453 1.42194 2.8554 1.4218 2.8554 1.42188ZM2.83403 1.42188C2.83402 1.4218 2.8349 1.42194 2.83666 1.42254C2.83492 1.42226 2.83403 1.42196 2.83403 1.42188ZM2.83669 18.9467C2.8349 18.9473 2.83402 18.9475 2.83403 18.9474C2.83403 18.9473 2.83492 18.947 2.83669 18.9467Z" fill="white" stroke="#6F6464" stroke-width="1.03077"/>
</svg>
