<svg width="5" height="19" viewBox="0 0 5 19" fill="none" xmlns="http://www.w3.org/2000/svg">
<path d="M2.8554 18.255C2.8554 18.2551 2.85452 18.255 2.85276 18.2544C2.85451 18.2546 2.8554 18.2549 2.8554 18.255ZM2.91107 18.2016C2.87854 18.2315 2.8566 18.2451 2.84471 18.2509C2.83282 18.2451 2.81088 18.2315 2.77836 18.2016C2.70364 18.1328 2.60679 18.0065 2.49851 17.8004C2.28251 17.3893 2.07239 16.7606 1.8901 15.9402C1.52736 14.3079 1.29856 12.028 1.29856 9.49226C1.29856 6.95654 1.52736 4.67658 1.8901 3.04428C2.07239 2.22395 2.28251 1.59519 2.49851 1.18407C2.60679 0.977974 2.70364 0.851733 2.77836 0.782936C2.81088 0.752982 2.83282 0.73944 2.84471 0.733592C2.8566 0.73944 2.87854 0.752982 2.91107 0.782936C2.98578 0.851733 3.08263 0.977974 3.19091 1.18407C3.40691 1.59519 3.61703 2.22395 3.79933 3.04428C4.16206 4.67658 4.39087 6.95654 4.39087 9.49226C4.39087 12.028 4.16206 14.3079 3.79933 15.9402C3.61703 16.7606 3.40691 17.3893 3.19091 17.8004C3.08263 18.0065 2.98578 18.1328 2.91107 18.2016ZM2.8554 0.729494C2.85539 0.729574 2.85451 0.729874 2.85276 0.730157C2.85453 0.729557 2.8554 0.729415 2.8554 0.729494ZM2.83403 0.729494C2.83402 0.729415 2.8349 0.729556 2.83666 0.730156C2.83492 0.729874 2.83403 0.729574 2.83403 0.729494ZM2.83669 18.2543C2.8349 18.255 2.83402 18.2551 2.83403 18.255C2.83403 18.2549 2.83492 18.2546 2.83669 18.2543Z" fill="white" stroke="#6F6464" stroke-width="1.03077"/>
</svg>
