<svg width="86" height="132" viewBox="0 0 86 132" fill="none" xmlns="http://www.w3.org/2000/svg">
<path d="M1.6357 126.377L8.19488 130.314C11.3987 124.891 16.4741 116.856 21.63 109.807C24.2795 106.185 26.9572 102.813 29.4185 100.188C31.859 97.5839 34.1522 95.6403 36.0346 94.9759L36.1179 94.9466H36.2062H85.1715V75.8779H81.667C66.2149 75.8779 53.7331 62.7001 53.7331 46.5009C53.7331 40.1417 56.1578 34.115 59.3983 29.3334V0.877051L47.4787 5.64636C43.5074 23.9737 35.6772 62.607 34.6548 69.7656L34.6452 69.8331L34.6183 69.8958C33.0549 73.5427 30.5706 77.6948 28.913 80.2786C27.2087 82.9352 25.3991 85.7287 23.5504 88.5823C19.9343 94.1643 16.1689 99.9767 12.7511 105.446C7.5794 113.722 3.2386 121.159 1.42172 125.788C1.33924 125.998 1.4203 126.247 1.6357 126.377Z" fill="white" stroke="#6F6464" stroke-width="1.03077"/>
</svg>
