<svg width="4" height="140" viewBox="0 0 4 140" fill="none" xmlns="http://www.w3.org/2000/svg">
<path d="M2.7893 2.65773V72.2347C2.7893 72.7875 2.63897 73.2648 2.423 73.5887C2.20463 73.9163 1.95956 74.0385 1.75853 74.0385C1.55751 74.0385 1.31243 73.9163 1.09406 73.5887C0.878095 73.2648 0.727764 72.7875 0.727764 72.2347V2.65773C0.727764 2.10485 0.878095 1.62763 1.09406 1.30367C1.31243 0.976116 1.55751 0.853886 1.75853 0.853886C1.95956 0.853886 2.20463 0.976116 2.423 1.30367C2.63897 1.62763 2.7893 2.10485 2.7893 2.65773ZM2.7893 82.5746V137.656C2.7893 138.472 2.24837 138.977 1.75853 138.977C1.2687 138.977 0.727764 138.472 0.727764 137.656V82.5746C0.727764 81.7586 1.2687 81.2539 1.75853 81.2539C2.24837 81.2539 2.7893 81.7586 2.7893 82.5746Z" fill="white" stroke="#6F6464" stroke-width="1.03077"/>
</svg>
