<svg width="93" height="107" viewBox="0 0 93 107" fill="none" xmlns="http://www.w3.org/2000/svg">
<path d="M33.7219 101.118L33.7223 101.128V101.138C33.7223 102.698 34.3133 103.829 35.3127 104.585C36.3318 105.356 37.8283 105.777 39.6872 105.777H63.0992L63.0975 49.6969C61.7661 46.2613 61.0363 42.1806 61.0363 38.2612C61.0363 22.062 73.5181 8.88431 88.9702 8.88431H91.9594V2.0914C88.4619 1.42508 80.0715 0.605945 71.4362 2.176C67.0968 2.96498 63.3328 6.35557 60.3693 10.3878C57.4164 14.4056 55.3255 18.9697 54.3085 21.9361L54.1891 22.2843H53.8209H40.4209H40.3405L40.2638 22.2598L6.77156 11.5376L1.52102 17.2655C3.34248 23.5278 6.37658 32.8143 12.9839 41.0208C16.3461 44.8149 21.3569 51.0145 25.4806 57.3056C27.5439 60.4534 29.3926 63.6353 30.7012 66.5578C31.9987 69.4556 32.7932 72.1582 32.6906 74.3407L33.7219 101.118Z" fill="white" stroke="#6F6464" stroke-width="1.03077"/>
</svg>
