<svg width="20" height="14" viewBox="0 0 20 14" fill="none" xmlns="http://www.w3.org/2000/svg">
<path fill-rule="evenodd" clip-rule="evenodd" d="M20 6.07535V13.9069H0V7.7901L0.380309 7.79577C1.71591 7.81565 2.97122 7.83433 3.98164 7.86496C3.82482 6.9854 3.66798 5.96784 3.51113 4.95021C3.35418 3.93195 3.19723 2.91362 3.04027 2.03343C1.94277 2.03514 0.93147 2.06031 0 2.10434V0.867442C6.94633 0.628451 10.3022 1.32489 12.5768 2.15609C13.8419 2.61847 18.5208 5.17767 19.5348 5.79881C19.6881 5.89273 19.8435 5.98449 20 6.07535ZM16.5061 7.88629C15.6243 7.88629 6.84671 7.88389 6.84671 7.88389C6.84671 7.88389 5.42983 4.14827 4.92309 2.0747C4.98206 2.08011 6.72389 2.15625 6.72389 2.15625C6.72389 2.15625 10.1722 2.54882 12.3313 3.2614C14.0299 3.82201 17.3835 6.07513 17.4474 6.20831C16.4385 6.25995 16.1996 7.05468 16.5061 7.88629Z" fill="#2D65F2"/>
</svg>
