<svg width="22" height="20" viewBox="0 0 22 20" fill="none" xmlns="http://www.w3.org/2000/svg">
<path d="M18.6008 6.08128C18.4068 6.08128 18.2414 6.01277 18.1045 5.87576C17.9677 5.73874 17.8992 5.57327 17.8992 5.37936V4.10146H16.6213C16.4274 4.10146 16.262 4.03292 16.1249 3.89586C15.9879 3.75877 15.9194 3.59403 15.9194 3.40163C15.9194 3.20923 15.9879 3.04461 16.1249 2.90776C16.262 2.77089 16.4274 2.70246 16.6213 2.70246H17.8992V1.41976C17.8992 1.22954 17.9678 1.0658 18.1048 0.928531C18.2419 0.791281 18.4067 0.722656 18.5991 0.722656C18.7915 0.722656 18.9561 0.791281 19.0929 0.928531C19.2298 1.0658 19.2982 1.22954 19.2982 1.41976V2.70246H20.5809C20.7712 2.70246 20.9349 2.77112 21.0722 2.90846C21.2094 3.04577 21.278 3.20959 21.278 3.39991C21.278 3.59391 21.2094 3.75933 21.0722 3.89618C20.9349 4.03303 20.7712 4.10146 20.5809 4.10146H19.2982V5.37936C19.2982 5.57327 19.2296 5.73874 19.0922 5.87576C18.9549 6.01277 18.7911 6.08128 18.6008 6.08128ZM10.0002 16.0149C11.1258 16.0149 12.0784 15.626 12.8579 14.8483C13.6374 14.0705 14.0271 13.1171 14.0271 11.988C14.0271 10.8656 13.6374 9.91462 12.8579 9.13513C12.0784 8.35565 11.1258 7.96591 10.0002 7.96591C8.87457 7.96591 7.92281 8.35565 7.14492 9.13513C6.36704 9.91462 5.9781 10.8656 5.9781 11.988C5.9781 13.1171 6.36704 14.0705 7.14492 14.8483C7.92281 15.626 8.87457 16.0149 10.0002 16.0149ZM9.99652 14.6159C9.25407 14.6159 8.63189 14.3638 8.12997 13.8597C7.62807 13.3555 7.37712 12.7333 7.37712 11.9931C7.37712 11.2529 7.62817 10.6298 8.13027 10.1239C8.63237 9.61792 9.25478 9.36493 9.9975 9.36493C10.7402 9.36493 11.3643 9.61792 11.8698 10.1239C12.3753 10.6298 12.6281 11.2529 12.6281 11.9931C12.6281 12.7333 12.3751 13.3555 11.8691 13.8597C11.3632 14.3638 10.739 14.6159 9.99652 14.6159ZM2.40677 19.2986C1.93422 19.2986 1.53198 19.1326 1.20005 18.8007C0.868115 18.4687 0.702148 18.0662 0.702148 17.5932V6.39536C0.702148 5.92229 0.868115 5.51979 1.20005 5.18786C1.53198 4.85592 1.93492 4.68996 2.40887 4.68996H5.46272L6.76272 3.26496C6.91881 3.09016 7.10761 2.95271 7.32915 2.85261C7.55068 2.75251 7.78527 2.70246 8.0329 2.70246H13.131C13.3212 2.70246 13.4849 2.77127 13.6222 2.90891C13.7594 3.04652 13.8281 3.21072 13.8281 3.40148V4.91158C13.8281 5.26748 13.9532 5.57 14.2036 5.81913C14.4539 6.06826 14.7579 6.19283 15.1155 6.19283H15.8079V6.88516C15.8079 7.24279 15.9324 7.54678 16.1815 7.79713C16.4306 8.04746 16.733 8.17263 17.0889 8.17263H18.6006C18.7917 8.17263 18.9557 8.24126 19.0927 8.37853C19.2297 8.51578 19.2982 8.67951 19.2982 8.86973V17.5918C19.2982 18.0658 19.1323 18.4687 18.8003 18.8007C18.4684 19.1326 18.0662 19.2986 17.5936 19.2986H2.40677Z" fill="#2D65F2"/>
</svg>
