<svg width="35" height="24" viewBox="0 0 35 24" fill="none" xmlns="http://www.w3.org/2000/svg">
<path d="M34.1668 10.0542V17.832C34.1668 18.0899 34.0571 18.3372 33.8617 18.5195C33.6664 18.7018 33.4014 18.8042 33.1252 18.8042C32.8489 18.8042 32.5839 18.7018 32.3886 18.5195C32.1932 18.3372 32.0835 18.0899 32.0835 17.832V14.9154H30.0002V16.8598C30.0002 17.3755 29.7807 17.8701 29.39 18.2347C28.9993 18.5994 28.4694 18.8042 27.9168 18.8042H26.2645L21.6668 23.0954C21.4741 23.2767 21.2446 23.4205 20.9918 23.5184C20.739 23.6162 20.4679 23.6662 20.1942 23.6654H11.6812C11.4075 23.6662 11.1363 23.6162 10.8835 23.5184C10.6307 23.4205 10.4013 23.2767 10.2085 23.0954L5.61084 18.8042C5.41654 18.6243 5.2625 18.4102 5.15766 18.1742C5.05283 17.9383 4.99929 17.6852 5.00016 17.4298V14.9154H2.91683V17.832C2.91683 18.0899 2.80708 18.3372 2.61173 18.5195C2.41638 18.7018 2.15143 18.8042 1.87516 18.8042C1.5989 18.8042 1.33394 18.7018 1.13859 18.5195C0.943243 18.3372 0.833496 18.0899 0.833496 17.832V10.0542C0.833496 9.7964 0.943243 9.54911 1.13859 9.36678C1.33394 9.18446 1.5989 9.08203 1.87516 9.08203C2.15143 9.08203 2.41638 9.18446 2.61173 9.36678C2.80708 9.54911 2.91683 9.7964 2.91683 10.0542V12.9709H5.00016V6.16536C5.00016 5.64966 5.21966 5.15509 5.61036 4.79043C6.00106 4.42578 6.53096 4.22092 7.0835 4.22092H15.4168V2.27647H12.2918C12.0156 2.27647 11.7506 2.17404 11.5553 1.99172C11.3599 1.80939 11.2502 1.5621 11.2502 1.30425C11.2502 1.0464 11.3599 0.799116 11.5553 0.616789C11.7506 0.434462 12.0156 0.332031 12.2918 0.332031H20.6252C20.9014 0.332031 21.1664 0.434462 21.3617 0.616789C21.5571 0.799116 21.6668 1.0464 21.6668 1.30425C21.6668 1.5621 21.5571 1.80939 21.3617 1.99172C21.1664 2.17404 20.9014 2.27647 20.6252 2.27647H17.5002V4.22092H20.1942C20.4679 4.2201 20.739 4.27007 20.9918 4.36792C21.2446 4.46576 21.4741 4.60954 21.6668 4.79088L26.2645 9.08203H27.9168C28.4694 9.08203 28.9993 9.28689 29.39 9.65154C29.7807 10.0162 30.0002 10.5108 30.0002 11.0265V12.9709H32.0835V10.0542C32.0835 9.7964 32.1932 9.54911 32.3886 9.36678C32.5839 9.18446 32.8489 9.08203 33.1252 9.08203C33.4014 9.08203 33.6664 9.18446 33.8617 9.36678C34.0571 9.54911 34.1668 9.7964 34.1668 10.0542Z" fill="#2D65F2"/>
</svg>
