<svg width="29" height="29" viewBox="0 0 29 29" fill="none" xmlns="http://www.w3.org/2000/svg">
<path d="M10.4272 20.8235C7.63933 20.8235 5.28183 19.8593 3.35466 17.9309C1.42746 16.0024 0.463867 13.6483 0.463867 10.8684C0.463867 8.08854 1.42663 5.73386 3.35216 3.80436C5.27769 1.87489 7.63185 0.910156 10.4147 0.910156C13.1974 0.910156 15.5536 1.87504 17.483 3.80482C19.4125 5.7346 20.3772 8.09038 20.3772 10.8722C20.3772 12.0364 20.1817 13.158 19.7907 14.237C19.3997 15.3161 18.8778 16.2503 18.225 17.0396L27.7395 26.5314C27.9617 26.7529 28.0755 27.0242 28.0808 27.3452C28.0861 27.6663 27.9694 27.9448 27.7307 28.1809C27.4919 28.417 27.216 28.5351 26.9029 28.5351C26.5899 28.5351 26.3171 28.4188 26.0845 28.1864L16.5791 18.6713C15.7533 19.3593 14.803 19.8901 13.7282 20.2634C12.6535 20.6368 11.5531 20.8235 10.4272 20.8235ZM10.4206 18.4919C12.5541 18.4919 14.3584 17.7554 15.8332 16.2826C17.3081 14.8097 18.0456 13.0042 18.0456 10.8659C18.0456 8.72763 17.3081 6.92238 15.8332 5.45016C14.3584 3.97793 12.5528 3.24182 10.4166 3.24182C8.28035 3.24182 6.47613 3.97825 5.00391 5.45112C3.53169 6.92398 2.79558 8.72953 2.79558 10.8678C2.79558 13.0061 3.53191 14.8113 5.00458 16.2835C6.47724 17.7558 8.28258 18.4919 10.4206 18.4919Z" fill="#2D65F2"/>
</svg>
