<svg width="31" height="30" viewBox="0 0 31 30" fill="none" xmlns="http://www.w3.org/2000/svg">
<path d="M26.1066 4.39342C23.2735 1.56023 19.5066 0 15.5 0C11.4934 0 7.72654 1.56023 4.89336 4.39342C2.06023 7.22654 0.5 10.9934 0.5 15C0.5 19.0066 2.06023 22.7735 4.89336 25.6066C7.72654 28.4398 11.4934 30 15.5 30C19.5066 30 23.2735 28.4398 26.1066 25.6066C28.9398 22.7735 30.5 19.0066 30.5 15C30.5 10.9934 28.9398 7.22654 26.1066 4.39342ZM15.5 3.35525C21.4052 3.35525 26.2974 7.77375 27.0453 13.4782L19.8271 12.7752C19.0177 11.2075 17.3826 10.1325 15.5 10.1325C13.6174 10.1325 11.9823 11.2075 11.1729 12.7752L3.95469 13.4782C4.70258 7.77375 9.5948 3.35525 15.5 3.35525ZM3.95053 16.4868L11.0832 17.0425C11.5338 18.0122 12.2943 18.8101 13.2371 19.3075L13.7046 26.5062C8.616 25.7153 4.60736 21.6178 3.95053 16.4868ZM15.5 16.5122C14.6661 16.5122 13.9878 15.8338 13.9878 15C13.9878 14.1662 14.6662 13.4878 15.5 13.4878C16.3338 13.4878 17.0122 14.1662 17.0122 15C17.0122 15.8338 16.3339 16.5122 15.5 16.5122ZM17.2955 26.5062L17.763 19.3075C18.7058 18.8101 19.4663 18.0122 19.9169 17.0425L27.0496 16.4868C26.3926 21.6178 22.384 25.7153 17.2955 26.5062Z" fill="#2D65F2"/>
</svg>
