<svg width="26" height="27" viewBox="0 0 26 27" fill="none" xmlns="http://www.w3.org/2000/svg">
<path d="M3.51847 9.42085C3.37879 9.01994 3.56536 8.57837 3.9502 8.39908L20.0299 0.907672C20.4083 0.731362 20.8576 0.902736 21.0225 1.28629L4.68449 9.8807C4.23697 10.1161 3.68484 9.89836 3.51847 9.42085Z" fill="#2D65F2"/>
<path d="M0.320312 22.1172L8.68083 22.1025C8.4678 21.4685 8.35223 20.7899 8.35223 20.0843C8.35223 16.5877 11.1867 13.7533 14.6832 13.7533C18.1798 13.7533 21.0142 16.5877 21.0142 20.0843C21.0142 20.6971 20.9269 21.2895 20.7644 21.8499L21.1228 21.8424C21.1228 21.8424 23.886 21.7089 24.5599 21.396C25.2338 21.0831 25.4973 20.1907 25.4973 20.1907L25.3188 18.3159C25.3188 18.3159 26.1489 14.3429 25.2742 13.0038C24.5833 11.9461 22.9907 11.4645 21.5453 11.0275C21.2623 10.9419 20.9849 10.858 20.7211 10.7719C12.1576 8.70347 7.94363 8.7215 5.59079 8.73157C4.85188 8.73473 4.29652 8.73711 3.84764 8.67383C3.5863 8.60412 3.34449 8.42514 3.11793 8.25745C3.016 8.182 2.91712 8.10882 2.82097 8.04892C2.46098 7.82467 2.09379 7.61472 1.72851 7.40586C1.4046 7.22066 1.08219 7.03632 0.767618 6.84361C0.656354 6.77546 0.504631 6.68591 0.320312 6.57945V22.1172Z" fill="#2D65F2"/>
<path d="M14.1257 20.0841C14.1257 19.7761 14.3754 19.5265 14.6833 19.5265C14.9913 19.5265 15.241 19.7761 15.241 20.0841C15.241 20.392 14.9913 20.6417 14.6833 20.6417C14.3754 20.6417 14.1257 20.392 14.1257 20.0841Z" fill="#2D65F2"/>
<path d="M13.8889 18.4038C13.9435 18.3779 13.9996 18.3544 14.057 18.3338V16.4193C13.4971 16.5143 12.98 16.7346 12.5351 17.0501L13.8889 18.4038Z" fill="#2D65F2"/>
<path d="M14.4469 21.3454C14.4469 21.2148 14.5527 21.1089 14.6833 21.1089C14.8138 21.1089 14.9196 21.2148 14.9197 21.3454C14.9197 21.4759 14.8139 21.5817 14.6833 21.5817C14.5527 21.5817 14.4469 21.4759 14.4469 21.3454Z" fill="#2D65F2"/>
<path d="M15.3097 21.8345V23.749C15.8696 23.654 16.3866 23.4337 16.8315 23.1182L15.4778 21.7644C15.4231 21.7903 15.3672 21.8139 15.3097 21.8345Z" fill="#2D65F2"/>
<path d="M16.3638 20.8788C16.3896 20.8242 16.4129 20.7679 16.4334 20.7104H18.3482C18.2531 21.2703 18.0331 21.7877 17.7175 22.2324L16.3638 20.8788Z" fill="#2D65F2"/>
<path d="M13.0028 19.2895L11.6491 17.9357C11.3335 18.3806 11.1134 18.8978 11.0184 19.4578H12.9331C12.9537 19.4003 12.9769 19.3441 13.0028 19.2895Z" fill="#2D65F2"/>
<path d="M13.422 19.8476C13.5525 19.8476 13.6584 19.9534 13.6584 20.084C13.6584 20.2146 13.5526 20.3204 13.422 20.3204C13.2915 20.3204 13.1856 20.2146 13.1856 20.084C13.1856 19.9534 13.2915 19.8476 13.422 19.8476Z" fill="#2D65F2"/>
<path d="M14.6833 19.0592C14.8139 19.0592 14.9197 18.9533 14.9197 18.8227C14.9197 18.6922 14.8139 18.5864 14.6833 18.5864C14.5527 18.5864 14.4469 18.6922 14.4469 18.8227C14.4469 18.9533 14.5527 19.0592 14.6833 19.0592Z" fill="#2D65F2"/>
<path d="M15.3097 16.4193C15.8696 16.5143 16.3867 16.7345 16.8316 17.05L15.4778 18.4038C15.4232 18.3778 15.3672 18.3544 15.3097 18.3338V16.4193Z" fill="#2D65F2"/>
<path d="M15.7081 20.084C15.7081 20.2146 15.814 20.3204 15.9446 20.3204C16.0751 20.3204 16.181 20.2146 16.181 20.084C16.181 19.9534 16.0751 19.8476 15.9446 19.8476C15.814 19.8477 15.7081 19.9535 15.7081 20.084Z" fill="#2D65F2"/>
<path d="M14.057 23.749C13.4971 23.654 12.9798 23.4338 12.535 23.1183L13.8887 21.7645C13.9434 21.7905 13.9994 21.8139 14.057 21.8345V23.749Z" fill="#2D65F2"/>
<path d="M12.9329 20.7104H11.0184C11.1134 21.2703 11.3336 21.7875 11.6492 22.2324L13.0029 20.8786C12.9769 20.824 12.9535 20.7679 12.9329 20.7104Z" fill="#2D65F2"/>
<path d="M18.3481 19.4578H16.4336C16.413 19.4003 16.3895 19.3442 16.3636 19.2896L17.7174 17.9358C18.0329 18.3807 18.2531 18.8978 18.3481 19.4578Z" fill="#2D65F2"/>
<path fill-rule="evenodd" clip-rule="evenodd" d="M14.6833 13.9968C11.3213 13.9968 8.59594 16.7222 8.59594 20.0842C8.59594 23.4462 11.3213 26.1716 14.6833 26.1716C18.0453 26.1716 20.7707 23.4462 20.7707 20.0842C20.7707 16.7222 18.0452 13.9968 14.6833 13.9968ZM14.6833 24.4323C12.282 24.4323 10.3352 22.4856 10.3352 20.0842C10.3352 17.6828 12.282 15.736 14.6833 15.736C17.0847 15.736 19.0315 17.6828 19.0315 20.0842C19.0315 22.4856 17.0847 24.4323 14.6833 24.4323Z" fill="#2D65F2"/>
</svg>
