<svg width="20" height="14" viewBox="0 0 20 14" fill="none" xmlns="http://www.w3.org/2000/svg">
<path fill-rule="evenodd" clip-rule="evenodd" d="M0 6.07535V13.9069H20V7.7901L19.6197 7.79577C18.2841 7.81565 17.0288 7.83433 16.0184 7.86496C16.1752 6.9854 16.332 5.96784 16.4889 4.95021C16.6458 3.93195 16.8028 2.91362 16.9597 2.03343C18.0572 2.03514 19.0685 2.06031 20 2.10434V0.867442C13.0537 0.628451 9.69782 1.32489 7.42322 2.15609C6.15814 2.61847 1.4792 5.17767 0.465179 5.79881C0.311858 5.89273 0.156508 5.98449 0 6.07535ZM3.49388 7.88629C4.37566 7.88629 13.1533 7.88389 13.1533 7.88389C13.1533 7.88389 14.5702 4.14827 15.0769 2.0747C15.0179 2.08011 13.2761 2.15625 13.2761 2.15625C13.2761 2.15625 9.82777 2.54883 7.66871 3.2614C5.97008 3.82201 2.61651 6.07513 2.55259 6.20831C3.56151 6.25995 3.80036 7.05468 3.49388 7.88629Z" fill="#2D65F2"/>
</svg>
