<svg width="26" height="26" viewBox="0 0 26 26" fill="none" xmlns="http://www.w3.org/2000/svg">
<path d="M15.3474 7.84157C15.1394 7.61708 15.1461 7.26832 15.3625 7.05192L21.9977 0.416647C22.1517 0.262709 22.4019 0.264716 22.5533 0.421101C22.6973 0.569823 22.7 0.805199 22.5593 0.957089L16.1829 7.84151C15.9575 8.08481 15.5728 8.08484 15.3474 7.84157Z" fill="#2D65F2"/>
<path d="M21.8926 0.56431C22.0839 0.291084 22.4744 0.254286 22.7133 0.486976L24.6093 2.33345C24.9103 2.62659 24.9121 3.10971 24.6132 3.40503L21.9963 1.29581C21.7747 1.11721 21.7294 0.797469 21.8926 0.56431Z" fill="#2D65F2"/>
<path fill-rule="evenodd" clip-rule="evenodd" d="M0.273998 21.6095V8.36607C3.59833 8.29428 6.67394 8.16125 7.50396 7.80759C9.34882 6.58186 8.72068 5.17607 8.57515 4.85037C8.5546 4.80438 8.54367 4.77992 8.5507 4.78056C8.1319 4.40735 6.19109 3.0335 0.273998 2.41869V0.988014C1.119 1.03988 2.00504 1.10263 2.9347 1.17708C3.16067 1.11498 3.3436 0.995091 3.52813 0.874154C3.72772 0.743349 3.92918 0.61132 4.18896 0.549867C4.55039 0.464364 4.89022 0.580323 5.18375 0.680485C5.29188 0.717382 5.39373 0.752136 5.48806 0.773885C5.48171 1.15382 5.51564 1.46218 5.57765 1.75938C6.69881 2.23217 7.82659 2.65048 8.95284 3.06821C10.102 3.49444 11.2495 3.92008 12.3868 4.40241C12.733 4.54921 13.0832 4.69485 13.4354 4.8413L13.436 4.84155C14.0397 5.0926 14.6491 5.34605 15.2539 5.61191C15.4762 5.70969 15.6948 5.82279 15.9165 5.93746C16.2887 6.13004 16.6695 6.32702 17.0905 6.46315C17.4874 6.59136 17.9044 6.61831 18.3313 6.6459C18.6892 6.66903 19.0541 6.69261 19.42 6.77667C20.8808 7.11227 22.4647 7.15711 24.0789 7.17987C24.1362 7.27806 24.2067 7.37648 24.2789 7.47735C24.4393 7.70132 24.6084 7.9375 24.6613 8.21028C24.3817 8.29657 24.2881 8.48928 24.303 8.88216C24.71 9.48532 24.6918 10.2995 24.6709 11.2285C24.6665 11.427 24.6619 11.6308 24.6613 11.8388C25.7138 12.3777 25.8739 14.3523 25.6021 15.9154L25.6917 16.3186C25.669 16.4964 25.6322 16.6781 25.5948 16.8632C25.5391 17.1382 25.482 17.4204 25.4677 17.7073C25.0725 17.9724 24.6244 18.3982 24.3478 18.7825C24.3062 18.8403 24.2712 18.9109 24.2354 18.9832C24.1551 19.1452 24.0709 19.3151 23.8999 19.3649C22.5775 20.3301 15.8812 20.5296 15.8812 20.5296L15.5289 20.5489C15.5828 20.2161 15.6112 19.8747 15.6112 19.5268C15.6112 16.0178 12.7666 13.1733 9.25769 13.1733C5.74871 13.1733 2.90416 16.0178 2.90416 19.5268C2.90416 20.1161 2.9847 21.073 3.13495 21.6145L0.273998 21.6095ZM8.62388 4.85053C8.60865 4.83437 8.58437 4.81051 8.5507 4.78056C8.55721 4.78115 8.57921 4.80324 8.62388 4.85053Z" fill="#2D65F2"/>
<path d="M9.88609 17.7702C9.94378 17.7908 9.99996 17.8144 10.0549 17.8405L11.4133 16.4819C10.9669 16.1653 10.448 15.9442 9.88609 15.8489V17.7702Z" fill="#2D65F2"/>
<path d="M7.57122 18.7294C7.54524 18.7842 7.52173 18.8404 7.501 18.8981H5.57959C5.67494 18.3362 5.89599 17.8173 6.21265 17.3708L7.57122 18.7294Z" fill="#2D65F2"/>
<path d="M9.81723 19.5267C9.81723 19.2177 9.56664 18.9671 9.2576 18.9671C8.94848 18.9671 8.69798 19.2177 8.69798 19.5267C8.69798 19.8357 8.94857 20.0863 9.2576 20.0863C9.56664 20.0863 9.81723 19.8357 9.81723 19.5267Z" fill="#2D65F2"/>
<path d="M9.49482 20.7925C9.49482 20.6614 9.38856 20.5552 9.2576 20.5552C9.12656 20.5552 9.02039 20.6614 9.02039 20.7925C9.02039 20.9234 9.12656 21.0297 9.2576 21.0297C9.38865 21.0297 9.49482 20.9234 9.49482 20.7925Z" fill="#2D65F2"/>
<path d="M8.62895 21.2833V23.2046C8.06705 23.1093 7.54812 22.8882 7.10169 22.5716L8.46026 21.213C8.51508 21.239 8.57126 21.2627 8.62895 21.2833Z" fill="#2D65F2"/>
<path d="M6.21256 21.6827L7.57105 20.3242C7.54508 20.2694 7.52181 20.213 7.50109 20.1553H5.57959C5.67502 20.7172 5.89583 21.2364 6.21256 21.6827Z" fill="#2D65F2"/>
<path d="M9.2576 18.4982C9.12656 18.4982 9.02039 18.3919 9.02039 18.2609C9.02039 18.1299 9.12656 18.0236 9.2576 18.0236C9.38856 18.0236 9.49482 18.1299 9.49482 18.2609C9.49474 18.3919 9.38856 18.4982 9.2576 18.4982Z" fill="#2D65F2"/>
<path d="M8.62895 15.8489C8.06713 15.9442 7.54804 16.1652 7.10169 16.4818L8.46018 17.8404C8.515 17.8143 8.57126 17.7908 8.62895 17.7702V15.8489Z" fill="#2D65F2"/>
<path d="M10.944 18.7293L12.3025 17.3707C12.6192 17.8171 12.8401 18.3362 12.9354 18.8981H11.014C10.9933 18.8404 10.9701 18.7841 10.944 18.7293Z" fill="#2D65F2"/>
<path d="M9.88609 23.2046C10.448 23.1093 10.9671 22.8883 11.4135 22.5717L10.0549 21.2131C10.0001 21.2391 9.94378 21.2627 9.88609 21.2833V23.2046Z" fill="#2D65F2"/>
<path d="M11.0141 20.1553H12.9354C12.8401 20.7172 12.6191 21.2362 12.3025 21.6827L10.9439 20.324C10.9699 20.2692 10.9935 20.213 11.0141 20.1553Z" fill="#2D65F2"/>
<path d="M10.5233 19.2894C10.3922 19.2894 10.2861 19.3956 10.2861 19.5266C10.2861 19.6577 10.3923 19.7638 10.5233 19.7638C10.6543 19.7638 10.7605 19.6577 10.7605 19.5266C10.7605 19.3956 10.6543 19.2894 10.5233 19.2894Z" fill="#2D65F2"/>
<path d="M8.22905 19.5266C8.22905 19.6577 8.12288 19.7638 7.99184 19.7638C7.8608 19.7638 7.75463 19.6577 7.75463 19.5266C7.75463 19.3956 7.8608 19.2894 7.99184 19.2894C8.12288 19.2895 8.22905 19.3957 8.22905 19.5266Z" fill="#2D65F2"/>
<path fill-rule="evenodd" clip-rule="evenodd" d="M15.3666 19.5268C15.3666 16.1528 12.6315 13.4177 9.2576 13.4177C5.88364 13.4177 3.14857 16.1528 3.14857 19.5268C3.14857 22.9008 5.88364 25.6358 9.2576 25.6358C12.6315 25.6358 15.3666 22.9008 15.3666 19.5268ZM13.6212 19.5268C13.6212 21.9367 11.6676 23.8904 9.2576 23.8904C6.84764 23.8904 4.89401 21.9367 4.89401 19.5268C4.89401 17.1169 6.84764 15.1632 9.2576 15.1632C11.6676 15.1632 13.6212 17.1169 13.6212 19.5268Z" fill="#2D65F2"/>
</svg>
