<svg width="34" height="34" viewBox="0 0 34 34" fill="none" xmlns="http://www.w3.org/2000/svg">
<path d="M15.5003 32.3346C22.8645 32.3346 28.8337 26.3655 28.8337 19.0013C28.8337 11.6371 22.8645 5.66797 15.5003 5.66797C8.13616 5.66797 2.16699 11.6371 2.16699 19.0013C2.16699 26.3655 8.13616 32.3346 15.5003 32.3346Z" stroke="#2D65F2" stroke-width="3.33333" stroke-linecap="round" stroke-linejoin="round"/>
<path d="M15.5003 22.3359C16.3844 22.3359 17.2322 21.9847 17.8573 21.3596C18.4825 20.7345 18.8337 19.8867 18.8337 19.0026C18.8337 18.1185 18.4825 17.2707 17.8573 16.6456C17.2322 16.0205 16.3844 15.6693 15.5003 15.6693C14.6163 15.6693 13.7684 16.0205 13.1433 16.6456C12.5182 17.2707 12.167 18.1185 12.167 19.0026C12.167 19.8867 12.5182 20.7345 13.1433 21.3596C13.7684 21.9847 14.6163 22.3359 15.5003 22.3359ZM15.5003 2.33594C17.689 2.33594 19.8563 2.76703 21.8784 3.60461C23.9005 4.44219 25.7378 5.66985 27.2854 7.21749C28.8331 8.76513 30.0607 10.6025 30.8983 12.6245C31.7359 14.6466 32.167 16.8139 32.167 19.0026H25.5053C25.5053 16.3491 24.4512 13.8043 22.5749 11.928C20.6986 10.0517 18.1538 8.9976 15.5003 8.9976V2.33594Z" fill="#2D65F2" stroke="#2D65F2" stroke-width="3.33333" stroke-linecap="round" stroke-linejoin="round"/>
</svg>
