<svg width="52" height="56" viewBox="0 0 52 56" fill="none" xmlns="http://www.w3.org/2000/svg">
<path d="M24.0615 53.7809C10.5672 52.7868 0 41.3978 0 27.8524C0 15.9062 8.08205 5.53509 19.6557 2.63281L20.461 5.83927C10.3587 8.37227 3.30536 17.4245 3.30536 27.8524C3.30536 39.6767 12.5282 49.6167 24.3038 50.4854L24.0615 53.7809Z" fill="#2D65F2"/>
<path d="M25.9987 3.50811C23.3527 4.92834 20.1381 7.17204 18.2505 9.34071L19.294 4.43542L16.958 0C19.3624 1.57272 23.0675 2.86023 25.9987 3.50811Z" fill="#2D65F2"/>
<path d="M32.3439 53.0683L31.5403 49.8627C41.6409 47.3297 48.6959 38.2775 48.6959 27.8479C48.6959 15.9239 39.3865 5.97818 27.5029 5.20336L27.7172 1.90625C41.3343 2.79152 51.9996 14.188 51.9996 27.8479C51.9996 39.7942 43.9176 50.1661 32.3439 53.0683Z" fill="#2D65F2"/>
<path d="M25.999 52.185C28.6466 50.7623 31.8613 48.5194 33.7481 46.3516L32.7045 51.2568L35.0397 55.6931C32.6353 54.1196 28.931 52.832 25.999 52.185Z" fill="#2D65F2"/>
<path d="M17.9415 26.4443C16.64 28.7737 15.2033 28.3632 13.5498 28.3665C12.648 28.3682 11.2608 28.3682 11.03 27.2768C10.9575 26.9768 10.9575 26.5267 11.03 26.1847C11.1413 25.6629 11.2567 25.7346 11.8172 25.733C12.6802 25.733 13.5102 25.8121 14.3724 25.9613C15.5009 26.1451 16.8164 26.1097 17.9415 26.4443Z" fill="white"/>
<path opacity="0.8" d="M18.3098 32.258C18.0617 33.1128 17.8383 34.3006 16.9365 34.6015C16.3859 34.8042 15.1165 34.7597 14.514 34.7597C13.51 34.763 12.5547 34.7193 11.5499 34.7193C10.6481 34.721 10.4973 34.4218 10.6992 33.52C10.8995 32.8664 10.7759 32.2481 11.4485 31.9984C12.0774 31.7626 16.5334 31.8731 18.3098 32.258Z" fill="#6F6464"/>
<path d="M12.8902 21.9177C12.7724 22.1279 12.6957 22.287 12.6652 22.3727C12.5828 22.6225 12.5506 22.7461 12.5243 22.817C12.38 22.7816 12.2209 22.7189 12.0923 22.761C11.9637 22.8129 11.9423 22.9349 11.7931 22.9736C11.6142 23.0107 11.3521 22.9126 11.1774 22.8879C10.8015 22.8269 10.4116 22.7733 10.0366 22.6868C9.43487 22.55 9.22384 21.9862 9.26094 21.4223C9.29803 20.8965 9.83382 20.7225 10.2608 20.6582C10.6853 20.5816 11.2648 20.3936 11.6629 20.6335C12.2465 20.9896 12.0149 22.0776 12.8902 21.9177Z" fill="#999999"/>
<path d="M41.3253 26.1015C41.2964 25.5723 40.0666 24.4447 39.7138 24.0944C39.4805 23.8685 38.6661 23.1712 38.3908 22.9931C38.2293 22.8909 38.198 22.8909 38.1576 22.7895C38.132 22.7203 38.0974 22.595 38.0158 22.3453C37.987 22.2595 37.9086 22.1021 37.7908 21.8919C37.0844 20.6159 35.027 17.4375 34.8539 17.2636C34.6528 17.0616 34.201 16.6627 33.5622 16.5481C32.9251 16.436 26.5377 16.1055 25.3343 16.1055C24.1317 16.1071 17.7452 16.4541 17.108 16.5662C16.4692 16.6808 16.0183 17.0798 15.8172 17.2809C15.6466 17.4565 13.5941 20.6373 12.8918 21.9166C12.7739 22.1268 12.6973 22.2859 12.6668 22.3716C12.5844 22.6214 12.5522 22.745 12.5258 22.8159C12.4978 22.8835 12.3363 22.9964 12.272 23.0327C12.2588 23.0442 12.2489 23.0475 12.2489 23.0475C12.0725 23.1687 11.3611 23.6526 10.9737 24.0622C10.3934 24.6755 9.39028 25.6044 9.36473 26.1312C9.34082 26.6595 9.11498 27.0346 9.16691 28.0855C9.19164 28.599 9.33259 30.1438 9.47272 31.6192C9.61367 33.1647 9.75956 34.6303 9.77357 34.7457C9.79912 34.9707 9.72494 35.2221 9.82386 35.4208C9.92689 35.6236 10.1767 35.6738 10.574 35.6738C10.6976 35.6713 12.0313 35.6911 13.8562 35.7134C18.2125 35.7653 25.3541 35.856 25.3541 35.856C25.3541 35.856 32.7223 35.7463 37.0539 35.6878C38.7741 35.6598 40.0204 35.6441 40.1325 35.6425C40.5307 35.6441 40.7812 35.593 40.8843 35.3927C40.9815 35.1933 40.9074 34.9394 40.9329 34.7152C40.9502 34.5586 41.2066 31.9135 41.3755 29.9583C41.453 29.0994 41.5124 28.3757 41.5272 28.0525C41.575 27.0024 41.3492 26.6249 41.3253 26.1015ZM38.8664 25.7116C39.4319 25.7108 39.5448 25.6391 39.6586 26.16C39.7328 26.5013 39.7328 26.9513 39.6611 27.2505C39.4336 28.3435 38.0455 28.3452 37.1437 28.3452C35.4894 28.3485 34.0527 28.7614 32.7487 26.4312C33.8689 26.0949 35.1877 26.1295 36.3153 25.9424C37.1758 25.7907 38.0067 25.7116 38.8664 25.7116ZM16.1428 17.4317L25.3335 17.013L34.5258 17.4119C34.5258 17.4119 37.8378 22.5719 37.5888 22.5719C37.3498 22.5719 29.0633 22.107 25.3384 22.1895C21.616 22.1145 13.3287 22.5934 13.0921 22.5958C12.8415 22.595 16.1428 17.4317 16.1428 17.4317ZM11.0298 26.1872C11.141 25.6654 11.2565 25.7372 11.817 25.7355C12.68 25.7355 13.51 25.8146 14.3722 25.9638C15.5007 26.1476 16.8162 26.1122 17.9413 26.4468C16.6398 28.7763 15.2031 28.3658 13.5496 28.3691C12.6478 28.3707 11.2606 28.3707 11.0298 27.2794C10.9572 26.9793 10.9572 26.5301 11.0298 26.1872ZM16.9365 34.599C16.3859 34.8017 15.1165 34.7572 14.514 34.7572C14.2906 34.758 14.073 34.7539 13.8554 34.7523C13.3254 34.7457 12.7978 34.7317 12.2645 34.7234C12.0296 34.721 11.7914 34.7168 11.5499 34.7168C10.6481 34.7185 10.4973 34.4193 10.6992 33.5175C10.8995 32.8639 10.7759 32.2457 11.4485 31.9959C11.6933 31.9036 12.5102 31.864 13.5249 31.8764C13.632 31.8731 13.7425 31.8747 13.8537 31.878C14.1892 31.8846 14.5445 31.8953 14.903 31.9085C15.1165 31.9192 15.3317 31.9308 15.5452 31.9415C15.6235 31.9456 15.7026 31.9522 15.7751 31.9563C15.8947 31.9629 16.0068 31.9712 16.1213 31.9802C16.2359 31.9901 16.3497 31.9992 16.4576 32.0058C16.5722 32.0157 16.6818 32.0264 16.789 32.0363C16.9497 32.0511 17.108 32.0692 17.2572 32.0857C17.3602 32.0981 17.4583 32.108 17.5506 32.1245C17.6306 32.136 17.7081 32.1467 17.7806 32.1566C17.8169 32.1632 17.8531 32.1706 17.8894 32.1756C17.9364 32.1805 17.9809 32.1904 18.0262 32.2011C18.0435 32.2028 18.0617 32.2053 18.079 32.2077C18.1095 32.2135 18.14 32.2209 18.1688 32.2242C18.2175 32.2366 18.2603 32.244 18.3073 32.2531C18.0617 33.1111 17.8375 34.2989 16.9365 34.599ZM29.6848 34.2264L21.0167 34.2346C20.8931 34.2346 19.6402 34.3599 19.3154 33.459C18.9857 32.5564 18.4845 31.0999 18.309 30.3795C18.1202 29.6154 17.5061 28.3073 21.1882 28.388C23.0889 28.4301 24.4614 28.4276 25.345 28.4128C26.2286 28.4268 27.6011 28.4251 29.5027 28.3798C33.1839 28.2932 32.5731 29.6014 32.3868 30.3647C32.2088 31.0875 31.7117 32.544 31.3861 33.4458C31.063 34.3475 29.8101 34.2264 29.6848 34.2264ZM39.1558 34.6921C38.4419 34.6938 37.7529 34.7144 37.053 34.7259C36.767 34.7341 36.4826 34.7374 36.1892 34.7374C35.5883 34.7391 34.3164 34.7836 33.7658 34.585C32.8665 34.2841 32.639 33.0971 32.3893 32.244C32.4503 32.2275 32.517 32.216 32.5855 32.2053C32.6761 32.1847 32.7734 32.1698 32.8723 32.1525C32.9391 32.1434 33.0091 32.1319 33.0784 32.1212C33.099 32.1179 33.1204 32.1162 33.1443 32.1113C33.2358 32.1014 33.3323 32.0882 33.4295 32.0775C33.4361 32.0775 33.4468 32.0734 33.4551 32.0717C33.5499 32.0627 33.6471 32.0495 33.7485 32.0387C33.995 32.0132 34.2546 31.9885 34.5217 31.9679C34.5959 31.9662 34.6717 31.9572 34.7475 31.9514C35.1556 31.9201 35.5825 31.8962 35.9938 31.8855C36.1027 31.8789 36.2106 31.8739 36.3186 31.8689C36.3978 31.864 36.4744 31.864 36.5502 31.8624C36.6434 31.8591 36.7349 31.8591 36.8239 31.8558C36.903 31.8525 36.9772 31.8508 37.0498 31.8525C38.1238 31.836 38.995 31.8747 39.2506 31.9671C39.9223 32.216 39.8012 32.8367 40.0023 33.487C40.2059 34.3904 40.0559 34.6905 39.1558 34.6921Z" fill="#999999"/>
<path d="M37.5855 22.5721C37.494 22.5721 36.2749 22.5053 34.5909 22.4303C33.8614 22.3982 33.0503 22.3643 32.2029 22.3322C29.7738 22.2308 27.0627 22.1484 25.3367 22.1904C23.1326 22.1484 19.3178 22.3001 16.5318 22.4303C14.9071 22.5053 13.6295 22.5721 13.2231 22.5894C13.1473 22.5968 13.1052 22.5968 13.0896 22.5968C12.8406 22.5968 16.1419 17.4319 16.1419 17.4319L18.4878 17.3231L21.7882 17.173L25.3293 17.0156L34.5241 17.4146C34.5241 17.4146 34.9717 18.1103 35.5289 18.998C35.8339 19.4868 36.1743 20.0259 36.4818 20.5394C37.1461 21.6258 37.6918 22.5721 37.5855 22.5721Z" fill="#DDDDDD"/>
<path d="M39.6614 27.2575C39.4339 28.3505 38.0458 28.3522 37.1441 28.3522C35.4897 28.3555 34.053 28.7685 32.749 26.4382C33.8692 26.1019 35.1881 26.1365 36.3157 25.9494C37.1762 25.7969 38.0071 25.7186 38.8668 25.7186C39.4323 25.7178 39.5452 25.6461 39.6589 26.167C39.7331 26.5075 39.7331 26.9575 39.6614 27.2575Z" fill="white"/>
<path opacity="0.8" d="M39.1542 34.6941C38.1469 34.6957 37.1941 34.7386 36.1876 34.7394C35.5867 34.741 34.3149 34.7856 33.7643 34.5869C32.865 34.286 32.6375 33.0991 32.3877 32.246C34.1615 31.8561 38.6176 31.7374 39.249 31.9706C39.9208 32.2196 39.7996 32.8402 40.0007 33.4906C40.2043 34.3924 40.0543 34.6924 39.1542 34.6941Z" fill="#6F6464"/>
<path d="M32.3887 30.364C32.2106 31.0869 31.7136 32.5434 31.388 33.4452C31.0641 34.3469 29.8111 34.2258 29.6867 34.2258L21.0186 34.234C20.8949 34.234 19.642 34.3593 19.3173 33.4584C18.9876 32.5558 18.4864 31.0993 18.3108 30.3789C18.1221 29.6148 17.508 28.3066 21.19 28.3874C23.0908 28.4295 24.4632 28.427 25.3469 28.4121C26.2305 28.4262 27.6029 28.4245 29.5045 28.3792C33.1858 28.2918 32.5741 29.5999 32.3887 30.364Z" fill="#DDDDDD"/>
<path d="M13.8542 35.7153L13.8567 38.0768C13.8567 38.2409 13.7223 38.3777 13.5583 38.3777L9.77651 38.3826C9.61166 38.3826 9.47731 38.2458 9.47566 38.081L9.4707 31.6211C9.61165 33.1666 9.75754 34.6322 9.77156 34.7476C9.79711 34.9726 9.72293 35.224 9.82184 35.4227C9.92488 35.6254 10.1746 35.6757 10.5719 35.6757C10.6956 35.6732 12.0284 35.693 13.8542 35.7153Z" fill="#303030"/>
<path d="M41.4296 30.1324L41.4371 38.0504C41.4404 38.2161 41.3068 38.3513 41.1387 38.3504L37.3561 38.3546C37.192 38.3546 37.0569 38.2185 37.0569 38.0537L37.0527 35.6905C38.773 35.6625 40.0193 35.6468 40.1314 35.6452C40.5295 35.6468 40.7801 35.5957 40.8832 35.3954C40.9804 35.1959 40.9062 34.942 40.9318 34.7178C40.9491 34.5612 41.2054 31.9161 41.3744 29.9609C41.414 30.0096 41.4305 30.0722 41.4296 30.1324Z" fill="#303030"/>
<path d="M40.6462 22.6559C40.2711 22.7441 39.8779 22.7944 39.5029 22.8571C39.3273 22.881 39.0685 22.9823 38.8905 22.9453C38.7388 22.9065 38.7149 22.7845 38.5904 22.7309C38.4602 22.6897 38.3003 22.7532 38.1568 22.7886C38.1313 22.7194 38.0967 22.5941 38.0151 22.3444C37.9862 22.2586 37.9079 22.1012 37.79 21.891C38.6638 22.0493 38.4313 20.9612 39.0149 20.6026C39.4139 20.3611 39.9917 20.5524 40.417 20.6257C40.8423 20.6867 41.3798 20.8623 41.4185 21.389C41.4573 21.9545 41.2463 22.515 40.6462 22.6559Z" fill="#999999"/>
</svg>
