<svg width="52" height="44" viewBox="0 0 52 44" fill="none" xmlns="http://www.w3.org/2000/svg">
<path d="M17.5616 18.8323C16.0758 21.4914 14.4373 21.0245 12.5482 21.0253C11.5213 21.0269 9.93763 21.0285 9.67435 19.7829C9.59162 19.4408 9.59162 18.9262 9.67435 18.538C9.8032 17.9415 9.93366 18.0242 10.574 18.0226C11.5587 18.0226 12.506 18.1109 13.4899 18.2819C14.7777 18.4911 16.2778 18.4497 17.5616 18.8323Z" fill="white"/>
<path opacity="0.8" d="M17.9826 25.4628C17.6978 26.4364 17.4417 27.791 16.4132 28.1354C15.7857 28.3653 14.3364 28.3159 13.6484 28.3159C12.5038 28.3175 11.4133 28.2706 10.2671 28.2706C9.23865 28.2722 9.06604 27.9302 9.29591 26.9001C9.5234 26.1556 9.38341 25.4493 10.1502 25.1637C10.8692 24.8957 15.9551 25.0206 17.9826 25.4628Z" fill="#6F6464"/>
<path d="M11.7968 13.6632C11.6632 13.9034 11.5741 14.0847 11.5399 14.1818C11.4469 14.4665 11.411 14.6089 11.38 14.6884C11.2162 14.6479 11.0333 14.5763 10.8861 14.624C10.7397 14.6813 10.7151 14.8229 10.5441 14.869C10.3404 14.9088 10.0414 14.7974 9.84171 14.7696C9.41378 14.6988 8.96836 14.6407 8.53963 14.5405C7.8532 14.3846 7.6122 13.7427 7.65276 13.0976C7.69651 12.4979 8.30976 12.2982 8.79655 12.2259C9.28016 12.1392 9.94034 11.9228 10.3969 12.1964C11.0619 12.6045 10.7986 13.8469 11.7968 13.6632Z" fill="#999999"/>
<path d="M44.2442 18.4366C44.2116 17.8353 42.8069 16.5467 42.4052 16.1482C42.1396 15.8889 41.2097 15.0943 40.8963 14.8915C40.7118 14.7754 40.6744 14.7746 40.6307 14.6592C40.5996 14.5789 40.5607 14.4365 40.4668 14.151C40.435 14.0547 40.3451 13.8742 40.2099 13.6339C39.4049 12.1775 37.0569 8.55048 36.8612 8.35242C36.6306 8.12176 36.1159 7.66678 35.3865 7.53633C34.6595 7.40986 27.3704 7.03125 25.9975 7.03125C24.627 7.03364 17.3371 7.42816 16.6101 7.55701C15.8807 7.68667 15.3669 8.14244 15.137 8.37231C14.9413 8.57275 12.5989 12.203 11.7979 13.6618C11.6643 13.902 11.5752 14.0833 11.541 14.1804C11.4479 14.4651 11.4121 14.6075 11.3811 14.6871C11.3485 14.7658 11.1639 14.8939 11.0924 14.9344C11.0764 14.948 11.0661 14.9511 11.0661 14.9511C10.8641 15.0872 10.0512 15.6416 9.61051 16.1085C8.94713 16.8092 7.80413 17.8703 7.77311 18.47C7.74607 19.0706 7.48994 19.4985 7.5488 20.7004C7.57664 21.2866 7.73572 23.0484 7.8956 24.7331C8.05707 26.4965 8.22569 28.1685 8.2416 28.2997C8.26944 28.5566 8.18513 28.8445 8.29728 29.0704C8.41421 29.3011 8.69976 29.3584 9.15394 29.3584C9.29313 29.3568 10.814 29.3767 12.8987 29.4029C17.8716 29.4626 26.019 29.5676 26.019 29.5676C26.019 29.5676 34.4257 29.4419 39.3699 29.3735C41.333 29.3433 42.7544 29.3258 42.8833 29.3234C43.3382 29.3258 43.6246 29.2661 43.7407 29.037C43.8529 28.8095 43.7678 28.5208 43.7956 28.2647C43.8147 28.0865 44.109 25.0671 44.3015 22.8368C44.389 21.8577 44.455 21.0304 44.4741 20.663C44.5306 19.4643 44.2728 19.0348 44.2442 18.4366ZM41.442 17.9928C42.0855 17.9904 42.2143 17.9085 42.3432 18.5058C42.4267 18.8932 42.4267 19.4078 42.3464 19.7498C42.0871 20.9962 40.5026 20.9978 39.4741 20.9978C37.5874 21.001 35.9473 21.4719 34.4575 18.8136C35.7389 18.4295 37.243 18.4692 38.5276 18.2553C39.5107 18.0827 40.4588 17.9928 41.442 17.9928ZM15.5092 8.54491L25.9983 8.06767L36.4882 8.52264C36.4882 8.52264 40.268 14.4087 39.9824 14.4087C39.7104 14.4103 30.2545 13.8797 26.0039 13.9744C21.7564 13.8893 12.3006 14.4349 12.0293 14.4373C11.743 14.4373 15.5092 8.54491 15.5092 8.54491ZM9.67413 18.5368C9.80298 17.9403 9.93344 18.023 10.5737 18.0214C11.5585 18.0214 12.5058 18.1097 13.4897 18.2807C14.7775 18.4915 16.2784 18.4493 17.5614 18.8319C16.0756 21.491 14.437 21.0241 12.5479 21.0249C11.5211 21.0265 9.93741 21.0281 9.67413 19.7825C9.5914 19.4396 9.5914 18.9258 9.67413 18.5368ZM16.4144 28.135C15.7868 28.3649 14.3376 28.3156 13.6496 28.3156C13.3959 28.3164 13.1461 28.3116 12.8987 28.31C12.2934 28.3021 11.6921 28.2854 11.0844 28.2766C10.814 28.2734 10.5435 28.2703 10.2691 28.2703C9.24064 28.2719 9.06803 27.9298 9.29791 26.8998C9.52539 26.1553 9.3854 25.4489 10.1522 25.1634C10.4322 25.06 11.3636 25.0154 12.5225 25.0274C12.6426 25.0234 12.7683 25.0266 12.8963 25.0298C13.2789 25.0361 13.6854 25.0489 14.095 25.0656C14.3376 25.0767 14.5826 25.0894 14.8268 25.1021C14.9167 25.1061 15.0073 25.1133 15.0917 25.1196C15.2261 25.126 15.3557 25.1356 15.4854 25.1467C15.6158 25.1578 15.7471 25.1674 15.8688 25.1785C15.9992 25.1873 16.1249 25.2008 16.2482 25.2119C16.4327 25.2286 16.6101 25.2485 16.7811 25.2684C16.8988 25.2819 17.011 25.2954 17.1192 25.3129C17.2091 25.3241 17.2973 25.3368 17.3793 25.3495C17.4214 25.3567 17.4628 25.3646 17.5034 25.3718C17.5574 25.3774 17.6091 25.3869 17.66 25.3996C17.6799 25.402 17.7022 25.4044 17.7205 25.4084C17.7547 25.4147 17.7897 25.4219 17.8239 25.4259C17.8788 25.441 17.9297 25.4489 17.983 25.4617C17.6982 26.4361 17.4429 27.7906 16.4144 28.135ZM30.9648 27.7095L21.0716 27.7182C20.9316 27.7182 19.4998 27.8606 19.13 26.8322C18.7529 25.8037 18.1826 24.1405 17.9822 23.318C17.7682 22.4455 17.0675 20.9541 21.268 21.0464C23.4371 21.0933 25.0033 21.0909 26.011 21.0758C27.0196 21.0893 28.5866 21.0877 30.7541 21.0376C34.9562 20.939 34.2586 22.4304 34.0479 23.3021C33.8442 24.1262 33.2771 25.7886 32.9033 26.8178C32.535 27.8463 31.1048 27.7095 30.9648 27.7095ZM41.7689 28.2392C40.9544 28.2408 40.1693 28.2655 39.3699 28.279C39.043 28.2878 38.7193 28.2909 38.3852 28.2901C37.6988 28.2917 36.2495 28.3442 35.6204 28.1152C34.5935 27.7731 34.3342 26.4193 34.0479 25.445C34.1186 25.4275 34.195 25.4132 34.2722 25.4004C34.3756 25.3782 34.4877 25.3622 34.5999 25.3416C34.6754 25.332 34.7542 25.3177 34.8329 25.3066C34.8584 25.3034 34.883 25.3002 34.9117 25.2978C35.0143 25.2843 35.1248 25.2692 35.2346 25.2557C35.2426 25.2565 35.2545 25.2517 35.264 25.2509C35.3746 25.239 35.4844 25.2262 35.6005 25.2135C35.8805 25.1841 36.1764 25.157 36.4834 25.134C36.5661 25.13 36.6528 25.1204 36.7395 25.1149C37.2072 25.0783 37.6924 25.0504 38.1609 25.0377C38.285 25.0298 38.4099 25.0258 38.5324 25.0194C38.6215 25.0154 38.7113 25.0154 38.7964 25.0139C38.9022 25.0107 39.0064 25.0107 39.109 25.0067C39.1989 25.0027 39.2832 25.0011 39.3652 25.0027C40.5917 24.9836 41.586 25.0274 41.8771 25.1332C42.6446 25.4171 42.5046 26.1235 42.7345 26.868C42.9676 27.8956 42.7966 28.2384 41.7689 28.2392Z" fill="#999999"/>
<path d="M39.9777 14.4081C39.8735 14.4081 38.4823 14.3334 36.5614 14.2475C35.7286 14.2093 34.8027 14.1719 33.8379 14.1337C31.0651 14.02 27.9702 13.9253 26.0015 13.973C23.4857 13.9253 19.1332 14.0963 15.9547 14.2475C14.0998 14.3334 12.6418 14.4081 12.1797 14.428C12.0946 14.4376 12.0461 14.4376 12.027 14.4376C11.743 14.4376 15.5093 8.54358 15.5093 8.54358L18.1874 8.42029L21.9529 8.25007L25.9936 8.07031L36.4858 8.52449C36.4858 8.52449 36.9973 9.3191 37.6296 10.3309C37.9804 10.8892 38.3686 11.5041 38.7193 12.0911C39.4758 13.3304 40.101 14.4081 39.9777 14.4081Z" fill="#DDDDDD"/>
<path d="M42.3459 19.7473C42.0866 20.9937 40.5021 20.9953 39.4737 20.9953C37.5869 20.9985 35.9468 21.4693 34.457 18.8111C35.7384 18.4269 37.2426 18.4667 38.5271 18.2527C39.5103 18.0793 40.4584 17.9894 41.4415 17.9894C42.085 17.987 42.2139 17.9051 42.3427 18.5025C42.4262 18.8906 42.4262 19.4053 42.3459 19.7473Z" fill="white"/>
<path opacity="0.8" d="M41.7689 28.2475C40.6211 28.2491 39.533 28.2976 38.3852 28.2984C37.6988 28.3 36.2495 28.3525 35.6204 28.1234C34.5935 27.7814 34.3342 26.4276 34.0479 25.4533C36.0738 25.0094 41.1572 24.8734 41.8779 25.1399C42.6454 25.4238 42.5054 26.1302 42.7353 26.8747C42.9676 27.9039 42.7966 28.2467 41.7689 28.2475Z" fill="#6F6464"/>
<path d="M34.0474 23.3004C33.8438 24.1245 33.2766 25.7869 32.9028 26.8161C32.5345 27.8446 31.1044 27.7078 30.9652 27.7078L21.0719 27.7165C20.9319 27.7165 19.5002 27.8589 19.1303 26.8305C18.7533 25.802 18.183 24.1388 17.9825 23.3163C17.7686 22.4438 17.0678 20.9524 21.2684 21.0447C23.4374 21.0916 25.0036 21.0892 26.0114 21.0741C27.02 21.0876 28.5869 21.086 30.7544 21.0359C34.9566 20.9373 34.259 22.4287 34.0474 23.3004Z" fill="#DDDDDD"/>
<path d="M12.8994 29.4011L12.9042 32.0975C12.9042 32.2845 12.7499 32.4388 12.5622 32.4412L8.24629 32.4443C8.05778 32.4443 7.90346 32.2892 7.90267 32.1007L7.89551 24.7305C8.05698 26.4939 8.2256 28.1658 8.24151 28.2971C8.26935 28.554 8.18504 28.8419 8.29719 29.0678C8.41412 29.2985 8.69967 29.3558 9.15385 29.3558C9.29384 29.355 10.8147 29.3749 12.8994 29.4011Z" fill="#303030"/>
<path d="M44.3651 23.0355L44.373 32.0706C44.3754 32.2591 44.2235 32.4142 44.0318 32.4126L39.7151 32.4182C39.5298 32.4174 39.3731 32.2631 39.3731 32.0753L39.3691 29.3765C41.3322 29.3463 42.7536 29.3288 42.8825 29.3264C43.3374 29.3288 43.6238 29.2691 43.7399 29.0401C43.8521 28.8126 43.767 28.5238 43.7948 28.2677C43.8139 28.0895 44.1082 25.0702 44.3007 22.8398C44.3444 22.8955 44.3667 22.9655 44.3651 23.0355Z" fill="#303030"/>
<path d="M43.4676 14.4995C43.0405 14.5997 42.5918 14.6586 42.1639 14.7302C41.9635 14.758 41.6676 14.8718 41.4663 14.8304C41.2922 14.7866 41.2659 14.6459 41.1211 14.587C40.9732 14.5393 40.7902 14.6117 40.6288 14.653C40.5978 14.5727 40.5588 14.4303 40.4649 14.1448C40.4331 14.0485 40.3432 13.8679 40.208 13.6277C41.2062 13.8075 40.9406 12.5683 41.6071 12.1586C42.0613 11.8834 42.7199 12.0998 43.2075 12.1849C43.6911 12.2565 44.3068 12.4553 44.3505 13.055C44.3919 13.6985 44.154 14.3396 43.4676 14.4995Z" fill="#999999"/>
<path d="M19.1851 33.868H3.7207V32.418H17.4447L19.1851 33.868Z" fill="#2D65F2"/>
<path d="M5.0244 15.0898H2.3916V20.1272H5.0244V15.0898Z" fill="#2D65F2"/>
<path d="M5.02519 0C4.30534 0 3.7207 0.583831 3.7207 1.30447V42.3293H6.32887V1.30447C6.32966 0.583831 5.74583 0 5.02519 0Z" fill="#2D65F2"/>
<path d="M6.32907 43.313H0L1.594 40.957H6.32907V43.313Z" fill="#2D65F2"/>
<path d="M32.8154 33.868H48.2782V32.418H34.5558L32.8154 33.868Z" fill="#2D65F2"/>
<path d="M49.6072 15.0898H46.9736V20.1272H49.6072V15.0898Z" fill="#2D65F2"/>
<path d="M46.9736 0C47.6942 0 48.2781 0.583831 48.2781 1.30447V42.3293H45.6699V1.30447C45.6691 0.583831 46.2529 0 46.9736 0Z" fill="#2D65F2"/>
<path d="M45.6699 43.313H52.0006L50.4058 40.957H45.6699V43.313Z" fill="#2D65F2"/>
</svg>
