<svg width="19" height="17" viewBox="0 0 19 17" fill="none" xmlns="http://www.w3.org/2000/svg">
<path d="M13.6682 0C15.1409 0 16.3808 0.554408 17.3881 1.66322C18.3953 2.77202 18.899 4.09902 18.899 5.6442C18.899 5.97303 18.8735 6.29771 18.8225 6.61822C18.7716 6.93874 18.692 7.25349 18.5838 7.56248H12.9336L11.2144 4.97883C11.1342 4.85831 11.024 4.75878 10.8837 4.68025C10.7434 4.60173 10.5983 4.56248 10.4483 4.56248C10.2469 4.56248 10.0658 4.62433 9.90525 4.74805C9.74468 4.87177 9.63267 5.02561 9.5692 5.20957L8.17113 9.40862L7.20958 7.97883C7.13264 7.85511 7.02389 7.75478 6.88333 7.67785C6.74276 7.60093 6.59734 7.56248 6.44707 7.56248H0.310175C0.198908 7.25671 0.119392 6.94437 0.0716251 6.62545C0.0238751 6.30653 0 5.98778 0 5.6692C0 4.11215 0.498675 2.77802 1.49602 1.6668C2.49339 0.5556 3.72836 0 5.20092 0C5.94322 0 6.64931 0.152884 7.31918 0.45865C7.98904 0.764417 8.58615 1.18942 9.1105 1.73365L9.44707 2.08945L9.7644 1.75287C10.2849 1.20224 10.8817 0.772434 11.5548 0.463451C12.2279 0.154484 12.9323 0 13.6682 0ZM9.44543 16.9471C9.22516 16.9471 9.00979 16.9049 8.79932 16.8206C8.58886 16.7363 8.4035 16.6108 8.24325 16.4442L1.73557 9.9115C1.65672 9.83265 1.58172 9.753 1.51057 9.67255C1.43942 9.5921 1.36859 9.50572 1.29807 9.41342H5.94035L7.66267 11.9952C7.74074 12.1234 7.84837 12.2251 7.98555 12.3004C8.12272 12.3758 8.26683 12.4134 8.4179 12.4134C8.62077 12.4134 8.80679 12.3524 8.97598 12.2302C9.14516 12.1081 9.26148 11.9535 9.32495 11.7663L10.723 7.57207L11.6644 8.99708C11.7548 9.12079 11.8703 9.22111 12.0108 9.29803C12.1514 9.37496 12.2968 9.41342 12.4471 9.41342H17.5855C17.5118 9.49868 17.4407 9.58131 17.3724 9.66132C17.304 9.74136 17.2327 9.82218 17.1586 9.9038L10.6259 16.4442C10.4576 16.6108 10.2738 16.7363 10.0746 16.8206C9.87543 16.9049 9.66571 16.9471 9.44543 16.9471Z" fill="white"/>
</svg>
