<svg width="15" height="17" viewBox="0 0 15 17" fill="none" xmlns="http://www.w3.org/2000/svg">
<path d="M2.06062 9.40082V15.9085C2.06062 16.1025 1.99196 16.2679 1.85465 16.4049C1.71733 16.542 1.55351 16.6105 1.3632 16.6105C1.1692 16.6105 1.00376 16.542 0.866896 16.4049C0.730046 16.2679 0.661621 16.1025 0.661621 15.9085V1.53454C0.661621 1.30073 0.744871 1.10044 0.911371 0.933694C1.07789 0.766961 1.27989 0.683594 1.51737 0.683594H7.80825C8.01441 0.683594 8.1976 0.74801 8.3578 0.876843C8.518 1.00569 8.61733 1.16884 8.6558 1.36627L8.9159 2.66339H13.4875C13.7213 2.66339 13.9216 2.7464 14.0883 2.91242C14.2551 3.07842 14.3385 3.27779 14.3385 3.51052V10.5289C14.3385 10.7653 14.2551 10.9664 14.0883 11.1321C13.9216 11.2978 13.7213 11.3806 13.4875 11.3806H9.17307C8.96654 11.3806 8.78303 11.3162 8.62255 11.1874C8.46205 11.0585 8.36257 10.8954 8.32412 10.6979L8.0645 9.40082H2.06062Z" fill="white"/>
</svg>
