<svg width="37" height="28" viewBox="0 0 37 28" fill="none" xmlns="http://www.w3.org/2000/svg">
<path d="M5.04018 27.832C3.78987 27.832 2.72776 27.3943 1.85384 26.5187C0.979927 25.6432 0.542969 24.5775 0.542969 23.3215C0.542969 22.2944 0.858135 21.3791 1.48847 20.5757C2.1188 19.7722 2.91475 19.2474 3.8763 19.0012V9.00267C2.91475 8.75647 2.1188 8.23246 1.48847 7.43063C0.858135 6.62879 0.542969 5.7076 0.542969 4.66704C0.542969 3.4184 0.980024 2.35704 1.85414 1.48296C2.72825 0.608903 3.78966 0.171875 5.03838 0.171875C6.28713 0.171875 7.3498 0.60986 8.22639 1.48583C9.103 2.3618 9.5413 3.42549 9.5413 4.67687C9.5413 5.70771 9.22479 6.62483 8.59176 7.42825C7.95876 8.23167 7.16416 8.75858 6.20797 9.009V12.8321H17.3378V9.009C16.3763 8.75858 15.5803 8.23246 14.95 7.43063C14.3196 6.62879 14.0045 5.7076 14.0045 4.66704C14.0045 3.4184 14.4415 2.35704 15.3156 1.48296C16.1897 0.608903 17.2512 0.171875 18.4999 0.171875C19.7486 0.171875 20.8113 0.60986 21.6879 1.48583C22.5645 2.3618 23.0028 3.42549 23.0028 4.67687C23.0028 5.70771 22.6863 6.62483 22.0533 7.42825C21.4203 8.23167 20.6257 8.75858 19.6695 9.009V12.8321H28.6446C29.2474 12.8321 29.7598 12.622 30.182 12.2017C30.6042 11.7814 30.8153 11.2704 30.8153 10.6686V9.01175C29.8538 8.7595 29.0579 8.23246 28.4275 7.43063C27.7972 6.62879 27.482 5.7076 27.482 4.66704C27.482 3.4184 27.9191 2.35704 28.7932 1.48296C29.6673 0.608903 30.7287 0.171875 31.9775 0.171875C33.2262 0.171875 34.2889 0.60986 35.1655 1.48583C36.0421 2.3618 36.4803 3.42549 36.4803 4.67687C36.4803 5.70771 36.1638 6.62483 35.5308 7.42825C34.8978 8.23167 34.1032 8.7595 33.147 9.01175V10.6686C33.147 11.9173 32.7092 12.9787 31.8336 13.8527C30.958 14.7268 29.8947 15.1638 28.6438 15.1638H19.6695V18.9949C20.6257 19.2453 21.4203 19.7715 22.0533 20.5733C22.6863 21.3751 23.0028 22.2945 23.0028 23.3314C23.0028 24.5846 22.5652 25.648 21.69 26.5216C20.8148 27.3952 19.752 27.832 18.5017 27.832C17.2514 27.832 16.1893 27.3943 15.3153 26.5187C14.4414 25.6432 14.0045 24.5775 14.0045 23.3215C14.0045 22.2944 14.3196 21.3791 14.95 20.5757C15.5803 19.7722 16.3763 19.2464 17.3378 18.9981V15.1638H6.20797V18.9981C7.16416 19.2464 7.95876 19.7715 8.59176 20.5733C9.22479 21.3751 9.5413 22.2945 9.5413 23.3314C9.5413 24.5846 9.10369 25.648 8.22847 26.5216C7.35325 27.3952 6.29048 27.832 5.04018 27.832Z" fill="#2D65F2"/>
</svg>
