<svg width="16" height="18" viewBox="0 0 16 18" fill="none" xmlns="http://www.w3.org/2000/svg">
<path d="M8.01194 17.1839C7.81792 17.1839 7.65249 17.1154 7.51564 16.9784C7.37879 16.8414 7.31036 16.6759 7.31036 16.482V14.2243H1.09304C0.899122 14.2243 0.733655 14.1558 0.596638 14.0187C0.459621 13.8816 0.391113 13.7169 0.391113 13.5245C0.391113 13.3321 0.459621 13.1674 0.596638 13.0306C0.733655 12.8937 0.899122 12.8253 1.09304 12.8253H14.9315C15.1217 12.8253 15.2854 12.894 15.4227 13.0313C15.56 13.1686 15.6286 13.3324 15.6286 13.5227C15.6286 13.7167 15.56 13.8822 15.4227 14.019C15.2854 14.1559 15.1217 14.2243 14.9315 14.2243H8.70936V16.482C8.70936 16.6759 8.6407 16.8414 8.50339 16.9784C8.36605 17.1154 8.20224 17.1839 8.01194 17.1839ZM4.82501 7.83109C5.06138 7.83109 5.26161 7.74991 5.42571 7.58756C5.58981 7.42521 5.67186 7.22585 5.67186 6.98949C5.67186 6.75312 5.59069 6.55289 5.42834 6.38879C5.26599 6.22469 5.06663 6.14264 4.83026 6.14264C4.5939 6.14264 4.39366 6.22381 4.22956 6.38616C4.06546 6.54851 3.98341 6.74787 3.98341 6.98424C3.98341 7.2206 4.06459 7.42084 4.22694 7.58494C4.38927 7.74904 4.58863 7.83109 4.82501 7.83109ZM11.2096 7.83109C11.446 7.83109 11.6462 7.74991 11.8103 7.58756C11.9744 7.42521 12.0565 7.22585 12.0565 6.98949C12.0565 6.75312 11.9753 6.55289 11.813 6.38879C11.6506 6.22469 11.4513 6.14264 11.2149 6.14264C10.9785 6.14264 10.7783 6.22381 10.6142 6.38616C10.4501 6.54851 10.3681 6.74787 10.3681 6.98424C10.3681 7.2206 10.4492 7.42084 10.6116 7.58494C10.7739 7.74904 10.9733 7.83109 11.2096 7.83109ZM2.38309 11.8455C2.18909 11.8455 2.02366 11.777 1.88681 11.64C1.74996 11.5029 1.68154 11.3375 1.68154 11.1436V5.48864C1.68154 5.38939 1.68826 5.29338 1.70171 5.20061C1.71518 5.10785 1.73766 5.01715 1.76916 4.92851L3.03729 1.29074C3.15305 0.95242 3.35548 0.677454 3.64456 0.465837C3.93363 0.254237 4.26678 0.148438 4.64401 0.148438H11.4007C11.7738 0.148438 12.1051 0.254237 12.3946 0.465837C12.6842 0.677454 12.8885 0.95242 13.0074 1.29074L14.2707 4.92816C14.3022 5.01601 14.3247 5.1063 14.3382 5.19901C14.3517 5.29171 14.3584 5.38799 14.3584 5.48784V11.1436C14.3584 11.3375 14.2897 11.5029 14.1524 11.64C14.0151 11.777 13.8513 11.8455 13.6609 11.8455C13.4669 11.8455 13.3015 11.777 13.1647 11.64C13.0278 11.5029 12.9594 11.3375 12.9594 11.1436V9.86569H3.08054V11.1436C3.08054 11.3375 3.01187 11.5029 2.87454 11.64C2.73722 11.777 2.5734 11.8455 2.38309 11.8455ZM3.51706 4.10806H12.5229L11.6969 1.74939C11.6777 1.68527 11.6424 1.63559 11.5911 1.60034C11.5398 1.56507 11.4789 1.54744 11.4084 1.54744H4.63151C4.561 1.54744 4.5001 1.56507 4.44881 1.60034C4.39751 1.63559 4.36225 1.68527 4.34304 1.74939L3.51706 4.10806Z" fill="white"/>
</svg>
