<svg width="50" height="29" viewBox="0 0 50 29" fill="none" xmlns="http://www.w3.org/2000/svg">
<g clip-path="url(#clip0_7833_42151)">
<path d="M80.546 13.523V7.62359C80.546 7.62359 78.9414 7.01029 71.9565 6.49109C71.9565 6.49109 64.1223 2.62096 59.9221 1.2995C59.9221 1.2995 49.4749 0.0253906 40.5397 0.827646C40.5397 0.827646 32.595 1.0584 21.9225 8.40067C21.9225 8.40067 8.403 9.78551 3.68297 12.2772L1.58473 13.8889L0.594275 16.3651L0 16.6128V21.7137L1.58473 23.348L7.37913 23.9919H7.43158V21.8746C7.43158 18.0096 10.5648 14.8764 14.4298 14.8764C18.2948 14.8764 21.428 18.0096 21.428 21.8746V23.9919H22.5183H56.4271L56.9212 23.9631V21.8746C56.9212 18.0096 60.0544 14.8764 63.9193 14.8764C67.7844 14.8764 70.9176 18.0096 70.9176 21.8746V23.1486L72.0083 23.0851L78.4205 22.0362L81.25 18.9404V14.3947L80.546 13.523Z" fill="#2D65F2"/>
<path d="M20.5818 22.1972C20.5818 25.5953 17.8272 28.3496 14.4296 28.3496C11.0319 28.3496 8.27734 25.5953 8.27734 22.1972C8.27734 18.7997 11.0319 16.0454 14.4296 16.0454C17.8272 16.0454 20.5818 18.7997 20.5818 22.1972Z" fill="#303030"/>
<path d="M14.4182 18.1775C16.6332 18.1775 18.4352 19.9794 18.4352 22.1945C18.4352 24.4095 16.6332 26.2115 14.4182 26.2115C12.2033 26.2115 10.4012 24.4096 10.4012 22.1945C10.4012 19.9794 12.2033 18.1775 14.4182 18.1775ZM14.4182 17.8778C12.0344 17.8778 10.1016 19.8107 10.1016 22.1945C10.1016 24.5785 12.0342 26.5111 14.4182 26.5111C16.8021 26.5111 18.7349 24.5786 18.7349 22.1945C18.7347 19.8107 16.8021 17.8778 14.4182 17.8778Z" fill="#F6F6F6"/>
<path d="M18.5364 22.3833L18.5123 21.499L14.7875 22.2218L14.7448 22.1876L14.759 22.1349L18.1975 20.5305L17.6972 19.8006L14.8944 21.6409L15.7783 18.4064L14.9297 18.1563L14.4661 21.9221L14.4206 21.9521L14.375 21.9221L13.9112 18.1563L13.0627 18.4064L13.9468 21.6409L11.1437 19.8006L10.6435 20.5305L14.0819 22.1349L14.0963 22.1876L14.0536 22.2218L10.3287 21.4993L10.3047 22.3833L13.654 22.5422L11.0376 24.6394L11.577 25.3405L14.1654 22.5663L14.2201 22.569L14.2394 22.6201L12.401 25.9394L13.2347 26.2353L14.4206 23.0991L15.6066 26.2353L16.4401 25.9394L14.6019 22.6201L14.621 22.569L14.6756 22.5663L17.2641 25.3405L17.8035 24.6394L15.187 22.5422L18.5364 22.3833Z" fill="#F6F6F6"/>
<path d="M15.2015 22.1988C15.2015 22.6286 14.8529 22.9775 14.423 22.9775C13.9931 22.9775 13.6445 22.6286 13.6445 22.1988C13.6445 21.7689 13.9931 21.4203 14.423 21.4203C14.8529 21.4203 15.2015 21.7689 15.2015 22.1988Z" fill="#F6F6F6"/>
<path d="M14.9234 22.1935C14.9234 22.468 14.7011 22.6904 14.4266 22.6904C14.1521 22.6904 13.9297 22.468 13.9297 22.1935C13.9297 21.919 14.1521 21.6967 14.4266 21.6967C14.7011 21.6967 14.9234 21.919 14.9234 22.1935Z" fill="#303030"/>
<path d="M21.9218 9.83155L34.685 2.53738L33.8643 2.29208C30.6843 3.36136 26.5611 5.20877 21.9218 8.4004C21.9218 8.4004 20.9375 8.89503 21.9218 9.83155Z" fill="#F6F6F6"/>
<path d="M63.9171 7.12728V8.6257C63.9171 8.6257 58.2231 17.5179 54.1774 21.8751H23.6097C23.6097 21.8751 20.8376 13.046 24.1342 10.274C24.1342 10.274 32.9 1.88415 46.3856 1.99578C46.3856 1.99578 58.5228 1.28343 63.9171 7.12728Z" fill="#2D65F2"/>
<path d="M46.3904 1.99578C32.9048 1.88415 24.139 10.274 24.139 10.274C23.9277 10.4515 23.7419 10.6544 23.5781 10.8778L63.9219 8.6257V7.12728C58.5276 1.28343 46.3904 1.99578 46.3904 1.99578Z" fill="#F6F6F6"/>
<path d="M46.3904 1.99578C32.9048 1.88415 24.139 10.274 24.139 10.274C23.9277 10.4515 23.7419 10.6544 23.5781 10.8778L25.6359 10.7629C26.9295 9.51921 34.4743 2.75818 45.5356 2.85738C45.5356 2.85738 56.498 2.16031 61.3703 7.87919V8.76806L63.9219 8.62555V7.12713C58.5276 1.28343 46.3904 1.99578 46.3904 1.99578Z" fill="#303030"/>
<path d="M45.5668 2.00036L43.8047 9.74825L46.3926 9.60381L46.716 1.98193C46.5041 1.98868 46.3883 1.99542 46.3883 1.99542C46.1123 1.99302 45.8389 1.99557 45.5668 2.00036Z" fill="#303030"/>
<path d="M23.6135 21.8746L21.4297 23.9919H22.5199H56.4288L56.9228 23.963L54.1812 21.8746H23.6135Z" fill="#2D65F2"/>
<path opacity="0.3" d="M64.0048 7.05096C59.677 2.3621 51.124 1.85608 47.6478 1.85608C46.8632 1.85608 46.3891 1.88335 46.3916 1.8835C39.3558 1.82866 33.6288 4.1163 30.0782 6.03563C26.2792 8.08892 24.0833 10.172 24.0669 10.1881C20.7512 12.9763 23.3936 21.5454 23.5076 21.9089L23.5323 21.9875H54.2317L54.2651 21.9516C58.2713 17.637 63.96 8.7755 64.0171 8.68649L64.0347 8.65877V7.08348L64.0048 7.05096ZM24.2169 10.3551C24.2385 10.3345 26.4174 8.26843 30.1917 6.22938C33.6474 4.36279 39.1812 2.14123 45.9727 2.10856L44.9269 9.62495C44.7206 9.96045 43.1856 12.813 44.1863 21.7626H23.6983C23.436 20.8814 21.1738 12.9144 24.2169 10.3551ZM63.8099 8.59269C63.4564 9.14231 58.0128 17.5703 54.1337 21.7626H44.4882C43.4492 12.5061 45.1775 9.78828 45.195 9.76221L45.2146 9.73329L46.2755 2.10736C46.3154 2.10751 46.3551 2.10781 46.3975 2.10796C46.4021 2.10781 46.8704 2.08084 47.6478 2.08084C51.0865 2.08084 59.5326 2.57757 63.8099 7.17129V8.59269Z" fill="#303030"/>
<path d="M39.3809 11.1788C39.2609 11.1788 39.1614 11.084 39.1564 10.9631C39.1516 10.839 39.248 10.7344 39.372 10.7295L43.2137 10.5757C43.3328 10.5747 43.4422 10.6673 43.4472 10.7913C43.4521 10.9154 43.3556 11.02 43.2315 11.0249L39.39 11.1787C39.387 11.1788 39.3839 11.1788 39.3809 11.1788Z" fill="#F6F6F6"/>
<path d="M5.90311 15.746C6.88877 15.4504 7.43105 13.8892 7.43105 13.8892H1.58421L0.59375 16.3653L5.90311 15.746Z" fill="#F6F6F6"/>
</g>
<defs>
<clipPath id="clip0_7833_42151">
<rect width="50" height="28.125" fill="white" transform="translate(0 0.5625)"/>
</clipPath>
</defs>
</svg>
