<svg width="20" height="19" viewBox="0 0 20 19" fill="none" xmlns="http://www.w3.org/2000/svg">
<path d="M2.63737 16.3585V17.3413C2.63737 17.6126 2.54189 17.8433 2.35092 18.0332C2.15995 18.2232 1.92807 18.3181 1.65527 18.3181C1.38247 18.3181 1.15232 18.2232 0.964819 18.0332C0.777336 17.8433 0.683594 17.6126 0.683594 17.3413V10.3884C0.683594 10.294 0.690319 10.1996 0.703769 10.1052C0.717236 10.0108 0.739777 9.91603 0.771394 9.8209L2.55472 4.8163C2.67135 4.47478 2.87429 4.2003 3.16354 3.99285C3.45281 3.78541 3.78128 3.6817 4.14894 3.6817H8.45087C8.38484 3.90485 8.33612 4.1315 8.30472 4.36165C8.2733 4.59181 8.25439 4.8315 8.24797 5.0807H4.14892C4.0784 5.0807 4.0175 5.09832 3.96622 5.13357C3.91492 5.16884 3.87645 5.21852 3.85082 5.28262L2.64987 8.69805H9.24147C9.66634 9.36791 10.1866 9.93874 10.8023 10.4105C11.418 10.8823 12.107 11.2329 12.8691 11.4624C12.6756 11.5624 12.5211 11.7057 12.4057 11.8923C12.2903 12.0789 12.2326 12.2875 12.2326 12.5182C12.2326 12.8702 12.3558 13.1694 12.6022 13.4159C12.8486 13.6623 13.1478 13.7855 13.4998 13.7855C13.8518 13.7855 14.151 13.6623 14.3975 13.4159C14.644 13.1694 14.7672 12.8702 14.7672 12.5182C14.7672 12.371 14.7383 12.2309 14.6806 12.0981C14.623 11.9653 14.5393 11.8506 14.4297 11.7538C14.4752 11.7602 14.5186 11.7634 14.56 11.7634H14.6951C15.1816 11.7634 15.6295 11.7185 16.0388 11.6288C16.4481 11.539 16.8752 11.4009 17.32 11.2143V17.3413C17.32 17.6126 17.2246 17.8433 17.0336 18.0332C16.8427 18.2232 16.6108 18.3181 16.338 18.3181C16.0652 18.3181 15.835 18.2232 15.6475 18.0332C15.46 17.8433 15.3663 17.6126 15.3663 17.3413V16.3585H2.63737ZM4.50362 13.7855C4.85562 13.7855 5.15485 13.6623 5.40132 13.4159C5.6478 13.1695 5.77104 12.8703 5.77104 12.5183C5.77104 12.1663 5.64784 11.8671 5.40144 11.6206C5.15504 11.3741 4.85584 11.2509 4.50384 11.2509C4.15186 11.2509 3.85263 11.3741 3.60614 11.6205C3.35968 11.8669 3.23644 12.1661 3.23644 12.5181C3.23644 12.8701 3.35964 13.1693 3.60604 13.4158C3.85244 13.6623 4.15164 13.7855 4.50362 13.7855ZM14.7046 9.65182C13.4938 9.65182 12.4653 9.22582 11.6191 8.37382C10.773 7.5218 10.3499 6.487 10.3499 5.2694C10.3551 4.07373 10.7786 3.05235 11.6205 2.20525C12.4625 1.35813 13.4931 0.93457 14.7125 0.93457C15.9233 0.93457 16.9518 1.35765 17.7979 2.2038C18.6441 3.04995 19.0672 4.07975 19.0672 5.2932C19.0672 6.50665 18.6418 7.53645 17.7911 8.3826C16.9404 9.22875 15.9116 9.65182 14.7046 9.65182ZM14.7085 7.9432C14.8419 7.9432 14.9537 7.8964 15.0441 7.8028C15.1345 7.70921 15.1829 7.59895 15.1893 7.47202C15.1893 7.34125 15.1425 7.22684 15.0489 7.12877C14.9553 7.03069 14.8419 6.98165 14.7085 6.98165C14.5649 6.99511 14.4489 7.04607 14.3605 7.13452C14.272 7.22299 14.2278 7.33229 14.2278 7.46242C14.2278 7.59575 14.2746 7.70921 14.3681 7.8028C14.4617 7.8964 14.5752 7.9432 14.7085 7.9432ZM14.7085 6.06049C14.8278 6.06049 14.9279 6.01995 15.009 5.93887C15.0901 5.85777 15.1306 5.75957 15.1306 5.64427V3.09912C15.1306 2.98429 15.0901 2.886 15.009 2.80427C14.9279 2.72255 14.8278 2.6817 14.7085 2.6817C14.5893 2.6817 14.4892 2.72224 14.4081 2.80332C14.327 2.8844 14.2864 2.9826 14.2864 3.09792V5.64307C14.2864 5.75789 14.327 5.85616 14.4081 5.9379C14.4892 6.01963 14.5893 6.06049 14.7085 6.06049Z" fill="white"/>
</svg>
