<svg width="131" height="24" viewBox="0 0 131 24" fill="none" xmlns="http://www.w3.org/2000/svg">
<path d="M32.8874 3.21484C33.1693 3.21484 33.3108 3.3563 33.3108 3.63824V5.45745C33.3108 5.74038 33.1693 5.88085 32.8874 5.88085H24.2899V10.8152H32.0149C32.2968 10.8152 32.4383 10.9566 32.4383 11.2386V12.9826C32.4383 13.2814 32.2968 13.4307 32.0149 13.4307H24.2899V20.21C24.2899 20.5088 24.1405 20.6581 23.8418 20.6581H21.5992C21.3163 20.6581 21.1758 20.5088 21.1758 20.21V3.63824C21.1758 3.3563 21.3172 3.21484 21.5992 3.21484H32.8874Z" fill="#2D65F2"/>
<path d="M36.4286 20.6591C36.1298 20.6591 35.9805 20.5098 35.9805 20.211V3.63824C35.9805 3.3563 36.1298 3.21484 36.4286 3.21484H38.4971C38.7959 3.21484 38.9452 3.3563 38.9452 3.63824V20.21C38.9452 20.5088 38.7959 20.6581 38.4971 20.6581H36.4286V20.6591Z" fill="#2D65F2"/>
<path d="M45.499 15.1007V16.8952C45.499 17.5105 45.6197 17.9379 45.86 18.1782C46.1004 18.4196 46.5288 18.5393 47.1431 18.5393H49.7844C50.6648 18.5393 51.105 18.107 51.105 17.2434V16.7953C51.105 16.4965 51.2544 16.3472 51.5531 16.3472H53.6711C53.953 16.3472 54.0945 16.4965 54.0945 16.7953V17.2939C54.0945 18.5067 53.7997 19.3911 53.2101 19.948C52.6205 20.5049 51.661 20.7829 50.3314 20.7829H46.4437C45.1142 20.7829 44.1299 20.4634 43.4908 19.8233C42.8508 19.1843 42.5312 18.2 42.5312 16.8705V11.5879C42.5312 10.2594 42.8508 9.27903 43.4908 8.6469C44.1299 8.01576 45.1142 7.7002 46.4437 7.7002H50.3067C51.6352 7.7002 52.6156 8.01576 53.2477 8.6469C53.8788 9.27804 54.1944 10.2584 54.1944 11.5879V14.6783C54.1944 14.9612 54.045 15.1017 53.7463 15.1017H45.499V15.1007ZM47.1441 9.9428C46.5298 9.9428 46.1014 10.0595 45.861 10.292C45.6197 10.5245 45.5 10.9568 45.5 11.5879V12.8591H51.2316V11.5879C51.2316 10.9568 51.1149 10.5245 50.8824 10.292C50.65 10.0595 50.2177 9.9428 49.5865 9.9428H47.1441Z" fill="#2D65F2"/>
<path d="M60.3251 15.1007V16.8952C60.3251 17.5105 60.4458 17.9379 60.6862 18.1782C60.9266 18.4196 61.3549 18.5393 61.9693 18.5393H64.6105C65.491 18.5393 65.9312 18.107 65.9312 17.2434V16.7953C65.9312 16.4965 66.0805 16.3472 66.3793 16.3472H68.4973C68.7792 16.3472 68.9207 16.4965 68.9207 16.7953V17.2939C68.9207 18.5067 68.6259 19.3911 68.0363 19.948C67.4467 20.5049 66.4871 20.7829 65.1576 20.7829H61.2699C59.9403 20.7829 58.956 20.4634 58.317 19.8233C57.6769 19.1843 57.3574 18.2 57.3574 16.8705V11.5879C57.3574 10.2594 57.6769 9.27903 58.317 8.6469C58.956 8.01576 59.9403 7.7002 61.2699 7.7002H65.1329C66.4614 7.7002 67.4417 8.01576 68.0739 8.6469C68.705 9.27804 69.0206 10.2584 69.0206 11.5879V14.6783C69.0206 14.9612 68.8712 15.1017 68.5725 15.1017H60.3251V15.1007ZM61.9693 9.9428C61.3549 9.9428 60.9266 10.0595 60.6862 10.292C60.4448 10.5245 60.3251 10.9568 60.3251 11.5879V12.8591H66.0568V11.5879C66.0568 10.9568 65.9401 10.5245 65.7076 10.292C65.4751 10.0595 65.0428 9.9428 64.4117 9.9428H61.9693Z" fill="#2D65F2"/>
<path d="M76.0973 10.2413V16.4468C76.0973 17.0611 76.218 17.4895 76.4583 17.7299C76.6987 17.9712 77.1271 18.0909 77.7414 18.0909H79.2619C79.5606 18.0909 79.71 18.2403 79.71 18.5391V20.2089C79.71 20.5077 79.5606 20.657 79.2619 20.657H77.0193C75.6897 20.657 74.7104 20.3375 74.0792 19.6975C73.4481 19.0584 73.1325 18.0741 73.1325 16.7446V10.2403H71.064C70.7811 10.2403 70.6406 10.0999 70.6406 9.81694V8.24701C70.6406 7.96508 70.7821 7.82361 71.064 7.82361H73.1325V5.77984C73.1325 5.49791 73.274 5.35645 73.5559 5.35645H75.6492C75.9479 5.35645 76.0973 5.49791 76.0973 5.77984V7.82361H79.2619C79.5606 7.82361 79.71 7.96508 79.71 8.24701V9.81694C79.71 10.0999 79.5606 10.2403 79.2619 10.2403H76.0973V10.2413Z" fill="#2D65F2"/>
<path d="M83.1239 20.6591C82.8251 20.6591 82.6758 20.5098 82.6758 20.211V3.63824C82.6758 3.3563 82.8251 3.21484 83.1239 3.21484H85.1924C85.4912 3.21484 85.6405 3.3563 85.6405 3.63824V9.22053H85.7899C85.9561 8.83868 86.2835 8.48948 86.7742 8.17391C87.2639 7.85834 87.9247 7.70006 88.7557 7.70006H90.375C91.7036 7.70006 92.6839 8.01563 93.3151 8.64677C93.9462 9.2779 94.2618 10.2582 94.2618 11.5878V16.7467C94.2618 18.0762 93.9462 19.0605 93.3151 19.6996C92.6839 20.3396 91.7036 20.6591 90.375 20.6591H83.1239ZM89.6529 18.2167C90.284 18.2167 90.7163 18.096 90.9488 17.8556C91.1813 17.6152 91.298 17.1869 91.298 16.5726V11.7629C91.298 11.1317 91.1813 10.6994 90.9488 10.467C90.7163 10.2345 90.284 10.1178 89.6529 10.1178H87.2856C86.6713 10.1178 86.243 10.2345 86.0026 10.467C85.7612 10.6994 85.6415 11.1317 85.6415 11.7629V18.2167H89.6529Z" fill="#2D65F2"/>
<path d="M98.3036 20.6591C98.0048 20.6591 97.8555 20.5098 97.8555 20.211V3.63824C97.8555 3.3563 98.0048 3.21484 98.3036 3.21484H100.372C100.671 3.21484 100.82 3.3563 100.82 3.63824V20.21C100.82 20.5088 100.671 20.6581 100.372 20.6581H98.3036V20.6591Z" fill="#2D65F2"/>
<path d="M108.321 20.7829C106.991 20.7829 106.007 20.4634 105.368 19.8233C104.728 19.1843 104.408 18.2 104.408 16.8705V11.5879C104.408 10.2594 104.728 9.27903 105.368 8.6469C106.007 8.01576 106.991 7.7002 108.321 7.7002H112.582C113.911 7.7002 114.891 8.01576 115.523 8.6469C116.154 9.27804 116.47 10.2584 116.47 11.5879V16.8705C116.47 18.2 116.154 19.1843 115.523 19.8233C114.892 20.4634 113.912 20.7829 112.582 20.7829H108.321ZM111.859 18.291C112.473 18.291 112.902 18.1703 113.142 17.9299C113.383 17.6896 113.503 17.2533 113.503 16.6212V11.8362C113.503 11.2051 113.387 10.7728 113.154 10.5403C112.922 10.3078 112.489 10.1911 111.858 10.1911H109.017C108.403 10.1911 107.974 10.3078 107.734 10.5403C107.493 10.7728 107.373 11.2051 107.373 11.8362V16.6212C107.373 17.2523 107.494 17.6886 107.734 17.9299C107.974 18.1713 108.403 18.291 109.017 18.291H111.859Z" fill="#2D65F2"/>
<path d="M118.687 20.6586C118.537 20.6586 118.421 20.626 118.338 20.5587C118.254 20.4924 118.213 20.4093 118.213 20.3094C118.213 20.1937 118.246 20.0938 118.313 20.0107L122.425 13.9555L118.712 8.4484C118.646 8.36531 118.613 8.2654 118.613 8.14966C118.613 8.04974 118.65 7.97159 118.724 7.91323C118.8 7.85486 118.902 7.82617 119.036 7.82617H121.154C121.32 7.82617 121.453 7.8509 121.553 7.90136C121.652 7.95082 121.743 8.04281 121.827 8.17537L122.798 9.64539L124.119 11.6892H124.293L125.613 9.64539L126.585 8.17537C126.668 8.04281 126.759 7.95082 126.859 7.90136C126.959 7.85189 127.091 7.82617 127.258 7.82617H129.4C129.665 7.82617 129.799 7.934 129.799 8.14966C129.799 8.26639 129.765 8.3663 129.699 8.4484L125.986 13.9555L130.073 20.0107C130.139 20.0938 130.173 20.1937 130.173 20.3094C130.173 20.4093 130.135 20.4924 130.061 20.5587C129.986 20.625 129.874 20.6586 129.725 20.6586H127.631C127.465 20.6586 127.333 20.6299 127.233 20.5716C127.133 20.5132 127.042 20.4182 126.959 20.2847L125.712 18.416L124.292 16.2228H124.118L122.697 18.416L121.452 20.2847C121.369 20.4182 121.278 20.5132 121.178 20.5716C121.078 20.6299 120.945 20.6586 120.779 20.6586H118.687Z" fill="#2D65F2"/>
<path d="M16.2664 1.00012V6.26585C16.2664 6.81785 15.8193 7.26598 15.2663 7.26598H12.3263C11.2965 7.26598 10.3052 7.63101 9.52373 8.28984C9.42976 8.36799 9.33875 8.45208 9.25169 8.53914L9.04989 8.74094C8.98559 8.80524 8.92425 8.87152 8.8649 8.93879C8.1655 9.73018 7.77673 10.7531 7.77673 11.8155V14.7555C7.77673 15.3075 7.3296 15.7556 6.77661 15.7556H1.51088C0.957892 15.7556 0.509766 15.3075 0.509766 14.7555V9.48979C0.509766 8.9378 0.957892 8.48967 1.51088 8.48967H4.65172C5.80517 8.48967 6.91016 8.03165 7.72529 7.21652C8.13286 6.80895 8.45239 6.32818 8.66903 5.80586C8.88567 5.28354 8.99944 4.71769 8.99944 4.14097V1.00012C8.99944 0.448127 9.44756 1.63468e-06 10.0005 1.63468e-06H15.2663C15.8193 -0.000987607 16.2664 0.447137 16.2664 1.00012Z" fill="#2D65F2"/>
<path d="M16.2667 9.00843V15.756H9.52308C9.16003 15.756 8.86523 15.4613 8.86523 15.0982V11.2669C8.89689 10.5487 9.18773 9.87897 9.6962 9.36753L9.87129 9.19045C10.4094 8.64934 11.1237 8.35059 11.8844 8.35059H15.6089C15.9729 8.35059 16.2667 8.64439 16.2667 9.00843Z" fill="#2D65F2"/>
<path d="M7.91127 17.2526V24.0002H1.16761C0.804559 24.0002 0.509766 23.7054 0.509766 23.3423V19.512C0.541421 18.7938 0.832258 18.1241 1.34073 17.6126L1.51582 17.4356C2.05397 16.8945 2.7682 16.5957 3.52893 16.5957H7.25342C7.61647 16.5947 7.91127 16.8895 7.91127 17.2526Z" fill="#2D65F2"/>
<path d="M4.21052 7.40151C6.25438 7.40151 7.91127 5.74462 7.91127 3.70075C7.91127 1.65688 6.25438 0 4.21052 0C2.16665 0 0.509766 1.65688 0.509766 3.70075C0.509766 5.74462 2.16665 7.40151 4.21052 7.40151Z" fill="#2D65F2"/>
</svg>
