<svg width="53" height="28" viewBox="0 0 53 28" fill="none" xmlns="http://www.w3.org/2000/svg">
<path d="M1.98575 27.2868C0.998518 27.2868 0.195312 26.4836 0.195312 25.4964V2.41994C0.195312 1.43322 0.998518 0.629492 1.98575 0.629492H50.4049C51.3916 0.629492 52.1953 1.43271 52.1953 2.41994V25.4964C52.1953 26.4836 51.3916 27.2868 50.4049 27.2868H1.98575Z" fill="#F6F6F6"/>
<path d="M50.4049 0.628922H1.98575C0.998518 0.628922 0.195312 1.43214 0.195312 2.41937V7.06018H52.1953V2.41937C52.1953 1.43214 51.3916 0.628922 50.4049 0.628922Z" fill="#2D65F2"/>
<path d="M0.195312 20.8561V25.4964C0.195312 26.4836 0.998518 27.2868 1.98575 27.2868H50.4049C51.3916 27.2868 52.1953 26.4836 52.1953 25.4964V20.8561H0.195312Z" fill="#2D65F2"/>
<path d="M5.09539 15.9647H6.59454L5.84522 10.9564L5.09539 15.9647ZM8.64628 19.1059H7.07597L6.80704 17.3088H4.89714L4.62821 19.1059H3.19922L4.78377 9.20205H7.06173L8.64628 19.1059Z" fill="#303030"/>
<path d="M11.4584 14.6491V17.6906H12.3501C12.8732 17.6906 13.1563 17.4502 13.1563 16.7146V15.8514C13.1563 14.9323 12.859 14.6491 12.1513 14.6491H11.4584ZM11.4584 10.6168V13.2344H12.0669C12.647 13.2344 13.0008 12.9797 13.0008 12.1871V11.6356C13.0008 10.9279 12.7603 10.6168 12.2083 10.6168H11.4584ZM14.5569 11.4795V11.8338C14.5569 12.8521 14.2458 13.5028 13.5524 13.8281C14.3871 14.1535 14.7129 14.9038 14.7129 15.9505V16.7573C14.7129 18.2849 13.9062 19.1059 12.3501 19.1059H9.90234V9.20205H12.251C13.864 9.20205 14.5569 9.95188 14.5569 11.4795Z" fill="#303030"/>
<path d="M20.6994 15.4136V16.7287C20.6994 18.3137 19.9069 19.2191 18.3787 19.2191C16.8511 19.2191 16.0586 18.3137 16.0586 16.7287V11.579C16.0586 9.99444 16.8511 9.08905 18.3787 9.08905C19.9069 9.08905 20.6994 9.99444 20.6994 11.579V12.5413H19.2277V11.4799C19.2277 10.7727 18.9166 10.5038 18.4214 10.5038C17.9263 10.5038 17.6152 10.7727 17.6152 11.4799V16.8283C17.6152 17.5354 17.9263 17.7901 18.4214 17.7901C18.9166 17.7901 19.2277 17.5354 19.2277 16.8283V15.4136H20.6994Z" fill="#303030"/>
<path d="M24.8438 13.4466H27.6733V14.8613H24.8438V13.4466Z" fill="#303030"/>
<path d="M32.9648 10.4475C34.1676 10.4475 34.4366 9.86749 34.677 9.20256H35.7237V19.1059H34.1676V11.5512H32.9648V10.4475Z" fill="#303030"/>
<path d="M40.422 10.504C39.9268 10.504 39.6157 10.7729 39.6157 11.4805V12.5415H38.1445V11.5796C38.1445 9.99458 38.9371 9.0892 40.4647 9.0892C41.9928 9.0892 42.7853 9.99458 42.7853 11.5796C42.7853 14.6918 39.6864 15.8519 39.6864 17.4791C39.6864 17.5498 39.6864 17.6205 39.7006 17.6911H42.6435V19.1059H38.1445V17.8894C38.1445 14.975 41.2282 14.4936 41.2282 11.6356C41.2282 10.7444 40.9176 10.504 40.422 10.504Z" fill="#303030"/>
<path d="M47.2834 11.6359C47.2834 10.7443 46.9723 10.5038 46.4777 10.5038C45.982 10.5038 45.6704 10.7727 45.6704 11.4804V12.1168H44.1992V11.5795C44.1992 9.99444 44.9918 9.08905 46.5199 9.08905C48.047 9.08905 48.8395 9.99444 48.8395 11.5795V11.8342C48.8395 12.8946 48.4999 13.5601 47.7501 13.8712C48.5289 14.2108 48.8395 14.9464 48.8395 15.9509V16.7287C48.8395 18.3137 48.047 19.2191 46.5199 19.2191C44.9918 19.2191 44.1992 18.3137 44.1992 16.7287V15.9087H45.6704V16.8278C45.6704 17.5354 45.982 17.8044 46.4777 17.8044C46.9723 17.8044 47.2834 17.5639 47.2834 16.6865V15.9082C47.2834 14.9891 46.9723 14.649 46.2652 14.649H45.7416V13.2342H46.3501C46.9301 13.2342 47.2834 12.9795 47.2834 12.1875V11.6359Z" fill="#303030"/>
<path d="M10.5764 2.8048C11.16 2.8048 11.6333 3.27758 11.6333 3.86168C11.6333 4.44528 11.16 4.91855 10.5764 4.91855C9.99282 4.91855 9.51953 4.44528 9.51953 3.86168C9.51953 3.27758 9.99282 2.8048 10.5764 2.8048Z" fill="#303030"/>
<path d="M10.5764 23.018C11.16 23.018 11.6333 23.4913 11.6333 24.0749C11.6333 24.659 11.16 25.1317 10.5764 25.1317C9.99282 25.1317 9.51953 24.659 9.51953 24.0749C9.51953 23.4913 9.99282 23.018 10.5764 23.018Z" fill="#303030"/>
<path d="M41.8142 2.8048C42.3978 2.8048 42.8711 3.27758 42.8711 3.86168C42.8711 4.44528 42.3978 4.91855 41.8142 4.91855C41.2306 4.91855 40.7578 4.44528 40.7578 3.86168C40.7578 3.27758 41.2306 2.8048 41.8142 2.8048Z" fill="#303030"/>
<path d="M41.8142 23.018C42.3978 23.018 42.8711 23.4913 42.8711 24.0749C42.8711 24.659 42.3978 25.1317 41.8142 25.1317C41.2306 25.1317 40.7578 24.659 40.7578 24.0749C40.7578 23.4913 41.2306 23.018 41.8142 23.018Z" fill="#303030"/>
<path d="M4.62821 19.1059H3.19922L4.78377 9.20205H5.85591V11.0296L5.84522 10.9564L5.09539 15.9647H5.85591V17.3088H4.89714L4.62821 19.1059Z" fill="#303030"/>
</svg>
