<svg width="24" height="24" viewBox="0 0 24 24" fill="none" xmlns="http://www.w3.org/2000/svg">
<path d="M6.07393 19.4538C5.65653 19.4538 5.29767 19.3045 4.99735 19.006C4.69703 18.7075 4.54687 18.3486 4.54687 17.9294C4.54687 17.5136 4.69613 17.1556 4.99465 16.8553C5.29317 16.555 5.65202 16.4048 6.07123 16.4048C6.48703 16.4048 6.84508 16.5541 7.1454 16.8527C7.44572 17.1514 7.59588 17.5094 7.59588 17.9267C7.59588 18.3441 7.44656 18.703 7.14793 19.0033C6.84931 19.3036 6.49131 19.4538 6.07393 19.4538ZM12.0034 19.4538C11.5843 19.4538 11.2254 19.3045 10.9267 19.006C10.628 18.7075 10.4786 18.3486 10.4786 17.9294C10.4786 17.5136 10.6275 17.1556 10.9253 16.8553C11.2231 16.555 11.5812 16.4048 11.9994 16.4048C12.4176 16.4048 12.7768 16.5541 13.0771 16.8527C13.3774 17.1514 13.5276 17.5094 13.5276 17.9267C13.5276 18.3441 13.3784 18.703 13.0799 19.0033C12.7814 19.3036 12.4226 19.4538 12.0034 19.4538ZM17.9326 19.4538C17.5152 19.4538 17.1563 19.3045 16.856 19.006C16.5557 18.7075 16.4055 18.3486 16.4055 17.9294C16.4055 17.5136 16.5548 17.1556 16.8533 16.8553C17.1518 16.555 17.5107 16.4048 17.9299 16.4048C18.3457 16.4048 18.7037 16.5541 19.0041 16.8527C19.3044 17.1514 19.4545 17.5094 19.4545 17.9267C19.4545 18.3441 19.3052 18.703 19.0066 19.0033C18.708 19.3036 18.35 19.4538 17.9326 19.4538ZM6.07393 13.5221C5.65653 13.5221 5.29767 13.3732 4.99735 13.0753C4.69703 12.7775 4.54687 12.4195 4.54687 12.0013C4.54687 11.5831 4.69613 11.2239 4.99465 10.9235C5.29317 10.6232 5.65202 10.4731 6.07123 10.4731C6.48703 10.4731 6.84508 10.6223 7.1454 10.9208C7.44572 11.2193 7.59588 11.5781 7.59588 11.9972C7.59588 12.4164 7.44656 12.7753 7.14793 13.074C6.84931 13.3727 6.49131 13.5221 6.07393 13.5221ZM12.0034 13.5221C11.5843 13.5221 11.2254 13.3732 10.9267 13.0753C10.628 12.7775 10.4786 12.4195 10.4786 12.0013C10.4786 11.5831 10.6275 11.2239 10.9253 10.9235C11.2231 10.6232 11.5812 10.4731 11.9994 10.4731C12.4176 10.4731 12.7768 10.6223 13.0771 10.9208C13.3774 11.2193 13.5276 11.5781 13.5276 11.9972C13.5276 12.4164 13.3784 12.7753 13.0799 13.074C12.7814 13.3727 12.4226 13.5221 12.0034 13.5221ZM17.9326 13.5221C17.5152 13.5221 17.1563 13.3732 16.856 13.0753C16.5557 12.7775 16.4055 12.4195 16.4055 12.0013C16.4055 11.5831 16.5548 11.2239 16.8533 10.9235C17.1518 10.6232 17.5107 10.4731 17.9299 10.4731C18.3457 10.4731 18.7037 10.6223 19.0041 10.9208C19.3044 11.2193 19.4545 11.5781 19.4545 11.9972C19.4545 12.4164 19.3052 12.7753 19.0066 13.074C18.708 13.3727 18.35 13.5221 17.9326 13.5221ZM6.07393 7.59514C5.65653 7.59514 5.29767 7.44588 4.99735 7.14734C4.69703 6.84883 4.54688 6.48997 4.54688 6.07077C4.54688 5.65498 4.69613 5.29694 4.99465 4.99662C5.29317 4.6963 5.65202 4.54614 6.07123 4.54614C6.48703 4.54614 6.84508 4.69545 7.1454 4.99407C7.44572 5.29268 7.59588 5.65069 7.59588 6.06809C7.59588 6.48549 7.44656 6.84435 7.14793 7.14467C6.84931 7.44499 6.49131 7.59514 6.07393 7.59514ZM12.0034 7.59514C11.5843 7.59514 11.2254 7.44588 10.9267 7.14734C10.628 6.84883 10.4786 6.48997 10.4786 6.07077C10.4786 5.65498 10.6275 5.29694 10.9253 4.99662C11.2231 4.6963 11.5812 4.54614 11.9994 4.54614C12.4176 4.54614 12.7768 4.69545 13.0771 4.99407C13.3774 5.29268 13.5276 5.65069 13.5276 6.06809C13.5276 6.48549 13.3784 6.84435 13.0799 7.14467C12.7814 7.44499 12.4226 7.59514 12.0034 7.59514ZM17.9326 7.59514C17.5152 7.59514 17.1563 7.44588 16.856 7.14734C16.5557 6.84883 16.4055 6.48997 16.4055 6.07077C16.4055 5.65498 16.5548 5.29694 16.8533 4.99662C17.1518 4.6963 17.5107 4.54614 17.9299 4.54614C18.3457 4.54614 18.7037 4.69545 19.0041 4.99407C19.3044 5.29268 19.4545 5.65069 19.4545 6.06809C19.4545 6.48549 19.3052 6.84435 19.0066 7.14467C18.708 7.44499 18.35 7.59514 17.9326 7.59514Z" fill="#999999"/>
</svg>
