<svg width="124" height="48" viewBox="0 0 124 48" fill="none" xmlns="http://www.w3.org/2000/svg">
<path d="M0.726799 31.2872C0.726799 31.2872 0.741074 31.9059 0.816605 32.7711C0.988289 34.8466 1.48426 38.3701 2.87981 38.7694C2.87981 38.7694 5.76192 39.5083 6.3364 39.1852C6.3364 39.1852 6.46398 29.3736 14.5888 27.1516C19.4004 25.8479 28.6401 26.121 29.4798 40.4285C29.4798 40.4285 83.839 41.1132 87.4912 41.8471C87.4912 41.8471 88.9238 41.6407 88.7135 39.4084C88.7147 38.99 88.7387 38.572 88.7854 38.1562C89.0761 35.1835 90.626 27.8598 98.6204 26.4658C98.6204 26.4658 110.09 24.2669 112.034 37.1381C112.123 37.7447 112.196 38.3804 112.238 39.0519C112.28 39.7234 112.31 40.4204 112.312 41.157C112.312 41.157 116.637 42.3303 118.491 40.9216C118.491 40.9216 122.999 41.1169 123.09 40.8797L123.321 39.6259L123.208 39.4774C122.823 38.971 121.669 37.3258 122.72 37.2386C123.319 34.7149 123.512 32.1118 123.292 29.5273C122.846 25.1579 120.766 20.4213 114.032 19.637C114.032 19.637 97.8415 15.7399 93.4567 13.2875C85.4778 8.82256 72.0431 -0.373601 51.8194 0.0117424C43.089 0.183028 28.7132 -0.530625 16.9471 2.1719C16.5668 2.66125 16.2804 3.21667 16.1021 3.81019C16.1021 3.81019 7.70789 12.052 7.23734 12.4677C6.83192 12.823 6.44225 13.1529 6.089 13.4989C5.53075 14.0041 5.01531 14.5547 4.54794 15.145C3.1308 16.9436 2.55186 19.0988 3.84031 22.4108C3.80705 22.4096 -0.067337 28.3228 0.726799 31.2872Z" fill="#999999"/>
<path d="M109.5 41.5751L112.31 41.1639C112.31 41.1639 113.895 26.9604 101.114 26.2536C96.2489 25.9859 87.9121 28.9403 88.6087 41.203C88.6087 41.203 89.6191 43.3167 91.8286 43.7274C91.8286 43.7274 85.9032 32.5383 98.2631 28.7879C102.617 27.4452 110.994 30.9513 109.5 41.5751Z" fill="#303030"/>
<path d="M27.7534 40.2241L29.5464 40.3826C29.5464 40.3826 30.9872 27.6729 18.8012 26.292C13.9578 25.7438 5.72798 29.5128 6.338 39.1961C6.338 39.1961 6.55103 38.2342 7.99425 38.7462C7.99425 38.7462 8.16508 31.9862 15.5064 29.3283C19.7907 27.7683 27.955 29.7083 27.7534 40.2241Z" fill="#303030"/>
<path d="M89.9667 38.2445C89.9141 32.8025 94.4253 28.3468 100.043 28.2925C105.66 28.2381 110.257 32.6057 110.31 38.0477C110.362 43.4897 105.851 47.9454 100.233 47.9997C94.6159 48.0541 90.0194 43.6865 89.9667 38.2445Z" fill="#151515"/>
<path d="M93.1415 38.4343C93.1028 34.4305 96.3585 31.1529 100.413 31.1136C104.468 31.0744 107.787 34.2884 107.825 38.2923C107.864 42.2961 104.608 45.5737 100.554 45.613C96.4987 45.6522 93.1802 42.4382 93.1415 38.4343Z" fill="#999999"/>
<path d="M95.3383 38.219C95.3561 39.2165 95.6688 40.1865 96.2369 41.0065C96.8051 41.8266 97.6033 42.4602 98.531 42.8273C99.4587 43.1944 100.474 43.2786 101.45 43.0694C102.425 42.8602 103.317 42.3669 104.012 41.6516C104.708 40.9364 105.176 40.0312 105.358 39.0503C105.54 38.0693 105.428 37.0565 105.035 36.1394C104.642 35.2223 103.986 34.442 103.151 33.8969C102.315 33.3519 101.337 33.0664 100.339 33.0764C98.9944 33.0959 97.7122 33.6485 96.7746 34.6128C95.8369 35.577 95.3203 36.8741 95.3383 38.219Z" fill="#151515"/>
<path d="M94.1301 39.3884L93.9938 37.4586L97.9639 37.3973C97.9856 37.3259 98.0129 37.2564 98.0456 37.1893L95.0255 34.7649L96.2866 33.2862L99.1476 36.0084C99.2136 35.9726 99.2815 35.9405 99.351 35.9122L98.8775 31.9786L100.811 31.8535L100.934 35.7557C101.033 35.7771 101.131 35.8042 101.227 35.8368L103.763 32.7838L105.195 34.1061L102.505 36.8055C102.622 36.9762 102.716 37.1613 102.785 37.3562L106.697 37.1595L106.689 39.0951L102.778 38.9513C102.757 39.0134 102.733 39.0717 102.708 39.1301L105.704 41.809L104.336 43.1801L101.626 40.2895C101.517 40.3472 101.405 40.3975 101.291 40.4401L101.969 44.3405L100.053 44.6106L99.6708 40.5027L99.455 40.4318L99.4981 40.4667L97.096 43.6875L95.5822 42.477L98.2612 39.4774C98.1589 39.3226 98.0744 39.1569 98.0092 38.9832L94.1301 39.3884Z" fill="#999999"/>
<path d="M7.66628 38.0961C7.72154 43.5393 12.3178 47.8909 17.9343 47.8495C23.5508 47.808 28.0605 43.3395 28.0088 37.9002C27.9571 32.4608 23.3573 28.1053 17.7408 28.1468C12.1243 28.1883 7.61828 32.6568 7.66628 38.0961Z" fill="#151515"/>
<path d="M10.8212 38.2813C10.7818 34.2774 14.0369 30.9993 18.0917 30.9594C22.1465 30.9194 25.4656 34.1328 25.505 38.1367C25.5444 42.1406 22.2893 45.4187 18.2345 45.4586C14.1797 45.4986 10.8606 42.2852 10.8212 38.2813Z" fill="#999999"/>
<path d="M13.0059 38.0561C13.0236 39.0527 13.336 40.0218 13.9036 40.8412C14.4712 41.6606 15.2686 42.2937 16.1954 42.6607C17.1222 43.0276 18.1369 43.112 19.1115 42.9032C20.0862 42.6944 20.9773 42.2018 21.6725 41.4874C22.3676 40.7731 22.8358 39.8689 23.018 38.8889C23.2002 37.9089 23.0882 36.8968 22.6962 35.9804C22.3041 35.0639 21.6496 34.2839 20.8151 33.7388C19.9806 33.1937 19.0034 32.9079 18.0066 32.9172C16.6624 32.9367 15.3809 33.4888 14.4434 34.4523C13.5058 35.4157 12.9888 36.7118 13.0059 38.0561Z" fill="#151515"/>
<path d="M11.8021 39.2292L11.6658 37.2994L15.6322 37.238C15.6571 37.1649 15.6855 37.0956 15.714 37.0263L12.6975 34.6057L13.9545 33.138L16.8155 35.8601C16.8797 35.8255 16.9476 35.791 17.019 35.7603L16.5489 31.8342L18.4783 31.709L18.5976 35.611C18.6961 35.6302 18.7929 35.6573 18.887 35.692L21.4274 32.6391L22.8594 33.9577L20.1692 36.6571C20.2857 36.8292 20.3796 37.0155 20.4487 37.2115L24.3608 37.0148L24.3526 38.9504L20.4418 38.8066C20.4213 38.8676 20.3968 38.9273 20.3686 38.9853L23.3682 41.6644L22.0001 43.0354L19.2896 40.1449C19.1802 40.2025 19.0671 40.2528 18.951 40.2953L19.6329 44.1958L17.7168 44.4659L17.3348 40.358C17.2617 40.337 17.1897 40.3121 17.1192 40.2834L17.1622 40.322L14.76 43.5428L13.2463 42.3323L15.9253 39.3327C15.8224 39.1783 15.7378 39.0125 15.6733 38.8385L11.8021 39.2292Z" fill="#999999"/>
<path d="M6.0617 13.4977L6.08756 13.4986C7.30248 13.6766 11.7674 12.7414 11.7674 12.7414C14.2505 12.755 17.212 12.8454 20.523 12.993C39.0288 13.8289 68.5111 16.5231 87.6382 18.3812C98.7026 19.4617 106.294 20.2591 106.294 20.2591C111.693 24.4219 123.253 29.5478 123.253 29.5478L123.294 29.5308C122.848 25.1615 120.768 20.4248 114.035 19.6405C114.035 19.6405 111.217 18.9595 107.614 17.9905C102.578 16.643 95.9861 14.7202 93.4476 13.2943C85.4687 8.82938 72.034 -0.366765 51.8103 0.0185783C43.0799 0.189864 28.7041 -0.5238 16.938 2.17872C16.5578 2.66807 16.2713 3.22351 16.093 3.81702C15.8856 4.02408 8.7506 11.0351 7.42395 12.2856C7.3317 12.3784 7.26669 12.4353 7.23604 12.4637C6.81981 12.8112 6.42973 13.1522 6.0617 13.4977Z" fill="#999999"/>
<path opacity="0.5" d="M53.4307 19.2238C53.4376 20.0421 55.1609 20.6903 57.2787 20.6719C59.3966 20.6536 61.1059 19.9687 61.0991 19.1467C61.0923 18.3248 59.369 17.6803 57.2511 17.6986C55.1332 17.717 53.4239 18.4018 53.4307 19.2238Z" fill="#6F6464"/>
<path opacity="0.5" d="M23.118 16.7054C23.1249 17.5237 24.8481 18.1719 26.966 18.1535C29.0838 18.1351 30.7932 17.4503 30.7827 16.6282C30.7722 15.8061 29.0525 15.1617 26.9347 15.1801C24.8168 15.1984 23.1075 15.8833 23.118 16.7054Z" fill="#6F6464"/>
<path d="M3.81271 22.4078C5.85836 22.6421 12.4469 16.6992 12.4469 16.6992C14.974 13.6052 4.76566 15.1139 4.76566 15.1139L4.5202 15.1456C3.10265 16.9553 2.5166 19.1028 3.81271 22.4078Z" fill="white"/>
<path d="M106.291 20.2578L106.409 20.3842C106.451 20.4354 106.496 20.484 106.544 20.5299C111.657 25.9332 119.443 25.6754 119.443 25.6754C119.44 24.8258 119.252 23.9869 118.891 23.2178C118.53 22.4487 118.005 21.768 117.352 21.2234C116.595 20.5771 115.723 20.0781 114.782 19.752C114.582 19.6742 114.373 19.6037 114.161 19.5403C114.161 19.5403 111.199 18.965 107.592 17.9922L107.547 18.0127C107.547 18.0127 103.717 18.8824 106.291 20.2578Z" fill="white"/>
<path opacity="0.5" d="M25.3147 26.83C26.5162 27.4739 27.7212 28.8248 28.7362 30.2131C29.7024 31.5579 30.5708 32.9703 31.3346 34.4395C31.3941 34.6342 31.4541 34.8141 31.5179 34.9904C32.8622 38.6969 35.5886 38.2345 35.5886 38.2345L82.4629 38.7365C82.9696 38.8663 83.4921 38.9242 84.0149 38.9084C86.6508 38.7943 86.2719 36.1116 86.2719 36.1116C87.5628 33.3163 88.0673 30.0665 88.1979 27.1175C88.3161 24.1882 88.1262 21.2545 87.6314 18.3649C83.9121 17.5433 67.3208 16.1819 51.5621 15.025C35.5932 13.8493 20.4754 12.8789 20.4754 12.8789C18.4629 21.9105 25.3147 26.83 25.3147 26.83Z" stroke="#6F6464" stroke-width="0.5" stroke-miterlimit="10"/>
<path opacity="0.5" d="M51.664 15.167C51.664 15.167 54.0541 34.2212 52.2692 38.168" stroke="#6F6464" stroke-width="0.5" stroke-miterlimit="10"/>
<path d="M20.478 12.8808C20.479 12.9216 20.4903 12.9614 20.5107 12.9967C29.1464 13.3883 40.1732 14.1824 51.4249 15.1032C64.2815 16.1645 77.4242 17.3954 87.6258 18.385L87.6265 18.3665C87.6265 18.3665 88.0859 11.5097 85.6808 10.2812C85.6808 10.2812 69.3068 0.18859 48.8262 0.816188C42.1006 1.02417 22.9441 0.974973 22.2155 4.78292C22.2229 4.78319 20.4937 11.4452 20.478 12.8808Z" fill="#999999"/>
<path d="M84.6725 11.2038C83.4141 10.0952 80.3216 8.73784 78.7315 8.09084C78.6752 8.06677 78.6134 8.05836 78.5527 8.06648C78.492 8.07461 78.4346 8.09898 78.3866 8.13702C78.3385 8.17505 78.3017 8.22534 78.2799 8.28259C78.258 8.33983 78.2521 8.40191 78.2626 8.46226C78.4766 9.89149 79.0913 13.8081 79.4597 14.0585C79.4597 14.0585 83.4857 15.2948 85.0848 14.3875C85.0845 14.3949 85.5616 11.9879 84.6725 11.2038Z" fill="white"/>
<path d="M79.1749 11.9594C79.1749 11.9594 77.4796 14.9804 78.9631 16.3083C78.9631 16.3083 83.3781 17.0332 83.5405 14.0262C83.5405 14.0262 83.3246 11.3421 79.1749 11.9594Z" fill="#6F6464"/>
<path d="M46.3019 2.86612C46.7366 5.63971 48.0479 14.0681 48.0125 14.6294L27.6772 13.419C27.6772 13.419 23.8199 8.0951 24.8128 4.54857C24.9324 4.1125 38.3764 1.88253 45.2652 1.96926C45.5159 1.97283 45.7573 2.06474 45.9469 2.22879C46.1366 2.39284 46.2623 2.61852 46.3019 2.86612Z" fill="white"/>
<path d="M76.1918 6.74693C73.2729 5.59948 60.7834 0.998302 52.4186 1.99736C52.3552 2.00723 52.2946 2.02985 52.2403 2.06385C52.186 2.09786 52.1391 2.14253 52.1026 2.19518C52.066 2.24782 52.0405 2.30734 52.0277 2.37012C52.0148 2.4329 52.0148 2.49764 52.0277 2.56041C52.4062 4.44728 53.7775 11.2455 54.6005 14.1296C54.6719 14.3841 54.8191 14.6108 55.0225 14.7796C55.2258 14.9484 55.4758 15.0513 55.739 15.0746L77.0535 17.0354L78.4272 13.6991L77.0321 7.65136C76.9689 7.44722 76.8605 7.25992 76.7151 7.10335C76.5696 6.94678 76.3908 6.82497 76.1918 6.74693Z" fill="white"/>
</svg>
