<svg width="16" height="20" viewBox="0 0 16 20" fill="none" xmlns="http://www.w3.org/2000/svg">
<path d="M4.30472 9.69712H11.7037V8.29812H4.30472V9.69712ZM4.30472 5.69711H11.7037V4.29812H4.30472V5.69711ZM15.2508 18.0644L11.6595 13.3818C11.3986 13.0388 11.0825 12.7725 10.7113 12.5827C10.34 12.393 9.93596 12.2981 9.49914 12.2981H0.683594V2.40869C0.683594 1.93474 0.849552 1.5318 1.18147 1.19987C1.5134 0.867932 1.91571 0.701965 2.38839 0.701965H13.6152C14.0879 0.701965 14.4902 0.867932 14.8222 1.19987C15.1541 1.5318 15.32 1.934 15.32 2.40647V17.5909C15.32 17.6722 15.3143 17.7522 15.3027 17.831C15.2912 17.9097 15.2739 17.9876 15.2508 18.0644ZM2.38827 19.2981C1.91567 19.2981 1.5134 19.1321 1.18147 18.8002C0.849552 18.4682 0.683594 18.0658 0.683594 17.5929V13.6971H9.50182C9.71385 13.6971 9.91102 13.7448 10.0933 13.8403C10.2756 13.9357 10.431 14.0684 10.5595 14.2385L14.2941 19.1265C14.193 19.1857 14.084 19.2291 13.9671 19.2567C13.8503 19.2843 13.7311 19.2981 13.6097 19.2981H2.38827Z" fill="white"/>
</svg>
