<svg width="24" height="24" viewBox="0 0 24 24" fill="none" xmlns="http://www.w3.org/2000/svg">
<path d="M3 5.36713V3.58364C3 3.14735 3.15413 2.77434 3.46239 2.46461C3.77063 2.15487 4.14438 2 4.58364 2H6.36712C6.54407 2 6.69611 2.0636 6.82325 2.1908C6.95038 2.31798 7.01395 2.47157 7.01395 2.65158C7.01395 2.83161 6.95038 2.98437 6.82325 3.10986C6.69611 3.23536 6.54407 3.29811 6.36712 3.29811H4.58364C4.50036 3.29811 4.43196 3.32562 4.37842 3.38064C4.32488 3.43567 4.29811 3.50333 4.29811 3.58364V5.36713C4.29811 5.54704 4.23451 5.70057 4.10731 5.8277C3.98013 5.95484 3.82653 6.01841 3.64653 6.01841C3.4665 6.01841 3.31374 5.95484 3.18824 5.8277C3.06275 5.70057 3 5.54704 3 5.36713ZM19.7019 5.36713V3.58364C19.7019 3.50333 19.6744 3.43567 19.6194 3.38064C19.5643 3.32562 19.4967 3.29811 19.4164 3.29811H17.6329C17.453 3.29811 17.2994 3.23525 17.1723 3.10954C17.0452 2.98384 16.9816 2.83099 16.9816 2.65098C16.9816 2.47095 17.0452 2.31745 17.1723 2.19047C17.2994 2.06349 17.453 2 17.6329 2H19.4164C19.8527 2 20.2257 2.15487 20.5354 2.46461C20.8451 2.77434 21 3.14735 21 3.58364V5.36713C21 5.54704 20.9364 5.70057 20.8092 5.8277C20.682 5.95484 20.5284 6.01841 20.3484 6.01841C20.1684 6.01841 20.0156 5.95484 19.8901 5.8277C19.7646 5.70057 19.7019 5.54704 19.7019 5.36713ZM3 20.2721V18.4886C3 18.3117 3.06286 18.1597 3.18857 18.0325C3.31427 17.9054 3.46712 17.8418 3.64713 17.8418C3.82715 17.8418 3.98066 17.9054 4.10764 18.0325C4.23462 18.1597 4.29811 18.3117 4.29811 18.4886V20.2721C4.29811 20.3554 4.32488 20.4238 4.37842 20.4774C4.43196 20.5309 4.50036 20.5577 4.58364 20.5577H6.36712C6.54407 20.5577 6.69611 20.6213 6.82325 20.7485C6.95038 20.8756 7.01395 21.0292 7.01395 21.2092C7.01395 21.3893 6.95038 21.542 6.82325 21.6675C6.69611 21.793 6.54407 21.8558 6.36712 21.8558H4.58364C4.14438 21.8558 3.77063 21.7016 3.46239 21.3934C3.15413 21.0851 3 20.7114 3 20.2721ZM19.4164 21.8558H17.6329C17.453 21.8558 17.2994 21.7929 17.1723 21.6672C17.0452 21.5415 16.9816 21.3886 16.9816 21.2086C16.9816 21.0286 17.0452 20.8751 17.1723 20.7481C17.2994 20.6211 17.453 20.5577 17.6329 20.5577H19.4164C19.4967 20.5577 19.5643 20.5309 19.6194 20.4774C19.6744 20.4238 19.7019 20.3554 19.7019 20.2721V18.4886C19.7019 18.3117 19.7647 18.1597 19.8905 18.0325C20.0162 17.9054 20.169 17.8418 20.349 17.8418C20.529 17.8418 20.6825 17.9054 20.8095 18.0325C20.9365 18.1597 21 18.3117 21 18.4886V20.2721C21 20.7114 20.8451 21.0851 20.5354 21.3934C20.2257 21.7016 19.8527 21.8558 19.4164 21.8558Z" fill="#2D65F2"/>
<path d="M12 11.5024C11.0975 11.5024 10.33 11.1862 9.69749 10.5537C9.06504 9.92124 8.74882 9.15374 8.74882 8.25119C8.74882 7.34864 9.06504 6.58113 9.69749 5.94867C10.33 5.31622 11.0975 5 12 5C12.9025 5 13.67 5.31622 14.3025 5.94867C14.935 6.58113 15.2512 7.34864 15.2512 8.25119C15.2512 9.15374 14.935 9.92124 14.3025 10.5537C13.67 11.1862 12.9025 11.5024 12 11.5024ZM5 17.1596V16.5051C5 16.049 5.12199 15.6298 5.36596 15.2475C5.60995 14.8652 5.94194 14.57 6.36193 14.3617C7.29672 13.9108 8.23388 13.5706 9.17342 13.3412C10.113 13.1117 11.0552 12.997 12.0002 12.997C12.9451 12.997 13.8877 13.1116 14.8278 13.341C15.768 13.5703 16.7051 13.9104 17.6392 14.3614C18.0588 14.5696 18.3906 14.8649 18.6343 15.2473C18.8781 15.6296 19 16.0489 19 16.5051V17.1596C19 17.5375 18.8684 17.8581 18.6051 18.1213C18.3419 18.3846 18.0213 18.5162 17.6434 18.5162H6.35658C5.97869 18.5162 5.65812 18.3846 5.39487 18.1213C5.13162 17.8581 5 17.5375 5 17.1596Z" fill="#2D65F2"/>
</svg>
