<svg width="24" height="24" viewBox="0 0 24 24" fill="none" xmlns="http://www.w3.org/2000/svg">
<path d="M19.6143 20.1942L20.2374 19.5711L18.3816 17.7154V14.9538H17.497V18.0769L19.6143 20.1942ZM17.9406 22.2548C16.7314 22.2548 15.7025 21.8309 14.8537 20.9831C14.005 20.1352 13.5807 19.1067 13.5807 17.8975C13.5807 16.6883 14.0046 15.6593 14.8524 14.8106C15.7002 13.9619 16.7287 13.5375 17.9379 13.5375C19.1472 13.5375 20.1761 13.9614 21.0248 14.8092C21.8736 15.6571 22.2979 16.6856 22.2979 17.8948C22.2979 19.104 21.874 20.133 21.0262 20.9817C20.1784 21.8304 19.1499 22.2548 17.9406 22.2548ZM7.35084 8.86536L16.6489 8.86536V7.46636L7.35084 7.46636V8.86536ZM11.7922 20.298H5.38834C4.91739 20.298 4.5152 20.1313 4.18177 19.7979C3.84835 19.4645 3.68164 19.0623 3.68164 18.5913L3.68164 5.38846C3.68164 4.91751 3.84835 4.51532 4.18177 4.18189C4.5152 3.84847 4.91739 3.68176 5.38834 3.68176L18.6114 3.68176C19.0823 3.68176 19.4845 3.84847 19.818 4.18189C20.1514 4.51532 20.3181 4.91751 20.3181 5.38846V11.6808C19.9303 11.5199 19.5402 11.3989 19.1479 11.3178C18.7556 11.2367 18.3569 11.1961 17.9519 11.1961C17.6884 11.1961 17.4314 11.2128 17.1811 11.2462C16.9308 11.2795 16.6825 11.3289 16.4362 11.3942V11.2904L7.35084 11.2904V12.6894L13.8076 12.6894C13.3896 13.0103 13.0182 13.3744 12.6936 13.7815C12.3689 14.1887 12.0982 14.633 11.8813 15.1144L7.35084 15.1144V16.5192H11.4412C11.3854 16.7336 11.3462 16.9483 11.3234 17.1632C11.3007 17.3781 11.2893 17.5999 11.2893 17.8286C11.2893 18.2198 11.3287 18.642 11.4076 19.0952C11.4864 19.5484 11.6146 19.9493 11.7922 20.298Z" fill="#999999"/>
</svg>
