<svg width="60" height="48" viewBox="0 0 60 48" fill="none" xmlns="http://www.w3.org/2000/svg">
<path d="M8.02989 33.7207L6.4957 33.7263C4.6929 33.7329 3.23989 36.042 3.2503 38.8837L3.26486 42.8543C3.27527 45.6961 4.74517 47.9944 6.54797 47.9878L8.08216 47.9822C9.88496 47.9756 11.338 45.6665 11.3276 42.8248L11.313 38.8542C11.3026 36.0124 9.83268 33.7141 8.02989 33.7207Z" fill="#151515"/>
<path d="M53.5088 33.5552L51.9709 33.5609C50.1637 33.5675 48.7072 35.8766 48.7176 38.7183L48.7321 42.6889C48.7426 45.5307 50.216 47.829 52.0231 47.8224L53.561 47.8167C55.3682 47.8101 56.8247 45.501 56.8143 42.6593L56.7998 38.6887C56.7894 35.847 55.3159 33.5486 53.5088 33.5552Z" fill="#151515"/>
<path d="M57.2329 43.0003C56.8321 43.1498 56.4118 43.2407 55.9851 43.2705C55.5209 43.3084 55.0536 43.2649 54.6044 43.1418C26.797 48.8405 5.14289 42.5115 5.14289 42.5115C4.62613 42.7008 4.06189 42.7174 3.53491 42.5587C3.1273 42.4699 2.72838 42.3451 2.34286 42.1856C-0.285648 35.0506 0.00164832 30.0423 0.846374 26.925C1.18507 25.5235 1.79549 24.2022 2.64303 23.0358L2.74593 22.9115C2.31714 20.656 2.72021 16.5139 2.72021 16.5139C2.46722 16.1966 3.5778 15.6563 3.91225 15.4977L3.97657 15.4677H4.01088C4.56832 14.9102 6.71658 12.6762 6.71658 12.6762C12.7197 0.528596 14.4349 2.18802 14.4349 2.18802C32.6201 -0.779216 46.007 2.24376 46.007 2.24376C49.0086 4.2162 53.2966 12.5347 53.2966 12.5347C53.5238 12.8177 53.7511 13.1007 53.9783 13.3923C54.6112 14.2057 55.3174 14.9592 56.088 15.6435C56.5909 15.9145 57.0764 16.2167 57.5416 16.5482C58.172 21.4236 57.5416 22.9501 57.5416 22.9501C58.4983 24.7027 59.1507 26.605 59.4712 28.5758C60.7447 36.1268 57.2329 43.0003 57.2329 43.0003Z" fill="#999999"/>
<path d="M57.2329 43.0001C56.8321 43.1496 56.4118 43.2406 55.9851 43.2703C55.5209 43.3082 55.0536 43.2647 54.6044 43.1416C26.797 48.8403 5.14289 42.5113 5.14289 42.5113C4.62613 42.7006 4.06189 42.7172 3.53491 42.5585C3.1273 42.4697 2.72838 42.3449 2.34286 42.1854C-0.285648 35.0504 0.00164832 30.0421 0.846374 26.9248C1.18507 25.5233 1.79549 24.202 2.64303 23.0356L2.74593 22.9113C2.31714 20.6558 2.72021 16.5137 2.72021 16.5137C2.46722 16.1964 3.5778 15.6561 3.91225 15.4975L3.97657 15.4675H4.01088C4.56832 14.91 6.71658 12.676 6.71658 12.676C9.68446 15.4675 7.11169 14.5788 7.11169 14.5788C26.6219 18.438 49.5624 15.6433 49.5624 15.6433C52.5639 17.6157 53.2966 12.5345 53.2966 12.5345C53.5238 12.8175 53.7511 13.1005 53.9783 13.3921C54.6112 14.2055 55.3174 14.9591 56.088 15.6433C56.5909 15.9143 57.0764 16.2165 57.5416 16.548C58.172 21.4234 57.5416 22.9499 57.5416 22.9499C58.4983 24.7025 59.1507 26.6048 59.4712 28.5756C60.7447 36.1266 57.2329 43.0001 57.2329 43.0001Z" fill="#6F6464"/>
<path d="M53.9611 13.3578C52.9877 13.3964 52.0744 13.3578 52.6061 13.0619C53.6137 12.4873 47.6878 3.95011 47.6878 3.95011C47.3092 3.52923 46.8463 3.19263 46.3292 2.96216C45.8121 2.73168 45.2523 2.61248 44.6862 2.61228C41.0929 2.18349 37.4524 1.98196 33.9964 1.91764C30.9948 1.85761 28.1262 1.91764 25.5534 2.0034C18.7484 2.25639 13.9759 2.86098 13.9759 2.86098C11.1973 3.71856 7.71981 11.4368 7.71981 11.4368C7.05518 12.5517 7.22241 13.2249 7.22241 13.2249C6.5835 13.3278 4.97553 16.1621 4.97553 16.1621C4.79972 16.1921 4.35806 15.8662 3.91211 15.4932L4.01074 15.4417C4.56817 14.8843 6.71643 12.6503 6.71643 12.6503C12.7196 0.502633 14.4347 1.30447 14.4347 1.30447C32.6199 -1.66276 46.0069 1.36021 46.0069 1.36021C49.0085 3.33265 53.2964 12.5088 53.2964 12.5088C53.5065 12.8132 53.7338 13.0834 53.9611 13.3578Z" fill="#999999"/>
<path d="M57.2329 42.9999C56.8321 43.1494 56.4118 43.2403 55.9851 43.2701C55.5209 43.308 55.0536 43.2644 54.6044 43.1414C26.797 48.8401 5.14289 42.5111 5.14289 42.5111C4.62613 42.7004 4.06189 42.717 3.53491 42.5583C3.1273 42.4695 2.72838 42.3446 2.34286 42.1852C-0.285648 35.0501 0.00164831 30.0419 0.846374 26.9246C1.18508 25.5231 1.79549 24.2018 2.64303 23.0354C2.64303 23.0354 2.01269 26.5215 9.73528 26.7273C9.73528 26.7273 11.8064 32.0443 15.4983 31.6284C15.4983 31.6284 20.7382 33.3436 43.4471 32.1987C43.4471 32.1987 48.1639 32.1001 49.5575 26.7873C49.5575 26.7873 58.3177 26.2171 57.3787 22.8939L57.5331 22.9239C58.4897 24.6766 59.1421 26.5788 59.4626 28.5497C60.7447 36.1264 57.2329 42.9999 57.2329 42.9999Z" fill="#999999"/>
<path opacity="0.15" d="M57.2329 42.9992C56.8321 43.1486 56.4118 43.2396 55.9851 43.2693C55.5209 43.3072 55.0536 43.2637 54.6044 43.1407C26.797 48.8393 5.14289 42.5104 5.14289 42.5104C4.62613 42.6997 4.06189 42.7163 3.53491 42.5575C3.1273 42.4688 2.72838 42.3439 2.34286 42.1845C-0.285648 35.0494 0.00164831 30.0411 0.846374 26.9238C0.927845 27.3526 2.08559 32.5496 7.19683 34.0117C7.19683 34.0117 17.6551 36.9447 36.1148 36.3358C36.1148 36.3358 58.4807 37.1248 59.4626 28.5489C60.7447 36.1257 57.2329 42.9992 57.2329 42.9992Z" fill="#6F6464"/>
<path d="M6.14848 16.5014C6.14848 16.5014 6.73164 17.0492 6.94175 18.8673C6.94175 18.8673 9.67659 32.3742 15.4745 31.9454C15.4745 31.9454 33.0643 34.0765 45.285 32.1598C45.285 32.1598 47.9131 31.7149 48.5649 29.4852C48.5649 29.4852 52.4455 21.0895 53.9377 17.2132C54.2335 16.45 55.7086 16.0169 56.2103 15.6438C55.4254 14.5061 54.5181 13.4578 53.5046 12.5179C53.5046 12.5179 54.3622 14.5547 34.5133 15.7896C34.5133 15.7896 31.4774 14.7905 26.6277 15.6181C26.6277 15.6181 10.385 14.7991 7.61495 13.1954C7.35991 13.0572 7.13187 12.8742 6.94175 12.6552L4.24463 15.4466C4.24463 15.4466 4.45903 16.064 6.14848 16.5014Z" fill="#6F6464"/>
<path d="M2.73231 16.2688C2.73231 16.2688 25.6257 21.1699 34.4631 19.8149C34.4631 19.8149 56.2974 17.9668 57.4337 16.6375C57.4337 16.6375 58.1026 16.3674 56.0101 15.4455C56.0101 15.4455 54.0119 12.8299 53.3044 12.5168C53.3044 12.5168 53.7332 14.5064 34.313 15.587C34.313 15.587 30.3639 13.7818 26.4275 15.424C26.4275 15.424 8.4996 14.7637 6.74154 12.6541L4.00154 15.2911C4.00154 15.2911 2.58223 15.4498 2.73231 16.2688Z" fill="#999999"/>
<path d="M14.4345 4.34056C14.4345 4.34056 15.5965 3.12279 20.3133 2.90411C20.3133 2.90411 39.1803 2.3038 41.753 3.02846C41.753 3.02846 45.1834 3.77455 46.8986 5.93995C46.8986 5.93995 51.924 11.2269 47.2287 12.6119C47.2287 12.6119 35.3597 15.6135 13.7827 12.8821C13.7827 12.8821 8.86447 12.2432 11.24 8.49554C11.2143 8.49554 13.727 4.81651 14.4345 4.34056Z" fill="white"/>
<path d="M17.1636 22.4222C17.1636 22.4222 18.167 29.1928 20.5253 29.2829L39.0578 29.3858C39.0578 29.3858 40.9788 29.7159 41.3733 27.289L42.3681 22.3665C42.3681 22.3665 35.4645 23.67 17.1636 22.4222Z" fill="#6F6464"/>
<path d="M9.70058 26.7574C9.2167 26.7475 8.73399 26.706 8.25554 26.633C1.93082 26.2042 2.63833 23.0826 2.63833 23.0826V23.0355L2.74123 22.9111C2.63574 22.2558 2.57699 21.5938 2.56543 20.9301C2.50111 18.8205 2.63403 16.5136 2.63403 16.5136C2.62517 16.428 2.62517 16.3418 2.63403 16.2563C2.76267 15.3387 3.94615 15.2958 3.9633 15.2915C4.36637 15.9861 5.90574 16.5007 5.90574 16.5007C6.10836 16.6454 6.28891 16.8187 6.44173 17.0152C6.85305 17.5912 7.10456 18.2659 7.17069 18.9705C6.90055 19.7424 9.70058 26.7574 9.70058 26.7574Z" fill="white"/>
<path d="M57.5368 23.4387L57.451 23.4902C57.451 23.4902 58.4158 25.8099 49.4883 26.8562C49.4883 26.8562 52.1768 20.1585 52.8972 19.2623C52.9993 18.694 53.2042 18.1491 53.5018 17.6543C53.6817 17.3419 53.9007 17.0537 54.1536 16.7967C54.1536 16.7967 55.9588 15.5104 56.439 15.6519C56.9193 15.7934 57.7683 16.3937 57.5153 16.7067C57.5153 16.7067 57.5153 16.7496 57.5368 16.831C57.6611 17.5128 58.2057 20.9517 57.4338 23.3101L57.5368 23.4387Z" fill="white"/>
</svg>
