<svg width="24" height="24" viewBox="0 0 24 24" fill="none" xmlns="http://www.w3.org/2000/svg">
<path d="M12.2128 3.74562L16.0332 8.38447C16.0851 8.44745 16.1325 8.51413 16.1754 8.5845C16.2183 8.65488 16.2553 8.7305 16.2865 8.81134L17.8466 13.1302C17.9564 13.4222 17.9718 13.7168 17.8928 14.0142C17.8138 14.3115 17.6517 14.5612 17.4063 14.7632L10.9308 20.0963C10.6855 20.2983 10.4093 20.4096 10.1024 20.4301C9.79539 20.4507 9.50811 20.3799 9.2405 20.2179L5.30421 17.8564C5.23148 17.8111 5.16455 17.7605 5.10344 17.7046C5.04234 17.6487 4.98572 17.5891 4.93358 17.5258L1.11316 12.8869C0.964063 12.7058 0.901027 12.4995 0.924055 12.2678C0.947093 12.0362 1.04962 11.8454 1.23163 11.6955C1.41365 11.5456 1.61938 11.4825 1.84884 11.5062C2.07831 11.5299 2.2676 11.6323 2.4167 11.8133L2.95668 12.469L11.4493 5.4748L10.9093 4.81913C10.7602 4.63809 10.6971 4.43174 10.7202 4.20008C10.7432 3.96841 10.8457 3.77763 11.0278 3.62774C11.2098 3.47784 11.4155 3.41474 11.645 3.43845C11.8744 3.46216 12.0637 3.56458 12.2128 3.74562ZM15.6502 10.5927L7.17428 17.5731L9.85481 19.1899C9.90715 19.2185 9.96011 19.2305 10.0137 19.2259C10.0673 19.2212 10.1176 19.1995 10.1647 19.1608L16.6351 13.832C16.6821 13.7932 16.7131 13.748 16.7279 13.6963C16.7428 13.6446 16.7411 13.5903 16.723 13.5334L15.6502 10.5927ZM11.618 8.21698C11.3831 8.41039 11.2512 8.65701 11.2221 8.95683C11.193 9.25667 11.2752 9.52401 11.4686 9.75886C11.662 9.9937 11.9087 10.1256 12.2085 10.1547C12.5083 10.1838 12.7757 10.1016 13.0105 9.90816C13.2453 9.71475 13.3773 9.46813 13.4064 9.1683C13.4354 8.86848 13.3532 8.60115 13.1598 8.36631C12.9664 8.13146 12.7198 7.99951 12.42 7.97046C12.1201 7.9414 11.8528 8.02357 11.618 8.21698ZM5.61581 13.1601C5.38097 13.3535 5.24902 13.6002 5.21996 13.9C5.19091 14.1998 5.27309 14.4672 5.46651 14.702C5.65991 14.9368 5.90653 15.0688 6.20636 15.0979C6.50619 15.1269 6.77352 15.0447 7.00836 14.8513C7.24321 14.6579 7.37515 14.4113 7.4042 14.1115C7.43327 13.8116 7.35109 13.5443 7.15769 13.3095C6.96427 13.0746 6.71765 12.9427 6.41783 12.9136C6.118 12.8846 5.85066 12.9667 5.61581 13.1601Z" fill="white"/>
<path d="M18.4019 11.5283C18.4019 11.692 18.4596 11.8329 18.5752 11.9511C18.6908 12.0693 18.8277 12.1273 18.986 12.1251C19.1442 12.1229 19.279 12.0656 19.3901 11.9532L20.7745 10.5714C20.8911 10.4537 20.9494 10.3129 20.9494 10.1493C20.9494 9.98559 20.891 9.84535 20.774 9.72854C20.6571 9.61172 20.517 9.55124 20.3538 9.54709C20.1906 9.54293 20.0534 9.59843 19.9422 9.71358L18.5752 11.1088C18.4596 11.2248 18.4019 11.3646 18.4019 11.5283Z" fill="white"/>
<path d="M18.9914 17.8442C18.8295 17.8442 18.6908 17.9026 18.5752 18.0194C18.4596 18.1362 18.3998 18.2746 18.3957 18.4346C18.3916 18.5946 18.4465 18.7308 18.5604 18.8432L19.9407 20.2425C20.0555 20.3604 20.1938 20.4193 20.3557 20.4193C20.5177 20.4193 20.6578 20.3609 20.7761 20.2441C20.8917 20.1245 20.9483 19.9818 20.9461 19.8159C20.9439 19.65 20.8873 19.5118 20.7761 19.4012L19.409 18.0194C19.2926 17.9026 19.1534 17.8442 18.9914 17.8442Z" fill="white"/>
<path d="M19.415 14.5499C19.2993 14.6667 19.2415 14.8089 19.2415 14.9765C19.2415 15.144 19.2993 15.287 19.415 15.4054C19.5307 15.5238 19.6714 15.5829 19.8371 15.5829H22.4003C22.566 15.5829 22.7073 15.5239 22.8244 15.4057C22.9415 15.2875 23 15.1446 23 14.977C23 14.8095 22.9415 14.6672 22.8244 14.5502C22.7073 14.4332 22.566 14.3747 22.4003 14.3747H19.8371C19.6714 14.3747 19.5307 14.4331 19.415 14.5499Z" fill="white"/>
</svg>
