<svg width="335" height="404" viewBox="0 0 335 404" fill="none" xmlns="http://www.w3.org/2000/svg">
<path d="M35.5 116.288C48.5248 116.288 59.0806 105.771 59.0806 92.8007C59.0806 79.8309 48.5248 69.3139 35.5 69.3139C22.4752 69.3139 11.9194 79.8309 11.9194 92.8007C11.9194 105.771 22.4752 116.288 35.5 116.288Z" fill="#DDDDDD" fill-opacity="0.5" stroke="#999999" stroke-width="0.83871"/>
<path d="M35.5 310.405C48.5248 310.405 59.0806 299.888 59.0806 286.918C59.0806 273.948 48.5248 263.431 35.5 263.431C22.4752 263.431 11.9194 273.948 11.9194 286.918C11.9194 299.888 22.4752 310.405 35.5 310.405Z" fill="#DDDDDD" fill-opacity="0.5" stroke="#999999" stroke-width="0.83871"/>
<path d="M299.5 116.288C286.475 116.288 275.919 105.771 275.919 92.8007C275.919 79.8309 286.475 69.3139 299.5 69.3139C312.525 69.3139 323.081 79.8309 323.081 92.8007C323.081 105.771 312.525 116.288 299.5 116.288Z" fill="#DDDDDD" fill-opacity="0.5" stroke="#999999" stroke-width="0.83871"/>
<path d="M299.5 310.405C286.475 310.405 275.919 299.888 275.919 286.918C275.919 273.948 286.475 263.431 299.5 263.431C312.525 263.431 323.081 273.948 323.081 286.918C323.081 299.888 312.525 310.405 299.5 310.405Z" fill="#DDDDDD" fill-opacity="0.5" stroke="#999999" stroke-width="0.83871"/>
<path d="M148.779 105.172V105.172L148.769 105.172C142.482 105.016 125.291 107.518 107.025 118.811L119.327 164.528C131.698 162.778 167.738 160.422 216.625 164.549L228.941 118.781C223.037 114.312 206.187 105.549 184.295 105.172H148.779Z" fill="#DDDDDD" fill-opacity="0.5" stroke="#999999" stroke-width="0.83871"/>
<path d="M161.488 285.485C144.172 284.954 128.72 282.382 119.285 279.778L114.136 294.231L109.004 308.639C126.361 313.855 173.237 320.969 225.558 308.601C225.556 308.593 225.555 308.585 225.553 308.578C225.488 308.3 225.393 307.897 225.272 307.394C225.031 306.388 224.688 304.984 224.279 303.392C223.461 300.204 222.384 296.273 221.345 293.272C220.323 290.322 218.769 286.629 217.466 283.667C216.816 282.188 216.229 280.893 215.806 279.969C215.594 279.507 215.423 279.137 215.305 278.883C215.296 278.864 215.287 278.846 215.279 278.829C198.261 284.49 178.915 286.02 161.488 285.485Z" fill="#DDDDDD" fill-opacity="0.5" stroke="#999999" stroke-width="0.83871"/>
<path d="M31.1183 260.203L31.1183 119.517H37.5078L37.5078 260.203H31.1183Z" stroke="#999999" stroke-width="0.83871"/>
<path d="M303.882 260.203V119.517H297.492V260.203H303.882Z" stroke="#999999" stroke-width="0.83871"/>
<path d="M101.743 378.718L104.707 394.747C104.967 396.156 104.762 397.627 104.971 399.043C105.341 401.546 107.502 403.58 110.249 403.58H224.866C227.865 403.58 230.231 401.271 230.472 398.463C230.561 397.418 230.452 396.356 230.59 395.317L232.782 378.718M101.742 379.196C102.894 378.049 105.422 377.284 106.542 377.284L106.426 370.59M232.782 379.196C232.014 377.666 229.582 377.124 228.462 377.284V370.59H209.742M106.542 370.59H126.702" stroke="#999999" stroke-width="0.83871"/>
<path d="M87.3 137.747L88.7112 201.47L116.2 207.039V198.494C114.615 186.216 107.73 156.331 87.3 137.747Z" fill="#DDDDDD" fill-opacity="0.5" stroke="#999999" stroke-width="0.83871"/>
<path d="M35.4987 110.011C45.0422 110.011 52.7787 102.305 52.7787 92.7984C52.7787 83.2922 45.0422 75.5859 35.4987 75.5859C25.9553 75.5859 18.2188 83.2922 18.2188 92.7984C18.2188 102.305 25.9553 110.011 35.4987 110.011Z" fill="white"/>
<path d="M19.1787 88.9734L29.388 91.879C30.3164 92.1432 30.3164 93.4537 29.388 93.7179L19.1787 96.6234M51.8187 88.9734L41.6095 91.879C40.6811 92.1432 40.6811 93.4537 41.6095 93.7179L51.8187 96.6234M30.6687 76.8083L33.2472 87.068C33.4817 88.001 32.3423 88.6562 31.6485 87.9875L24.0177 80.6333M46.9887 104.965L39.358 97.6108C38.6641 96.942 37.5247 97.5973 37.7592 98.5302L40.3377 108.79M46.9887 80.6333L39.358 87.9875C38.6641 88.6562 37.5247 88.001 37.7592 87.068L40.3377 76.8083M30.6687 108.79L33.2472 98.5302C33.4817 97.5973 32.3423 96.942 31.6485 97.6108L24.0177 104.965M35.4987 110.011C45.0422 110.011 52.7787 102.305 52.7787 92.7984C52.7787 83.2922 45.0422 75.5859 35.4987 75.5859C25.9553 75.5859 18.2188 83.2922 18.2188 92.7984C18.2188 102.305 25.9553 110.011 35.4987 110.011Z" stroke="#999999" stroke-width="0.83871"/>
<path d="M35.4987 304.132C45.0422 304.132 52.7787 296.426 52.7787 286.92C52.7787 277.413 45.0422 269.707 35.4987 269.707C25.9553 269.707 18.2188 277.413 18.2188 286.92C18.2188 296.426 25.9553 304.132 35.4987 304.132Z" fill="white"/>
<path d="M19.1787 283.095L29.388 286C30.3164 286.264 30.3164 287.575 29.388 287.839L19.1787 290.744M51.8187 283.095L41.6095 286C40.6811 286.264 40.6811 287.575 41.6095 287.839L51.8187 290.744M30.6687 270.929L33.2472 281.189C33.4817 282.122 32.3423 282.777 31.6485 282.109L24.0177 274.754M46.9887 299.086L39.358 291.732C38.6641 291.063 37.5247 291.718 37.7592 292.651L40.3377 302.911M46.9887 274.754L39.358 282.109C38.6641 282.777 37.5247 282.122 37.7592 281.189L40.3377 270.929M30.6687 302.911L33.2472 292.651C33.4817 291.718 32.3423 291.063 31.6485 291.732L24.0177 299.086M35.4987 304.132C45.0422 304.132 52.7787 296.426 52.7787 286.92C52.7787 277.413 45.0422 269.707 35.4987 269.707C25.9553 269.707 18.2188 277.413 18.2188 286.92C18.2188 296.426 25.9553 304.132 35.4987 304.132Z" stroke="#999999" stroke-width="0.83871"/>
<path d="M66.2799 92.7984C66.2799 106.146 56.8335 117.15 44.6028 118.909C55.4027 115.609 63.2771 105.156 63.2771 92.7984C63.2771 80.4408 55.4027 69.9876 44.6029 66.6881C56.8335 68.4469 66.2799 79.4511 66.2799 92.7984Z" stroke="#999999" stroke-width="0.83871"/>
<path d="M66.2799 286.919C66.2799 300.267 56.8335 311.271 44.6028 313.03C55.4027 309.73 63.2771 299.277 63.2771 286.919C63.2771 274.562 55.4027 264.109 44.6029 260.809C56.8335 262.568 66.2799 273.572 66.2799 286.919Z" stroke="#999999" stroke-width="0.83871"/>
<path d="M29.7383 39.7273C34.346 35.7633 41.3134 33.5117 49.7166 33.5117C53.4237 33.5117 56.8836 33.9519 59.9783 34.774M29.7383 39.7273V39.2492M29.7383 39.7273L29.7383 66.5023H42.2183M61.4219 49.7683V77.0214M59.9858 34.947L61.4534 49.9354" stroke="#999999" stroke-width="0.83871"/>
<path d="M72.4609 54.5484V42.1172C81.6769 67.7446 87.1809 96.464 88.7809 107.62C89.0828 108.102 89.7409 109.194 89.7409 109.194V124.585" stroke="#999999" stroke-width="0.83871"/>
<path d="M116.305 167.93L118.058 165.435C111.446 151.687 97.5245 123.421 90.1615 110.736V124.464C94.9716 131.935 100.411 140.626 105.02 148.491C109.644 156.38 113.453 163.473 114.94 167.666C115.025 167.908 115.275 168.102 115.591 168.159C115.906 168.217 116.171 168.12 116.305 167.93Z" fill="#DDDDDD" fill-opacity="0.5" stroke="#999999" stroke-width="0.83871"/>
<path d="M64.3006 296.957V350.985C64.3006 354.154 61.772 355.766 58.0606 355.766H42.7006C38.9893 355.766 35.9806 353.198 35.9806 350.029M35.9844 350.029L34.0156 313.213H44.1406" stroke="#999999" stroke-width="0.83871"/>
<path d="M72.9408 350.03L73.9184 340.276C74.0164 339.299 74.839 338.555 75.8214 338.555H85.6044C86.5982 338.555 87.4262 339.313 87.5093 340.303C87.7592 343.281 88.2452 349.107 88.3008 350.03" stroke="#999999" stroke-width="0.83871"/>
<path d="M116.202 262.72V214.636L89.2042 212.781L89.6759 272.455L116.202 262.72Z" fill="#DDDDDD" fill-opacity="0.5" stroke="#999999" stroke-width="0.83871"/>
<path d="M78.7013 199.481C78.7021 199.481 78.7086 199.481 78.7238 199.474C78.7405 199.466 78.7678 199.45 78.8047 199.416C78.8812 199.346 78.9751 199.222 79.0777 199.028C79.2823 198.64 79.4794 198.051 79.6496 197.288C79.9886 195.768 80.2019 193.649 80.2019 191.294C80.2019 188.938 79.9886 186.819 79.6496 185.3C79.4794 184.536 79.2823 183.947 79.0777 183.559C78.9751 183.365 78.8812 183.242 78.8047 183.171C78.7678 183.138 78.7405 183.121 78.7238 183.114C78.7089 183.107 78.7024 183.107 78.7013 183.107L78.7013 183.107L78.7012 183.107C78.7001 183.107 78.6936 183.107 78.6787 183.114C78.662 183.121 78.6347 183.138 78.5978 183.171C78.5213 183.242 78.4274 183.365 78.3248 183.559C78.1202 183.947 77.9231 184.536 77.7529 185.3C77.4139 186.819 77.2006 188.938 77.2006 191.294C77.2006 193.649 77.4139 195.768 77.7529 197.288C77.9231 198.051 78.1202 198.64 78.3248 199.028C78.4274 199.222 78.5213 199.346 78.5978 199.416C78.6347 199.45 78.662 199.466 78.6787 199.474C78.6939 199.481 78.7004 199.481 78.7013 199.481Z" stroke="#999999" stroke-width="0.83871"/>
<path d="M134.922 186.035C134.922 185.438 134.775 184.918 134.56 184.561C134.34 184.196 134.094 184.064 133.901 184.064C133.708 184.064 133.462 184.196 133.242 184.561C133.027 184.918 132.88 185.438 132.88 186.035V257.754C132.88 258.351 133.027 258.871 133.242 259.228C133.462 259.593 133.708 259.725 133.901 259.725C134.094 259.725 134.34 259.593 134.56 259.228C134.775 258.871 134.922 258.351 134.922 257.754V186.035Z" stroke="#999999" stroke-width="0.83871"/>
<path d="M184.772 110.987C185.134 111.025 185.589 110.689 185.655 110.059C185.722 109.428 185.347 109.006 184.985 108.968L149.182 105.22C148.82 105.182 148.366 105.517 148.3 106.148C148.233 106.778 148.607 107.201 148.969 107.239L184.772 110.987Z" fill="white" stroke="#999999" stroke-width="0.83871"/>
<path d="M184.772 314.76C185.134 314.798 185.589 314.462 185.655 313.832C185.722 313.202 185.347 312.779 184.985 312.741L149.182 308.993C148.82 308.955 148.366 309.291 148.3 309.921C148.233 310.552 148.607 310.974 148.969 311.012L184.772 314.76Z" fill="white" stroke="#999999" stroke-width="0.83871"/>
<path d="M167.509 276.875L160.309 263.966C160.143 263.68 158.837 260.6 157.665 261.371C156.523 262.121 158.214 265.118 158.38 265.404L165.099 278.313" stroke="#999999" stroke-width="0.83871"/>
<path d="M202.121 186.035C202.121 185.438 201.974 184.918 201.759 184.561C201.539 184.196 201.293 184.064 201.1 184.064C200.907 184.064 200.661 184.196 200.441 184.561C200.226 184.918 200.08 185.438 200.08 186.035V257.754C200.08 258.351 200.226 258.871 200.441 259.228C200.661 259.593 200.907 259.725 201.1 259.725C201.293 259.725 201.539 259.593 201.759 259.228C201.974 258.871 202.121 258.351 202.121 257.754V186.035Z" stroke="#999999" stroke-width="0.83871"/>
<path d="M270.281 136.07C270.281 135.547 270.138 135.093 269.93 134.781C269.72 134.467 269.475 134.337 269.26 134.337C269.046 134.337 268.801 134.467 268.591 134.781C268.382 135.093 268.24 135.547 268.24 136.07V200.616C268.24 201.139 268.382 201.593 268.591 201.904C268.801 202.219 269.046 202.349 269.26 202.349C269.475 202.349 269.72 202.219 269.93 201.904C270.138 201.593 270.281 201.139 270.281 200.616V136.07Z" stroke="#999999" stroke-width="0.83871"/>
<path d="M66.7614 136.07C66.7614 135.547 66.6189 135.093 66.4105 134.781C66.2003 134.467 65.9554 134.337 65.7408 134.337C65.5262 134.337 65.2813 134.467 65.0711 134.781C64.8626 135.093 64.7201 135.547 64.7201 136.07V200.616C64.7201 201.139 64.8626 201.593 65.0711 201.904C65.2813 202.219 65.5262 202.349 65.7408 202.349C65.9554 202.349 66.2002 202.219 66.4105 201.904C66.6189 201.593 66.7614 201.139 66.7614 200.616V136.07Z" stroke="#999999" stroke-width="0.83871"/>
<path d="M270.281 210.211C270.281 209.433 269.761 208.927 269.26 208.927C268.76 208.927 268.24 209.433 268.24 210.211V261.311C268.24 262.089 268.76 262.595 269.26 262.595C269.761 262.595 270.281 262.089 270.281 261.311V210.211Z" stroke="#999999" stroke-width="0.83871"/>
<path d="M66.7614 210.211C66.7614 209.433 66.2412 208.927 65.7408 208.927C65.2403 208.927 64.7201 209.433 64.7201 210.211V261.311C64.7201 262.089 65.2403 262.595 65.7408 262.595C66.2412 262.595 66.7614 262.089 66.7614 261.311V210.211Z" stroke="#999999" stroke-width="0.83871"/>
<path d="M78.7013 271.199C78.7021 271.199 78.7086 271.2 78.7238 271.193C78.7405 271.185 78.7678 271.169 78.8047 271.135C78.8812 271.065 78.9751 270.941 79.0777 270.747C79.2823 270.359 79.4794 269.77 79.6496 269.007C79.9886 267.487 80.2019 265.368 80.2019 263.012C80.2019 260.657 79.9886 258.538 79.6496 257.018C79.4794 256.255 79.2823 255.666 79.0777 255.278C78.9751 255.084 78.8812 254.96 78.8047 254.89C78.7678 254.856 78.7405 254.84 78.7238 254.832C78.7089 254.826 78.7024 254.826 78.7013 254.826L78.7013 254.826L78.7012 254.826C78.7001 254.826 78.6936 254.826 78.6787 254.832C78.662 254.84 78.6347 254.856 78.5978 254.89C78.5213 254.96 78.4274 255.084 78.3248 255.278C78.1202 255.666 77.9231 256.255 77.7529 257.018C77.4139 258.538 77.2006 260.657 77.2006 263.012C77.2006 265.368 77.4139 267.487 77.7529 269.007C77.9231 269.77 78.1202 270.359 78.3248 270.747C78.4274 270.941 78.5213 271.065 78.5978 271.135C78.6347 271.169 78.662 271.185 78.6787 271.193C78.6939 271.2 78.7004 271.199 78.7013 271.199Z" stroke="#999999" stroke-width="0.83871"/>
<path d="M94.6852 297.536C101.58 291.716 110.79 282.13 115.834 270.936L89.6811 280.99V295.037C89.6811 297.784 92.6498 299.255 94.6852 297.536Z" fill="#DDDDDD" fill-opacity="0.5" stroke="#999999" stroke-width="0.83871"/>
<path d="M247.7 137.747L246.289 201.47L218.8 207.039V198.494C220.385 186.216 227.27 156.331 247.7 137.747Z" fill="#DDDDDD" fill-opacity="0.5" stroke="#999999" stroke-width="0.83871"/>
<path d="M299.499 110.011C309.042 110.011 316.779 102.305 316.779 92.7984C316.779 83.2922 309.042 75.5859 299.499 75.5859C289.955 75.5859 282.219 83.2922 282.219 92.7984C282.219 102.305 289.955 110.011 299.499 110.011Z" fill="white"/>
<path d="M283.179 88.9734L293.388 91.879C294.316 92.1432 294.316 93.4537 293.388 93.7179L283.179 96.6234M315.819 88.9734L305.609 91.879C304.681 92.1432 304.681 93.4537 305.609 93.7179L315.819 96.6234M294.669 76.8083L297.247 87.068C297.482 88.001 296.342 88.6562 295.648 87.9875L288.018 80.6333M310.989 104.965L303.358 97.6108C302.664 96.942 301.525 97.5973 301.759 98.5302L304.338 108.79M310.989 80.6333L303.358 87.9875C302.664 88.6562 301.525 88.001 301.759 87.068L304.338 76.8083M294.669 108.79L297.247 98.5302C297.482 97.5973 296.342 96.942 295.648 97.6108L288.018 104.965M299.499 110.011C309.042 110.011 316.779 102.305 316.779 92.7984C316.779 83.2922 309.042 75.5859 299.499 75.5859C289.955 75.5859 282.219 83.2922 282.219 92.7984C282.219 102.305 289.955 110.011 299.499 110.011Z" stroke="#999999" stroke-width="0.83871"/>
<path d="M247.607 141.465C244.496 144.246 241.785 147.353 239.425 150.624C238.537 151.856 238.665 153.481 239.815 154.206C242.23 155.728 245.071 155.792 246.784 154.964C247.109 154.806 247.313 154.431 247.323 153.969L247.607 141.465Z" fill="white" stroke="#999999" stroke-width="0.83871"/>
<path d="M87.3927 141.465C90.5036 144.246 93.2153 147.353 95.5748 150.624C96.4635 151.856 96.3349 153.481 95.1849 154.206C92.7698 155.728 89.9288 155.792 88.2158 154.964C87.8912 154.806 87.6871 154.431 87.6766 153.969L87.3927 141.465Z" fill="white" stroke="#999999" stroke-width="0.83871"/>
<path d="M299.499 304.132C309.042 304.132 316.779 296.426 316.779 286.92C316.779 277.413 309.042 269.707 299.499 269.707C289.955 269.707 282.219 277.413 282.219 286.92C282.219 296.426 289.955 304.132 299.499 304.132Z" fill="white"/>
<path d="M283.179 283.095L293.388 286C294.316 286.264 294.316 287.575 293.388 287.839L283.179 290.744M315.819 283.095L305.609 286C304.681 286.264 304.681 287.575 305.609 287.839L315.819 290.744M294.669 270.929L297.247 281.189C297.482 282.122 296.342 282.777 295.648 282.109L288.018 274.754M310.989 299.086L303.358 291.732C302.664 291.063 301.525 291.718 301.759 292.651L304.338 302.911M310.989 274.754L303.358 282.109C302.664 282.777 301.525 282.122 301.759 281.189L304.338 270.929M294.669 302.911L297.247 292.651C297.482 291.718 296.342 291.063 295.648 291.732L288.018 299.086M299.499 304.132C309.042 304.132 316.779 296.426 316.779 286.92C316.779 277.413 309.042 269.707 299.499 269.707C289.955 269.707 282.219 277.413 282.219 286.92C282.219 296.426 289.955 304.132 299.499 304.132Z" stroke="#999999" stroke-width="0.83871"/>
<path d="M268.72 92.7984C268.72 106.146 278.167 117.15 290.397 118.909C279.597 115.609 271.723 105.156 271.723 92.7984C271.723 80.4408 279.597 69.9876 290.397 66.6881C278.166 68.4469 268.72 79.4511 268.72 92.7984Z" stroke="#999999" stroke-width="0.83871"/>
<path d="M268.72 286.919C268.72 300.267 278.167 311.271 290.397 313.03C279.597 309.73 271.723 299.277 271.723 286.919C271.723 274.562 279.597 264.109 290.397 260.809C278.166 262.568 268.72 273.572 268.72 286.919Z" stroke="#999999" stroke-width="0.83871"/>
<path d="M305.259 39.7273C300.651 35.7633 293.683 33.5117 285.28 33.5117C281.544 33.5117 278.059 33.9588 274.946 34.7934M305.259 39.7273V39.2492M305.259 39.7273V66.5023H290.861M273.582 49.7683V77.0214M275.018 34.947L273.551 49.9354" stroke="#999999" stroke-width="0.83871"/>
<path d="M262.539 54.5484V42.1172C253.323 67.7446 247.819 96.464 246.219 107.62C245.917 108.102 245.259 109.194 245.259 109.194V124.585" stroke="#999999" stroke-width="0.83871"/>
<path d="M297.585 119.576H294.321C280.218 119.576 268.785 107.589 268.785 92.8012C268.785 86.9675 270.565 81.5696 273.585 77.1715M273.585 49.7699V77.023M273.583 49.7695L262.542 54.5516C258.862 71.4453 251.598 107.049 251.982 114.316C250.043 117.228 247.737 120.745 245.262 124.588" stroke="#999999" stroke-width="0.83871"/>
<path d="M218.699 167.93L216.946 165.435C223.558 151.687 237.479 123.421 244.842 110.736V124.464C240.032 131.935 234.593 140.626 229.984 148.491C225.36 156.38 221.551 163.473 220.064 167.666C219.979 167.908 219.728 168.102 219.413 168.159C219.098 168.217 218.833 168.12 218.699 167.93Z" fill="#DDDDDD" fill-opacity="0.5" stroke="#999999" stroke-width="0.83871"/>
<path d="M270.699 296.957V350.985C270.699 354.154 273.228 355.766 276.939 355.766H292.299C296.011 355.766 299.019 353.198 299.019 350.029M299.015 350.029L300.984 313.213H289.899" stroke="#999999" stroke-width="0.83871"/>
<path d="M247.658 350.03C247.658 350.03 247.658 342.233 247.658 342.161C247.67 339.181 247.939 338.555 249.659 338.555H258.869C260.591 338.555 261.076 339.182 261.097 342.175C261.097 342.242 261.098 350.03 261.098 350.03" stroke="#999999" stroke-width="0.83871"/>
<path d="M297.579 260.145H294.315C280.212 260.145 268.779 272.133 268.779 286.92C268.779 290.534 269.461 293.98 270.699 297.125M271.025 297.917C270.912 297.655 270.804 297.391 270.699 297.125M270.699 297.125V296.961M270.699 297.125V350.033M270.7 350.033H248.415C244.826 350.033 242.38 348.42 242.38 345.251M210.219 258.711C210.22 263.492 212.043 276.019 223.179 289.789C229.419 296.802 241.803 312.739 241.419 320.389L242.38 346.208" stroke="#999999" stroke-width="0.83871"/>
<path d="M37.4213 260.145H40.6853C54.7884 260.145 66.2213 272.133 66.2213 286.92C66.2213 290.534 65.5386 293.98 64.3013 297.125M63.975 297.917C64.0877 297.655 64.1964 297.391 64.3013 297.125M64.3013 297.125V296.961M64.3013 297.125V350.033M64.3 350.033H86.5846C90.1743 350.033 92.62 348.42 92.62 345.251M124.781 258.711C124.78 263.492 122.957 276.019 111.821 289.789C105.581 296.802 93.1973 312.739 93.5813 320.389L92.62 346.208" stroke="#999999" stroke-width="0.83871"/>
<path d="M297.641 255.903V205.565C285.438 205.093 258.573 204.648 245.323 206.533L215.919 211.257V264.158L247.735 275.983H263.249C263.31 275.869 263.371 275.754 263.433 275.637C265.317 272.102 267.869 267.315 272.776 263.346C277.904 259.2 285.564 255.976 297.641 255.903Z" stroke="#999999" stroke-width="0.83871"/>
<path d="M37.3594 255.899V205.561C49.5623 205.089 76.4274 204.644 89.6772 206.529L119.081 211.253V264.154L87.2646 275.979H71.7513C71.6905 275.865 71.6289 275.75 71.5666 275.633C69.6828 272.098 67.1311 267.311 62.2237 263.343C57.0961 259.196 49.4362 255.972 37.3594 255.899Z" stroke="#999999" stroke-width="0.83871"/>
<path d="M215.919 199.854V211.359L245.193 206.656L245.193 206.656L245.201 206.655C258.524 204.759 285.431 205.206 297.641 205.678V133.917C297.641 133.493 297.415 132.774 296.645 132.152C295.876 131.531 294.539 130.99 292.3 130.99C288.232 130.99 270.377 131.238 258.325 131.406C256.736 131.428 255.248 131.449 253.906 131.468L253.882 131.468L253.858 131.466C253.19 131.399 251.847 131.587 249.569 133.073C247.295 134.557 244.124 137.315 239.818 142.319C230.498 153.15 218.315 175.639 215.919 199.854Z" stroke="#999999" stroke-width="0.83871"/>
<path d="M119.081 199.854V211.359L89.8065 206.656L89.8065 206.656L89.7991 206.655C76.4762 204.759 49.5694 205.206 37.3594 205.678V133.917C37.3594 133.493 37.5846 132.774 38.3554 132.152C39.124 131.531 40.4613 130.99 42.7 130.99C46.7678 130.99 64.623 131.238 76.6747 131.406C78.2637 131.428 79.7519 131.449 81.0942 131.468L81.1179 131.468L81.1416 131.466C81.8097 131.399 83.1532 131.587 85.4308 133.073C87.7053 134.557 90.876 137.315 95.1821 142.319C104.502 153.15 116.685 175.639 119.081 199.854Z" stroke="#999999" stroke-width="0.83871"/>
<path d="M218.798 262.72V214.636L245.796 212.781L245.324 272.455L218.798 262.72Z" fill="#DDDDDD" fill-opacity="0.5" stroke="#999999" stroke-width="0.83871"/>
<path d="M256.299 199.481H256.299C256.298 199.481 256.291 199.481 256.276 199.474C256.26 199.466 256.232 199.45 256.195 199.416C256.119 199.346 256.025 199.222 255.922 199.028C255.718 198.64 255.521 198.051 255.35 197.288C255.011 195.768 254.798 193.649 254.798 191.294C254.798 188.938 255.011 186.819 255.35 185.3C255.521 184.536 255.718 183.947 255.922 183.559C256.025 183.365 256.119 183.242 256.195 183.171C256.232 183.138 256.26 183.121 256.276 183.114C256.291 183.107 256.298 183.107 256.299 183.107L256.299 183.107L256.299 183.107C256.3 183.107 256.306 183.107 256.321 183.114C256.338 183.121 256.365 183.138 256.402 183.171C256.479 183.242 256.573 183.365 256.675 183.559C256.88 183.947 257.077 184.536 257.247 185.3C257.586 186.819 257.799 188.938 257.799 191.294C257.799 193.649 257.586 195.768 257.247 197.288C257.077 198.051 256.88 198.64 256.675 199.028C256.573 199.222 256.479 199.346 256.402 199.416C256.365 199.45 256.338 199.466 256.321 199.474C256.306 199.481 256.3 199.481 256.299 199.481H256.299Z" stroke="#999999" stroke-width="0.83871"/>
<path d="M256.299 271.199H256.299C256.298 271.199 256.291 271.199 256.276 271.193C256.26 271.185 256.232 271.169 256.195 271.135C256.119 271.065 256.025 270.941 255.922 270.747C255.718 270.359 255.521 269.77 255.35 269.007C255.011 267.487 254.798 265.368 254.798 263.012C254.798 260.657 255.011 258.538 255.35 257.018C255.521 256.255 255.718 255.666 255.922 255.278C256.025 255.084 256.119 254.96 256.195 254.89C256.232 254.856 256.26 254.84 256.276 254.832C256.291 254.826 256.298 254.826 256.299 254.826L256.299 254.826L256.299 254.826C256.3 254.826 256.306 254.826 256.321 254.832C256.338 254.84 256.365 254.856 256.402 254.89C256.479 254.96 256.573 255.084 256.675 255.278C256.88 255.666 257.077 256.255 257.247 257.018C257.586 258.538 257.799 260.657 257.799 263.012C257.799 265.368 257.586 267.487 257.247 269.007C257.077 269.77 256.88 270.359 256.675 270.747C256.573 270.941 256.479 271.065 256.402 271.135C256.365 271.169 256.338 271.185 256.321 271.193C256.306 271.199 256.3 271.199 256.299 271.199H256.299Z" stroke="#999999" stroke-width="0.83871"/>
<path d="M240.315 297.536C233.42 291.716 224.21 282.13 219.166 270.936L245.319 280.99V295.037C245.319 297.784 242.35 299.255 240.315 297.536Z" fill="#DDDDDD" fill-opacity="0.5" stroke="#999999" stroke-width="0.83871"/>
<path d="M229.419 119.576L222.376 58.831C221.146 48.2166 212.123 40.207 201.396 40.207L133.21 40.207C122.339 40.207 113.245 48.414 112.201 59.1926C110.109 80.7763 106.938 113.782 106.539 119.576" stroke="#999999" stroke-width="0.83871"/>
<path d="M108.461 308.874L109.244 338.953C109.343 342.719 112.751 345.726 116.922 345.726H217.597C221.769 345.726 225.178 342.718 225.275 338.951L226.06 308.48" stroke="#999999" stroke-width="0.83871"/>
<path d="M109.238 338.697C109.336 342.851 108.905 350.949 116.916 350.949H217.591C225.603 350.949 225.172 342.85 225.269 338.695" stroke="#999999" stroke-width="0.83871"/>
<path d="M118.539 165.477C120.779 170.258 124.78 185.462 124.78 208.03V258.711C124.779 262.272 123.768 270.129 118.652 279.596M216.459 165.477C214.219 170.258 210.218 185.462 210.218 208.03V258.711C210.219 262.153 211.164 269.61 215.848 278.655" stroke="#999999" stroke-width="0.83871"/>
<path d="M105.83 38.4478H132.58C136.03 34.1926 136.306 31.6142 135.83 30.1365C135.39 28.7721 134.266 28.1804 133.9 28.003H106.812C106.347 29.7639 105.273 33.506 104.394 36.5337C104.116 37.4912 104.834 38.4478 105.83 38.4478Z" stroke="#999999" stroke-width="0.83871"/>
<path d="M226.869 38.4478H200.119C196.67 34.1926 196.393 31.6142 196.87 30.1365C197.309 28.7721 198.433 28.1804 198.799 28.003H225.888C226.353 29.7639 227.426 33.506 228.305 36.5337C228.583 37.4912 227.865 38.4478 226.869 38.4478Z" stroke="#999999" stroke-width="0.83871"/>
<path d="M145.875 12.5069C143.533 16.9078 141.389 24.0054 140.591 35.0056H193.459C193.184 30.0954 192.24 22.9771 190.27 17.0295C189.254 13.9639 187.975 11.2385 186.396 9.28731C184.821 7.34064 182.98 6.2006 180.824 6.2006L152.279 6.2006C150.776 6.42466 148.244 8.0541 145.875 12.5069Z" stroke="#999999" stroke-width="0.83871"/>
<rect x="0.419355" y="0.419355" width="13.505" height="29.8813" rx="1.49314" transform="matrix(0 1 1 0 151.66 385.41)" stroke="#999999" stroke-width="0.83871"/>
<rect x="0.419355" y="0.419355" width="11.5925" height="10.6813" rx="1.49314" transform="matrix(0 1 1 0 248.621 283.094)" stroke="#999999" stroke-width="0.83871"/>
<rect y="0.591895" width="6.8263" height="6.8263" rx="1.49314" transform="matrix(-0.70849 0.705721 0.70849 0.705721 167.561 42.6234)" stroke="#999999" stroke-width="0.83871"/>
<rect y="0.591895" width="6.8263" height="6.8263" rx="1.49314" transform="matrix(-0.708489 0.705721 0.708489 0.705721 166.6 354.03)" stroke="#999999" stroke-width="0.83871"/>
<path d="M218.859 365.867C221.015 365.867 222.76 364.126 222.76 361.983C222.76 359.839 221.015 358.099 218.859 358.099C216.703 358.099 214.958 359.839 214.958 361.983C214.958 364.126 216.703 365.867 218.859 365.867Z" stroke="#999999" stroke-width="0.83871"/>
<path d="M222.218 396.468C224.374 396.468 226.119 394.728 226.119 392.584C226.119 390.441 224.374 388.701 222.218 388.701C220.063 388.701 218.318 390.441 218.318 392.584C218.318 394.728 220.063 396.468 222.218 396.468Z" stroke="#999999" stroke-width="0.83871"/>
<path d="M222.699 13.9681C224.855 13.9681 226.6 12.2278 226.6 10.0844C226.6 7.94097 224.855 6.2006 222.699 6.2006C220.543 6.2006 218.798 7.94097 218.798 10.0844C218.798 12.2278 220.543 13.9681 222.699 13.9681Z" stroke="#999999" stroke-width="0.83871"/>
<path d="M113.742 365.867C115.898 365.867 117.643 364.126 117.643 361.983C117.643 359.839 115.898 358.099 113.742 358.099C111.586 358.099 109.841 359.839 109.841 361.983C109.841 364.126 111.586 365.867 113.742 365.867Z" stroke="#999999" stroke-width="0.83871"/>
<path d="M111.34 396.468C113.495 396.468 115.24 394.728 115.24 392.584C115.24 390.441 113.495 388.701 111.34 388.701C109.184 388.701 107.439 390.441 107.439 392.584C107.439 394.728 109.184 396.468 111.34 396.468Z" stroke="#999999" stroke-width="0.83871"/>
<path d="M111.34 13.9681C113.495 13.9681 115.24 12.2278 115.24 10.0844C115.24 7.94097 113.495 6.2006 111.34 6.2006C109.184 6.2006 107.439 7.94097 107.439 10.0844C107.439 12.2278 109.184 13.9681 111.34 13.9681Z" stroke="#999999" stroke-width="0.83871"/>
<path d="M167.501 276.398C169.356 276.398 170.861 277.897 170.861 279.745C170.861 281.594 169.356 283.092 167.501 283.092C165.645 283.092 164.141 281.594 164.141 279.745C164.141 279.172 164.366 278.304 164.621 277.833" stroke="#999999" stroke-width="0.83871"/>
<path d="M107.02 27.9662C102.833 27.9662 100.761 27.9662 99.7587 27.9662C99.1681 27.9662 98.9476 27.4361 99.0443 26.8535L102.271 7.39812C102.884 3.70673 106.077 1 109.818 1L224.959 1C228.803 1 232.051 3.85308 232.545 7.6655L235.04 26.8869C235.114 27.4591 234.668 27.9662 234.091 27.9662H226.046" stroke="#999999" stroke-width="0.83871"/>
<path d="M106.542 370.499H137.346C138.979 370.499 139.912 368.54 139.003 367.183C136.25 363.075 134.15 358.402 132.962 355.16C132.678 354.385 131.95 353.855 131.124 353.855H107.537C106.464 353.855 105.601 354.737 105.625 355.81L105.946 370.499" stroke="#999999" stroke-width="0.83871"/>
<path d="M226.548 370.65H196.619C195.421 370.65 194.662 369.27 195.307 368.205C198.276 363.301 200.311 358.332 201.531 354.835C201.747 354.216 202.325 353.801 202.972 353.804L226.554 353.892C227.377 353.895 228.042 354.563 228.042 355.386V369.157C228.042 369.982 227.373 370.65 226.548 370.65Z" stroke="#999999" stroke-width="0.83871"/>
<path d="M37.4186 119.576H40.6826C54.7857 119.576 66.2186 107.589 66.2186 92.8012C66.2186 86.9675 64.4393 81.5696 61.4186 77.1715M61.4186 49.7699V77.023M61.4206 49.7695L72.4622 54.5516C76.1422 71.4453 83.4062 107.049 83.0222 114.316C84.9607 117.228 87.2672 120.745 89.7422 124.588" stroke="#999999" stroke-width="0.83871"/>
<path d="M72.4621 42.5956C69.9551 38.9853 65.5812 36.269 60.0258 34.7852M72.4608 42.1176V54.5477M72.4608 54.5477V54.5489M72.4608 54.5477L61.4402 49.7748M72.4608 54.5477L72.4644 54.5492M59.9883 34.9467L61.4402 49.7748M61.4402 49.7748L61.4559 49.935M61.4402 49.7748L61.4227 49.7672" stroke="#999999" stroke-width="0.83871"/>
<path d="M262.546 42.5917C265.053 38.9813 269.427 36.2651 274.982 34.7812M262.547 42.1137V54.5438M262.547 54.5438V54.545M262.547 54.5438L273.568 49.7709M262.547 54.5438L262.543 54.5453M275.02 34.9428L273.568 49.7709M273.568 49.7709L273.552 49.9311M273.568 49.7709L273.585 49.7633" stroke="#999999" stroke-width="0.83871"/>
<circle cx="4" cy="4" r="4" transform="matrix(0 1 1 0 282 331)" fill="#FF0000"/>
<circle cx="4" cy="4" r="4" transform="matrix(0 1 1 0 38 210)" fill="#FF0000"/>
<circle cx="4" cy="4" r="4" transform="matrix(0 1 1 0 286 276)" fill="#FF0000"/>
<circle cx="4" cy="4" r="4" transform="matrix(0 1 1 0 251 297)" fill="#FF0000"/>
<circle cx="4" cy="4" r="4" transform="matrix(0 1 1 0 288 189)" fill="#FF0000"/>
<circle cx="4" cy="4" r="4" transform="matrix(0 1 1 0 49 318)" fill="#FF0000"/>
<circle cx="4" cy="4" r="4" transform="matrix(0 1 1 0 197 358)" fill="#FF0000"/>
<circle cx="4" cy="4" r="4" transform="matrix(0 1 1 0 177 351)" fill="#FF0000"/>
<circle cx="4" cy="4" r="4" transform="matrix(0 1 1 0 139 324)" fill="#FF0000"/>
<circle cx="4" cy="4" r="4" transform="matrix(0 1 1 0 126 355)" fill="#FF0000"/>
<circle cx="4" cy="4" r="4" transform="matrix(0 1 1 0 119 101)" fill="#FF0000"/>
<circle cx="4" cy="4" r="4" transform="matrix(0 1 1 0 50 154)" fill="#FF0000"/>
<circle cx="4" cy="4" r="4" transform="matrix(0 1 1 0 84 254)" fill="#FF0000"/>
<circle cx="4" cy="4" r="4" transform="matrix(0 1 1 0 148 277)" fill="#FF0000"/>
<circle cx="4" cy="4" r="4" transform="matrix(0 1 1 0 177 288)" fill="#FF0000"/>
<circle cx="4" cy="4" r="4" transform="matrix(0 1 1 0 181 214)" fill="#FF0000"/>
<circle cx="4" cy="4" r="4" transform="matrix(0 1 1 0 162 139)" fill="#FF0000"/>
<circle cx="4" cy="4" r="4" transform="matrix(0 1 1 0 143 173)" fill="#FF0000"/>
</svg>
