<svg width="18" height="22" viewBox="0 0 18 22" fill="none" xmlns="http://www.w3.org/2000/svg">
<path d="M8.75464 4.11819C8.39314 4.11819 8.08431 3.99127 7.82814 3.73744C7.57214 3.48344 7.44414 3.1751 7.44414 2.81244C7.44414 2.55427 7.50314 2.31602 7.62114 2.09769C7.73897 1.87935 8.00656 1.51952 8.42389 1.01819C8.51122 0.917522 8.62039 0.867188 8.75139 0.867188C8.88239 0.867188 8.99056 0.917522 9.07589 1.01819C9.49322 1.51952 9.76081 1.8796 9.87864 2.09844C9.99664 2.31744 10.0556 2.55627 10.0556 2.81494C10.0556 3.17427 9.92914 3.48135 9.67614 3.73619C9.42314 3.99085 9.11597 4.11819 8.75464 4.11819ZM3.95064 4.11819C3.58931 4.11819 3.28056 3.99127 3.02439 3.73744C2.76839 3.48344 2.64039 3.1751 2.64039 2.81244C2.64039 2.55427 2.69931 2.31602 2.81714 2.09769C2.93514 1.87935 3.20281 1.51952 3.62014 1.01819C3.70747 0.917522 3.81664 0.867188 3.94764 0.867188C4.07864 0.867188 4.18672 0.917522 4.27189 1.01819C4.68922 1.51952 4.95689 1.8796 5.07489 2.09844C5.19289 2.31744 5.25189 2.55627 5.25189 2.81494C5.25189 3.17427 5.12539 3.48135 4.87239 3.73619C4.61939 3.99085 4.31214 4.11819 3.95064 4.11819ZM13.5584 4.11819C13.1969 4.11819 12.8881 3.99127 12.6321 3.73744C12.376 3.48344 12.2479 3.1751 12.2479 2.81244C12.2479 2.55427 12.3069 2.31602 12.4249 2.09769C12.5429 1.87935 12.8106 1.51952 13.2279 1.01819C13.3152 0.917522 13.4244 0.867188 13.5554 0.867188C13.6864 0.867188 13.7945 0.917522 13.8796 1.01819C14.297 1.51952 14.5646 1.8796 14.6826 2.09844C14.8005 2.31744 14.8594 2.55627 14.8594 2.81494C14.8594 3.17427 14.7329 3.48135 14.4799 3.73619C14.2269 3.99085 13.9197 4.11819 13.5584 4.11819ZM2.38539 19.3172V20.2999C2.38539 20.5713 2.28989 20.8019 2.09889 20.9919C1.90806 21.1818 1.67622 21.2767 1.40339 21.2767C1.13056 21.2767 0.900391 21.1818 0.712891 20.9919C0.525391 20.8019 0.431641 20.5713 0.431641 20.2999V13.3469C0.431641 13.2526 0.438391 13.1583 0.451891 13.0639C0.465391 12.9694 0.48789 12.8746 0.51939 12.7794L2.30289 7.77494C2.41939 7.43344 2.62231 7.15894 2.91164 6.95144C3.20081 6.7441 3.52931 6.64044 3.89714 6.64044H13.6026C13.9705 6.64044 14.299 6.7441 14.5881 6.95144C14.8775 7.15894 15.0821 7.43344 15.2019 7.77494L16.9804 12.7792C17.0119 12.8732 17.0344 12.9676 17.0479 13.0624C17.0614 13.1573 17.0681 13.2521 17.0681 13.3469V20.2999C17.0681 20.5713 16.9726 20.8019 16.7816 20.9919C16.5906 21.1818 16.3588 21.2767 16.0861 21.2767C15.8133 21.2767 15.5831 21.1818 15.3956 20.9919C15.2081 20.8019 15.1144 20.5713 15.1144 20.2999V19.3172H2.38539ZM2.39789 11.6567H15.1019L13.8969 8.24119C13.8714 8.17719 13.833 8.12752 13.7816 8.09219C13.7303 8.05702 13.6694 8.03944 13.5989 8.03944H3.90089C3.83039 8.03944 3.76947 8.05702 3.71814 8.09219C3.66681 8.12752 3.62839 8.17719 3.60289 8.24119L2.39789 11.6567ZM4.25164 16.7442C4.60364 16.7442 4.90289 16.6209 5.14939 16.3744C5.39589 16.1281 5.51914 15.8289 5.51914 15.4769C5.51914 15.1249 5.39589 14.8257 5.14939 14.5792C4.90306 14.3327 4.60389 14.2094 4.25189 14.2094C3.89989 14.2094 3.60064 14.3327 3.35414 14.5792C3.10781 14.8255 2.98464 15.1247 2.98464 15.4767C2.98464 15.8287 3.10781 16.1279 3.35414 16.3744C3.60047 16.6209 3.89964 16.7442 4.25164 16.7442ZM13.2479 16.7442C13.5999 16.7442 13.8991 16.6209 14.1456 16.3744C14.392 16.1281 14.5151 15.8289 14.5151 15.4769C14.5151 15.1249 14.392 14.8257 14.1456 14.5792C13.8993 14.3327 13.6001 14.2094 13.2481 14.2094C12.8961 14.2094 12.5969 14.3327 12.3504 14.5792C12.1039 14.8255 11.9806 15.1247 11.9806 15.4767C11.9806 15.8287 12.1039 16.1279 12.3504 16.3744C12.5967 16.6209 12.8959 16.7442 13.2479 16.7442Z" fill="#2D65F2"/>
</svg>
