<svg width="24" height="24" viewBox="0 0 24 24" fill="none" xmlns="http://www.w3.org/2000/svg">
<path d="M3.45378 19.234V20.2167C3.45378 20.4881 3.35829 20.7187 3.16733 20.9087C2.97636 21.0986 2.74448 21.1936 2.47168 21.1936C2.19888 21.1936 1.96873 21.0986 1.78123 20.9087C1.59374 20.7187 1.5 20.4881 1.5 20.2167V13.2638C1.5 13.1694 1.50673 13.075 1.52018 12.9806C1.53364 12.8862 1.55618 12.7915 1.5878 12.6963L3.37113 7.69173C3.48776 7.35021 3.6907 7.07573 3.97995 6.86828C4.26922 6.66085 4.59768 6.55713 4.96535 6.55713H9.26728C9.20124 6.78028 9.15253 7.00693 9.12113 7.23708C9.08971 7.46725 9.07079 7.70693 9.06438 7.95613H4.96533C4.89481 7.95613 4.83391 7.97375 4.78262 8.009C4.73132 8.04427 4.69286 8.09395 4.66722 8.15805L3.46628 11.5735H10.0579C10.4827 12.2433 11.003 12.8142 11.6188 13.286C12.2345 13.7577 12.9234 14.1084 13.6855 14.3379C13.492 14.4379 13.3375 14.5811 13.2221 14.7677C13.1067 14.9543 13.049 15.163 13.049 15.3936C13.049 15.7456 13.1722 16.0449 13.4186 16.2913C13.665 16.5377 13.9642 16.6609 14.3162 16.6609C14.6682 16.6609 14.9674 16.5377 15.2139 16.2913C15.4604 16.0449 15.5836 15.7456 15.5836 15.3936C15.5836 15.2464 15.5548 15.1064 15.4971 14.9736C15.4394 14.8408 15.3557 14.726 15.2461 14.6292C15.2916 14.6356 15.335 14.6388 15.3764 14.6388H15.5115C15.998 14.6388 16.4459 14.5939 16.8552 14.5042C17.2645 14.4145 17.6916 14.2763 18.1364 14.0898V20.2167C18.1364 20.4881 18.041 20.7187 17.85 20.9087C17.6591 21.0986 17.4272 21.1936 17.1544 21.1936C16.8816 21.1936 16.6514 21.0986 16.4639 20.9087C16.2764 20.7187 16.1827 20.4881 16.1827 20.2167V19.234H3.45378ZM5.32002 16.6609C5.67202 16.6609 5.97126 16.5377 6.21773 16.2913C6.46421 16.0449 6.58745 15.7457 6.58745 15.3937C6.58745 15.0417 6.46425 14.7425 6.21785 14.496C5.97145 14.2496 5.67225 14.1263 5.32025 14.1263C4.96827 14.1263 4.66903 14.2495 4.42255 14.4959C4.17608 14.7423 4.05285 15.0415 4.05285 15.3935C4.05285 15.7455 4.17605 16.0447 4.42245 16.2912C4.66885 16.5377 4.96804 16.6609 5.32002 16.6609Z" fill="white"/>
<path d="M15.695 13.1903C14.2414 13.1903 13.0122 12.6877 12.0073 11.6824C11.0024 10.6772 10.5 9.45003 10.5 8.00098C10.5 6.55193 11.002 5.32451 12.006 4.31872C13.01 3.31295 14.2375 2.81006 15.6885 2.81006C17.1395 2.81006 18.368 3.31302 19.3741 4.31896C20.3801 5.32489 20.8832 6.55288 20.8832 8.00294C20.8832 8.60979 20.7812 9.19446 20.5773 9.75694C20.3735 10.3194 20.1013 10.8064 19.761 11.2178L22.322 13.7656C22.4378 13.8811 22.4971 14.0225 22.4999 14.1898C22.5027 14.3572 22.4418 14.5024 22.3173 14.6255C22.1928 14.7485 22.049 14.8101 21.8858 14.8101C21.7225 14.8101 21.5803 14.7495 21.459 14.6283L18.9028 12.0684C18.4722 12.427 17.9767 12.7037 17.4163 12.8983C16.8559 13.093 16.2821 13.1903 15.695 13.1903ZM15.6916 11.9749C16.8041 11.9749 17.7448 11.591 18.5138 10.8232C19.2829 10.0555 19.6674 9.11429 19.6674 7.99968C19.6674 6.88506 19.2829 5.94404 18.5138 5.17662C17.7448 4.4092 16.8034 4.02548 15.6895 4.02548C14.5756 4.02548 13.6349 4.40936 12.8673 5.17712C12.0996 5.94487 11.7158 6.88605 11.7158 8.00066C11.7158 9.11527 12.0997 10.0563 12.8676 10.8237C13.6355 11.5911 14.5768 11.9749 15.6916 11.9749Z" fill="white"/>
</svg>
