<svg width="158" height="61" viewBox="0 0 158 61" fill="none" xmlns="http://www.w3.org/2000/svg">
<path d="M150.951 40.8516H108.768V45.3589H150.951V40.8516Z" fill="#151515"/>
<path d="M155.662 49.1641H150.901C150.526 49.1641 150.167 49.0152 149.902 48.7502C149.637 48.4852 149.488 48.1259 149.488 47.7511V40.1H157.04V47.7864C157.031 48.149 156.883 48.4942 156.627 48.7507C156.37 49.0071 156.025 49.1551 155.662 49.1641Z" fill="#151515"/>
<path d="M157.832 30.9867V39.6975C157.831 40.2529 157.706 40.801 157.464 41.3012L156.963 42.3468C156.665 42.98 156.194 43.5155 155.603 43.8908C155.013 44.2661 154.328 44.4656 153.628 44.4662H146.917C146.46 44.4662 146.008 44.3824 145.582 44.219L144.543 43.8163C143.52 43.4197 142.433 43.2161 141.336 43.2158H119.47C118.373 43.2155 117.286 43.4191 116.263 43.8163L115.225 44.219C114.798 44.3824 114.346 44.4662 113.889 44.4662H107.206C106.507 44.4648 105.822 44.2649 105.232 43.8897C104.642 43.5145 104.17 42.9795 103.872 42.3468L103.37 41.3012C103.131 40.8005 103.008 40.2524 103.01 39.6975V30.9867C103.01 30.039 103.371 29.1269 104.02 28.4364L105.433 27.0234L105.504 26.9528L110.018 22.2053C111.267 18.9189 112.903 15.793 114.893 12.894C114.893 12.894 117.111 11.8979 129.997 11.8555H130.936C143.822 11.8979 146.048 12.894 146.048 12.894C148.036 15.7922 149.671 18.9182 150.915 22.2053L155.797 27.3413L156.871 28.4717C157.493 29.1612 157.836 30.058 157.832 30.9867Z" fill="#DDDDDD"/>
<path d="M157.832 30.9829V39.6936C157.831 40.249 157.706 40.7971 157.464 41.2973L156.963 42.3429C156.665 42.9761 156.194 43.5116 155.603 43.8869C155.013 44.2622 154.328 44.4617 153.628 44.4623H146.917C146.46 44.4623 146.008 44.3785 145.582 44.2151L144.543 43.8124C143.52 43.4158 142.433 43.2122 141.336 43.2119H119.47C118.373 43.2116 117.286 43.4152 116.263 43.8124L115.225 44.2151C114.798 44.3785 114.346 44.4623 113.889 44.4623H107.206C106.507 44.4609 105.822 44.261 105.232 43.8858C104.642 43.5106 104.17 42.9756 103.872 42.3429L103.37 41.2973C103.131 40.7966 103.008 40.2485 103.01 39.6936V30.9829C103.01 30.0351 103.371 29.123 104.02 28.4325L105.433 27.0195C104.868 28.0086 114.137 31.5198 118.397 31.8094C122.777 32.1061 138.277 31.9719 142.544 31.8094C146.811 31.6469 154.716 28.9835 155.797 27.3304L156.871 28.4607C157.495 29.152 157.837 30.0517 157.832 30.9829Z" fill="#DDDDDD"/>
<path d="M149.595 22.0834C148.182 22.0057 145.843 21.928 143.293 21.8574L140.467 21.7938C137.366 21.7231 134.271 21.6737 132.286 21.6454H130.414C128.203 21.6454 115.578 21.8503 111.233 22.0976C111.89 19.7733 114.151 16.029 115.345 13.9449C116.44 13.6245 117.564 13.4162 118.701 13.3232C120.015 13.1748 121.527 13.09 123.116 13.0335C124.36 12.9911 125.645 12.9629 126.945 12.9558C128.104 12.9558 129.277 12.9558 130.414 12.9558H133.48C136.699 12.9299 139.917 13.0926 143.116 13.4433C143.919 13.5421 144.711 13.7123 145.483 13.9519C145.893 14.6584 146.437 15.5698 146.995 16.5588C147.44 17.3571 147.892 18.1908 148.309 19.0103C148.627 19.6461 148.916 20.2678 149.15 20.8471C149.32 21.2508 149.469 21.6635 149.595 22.0834Z" fill="#303030"/>
<path d="M142.474 31.7812C142.474 31.7812 135.063 32.2122 130.4 32.2122C125.109 32.2122 118.327 31.7812 118.327 31.7812C118.327 31.7812 114.321 33.286 114.321 35.0028C114.321 36.3239 116.638 39.8915 117.712 41.467C117.872 41.7056 118.089 41.9009 118.343 42.0353C118.597 42.1697 118.88 42.239 119.168 42.237H141.64C141.928 42.239 142.211 42.1697 142.465 42.0353C142.719 41.9009 142.936 41.7056 143.096 41.467C144.162 39.8915 146.487 36.3239 146.487 35.0028C146.487 33.286 142.474 31.7812 142.474 31.7812Z" fill="#303030"/>
<path d="M154.646 28.0042C155.138 27.9968 155.619 28.1541 156.012 28.451C156.405 28.7479 156.687 29.1675 156.815 29.6432C157.039 30.4276 157.107 31.2488 157.012 32.0593C154.935 34.1434 150.068 34.1787 148.789 34.0657C147.51 33.9526 144.628 32.3207 144.317 31.6142C144.006 30.9077 153.395 28.1596 154.646 28.0042Z" fill="#999999"/>
<g style="mix-blend-mode:screen">
<path d="M151.954 30.8719C151.954 31.1989 152.051 31.5185 152.233 31.7903C152.414 32.0622 152.673 32.2741 152.975 32.3992C153.277 32.5243 153.609 32.5571 153.93 32.4933C154.25 32.4295 154.545 32.272 154.776 32.0408C155.007 31.8096 155.165 31.5151 155.229 31.1944C155.292 30.8737 155.26 30.5413 155.135 30.2393C155.009 29.9372 154.798 29.679 154.526 29.4973C154.254 29.3157 153.934 29.2188 153.607 29.2188C153.169 29.2188 152.748 29.3929 152.438 29.7029C152.128 30.013 151.954 30.4335 151.954 30.8719Z" fill="white"/>
</g>
<g style="mix-blend-mode:screen">
<path d="M148.464 31.7806C148.464 32.0615 148.548 32.336 148.705 32.5691C148.862 32.8022 149.084 32.9832 149.345 33.089C149.605 33.1948 149.891 33.2207 150.166 33.1632C150.441 33.1058 150.692 32.9677 150.888 32.7665C151.085 32.5654 151.216 32.3103 151.267 32.0339C151.317 31.7576 151.284 31.4724 151.172 31.2149C151.059 30.9574 150.873 30.7393 150.636 30.5884C150.399 30.4375 150.122 30.3606 149.841 30.3676C149.473 30.3768 149.123 30.5298 148.865 30.7937C148.608 31.0577 148.464 31.4119 148.464 31.7806Z" fill="white"/>
</g>
<path d="M150.858 22.7884L155.337 22.5623C155.752 22.5406 156.143 22.3608 156.429 22.06C156.716 21.7591 156.876 21.3599 156.877 20.9445C156.878 20.7305 156.837 20.5184 156.755 20.3205C156.674 20.1225 156.555 19.9425 156.404 19.7909C156.253 19.6393 156.073 19.519 155.876 19.4369C155.678 19.3548 155.466 19.3125 155.252 19.3125H153.839C153.438 19.3136 153.046 19.431 152.71 19.6504C152.374 19.8698 152.108 20.1819 151.946 20.5488L151.572 21.3895H149.452L150.858 22.7884Z" fill="#DDDDDD"/>
<path d="M48.1324 40.8516H5.94922V45.3589H48.1324V40.8516Z" fill="#151515"/>
<path d="M0.939391 40.1328H8.47034V47.7839C8.47034 48.1587 8.32148 48.518 8.0565 48.783C7.79152 49.048 7.43214 49.1969 7.0574 49.1969H2.32407C1.94933 49.1969 1.58995 49.048 1.32497 48.783C1.05999 48.518 0.911133 48.1587 0.911133 47.7839V40.1328H0.939391Z" fill="#151515"/>
<path d="M7.1285 22.7898L2.64949 22.5779C2.23463 22.5562 1.84382 22.3765 1.55738 22.0756C1.27094 21.7747 1.11063 21.3755 1.10939 20.9601C1.10846 20.7461 1.1498 20.534 1.23104 20.3361C1.31228 20.1381 1.43182 19.9582 1.5828 19.8065C1.73378 19.6549 1.91322 19.5346 2.11082 19.4525C2.30842 19.3704 2.52029 19.3281 2.73427 19.3281H4.18253C4.58382 19.3293 4.97618 19.4466 5.31218 19.6661C5.64818 19.8855 5.91343 20.1975 6.07586 20.5645L6.45029 21.4052H8.56969L7.1285 22.7898Z" fill="#DDDDDD"/>
<path d="M55.0121 30.9836V39.6944C55.0114 40.2497 54.8859 40.7978 54.6447 41.2981L54.1431 42.3436C53.8456 42.9768 53.3741 43.5123 52.7836 43.8876C52.1932 44.2629 51.5082 44.4625 50.8086 44.4631H44.0901C43.6337 44.4618 43.1814 44.378 42.7548 44.2158L41.7234 43.8131C40.7004 43.4172 39.613 43.2136 38.516 43.2126H16.6509C15.5538 43.2123 14.4662 43.4159 13.4435 43.8131L12.405 44.2158C11.9788 44.3792 11.5262 44.463 11.0698 44.4631H4.35832C3.6589 44.4616 2.97425 44.2617 2.38397 43.8865C1.79368 43.5113 1.32202 42.9763 1.02379 42.3436L0.529264 41.2981C0.290279 40.7973 0.167133 40.2492 0.168965 39.6944V30.9836C0.168727 30.0393 0.527322 29.1301 1.17215 28.4403L2.54976 27.0273L2.62041 26.9567L7.13474 22.2092C8.38385 18.9227 10.0203 15.7969 12.0094 12.8979C12.0094 12.8979 14.2277 11.9018 27.1136 11.8594H28.0815C40.9745 11.9018 43.1999 12.8979 43.1999 12.8979C45.1886 15.7961 46.8228 18.9221 48.0675 22.2092L52.9492 27.3453L54.023 28.4756C54.6538 29.159 55.0066 30.0535 55.0121 30.9836Z" fill="#DDDDDD"/>
<path d="M55.0121 30.9836V39.6944C55.0114 40.2497 54.8859 40.7979 54.6447 41.2981L54.1431 42.3437C53.8456 42.9768 53.3741 43.5123 52.7836 43.8876C52.1932 44.2629 51.5082 44.4625 50.8086 44.4631H44.0901C43.6337 44.4618 43.1814 44.378 42.7548 44.2158L41.7234 43.8131C40.7004 43.4172 39.613 43.2136 38.516 43.2126H16.6509C15.5538 43.2123 14.4662 43.4159 13.4435 43.8131L12.405 44.2158C11.9788 44.3792 11.5262 44.463 11.0698 44.4631H4.35832C3.6589 44.4616 2.97425 44.2617 2.38397 43.8865C1.79368 43.5113 1.32202 42.9763 1.02379 42.3437L0.529264 41.2981C0.290279 40.7974 0.167133 40.2492 0.168965 39.6944V30.9836C0.168727 30.0393 0.527322 29.1302 1.17215 28.4403L2.54976 27.0273C1.98459 28.0164 11.2534 31.5276 15.5134 31.8172C19.8935 32.1139 35.3935 31.9797 39.6605 31.8172C43.9276 31.6547 51.833 28.9913 52.9138 27.3382L53.9877 28.4686C54.633 29.1484 54.9987 30.0463 55.0121 30.9836Z" fill="#DDDDDD"/>
<path d="M46.7614 22.0834C45.3484 22.0057 43.0171 21.928 40.4667 21.8574L37.6409 21.7938C34.5395 21.7231 31.4451 21.6737 29.46 21.6454H27.5878C25.3766 21.6454 12.752 21.8503 8.40723 22.0976C9.06424 19.7733 11.3249 16.029 12.5189 13.9449C13.6135 13.6245 14.7378 13.4162 15.8746 13.3232C17.1886 13.1748 18.7005 13.09 20.29 13.0335C21.5334 12.9911 22.8192 12.9629 24.1191 12.9558C25.2777 12.9558 26.4504 12.9558 27.5878 12.9558H30.6539C33.8727 12.9299 37.0903 13.0926 40.2901 13.4433C41.0926 13.5421 41.8846 13.7123 42.6568 13.9519C43.0665 14.6584 43.6035 15.5698 44.1686 16.5588C44.6137 17.3571 45.0658 18.1908 45.4827 19.0103C45.8006 19.6461 46.0902 20.2678 46.3234 20.8471C46.495 21.2497 46.6413 21.6626 46.7614 22.0834Z" fill="#303030"/>
<path d="M39.6537 31.7812C39.6537 31.7812 32.2429 32.2122 27.5802 32.2122C22.2887 32.2122 15.5067 31.7812 15.5067 31.7812C15.5067 31.7812 11.501 33.286 11.501 35.0028C11.501 36.3239 13.8182 39.8915 14.892 41.467C15.052 41.7056 15.2687 41.9009 15.5227 42.0353C15.7767 42.1697 16.06 42.239 16.3473 42.237H38.8201C39.1073 42.2384 39.3904 42.1688 39.6443 42.0345C39.8982 41.9001 40.1149 41.7052 40.2754 41.467C41.3422 39.8915 43.6665 36.3239 43.6665 35.0028C43.6665 33.286 39.6537 31.7812 39.6537 31.7812Z" fill="#303030"/>
<path d="M3.35611 28.0041C2.86309 27.9976 2.38189 28.1551 1.98806 28.4517C1.59423 28.7484 1.31006 29.1675 1.18019 29.6431C0.961227 30.4286 0.896452 31.2491 0.989442 32.0592C3.06646 34.1433 7.93402 34.1787 9.20566 34.0656C10.4773 33.9526 13.3738 32.3206 13.6847 31.6142C13.9955 30.9077 4.58536 28.1595 3.35611 28.0041Z" fill="#999999"/>
<g style="mix-blend-mode:screen">
<path d="M6.02697 30.8719C6.02697 31.1992 5.92983 31.5191 5.74787 31.7911C5.56591 32.0631 5.30731 32.275 5.00482 32.3999C4.70234 32.5248 4.36959 32.5571 4.04872 32.4928C3.72785 32.4284 3.43331 32.2702 3.2024 32.0383C2.97148 31.8064 2.8146 31.5112 2.75161 31.1901C2.68862 30.8689 2.72237 30.5363 2.84858 30.2344C2.97478 29.9324 3.18777 29.6747 3.46055 29.4939C3.73334 29.3131 4.05365 29.2174 4.3809 29.2188C4.59766 29.2188 4.81229 29.2616 5.01246 29.3447C5.21263 29.4279 5.39441 29.5498 5.54736 29.7034C5.7003 29.857 5.8214 30.0393 5.90371 30.2398C5.98601 30.4403 6.0279 30.6551 6.02697 30.8719Z" fill="white"/>
</g>
<g style="mix-blend-mode:screen">
<path d="M9.52314 31.7801C9.52314 32.0596 9.44027 32.3327 9.28502 32.5651C9.12976 32.7975 8.90909 32.9786 8.65091 33.0855C8.39273 33.1925 8.10864 33.2204 7.83455 33.1659C7.56047 33.1114 7.30871 32.9768 7.11111 32.7792C6.9135 32.5816 6.77893 32.3299 6.72442 32.0558C6.6699 31.7817 6.69788 31.4976 6.80482 31.2394C6.91176 30.9812 7.09286 30.7606 7.32522 30.6053C7.55757 30.45 7.83075 30.3672 8.1102 30.3672C8.48494 30.3672 8.84432 30.516 9.1093 30.781C9.37428 31.046 9.52314 31.4054 9.52314 31.7801Z" fill="white"/>
</g>
<path d="M111.94 18.1327L119.132 17.7794C119.802 17.745 120.433 17.4545 120.894 16.9679C121.356 16.4814 121.613 15.8361 121.612 15.1655C121.612 14.4741 121.337 13.811 120.848 13.3221C120.359 12.8333 119.696 12.5586 119.005 12.5586H116.674C116.03 12.5582 115.4 12.7442 114.86 13.0939C114.319 13.4437 113.892 13.9423 113.629 14.5297L113.028 15.8861H109.651L111.94 18.1327Z" fill="#2D65F2"/>
<path d="M112.089 47.1406H44.2959V54.389H112.089V47.1406Z" fill="#151515"/>
<path d="M36.2568 45.9844H48.3516V58.277C48.3516 58.8653 48.1179 59.4296 47.7018 59.8456C47.2858 60.2616 46.7216 60.4953 46.1333 60.4953H38.4751C37.8868 60.4953 37.3226 60.2616 36.9066 59.8456C36.4906 59.4296 36.2568 58.8653 36.2568 58.277V45.9844Z" fill="#151515"/>
<path d="M119.654 60.5H111.996C111.408 60.5 110.844 60.2663 110.428 59.8502C110.012 59.4342 109.778 58.87 109.778 58.2817V45.989H121.88V58.2605C121.883 58.5542 121.827 58.8455 121.716 59.1175C121.606 59.3896 121.442 59.6369 121.235 59.8453C121.028 60.0536 120.782 60.2188 120.51 60.3312C120.239 60.4435 119.948 60.5009 119.654 60.5Z" fill="#151515"/>
<path d="M46.1891 18.1366L38.9973 17.7833C38.3281 17.7472 37.6983 17.4562 37.2371 16.97C36.7759 16.4838 36.5184 15.8395 36.5176 15.1694C36.5176 14.8265 36.5852 14.4869 36.7167 14.1702C36.8481 13.8534 37.0408 13.5657 37.2836 13.3235C37.5264 13.0814 37.8146 12.8895 38.1317 12.7589C38.4488 12.6283 38.7886 12.5616 39.1315 12.5625H41.4558C42.0996 12.5613 42.7299 12.7468 43.2704 13.0967C43.8109 13.4466 44.2382 13.9457 44.5007 14.5336L45.1082 15.89H48.4781L46.1891 18.1366Z" fill="#2D65F2"/>
<path d="M123.137 31.2669V45.2691C123.135 46.1592 122.934 47.0376 122.551 47.8407L121.745 49.5221C121.261 50.5328 120.5 51.3857 119.552 51.9821C118.603 52.5785 117.504 52.8939 116.383 52.892H105.596C104.87 52.8911 104.151 52.7546 103.476 52.4893L101.809 51.8535C100.151 51.2137 98.3867 50.8925 96.6093 50.9068H61.4979C59.7335 50.9046 57.9842 51.2329 56.3407 51.8747L54.6734 52.5105C53.9978 52.7742 53.2792 52.9107 52.554 52.9132H41.738C40.6192 52.9142 39.5231 52.5981 38.5766 52.0017C37.6301 51.4053 36.872 50.5529 36.39 49.5433L35.5776 47.8619C35.1908 47.0599 34.9903 46.1808 34.9912 45.2903V31.2669C34.9905 29.7411 35.5775 28.2737 36.6302 27.1693L38.8344 24.9086L38.9474 24.7956L46.2029 17.1374C48.2083 11.8542 50.836 6.82871 54.0305 2.16726C54.0305 2.16726 57.6053 0.570647 78.3118 0.5H79.8166C100.53 0.570647 104.105 2.16726 104.105 2.16726C107.299 6.82871 109.927 11.8542 111.933 17.1374L119.774 25.382L121.498 27.2046C122.541 28.3013 123.127 29.7537 123.137 31.2669Z" fill="#2D65F2"/>
<path d="M123.137 31.2684V45.2707C123.135 46.1607 122.934 47.0391 122.551 47.8422L121.745 49.5236C121.261 50.5344 120.5 51.3873 119.552 51.9837C118.603 52.58 117.504 52.8955 116.383 52.8935H105.596C104.87 52.8927 104.151 52.7561 103.476 52.4908L101.809 51.855C100.151 51.2152 98.3867 50.894 96.6093 50.9083H61.4979C59.7335 50.9061 57.9842 51.2344 56.3407 51.8762L54.6734 52.512C53.9978 52.7757 53.2792 52.9122 52.554 52.9147H41.738C40.6192 52.9157 39.5231 52.5997 38.5766 52.0033C37.6301 51.4069 36.872 50.5545 36.39 49.5448L35.5776 47.8634C35.1908 47.0614 34.9903 46.1823 34.9912 45.2919V31.2684C34.9905 29.7426 35.5775 28.2752 36.6302 27.1709L38.8344 24.9102C37.9231 26.4997 52.8154 32.1374 59.6681 32.6036C66.7328 33.084 91.6217 32.865 98.4673 32.6036C105.313 32.3423 118.036 28.0893 119.774 25.4047L121.498 27.2274C122.536 28.3187 123.121 29.7626 123.137 31.2684Z" fill="#2D65F2"/>
<path d="M109.891 16.9895C107.609 16.8623 103.872 16.7422 99.7671 16.6362L95.2174 16.5232C90.2297 16.4101 85.2633 16.3324 82.063 16.29H79.0605C75.5282 16.29 55.196 16.6221 48.2373 16.9965C49.297 13.2663 52.9212 7.24719 54.8428 3.89145C56.6048 3.38272 58.4127 3.04906 60.2402 2.89532C62.3596 2.66219 64.7686 2.5209 67.3049 2.43612C69.2971 2.36547 71.3671 2.32308 73.4511 2.30189C75.3233 2.30189 77.2025 2.30189 79.0322 2.30189H83.9775C89.1504 2.25658 94.3214 2.51842 99.4633 3.08606C100.753 3.24881 102.027 3.52061 103.271 3.89852C103.935 5.05007 104.797 6.51247 105.694 8.0879C106.401 9.37368 107.107 10.716 107.814 12.03C108.322 13.0544 108.796 14.0576 109.17 14.9901C109.452 15.6407 109.693 16.3085 109.891 16.9895Z" fill="#303030"/>
<path d="M98.4678 32.5703C98.4678 32.5703 86.5567 33.2768 79.0682 33.2768C70.5906 33.2768 59.6615 32.5703 59.6615 32.5703C59.6615 32.5703 53.2256 34.9935 53.2256 37.7558C53.2256 39.8752 56.9487 45.6047 58.6725 48.141C58.9311 48.5212 59.2787 48.8325 59.685 49.048C60.0912 49.2634 60.5439 49.3765 61.0038 49.3773H97.1255C97.5854 49.3765 98.0381 49.2634 98.4443 49.048C98.8506 48.8325 99.1982 48.5212 99.4568 48.141C101.181 45.6047 104.904 39.8752 104.904 37.7558C104.904 34.9935 98.4678 32.5703 98.4678 32.5703Z" fill="#303030"/>
<path d="M40.0914 26.4944C38.7915 26.3319 37.2655 27.2857 36.6014 29.1366C36.2397 30.3956 36.1316 31.714 36.2835 33.0151C39.6322 36.3567 47.4457 36.4415 49.4945 36.2366C51.5432 36.0318 56.1847 33.4108 56.6863 32.3016C57.1879 31.1924 42.1119 26.7417 40.0914 26.4944Z" fill="#DDDDDD"/>
<g style="mix-blend-mode:screen">
<path d="M44.4298 31.1048C44.4284 31.6299 44.2714 32.1427 43.9787 32.5786C43.686 33.0146 43.2706 33.3539 42.7851 33.5539C42.2996 33.7539 41.7658 33.8055 41.251 33.7022C40.7361 33.5989 40.2635 33.3453 39.8927 32.9736C39.5219 32.6018 39.2696 32.1285 39.1677 31.6134C39.0658 31.0983 39.1188 30.5646 39.3201 30.0796C39.5213 29.5946 39.8618 29.1802 40.2985 28.8886C40.7351 28.597 41.2484 28.4414 41.7735 28.4414C42.1229 28.4414 42.4689 28.5103 42.7917 28.6443C43.1144 28.7782 43.4075 28.9745 43.6543 29.2219C43.9011 29.4693 44.0966 29.763 44.2296 30.0861C44.3627 30.4092 44.4307 30.7554 44.4298 31.1048Z" fill="white"/>
</g>
<g style="mix-blend-mode:screen">
<path d="M50.0392 32.566C50.0392 33.0047 49.9091 33.4336 49.6653 33.7984C49.4216 34.1632 49.0751 34.4475 48.6698 34.6154C48.2644 34.7833 47.8184 34.8273 47.3881 34.7417C46.9578 34.6561 46.5625 34.4448 46.2523 34.1346C45.942 33.8243 45.7308 33.4291 45.6452 32.9987C45.5596 32.5684 45.6035 32.1224 45.7714 31.717C45.9393 31.3117 46.2236 30.9653 46.5884 30.7215C46.9532 30.4778 47.3821 30.3477 47.8208 30.3477C48.4092 30.3477 48.9734 30.5814 49.3894 30.9974C49.8054 31.4134 50.0392 31.9776 50.0392 32.566Z" fill="white"/>
</g>
<path d="M118.023 26.4944C119.323 26.3319 120.814 27.2857 121.513 29.1366C121.875 30.3956 121.983 31.714 121.831 33.0151C118.511 36.3567 110.669 36.4415 108.62 36.2155C106.571 35.9894 101.93 33.3896 101.428 32.2804C100.927 31.1712 116.017 26.7417 118.023 26.4944Z" fill="#DDDDDD"/>
<g style="mix-blend-mode:screen">
<path d="M113.706 31.105C113.708 31.6289 113.864 32.1406 114.155 32.5759C114.447 33.0112 114.86 33.3505 115.344 33.5513C115.828 33.7521 116.361 33.8053 116.875 33.7043C117.389 33.6033 117.861 33.3525 118.233 32.9836C118.605 32.6146 118.86 32.1439 118.965 31.6307C119.07 31.1175 119.021 30.5847 118.824 30.0992C118.627 29.6138 118.291 29.1974 117.858 28.9025C117.425 28.6076 116.915 28.4472 116.391 28.4416C116.039 28.4369 115.689 28.5025 115.363 28.6344C115.036 28.7663 114.739 28.962 114.489 29.2099C114.239 29.4579 114.041 29.7532 113.907 30.0786C113.772 30.404 113.704 30.7529 113.706 31.105Z" fill="white"/>
</g>
<g style="mix-blend-mode:screen">
<path d="M108.09 32.566C108.09 33.0047 108.22 33.4336 108.464 33.7984C108.707 34.1632 109.054 34.4475 109.459 34.6154C109.865 34.7833 110.311 34.8273 110.741 34.7417C111.171 34.6561 111.567 34.4448 111.877 34.1346C112.187 33.8243 112.398 33.4291 112.484 32.9987C112.569 32.5684 112.526 32.1224 112.358 31.717C112.19 31.3117 111.905 30.9653 111.541 30.7215C111.176 30.4778 110.747 30.3477 110.308 30.3477C109.72 30.3477 109.156 30.5814 108.74 30.9974C108.324 31.4134 108.09 31.9776 108.09 32.566Z" fill="white"/>
</g>
</svg>
