<svg width="59" height="60" viewBox="0 0 59 60" fill="none" xmlns="http://www.w3.org/2000/svg">
<path d="M1.41413 37.2431L0.375 38.1049L15.4861 39.9838C17.6924 40.858 19.9876 41.4884 22.3309 41.8638C23.1239 34.1817 31.2888 28.1218 41.2241 28.1218C45.2489 28.1218 48.9809 29.119 52.0528 30.8135C53.9736 27.9177 55.0652 24.6324 55.0652 21.1558C55.0652 9.49329 42.8685 0 27.8752 0C12.8819 0 0.681725 9.49096 0.681725 21.1558C0.681725 25.3438 2.25267 29.3767 5.23011 32.8568L5.20562 32.8755L5.49718 33.1834C5.1613 33.8621 3.19383 35.7619 1.41413 37.2431ZM9.76916 11.7686H45.2139V13.6941H9.76916V11.7686ZM9.76916 18.9096H45.2139V20.8351H9.76916V18.9096ZM9.76916 26.0517H28.5353V27.9772H9.76916V26.0517Z" fill="#2D65F2"/>
<path d="M23.8164 43.0906C23.8164 50.4869 31.6303 56.5024 41.2215 56.5024C43.3204 56.5057 45.4088 56.2068 47.4225 55.6149L47.8459 55.4913L52.7266 60V53.1378L53.0508 52.9046C56.5927 50.3656 58.6243 46.7887 58.6243 43.0894C58.6243 35.6942 50.8105 29.6775 41.2215 29.6775C31.6326 29.6775 23.8164 35.6953 23.8164 43.0906Z" fill="#DDDDDD"/>
<path d="M45.2142 11.7686H9.76953V13.694H45.2142V11.7686Z" fill="white"/>
<path d="M45.2142 18.9097H9.76953V20.8352H45.2142V18.9097Z" fill="white"/>
<path d="M28.5357 26.0515H9.76953V27.977H28.5357V26.0515Z" fill="white"/>
</svg>
