<svg width="24" height="24" viewBox="0 0 24 24" fill="none" xmlns="http://www.w3.org/2000/svg">
<path d="M6.10115 21.2992C5.43743 21.2992 4.87167 21.069 4.40387 20.6086C3.93606 20.1482 3.70215 19.5855 3.70215 18.9204V17.7223C3.70215 17.253 3.86927 16.8512 4.2035 16.5169C4.53773 16.1827 4.93952 16.0156 5.40887 16.0156H6.50022L6.50022 4.40985C6.50022 3.9405 6.66734 3.53871 7.00157 3.20448C7.33581 2.87024 7.7376 2.70313 8.20695 2.70313L18.5915 2.70313C19.0609 2.70313 19.4627 2.87024 19.7969 3.20448C20.1311 3.53871 20.2982 3.9405 20.2982 4.40985L20.2982 18.9204C20.2982 19.5855 20.0643 20.1482 19.5965 20.6086C19.1287 21.069 18.563 21.2992 17.8992 21.2992H6.10115ZM17.8992 19.9002C18.1826 19.9002 18.4201 19.8063 18.6117 19.6185C18.8034 19.4307 18.8992 19.198 18.8992 18.9204V4.40985C18.8992 4.3201 18.8704 4.24637 18.8127 4.18867C18.755 4.13097 18.6813 4.10213 18.5915 4.10213L8.20695 4.10213C8.1172 4.10213 8.04347 4.13097 7.98577 4.18867C7.92809 4.24637 7.89925 4.3201 7.89925 4.40985L7.89925 16.0156H15.2127C15.6821 16.0156 16.0838 16.1827 16.4181 16.5169C16.7523 16.8512 16.9194 17.253 16.9194 17.7223V18.9204C16.9194 19.198 17.0133 19.4307 17.2011 19.6185C17.3889 19.8063 17.6216 19.9002 17.8992 19.9002ZM9.89442 8.49155C9.70052 8.49155 9.53507 8.42301 9.39805 8.28593C9.26103 8.14884 9.19252 7.9841 9.19252 7.7917C9.19252 7.5993 9.26103 7.43468 9.39805 7.29783C9.53507 7.16096 9.70052 7.09253 9.89442 7.09253L16.9088 7.09253C17.0991 7.09253 17.2628 7.16119 17.4001 7.29852C17.5373 7.43584 17.6059 7.59966 17.6059 7.78998C17.6059 7.98397 17.5373 8.1494 17.4001 8.28625C17.2628 8.42312 17.0991 8.49155 16.9088 8.49155L9.89442 8.49155ZM9.89442 11.3762C9.70052 11.3762 9.53507 11.3076 9.39805 11.1705C9.26103 11.0334 9.19252 10.8687 9.19252 10.6763C9.19252 10.4839 9.26103 10.3193 9.39805 10.1824C9.53507 10.0456 9.70052 9.97715 9.89442 9.97715L16.9088 9.97715C17.0991 9.97715 17.2628 10.0458 17.4001 10.1831C17.5373 10.3204 17.6059 10.4843 17.6059 10.6746C17.6059 10.8686 17.5373 11.034 17.4001 11.1709C17.2628 11.3077 17.0991 11.3762 16.9088 11.3762L9.89442 11.3762Z" fill="#999999"/>
</svg>
