<svg width="20" height="20" viewBox="0 0 20 20" fill="none" xmlns="http://www.w3.org/2000/svg">
<path d="M9.99954 18.0826C8.60691 18.0826 7.4675 17.8735 6.58129 17.4553C5.69506 17.0371 5.25195 16.497 5.25195 15.835C5.25195 15.4515 5.41421 15.1047 5.73872 14.7946C6.06324 14.4845 6.51612 14.2279 7.09737 14.0249L7.44262 15.1379C7.18141 15.2358 6.96227 15.3461 6.78518 15.4689C6.6081 15.5917 6.48857 15.7138 6.4266 15.835C6.56949 16.1433 6.98849 16.4006 7.6836 16.6071C8.37872 16.8135 9.1507 16.9168 9.99954 16.9168C10.843 16.9168 11.6158 16.8135 12.3179 16.6071C13.02 16.4006 13.4438 16.1433 13.5893 15.835C13.5247 15.7138 13.4038 15.5931 13.2267 15.4729C13.0496 15.3528 12.8305 15.2411 12.5693 15.1379L12.913 14.0249C13.4963 14.2279 13.9485 14.4845 14.2696 14.7946C14.5906 15.1047 14.7511 15.4515 14.7511 15.835C14.7511 16.497 14.3073 17.0371 13.4198 17.4553C12.5323 17.8735 11.3922 18.0826 9.99954 18.0826ZM10.0002 15.3094C9.86491 15.3094 9.7407 15.2649 9.62756 15.1759C9.51443 15.087 9.43143 14.9736 9.37856 14.8358C9.03774 13.9143 8.63449 13.1393 8.16881 12.5108C7.70314 11.8823 7.25516 11.2804 6.82487 10.705C6.40179 10.1323 6.04081 9.53693 5.74193 8.91899C5.44306 8.30104 5.29362 7.5424 5.29362 6.64305C5.29362 5.32873 5.74928 4.21525 6.6606 3.30259C7.57192 2.38993 8.6849 1.93359 9.99954 1.93359C11.3142 1.93359 12.4278 2.38993 13.3405 3.30259C14.2531 4.21525 14.7095 5.32839 14.7095 6.64203C14.7095 7.54092 14.5611 8.29994 14.2643 8.91909C13.9676 9.53826 13.6025 10.1339 13.1691 10.706C12.7494 11.2781 12.3058 11.8792 11.8382 12.5092C11.3705 13.1392 10.966 13.9147 10.6245 14.8358C10.5699 14.9736 10.486 15.087 10.3728 15.1759C10.2597 15.2649 10.1355 15.3094 10.0002 15.3094ZM10.0012 8.03774C10.3884 8.03774 10.718 7.90191 10.9899 7.63026C11.2618 7.35861 11.3978 7.02915 11.3978 6.64188C11.3978 6.25462 11.2617 5.92505 10.9895 5.65316C10.7172 5.38125 10.3871 5.2453 9.99908 5.2453C9.61104 5.2453 9.28173 5.38141 9.01116 5.65361C8.74061 5.92582 8.60533 6.25595 8.60533 6.64399C8.60533 7.03203 8.74115 7.36133 9.01281 7.63189C9.28446 7.90245 9.61392 8.03774 10.0012 8.03774Z" fill="#2D65F2"/>
</svg>
