<svg width="169" height="330" viewBox="0 0 169 330" fill="none" xmlns="http://www.w3.org/2000/svg">
<path d="M157.778 53.054C156.085 38.4704 153.382 30.8667 148.6 24.9263C147.578 25.1582 146.519 25.1668 145.493 24.9515C144.468 24.7362 143.501 24.3021 142.659 23.6788L125.403 11.0257C124.529 10.3789 123.796 9.56058 123.25 8.62086C122.704 7.68115 122.355 6.63981 122.224 5.56057L119.7 4.72892V20.7383H48.8903V4.69922L46.3953 5.53087C46.2585 6.60823 45.9068 7.64714 45.3608 8.58594C44.8149 9.52475 44.0859 10.3443 43.2172 10.996L25.9306 23.6491C25.0895 24.2741 24.1229 24.7093 23.0973 24.9247C22.0718 25.1401 21.0117 25.1305 19.9902 24.8966C15.2082 30.837 12.5351 38.4704 10.842 53.054C6.38675 91.6666 13.8122 152.11 13.8122 167.021C12.8024 246.533 12.1489 294.947 17.4359 311.729C18.7409 315.126 21.2018 317.955 24.3861 319.718C25.2424 319.325 26.1768 319.132 27.1187 319.154C33.2967 319.154 36.2669 323.164 43.0984 322.124C47.5834 321.382 49.0388 325.094 49.6328 327.708C53.6723 328.332 57.7118 328.807 61.5136 329.164C61.8469 328.691 62.2936 328.311 62.8127 328.056C63.3317 327.802 63.9064 327.682 64.4838 327.708H104.255C104.807 327.707 105.352 327.838 105.843 328.092C106.334 328.345 106.757 328.713 107.076 329.164C110.047 328.896 113.017 328.57 115.987 328.154C116.433 325.54 117.858 321.322 122.611 322.213C129.412 323.372 132.412 319.243 138.59 319.243C139.345 319.205 140.1 319.319 140.809 319.579C141.518 319.84 142.168 320.241 142.719 320.758C146.619 319.002 149.694 315.811 151.303 311.847C156.56 295.066 155.907 246.503 154.926 167.139C154.689 152.11 162.233 91.5775 157.778 53.054Z" fill="url(#paint0_radial_5837_36411)"/>
<path d="M119.73 20.7099V4.70054C96.5331 -1.56685 72.0883 -1.56685 48.8911 4.70054V20.7099H119.73Z" fill="url(#paint1_linear_5837_36411)"/>
<path d="M153.352 55.4225C150.62 31.2451 145.066 27.2056 131.522 16.008C113.077 0.622343 55.5735 0.622343 37.1286 16.008C23.5251 27.3244 18.0005 31.3639 15.268 55.5413C11.08 92.6094 18.2382 150.885 18.0005 165.231C17.0798 241.802 16.456 288.405 21.4163 304.533C27.119 323.126 84.3251 322.117 84.3251 322.117C84.3251 322.117 141.501 323.126 147.234 304.533C152.194 288.405 151.57 241.802 150.62 165.231C150.471 150.766 157.57 92.4906 153.352 55.4225Z" fill="url(#paint2_radial_5837_36411)"/>
<path d="M56.1383 135.383C47.9758 136.447 39.9875 138.574 32.3767 141.71L33.2975 146.997C40.8948 143.494 48.9745 141.152 57.267 140.047C75.1895 138.205 93.2535 138.205 111.176 140.047C119.509 141.14 127.63 143.483 135.264 146.997L136.155 141.71C128.543 138.578 120.555 136.451 112.394 135.383C93.6884 133.518 74.8438 133.518 56.1383 135.383Z" fill="url(#paint3_linear_5837_36411)"/>
<path d="M28.783 95.5836C36.9293 92.0227 45.4188 89.3056 54.1188 87.4749C74.053 83.5244 94.5687 83.5244 114.503 87.4749C123.213 89.302 131.713 92.0192 139.868 95.5836C141.333 96.1046 142.684 96.9011 143.848 97.93V97.7518C144.267 96.1736 144.368 94.5279 144.146 92.9104C143.67 92.0193 142.274 91.1877 139.839 90.1184C131.684 86.554 123.184 83.8369 114.473 82.0098C94.539 78.0592 74.0233 78.0592 54.0891 82.0098C45.3938 83.8902 36.9141 86.6571 28.783 90.2669C26.3178 91.3362 24.9218 92.1678 24.4465 93.0589C24.2458 94.6788 24.3567 96.3221 24.7733 97.9003V98.0785C25.9294 96.9869 27.293 96.1385 28.783 95.5836Z" fill="url(#paint4_linear_5837_36411)"/>
<path d="M56.1383 135.384C74.9027 133.507 93.8076 133.507 112.572 135.384C120.734 136.452 128.721 138.579 136.334 141.71L143.997 97.9297C142.832 96.9007 141.481 96.1042 140.017 95.5832C131.861 92.0188 123.362 89.3017 114.651 87.4746C94.7169 83.5241 74.2012 83.5241 54.267 87.4746C45.567 89.3053 37.0775 92.0223 28.9312 95.5832C27.4638 96.0974 26.1115 96.8946 24.9512 97.9297L32.6143 141.71C40.1494 138.594 48.0566 136.468 56.1383 135.384Z" fill="url(#paint5_linear_5837_36411)"/>
<path d="M132.353 261.882C131.967 259.982 131.521 258.081 130.986 256.18C130.986 256.18 130.303 256.536 128.937 257.071C123.947 259.09 109.571 263.754 84.3841 263.754C69.2597 263.958 54.2056 261.66 39.8311 256.952L37.7817 256.18C37.2668 258.021 36.8213 259.863 36.4451 261.704C34.1706 273.28 33.5109 285.115 34.4847 296.871C42.3978 300.165 50.6433 302.595 59.078 304.119C75.8466 306.17 92.8027 306.17 109.571 304.119C118.048 302.609 126.334 300.179 134.283 296.871C135.248 285.175 134.599 273.402 132.353 261.882ZM130.779 292.238C123.419 295.527 115.705 297.959 107.789 299.485C92.2133 301.535 76.436 301.535 60.8601 299.485C52.9445 297.959 45.2307 295.527 37.8708 292.238C37.1078 282.254 37.4165 272.217 38.7915 262.298C53.6769 266.036 68.9777 267.863 84.3247 267.734C99.6755 268.028 114.997 266.28 129.887 262.536C131.229 272.378 131.527 282.333 130.779 292.238Z" fill="url(#paint6_linear_5837_36411)"/>
<path d="M38.7927 262.363C37.422 272.262 37.1133 282.279 37.872 292.243C45.2319 295.533 52.9457 297.964 60.8613 299.491C76.4372 301.54 92.2145 301.54 107.79 299.491C115.706 297.964 123.42 295.533 130.78 292.243C131.529 282.339 131.23 272.383 129.889 262.541C114.997 266.276 99.6754 268.014 84.3259 267.71C68.9828 267.868 53.682 266.071 38.7927 262.363Z" fill="url(#paint7_linear_5837_36411)"/>
<path d="M21.8323 191.906L31.931 195.322L30.1786 150.056L20.5552 96.4141C20.5552 96.4141 19.7235 110.166 20.5552 129.888C21.0898 142.363 22.6046 159.59 22.5749 170.58C22.5452 181.094 22.1591 188.282 21.8323 191.906Z" fill="url(#paint8_linear_5837_36411)"/>
<path d="M146.788 191.906L136.719 195.322L138.442 150.056L148.036 96.4141C148.036 96.4141 148.868 110.166 148.036 129.888C147.501 142.363 146.016 159.59 146.046 170.58C146.105 181.094 146.402 188.282 146.788 191.906Z" fill="url(#paint9_linear_5837_36411)"/>
<path d="M21.5346 196.066L31.9897 200.462L33.1778 238.303C32.0728 242.603 30.4469 246.752 28.3364 250.659C26.5454 254.697 24.2608 258.498 21.5346 261.975C21.5346 261.975 20.3169 210.264 21.5346 196.066Z" fill="url(#paint10_linear_5837_36411)"/>
<path d="M147.086 196.066L136.631 200.462L135.472 238.303C136.564 242.641 138.18 246.83 140.284 250.777C142.09 254.808 144.374 258.607 147.086 262.094C147.086 262.094 148.244 210.264 147.086 196.066Z" fill="url(#paint11_linear_5837_36411)"/>
<path d="M25.931 23.6416L43.2175 10.9886C44.0862 10.3369 44.8152 9.51732 45.3611 8.57851C45.9071 7.6397 46.2588 6.6008 46.3956 5.52344C41.9698 6.94456 37.8206 9.11459 34.1287 11.9391C28.984 15.7593 24.2552 20.1098 20.0203 24.9188C21.0393 25.1441 22.095 25.1466 23.1152 24.9262C24.1353 24.7057 25.0958 24.2676 25.931 23.6416Z" fill="url(#paint12_radial_5837_36411)"/>
<path d="M125.433 10.9886L142.69 23.6416C143.532 24.2649 144.499 24.699 145.524 24.9143C146.549 25.1296 147.609 25.121 148.63 24.8891C144.413 20.0828 139.693 15.7414 134.552 11.9391C130.856 9.1205 126.708 6.95102 122.285 5.52344C122.411 6.60036 122.755 7.64027 123.297 8.57984C123.838 9.5194 124.565 10.339 125.433 10.9886Z" fill="url(#paint13_radial_5837_36411)"/>
<path d="M43.0687 321.944C36.2372 323.103 33.267 318.974 27.089 318.974C26.1471 318.953 25.2127 319.146 24.3564 319.539C32.2074 323.714 40.7703 326.384 49.6031 327.41C49.0685 324.915 47.5537 321.261 43.0687 321.944Z" fill="#93091A"/>
<path d="M122.552 321.944C117.799 321.142 116.374 325.36 115.928 327.884C125.188 326.942 134.224 324.452 142.66 320.518C142.109 320.001 141.459 319.6 140.75 319.34C140.041 319.079 139.286 318.965 138.531 319.003C132.353 319.152 129.353 323.162 122.552 321.944Z" fill="#93091A"/>
<path d="M36.3271 79.0427C36.3271 79.0427 48 57.7167 49.6039 49.816C50.8217 43.8756 48.8911 25.0742 48.8911 25.0742C48.8911 25.0742 47.6436 42.8954 46.3961 48.6576C44.7031 56.4989 36.3271 79.0427 36.3271 79.0427Z" fill="url(#paint14_linear_5837_36411)"/>
<path d="M132.443 79.0427C132.443 79.0427 120.77 57.5979 119.166 49.816C117.949 43.8756 119.85 25.0742 119.85 25.0742C119.85 25.0742 121.127 42.8954 122.374 48.6576C124.067 56.4989 132.443 79.0427 132.443 79.0427Z" fill="url(#paint15_linear_5837_36411)"/>
<path d="M84.3251 143.524C47.3461 142.692 34.9307 149.464 34.9307 149.464C34.9307 149.464 35.3762 239.075 38.1979 247.986C40.0988 253.926 63.4149 256.688 78.2064 257.787H90.414C105.265 256.688 128.522 254.015 130.423 247.986C133.393 239.075 133.719 149.464 133.719 149.464C133.719 149.464 121.304 142.692 84.3251 143.524Z" fill="url(#paint16_linear_5837_36411)"/>
<path d="M147.65 99.7461C147.65 99.7461 153.413 100.904 153.591 105.835C153.769 110.766 147.65 120.686 147.65 114.478C147.306 109.574 147.306 104.651 147.65 99.7461Z" fill="url(#paint17_linear_5837_36411)"/>
<path d="M167.729 110.58C166.452 108.887 154.838 105.264 154.838 105.264C152.551 104.521 151.868 106.541 151.482 108.234L168.145 113.313C168.286 112.856 168.321 112.372 168.249 111.899C168.177 111.426 167.999 110.975 167.729 110.58Z" fill="url(#paint18_linear_5837_36411)"/>
<path d="M151.481 108.262C151.43 108.974 151.43 109.688 151.481 110.4L167.846 114.469C168.033 114.113 168.173 113.733 168.262 113.341L151.481 108.262Z" fill="url(#paint19_linear_5837_36411)"/>
<path d="M20.9114 99.4102C20.9114 99.4102 14.7631 100.539 14.6443 105.499C14.5254 110.459 20.7629 120.35 20.9114 114.113C21.2869 109.219 21.2869 104.304 20.9114 99.4102Z" fill="url(#paint20_linear_5837_36411)"/>
<path d="M13.7537 104.938C13.7537 104.938 2.14021 108.532 0.863021 110.255C0.564204 110.682 0.373053 111.175 0.305825 111.692C0.238598 112.21 0.29728 112.735 0.476892 113.225L17.11 108.086C16.8724 106.364 16.1298 104.136 13.7537 104.938Z" fill="url(#paint21_linear_5837_36411)"/>
<path d="M0.476074 113.23C0.576855 113.538 0.706125 113.836 0.862203 114.121L17.3468 110.052C17.3972 109.409 17.3972 108.764 17.3468 108.121L0.476074 113.23Z" fill="url(#paint22_linear_5837_36411)"/>
<path d="M13.9313 164.695C13.7299 164.695 13.5305 164.735 13.3447 164.813C13.159 164.891 12.9906 165.006 12.8496 165.149C12.7085 165.293 12.5976 165.464 12.5232 165.651C12.4489 165.838 12.4126 166.038 12.4166 166.24V178.982C12.4166 179.384 12.5761 179.769 12.8602 180.053C13.1443 180.337 13.5296 180.497 13.9313 180.497V164.695Z" fill="#595959"/>
<path d="M13.1893 228.414C12.9879 228.41 12.7877 228.447 12.6005 228.521C12.4132 228.595 12.2427 228.706 12.0989 228.847C11.9551 228.988 11.8408 229.157 11.7628 229.343C11.6849 229.528 11.6447 229.728 11.6448 229.929V242.671C11.6448 243.081 11.8075 243.474 12.0971 243.763C12.3868 244.053 12.7796 244.216 13.1893 244.216V228.414Z" fill="#595959"/>
<path d="M154.69 164.695C155.1 164.695 155.492 164.858 155.782 165.148C156.072 165.437 156.234 165.83 156.234 166.24V178.982C156.234 179.183 156.194 179.383 156.116 179.569C156.038 179.754 155.924 179.923 155.78 180.064C155.637 180.205 155.466 180.316 155.279 180.39C155.092 180.464 154.891 180.501 154.69 180.497V164.695Z" fill="#595959"/>
<path d="M155.461 228.414C155.848 228.421 156.217 228.576 156.493 228.847C156.769 229.117 156.932 229.483 156.947 229.869V242.612C156.947 243.021 156.784 243.414 156.494 243.704C156.205 243.993 155.812 244.156 155.402 244.156L155.461 228.414Z" fill="#595959"/>
<path d="M104.255 327.586H64.3352C63.7578 327.56 63.1831 327.679 62.664 327.934C62.145 328.188 61.6983 328.569 61.365 329.041C73.8992 330.17 84.1761 329.991 84.1761 329.991C84.1761 329.991 94.4233 330.17 106.928 329.041C106.623 328.61 106.224 328.254 105.761 328.002C105.297 327.75 104.782 327.607 104.255 327.586Z" fill="url(#paint23_linear_5837_36411)"/>
<defs>
<radialGradient id="paint0_radial_5837_36411" cx="0" cy="0" r="1" gradientUnits="userSpaceOnUse" gradientTransform="translate(84.3247 200.057) scale(92.5217 192.445)">
<stop stop-color="#F7F7F7"/>
<stop offset="1" stop-color="#A8ABAA"/>
</radialGradient>
<linearGradient id="paint1_linear_5837_36411" x1="48.8911" y1="10.3439" x2="119.73" y2="10.3439" gradientUnits="userSpaceOnUse">
<stop stop-color="#525956"/>
<stop offset="1" stop-color="#2C2E2E"/>
</linearGradient>
<radialGradient id="paint2_radial_5837_36411" cx="0" cy="0" r="1" gradientUnits="userSpaceOnUse" gradientTransform="translate(84.3251 143.143) scale(73.9876 284.113)">
<stop stop-color="white"/>
<stop offset="1" stop-color="#D2D6D5"/>
</radialGradient>
<linearGradient id="paint3_linear_5837_36411" x1="32.4658" y1="140.492" x2="136.185" y2="140.492" gradientUnits="userSpaceOnUse">
<stop/>
<stop offset="1" stop-color="#1B1C1C"/>
</linearGradient>
<linearGradient id="paint4_linear_5837_36411" x1="24.2683" y1="88.4848" x2="144.353" y2="88.4848" gradientUnits="userSpaceOnUse">
<stop/>
<stop offset="1" stop-color="#1B1C1C"/>
</linearGradient>
<linearGradient id="paint5_linear_5837_36411" x1="24.8027" y1="113.107" x2="143.848" y2="113.107" gradientUnits="userSpaceOnUse">
<stop stop-color="#363B39"/>
<stop offset="1" stop-color="#1B1C1C"/>
</linearGradient>
<linearGradient id="paint6_linear_5837_36411" x1="33.9501" y1="280.921" x2="134.699" y2="280.921" gradientUnits="userSpaceOnUse">
<stop/>
<stop offset="1" stop-color="#1B1C1C"/>
</linearGradient>
<linearGradient id="paint7_linear_5837_36411" x1="37.4562" y1="281.729" x2="131.166" y2="281.729" gradientUnits="userSpaceOnUse">
<stop stop-color="#363B39"/>
<stop offset="1" stop-color="#1B1C1C"/>
</linearGradient>
<linearGradient id="paint8_linear_5837_36411" x1="20.1987" y1="145.868" x2="31.931" y2="145.868" gradientUnits="userSpaceOnUse">
<stop stop-color="#363B39"/>
<stop offset="1" stop-color="#1B1C1C"/>
</linearGradient>
<linearGradient id="paint9_linear_5837_36411" x1="136.719" y1="145.868" x2="148.452" y2="145.868" gradientUnits="userSpaceOnUse">
<stop stop-color="#363B39"/>
<stop offset="1" stop-color="#1B1C1C"/>
</linearGradient>
<linearGradient id="paint10_linear_5837_36411" x1="21.0297" y1="229.095" x2="33.1778" y2="229.095" gradientUnits="userSpaceOnUse">
<stop stop-color="#363B39"/>
<stop offset="1" stop-color="#1B1C1C"/>
</linearGradient>
<linearGradient id="paint11_linear_5837_36411" x1="135.472" y1="229.095" x2="147.62" y2="229.095" gradientUnits="userSpaceOnUse">
<stop stop-color="#363B39"/>
<stop offset="1" stop-color="#1B1C1C"/>
</linearGradient>
<radialGradient id="paint12_radial_5837_36411" cx="0" cy="0" r="1" gradientUnits="userSpaceOnUse" gradientTransform="translate(33.2079 15.5701) scale(11.4353 12.007)">
<stop stop-color="white"/>
<stop offset="1" stop-color="#D2D6D5"/>
</radialGradient>
<radialGradient id="paint13_radial_5837_36411" cx="0" cy="0" r="1" gradientUnits="userSpaceOnUse" gradientTransform="translate(135.443 15.5701) scale(11.4056 11.9758)">
<stop stop-color="white"/>
<stop offset="1" stop-color="#D2D6D5"/>
</radialGradient>
<linearGradient id="paint14_linear_5837_36411" x1="38.3766" y1="71.7657" x2="55.0394" y2="19.4605" gradientUnits="userSpaceOnUse">
<stop stop-color="#D2DBDA"/>
<stop offset="1" stop-color="#B5B5B5"/>
</linearGradient>
<linearGradient id="paint15_linear_5837_36411" x1="128.938" y1="74.8844" x2="115.662" y2="22.1337" gradientUnits="userSpaceOnUse">
<stop stop-color="#D2DBDA"/>
<stop offset="1" stop-color="#B5B5B5"/>
</linearGradient>
<linearGradient id="paint16_linear_5837_36411" x1="50.9697" y1="141.296" x2="180.381" y2="353.755" gradientUnits="userSpaceOnUse">
<stop stop-color="#F7F7F7"/>
<stop offset="1" stop-color="#DBDBDB"/>
</linearGradient>
<linearGradient id="paint17_linear_5837_36411" x1="146.314" y1="101.766" x2="159.115" y2="126.567" gradientUnits="userSpaceOnUse">
<stop stop-color="#363B39"/>
<stop offset="1" stop-color="#1B1C1C"/>
</linearGradient>
<linearGradient id="paint18_linear_5837_36411" x1="151.363" y1="109.214" x2="168.293" y2="109.214" gradientUnits="userSpaceOnUse">
<stop stop-color="white"/>
<stop offset="1" stop-color="#D2D6D5"/>
</linearGradient>
<linearGradient id="paint19_linear_5837_36411" x1="151.362" y1="111.38" x2="168.292" y2="111.38" gradientUnits="userSpaceOnUse">
<stop stop-color="#363B39"/>
<stop offset="1" stop-color="#1B1C1C"/>
</linearGradient>
<linearGradient id="paint20_linear_5837_36411" x1="17.9115" y1="103.955" x2="29.0794" y2="128.488" gradientUnits="userSpaceOnUse">
<stop stop-color="#363B39"/>
<stop offset="1" stop-color="#1B1C1C"/>
</linearGradient>
<linearGradient id="paint21_linear_5837_36411" x1="0.298685" y1="109.007" x2="17.2288" y2="109.007" gradientUnits="userSpaceOnUse">
<stop stop-color="#D2D6D5"/>
<stop offset="1" stop-color="white"/>
</linearGradient>
<linearGradient id="paint22_linear_5837_36411" x1="0.297862" y1="111.121" x2="17.228" y2="111.121" gradientUnits="userSpaceOnUse">
<stop stop-color="#363B39"/>
<stop offset="1" stop-color="#1B1C1C"/>
</linearGradient>
<linearGradient id="paint23_linear_5837_36411" x1="61.5135" y1="328.774" x2="107.076" y2="328.774" gradientUnits="userSpaceOnUse">
<stop stop-color="#363B39"/>
<stop offset="1" stop-color="#1B1C1C"/>
</linearGradient>
</defs>
</svg>
