<svg width="17" height="18" viewBox="0 0 17 18" fill="none" xmlns="http://www.w3.org/2000/svg">
<path d="M1.83088 7.31242H7.75011V2.39029C7.75011 2.31338 7.71806 2.24286 7.65396 2.17874C7.58984 2.11464 7.51932 2.08259 7.44239 2.08259H2.13858C2.06167 2.08259 1.99115 2.11464 1.92703 2.17874C1.86293 2.24286 1.83088 2.31338 1.83088 2.39029V7.31242ZM8.30199 17.32H1.28361C1.04719 17.32 0.846135 17.2368 0.680435 17.0703C0.514735 16.9038 0.431885 16.7018 0.431885 16.4643V2.39029C0.431885 1.91634 0.597843 1.5134 0.92976 1.18147C1.26169 0.849552 1.66463 0.683594 2.13858 0.683594H7.44239C7.91635 0.683594 8.31929 0.849552 8.65121 1.18147C8.98314 1.5134 9.14911 1.91634 9.14911 2.39029V8.78929H10.3655C10.7697 8.78929 11.1161 8.93359 11.4047 9.22217C11.6933 9.51075 11.8376 9.85717 11.8376 10.2614V15.0034C11.8376 15.335 11.9687 15.6188 12.2308 15.8547C12.493 16.0906 12.7941 16.2085 13.134 16.2085C13.4941 16.2085 13.801 16.0906 14.0549 15.8547C14.3087 15.6188 14.4357 15.3358 14.4357 15.0056V5.94412H14.0972C13.8597 5.94412 13.6585 5.86087 13.4936 5.69437C13.3287 5.52787 13.2462 5.32587 13.2462 5.08837V3.76427C13.2462 3.6502 13.2881 3.55311 13.3717 3.47299C13.4554 3.39286 13.5575 3.35279 13.678 3.35279H13.6982V2.46097C13.6982 2.34207 13.739 2.24304 13.8208 2.16387C13.9025 2.0847 14.0023 2.04512 14.1203 2.04512C14.235 2.04512 14.332 2.0847 14.4111 2.16387C14.4903 2.24304 14.5299 2.34207 14.5299 2.46097V3.35279H15.453V2.46097C15.453 2.34207 15.4938 2.24304 15.5756 2.16387C15.6573 2.0847 15.7571 2.04512 15.8751 2.04512C15.993 2.04512 16.0916 2.0847 16.1707 2.16387C16.2499 2.24304 16.2895 2.34207 16.2895 2.46097V3.35279H16.3174C16.4379 3.35279 16.5387 3.39286 16.6198 3.47299C16.7009 3.55311 16.7414 3.6502 16.7414 3.76427V5.08837C16.7414 5.32587 16.6582 5.52787 16.4916 5.69437C16.3251 5.86087 16.1231 5.94412 15.8856 5.94412H15.5472V14.9854C15.5472 15.6303 15.3149 16.1806 14.8504 16.6364C14.386 17.0922 13.8158 17.32 13.14 17.32C12.4794 17.32 11.9119 17.0922 11.4376 16.6364C10.9632 16.1806 10.726 15.6303 10.726 14.9854V10.2614C10.726 10.1556 10.6924 10.0691 10.6251 10.0018C10.5578 9.93448 10.4712 9.90082 10.3655 9.90082H9.14911V16.4643C9.14911 16.7018 9.06623 16.9038 8.90046 17.0703C8.73469 17.2368 8.5352 17.32 8.30199 17.32ZM4.42031 15.3172L6.41356 11.9239H5.17511V9.29317L3.17993 12.6787H4.42031V15.3172Z" fill="#2D65F2"/>
</svg>
