<svg width="18" height="20" viewBox="0 0 18 20" fill="none" xmlns="http://www.w3.org/2000/svg">
<path d="M2.02637 17.2791V3.65615C2.02637 3.26063 2.15065 2.92479 2.39921 2.64863C2.64776 2.37246 2.94964 2.23438 3.30484 2.23438H14.695C15.0502 2.23438 15.352 2.37246 15.6006 2.64863C15.8492 2.92479 15.9734 3.26026 15.9734 3.65504V13.0107C15.9734 13.4055 15.8492 13.741 15.6006 14.0172C15.352 14.2933 15.0502 14.4314 14.695 14.4314H4.58932L2.02637 17.2791ZM7.01169 11.5669L9.00034 10.2247L10.9917 11.5669L10.4595 9.05485L12.222 7.36575L9.90782 7.14365L8.99991 4.77844L8.093 7.14365L5.78141 7.36575L7.54029 9.05485L7.01169 11.5669Z" fill="#2D65F2"/>
</svg>
