<svg width="206" height="36" viewBox="0 0 206 36" fill="none" xmlns="http://www.w3.org/2000/svg">
<path d="M48.5831 4.82227C49.006 4.82227 49.2182 5.03445 49.2182 5.45735V8.18618C49.2182 8.61056 49.006 8.82128 48.5831 8.82128H35.6868V16.2228H47.2743C47.6972 16.2228 47.9094 16.435 47.9094 16.8579V19.4739C47.9094 19.922 47.6972 20.1461 47.2743 20.1461H35.6868V30.315C35.6868 30.7631 35.4628 30.9872 35.0146 30.9872H31.6507C31.2263 30.9872 31.0156 30.7631 31.0156 30.315V5.45735C31.0156 5.03445 31.2278 4.82227 31.6507 4.82227H48.5831Z" fill="#2D65F2"/>
<path d="M53.8929 30.9887C53.4448 30.9887 53.2207 30.7646 53.2207 30.3165V5.45735C53.2207 5.03445 53.4448 4.82227 53.8929 4.82227H56.9956C57.4438 4.82227 57.6678 5.03445 57.6678 5.45735V30.315C57.6678 30.7631 57.4438 30.9872 56.9956 30.9872H53.8929V30.9887Z" fill="#2D65F2"/>
<path d="M67.4985 22.6516V25.3433C67.4985 26.2662 67.6795 26.9073 68.0401 27.2678C68.4006 27.6299 69.0432 27.8095 69.9646 27.8095H73.9266C75.2472 27.8095 75.9075 27.161 75.9075 25.8656V25.1934C75.9075 24.7453 76.1316 24.5212 76.5797 24.5212H79.7566C80.1795 24.5212 80.3917 24.7453 80.3917 25.1934V25.9413C80.3917 27.7605 79.9496 29.0871 79.0652 29.9225C78.1808 30.7579 76.7414 31.1749 74.7471 31.1749H68.9155C66.9212 31.1749 65.4448 30.6956 64.4862 29.7355C63.5262 28.7769 63.0469 27.3005 63.0469 25.3062V17.3824C63.0469 15.3895 63.5262 13.919 64.4862 12.9708C65.4448 12.0241 66.9212 11.5508 68.9155 11.5508H74.71C76.7029 11.5508 78.1734 12.0241 79.1216 12.9708C80.0683 13.9175 80.5416 15.388 80.5416 17.3824V22.0179C80.5416 22.4423 80.3175 22.653 79.8694 22.653H67.4985V22.6516ZM69.9661 14.9147C69.0446 14.9147 68.4021 15.0898 68.0416 15.4385C67.6795 15.7872 67.4999 16.4357 67.4999 17.3824V19.2891H76.0974V17.3824C76.0974 16.4357 75.9223 15.7872 75.5736 15.4385C75.2249 15.0898 74.5765 14.9147 73.6298 14.9147H69.9661Z" fill="#2D65F2"/>
<path d="M89.7387 22.6516V25.3433C89.7387 26.2662 89.9197 26.9073 90.2803 27.2678C90.6409 27.6299 91.2834 27.8095 92.2049 27.8095H96.1668C97.4874 27.8095 98.1477 27.161 98.1477 25.8656V25.1934C98.1477 24.7453 98.3718 24.5212 98.8199 24.5212H101.997C102.42 24.5212 102.632 24.7453 102.632 25.1934V25.9413C102.632 27.7605 102.19 29.0871 101.305 29.9225C100.421 30.7579 98.9817 31.1749 96.9874 31.1749H91.1558C89.1615 31.1749 87.685 30.6956 86.7264 29.7355C85.7664 28.7769 85.2871 27.3005 85.2871 25.3062V17.3824C85.2871 15.3895 85.7664 13.919 86.7264 12.9708C87.685 12.0241 89.1615 11.5508 91.1558 11.5508H96.9503C98.9431 11.5508 100.414 12.0241 101.362 12.9708C102.308 13.9175 102.782 15.388 102.782 17.3824V22.0179C102.782 22.4423 102.558 22.653 102.11 22.653H89.7387V22.6516ZM92.2049 14.9147C91.2834 14.9147 90.6409 15.0898 90.2803 15.4385C89.9182 15.7872 89.7387 16.4357 89.7387 17.3824V19.2891H98.3362V17.3824C98.3362 16.4357 98.1611 15.7872 97.8124 15.4385C97.4637 15.0898 96.8152 14.9147 95.8685 14.9147H92.2049Z" fill="#2D65F2"/>
<path d="M113.398 15.3625V24.6707C113.398 25.5922 113.579 26.2347 113.939 26.5953C114.3 26.9574 114.943 27.1369 115.864 27.1369H118.145C118.593 27.1369 118.817 27.361 118.817 27.8091V30.3139C118.817 30.762 118.593 30.9861 118.145 30.9861H114.781C112.787 30.9861 111.318 30.5068 110.371 29.5467C109.424 28.5881 108.951 27.1117 108.951 25.1174V15.361H105.848C105.424 15.361 105.213 15.1503 105.213 14.7259V12.371C105.213 11.9481 105.425 11.7359 105.848 11.7359H108.951V8.67025C108.951 8.24735 109.163 8.03516 109.586 8.03516H112.726C113.174 8.03516 113.398 8.24735 113.398 8.67025V11.7359H118.145C118.593 11.7359 118.817 11.9481 118.817 12.371V14.7259C118.817 15.1503 118.593 15.361 118.145 15.361H113.398V15.3625Z" fill="#2D65F2"/>
<path d="M123.938 30.9887C123.49 30.9887 123.266 30.7646 123.266 30.3165V5.45735C123.266 5.03445 123.49 4.82227 123.938 4.82227H127.041C127.489 4.82227 127.713 5.03445 127.713 5.45735V13.8308H127.937C128.186 13.258 128.677 12.7342 129.413 12.2609C130.148 11.7875 131.139 11.5501 132.385 11.5501H134.815C136.807 11.5501 138.278 12.0234 139.225 12.9701C140.171 13.9169 140.645 15.3874 140.645 17.3817V25.12C140.645 27.1143 140.171 28.5908 139.225 29.5493C138.278 30.5094 136.807 30.9887 134.815 30.9887H123.938ZM133.731 27.325C134.678 27.325 135.326 27.144 135.675 26.7834C136.024 26.4228 136.199 25.7803 136.199 24.8589V17.6443C136.199 16.6976 136.024 16.0492 135.675 15.7005C135.326 15.3518 134.678 15.1767 133.731 15.1767H130.18C129.259 15.1767 128.616 15.3518 128.256 15.7005C127.894 16.0492 127.714 16.6976 127.714 17.6443V27.325H133.731Z" fill="#2D65F2"/>
<path d="M146.705 30.9887C146.257 30.9887 146.033 30.7646 146.033 30.3165V5.45735C146.033 5.03445 146.257 4.82227 146.705 4.82227H149.808C150.256 4.82227 150.48 5.03445 150.48 5.45735V30.315C150.48 30.7631 150.256 30.9872 149.808 30.9872H146.705V30.9887Z" fill="#2D65F2"/>
<path d="M161.732 31.1749C159.738 31.1749 158.261 30.6956 157.303 29.7355C156.343 28.7769 155.863 27.3005 155.863 25.3062V17.3824C155.863 15.3895 156.343 13.919 157.303 12.9708C158.261 12.0241 159.738 11.5508 161.732 11.5508H168.124C170.117 11.5508 171.588 12.0241 172.536 12.9708C173.483 13.9175 173.956 15.388 173.956 17.3824V25.3062C173.956 27.3005 173.483 28.7769 172.536 29.7355C171.589 30.6956 170.119 31.1749 168.124 31.1749H161.732ZM167.04 27.437C167.961 27.437 168.604 27.256 168.964 26.8954C169.325 26.5348 169.506 25.8804 169.506 24.9322V17.7548C169.506 16.8081 169.331 16.1597 168.982 15.811C168.633 15.4622 167.985 15.2871 167.038 15.2871H162.777C161.855 15.2871 161.213 15.4622 160.852 15.811C160.49 16.1597 160.31 16.8081 160.31 17.7548V24.9322C160.31 25.879 160.491 26.5333 160.852 26.8954C161.213 27.2575 161.855 27.437 162.777 27.437H167.04Z" fill="#2D65F2"/>
<path d="M177.281 30.9879C177.057 30.9879 176.882 30.939 176.757 30.8381C176.633 30.7386 176.57 30.614 176.57 30.4641C176.57 30.2905 176.619 30.1406 176.72 30.016L182.889 20.9333L177.32 12.6726C177.22 12.548 177.17 12.3981 177.17 12.2245C177.17 12.0746 177.226 11.9574 177.337 11.8698C177.45 11.7823 177.605 11.7393 177.805 11.7393H180.982C181.231 11.7393 181.43 11.7764 181.58 11.852C181.73 11.9262 181.866 12.0642 181.991 12.2631L183.448 14.4681L185.429 17.5337H185.69L187.671 14.4681L189.128 12.2631C189.253 12.0642 189.389 11.9262 189.539 11.852C189.689 11.7778 189.888 11.7393 190.137 11.7393H193.351C193.749 11.7393 193.949 11.901 193.949 12.2245C193.949 12.3996 193.899 12.5494 193.799 12.6726L188.23 20.9333L194.36 30.016C194.46 30.1406 194.51 30.2905 194.51 30.4641C194.51 30.614 194.454 30.7386 194.343 30.8381C194.23 30.9375 194.062 30.9879 193.838 30.9879H190.698C190.449 30.9879 190.25 30.9449 190.1 30.8573C189.95 30.7698 189.814 30.6273 189.689 30.427L187.819 27.624L185.689 24.3343H185.427L183.297 27.624L181.428 30.427C181.304 30.6273 181.167 30.7698 181.017 30.8573C180.868 30.9449 180.669 30.9879 180.419 30.9879H177.281Z" fill="#2D65F2"/>
<path d="M23.6506 1.50018V9.39878C23.6506 10.2268 22.9799 10.899 22.1504 10.899H17.7404C16.1957 10.899 14.7088 11.4465 13.5366 12.4348C13.3956 12.552 13.2591 12.6781 13.1285 12.8087L12.8258 13.1114C12.7294 13.2079 12.6374 13.3073 12.5483 13.4082C11.4992 14.5953 10.9161 16.1296 10.9161 17.7233V22.1333C10.9161 22.9613 10.2454 23.6335 9.41589 23.6335H1.51729C0.687814 23.6335 0.015625 22.9613 0.015625 22.1333V14.2347C0.015625 13.4067 0.687814 12.7345 1.51729 12.7345H6.22855C7.95874 12.7345 9.61621 12.0475 10.8389 10.8248C11.4503 10.2134 11.9296 9.49227 12.2545 8.70879C12.5795 7.92531 12.7501 7.07654 12.7501 6.21145V1.50018C12.7501 0.67219 13.4223 2.45201e-06 14.2518 2.45201e-06H22.1504C22.9799 -0.00148141 23.6506 0.670706 23.6506 1.50018Z" fill="#2D65F2"/>
<path d="M23.6511 13.5131V23.6346H13.5356C12.991 23.6346 12.5488 23.1924 12.5488 22.6478V16.9008C12.5963 15.8235 13.0326 14.8189 13.7953 14.0518L14.0579 13.7862C14.8651 12.9745 15.9365 12.5264 17.0776 12.5264H22.6643C23.2104 12.5264 23.6511 12.9671 23.6511 13.5131Z" fill="#2D65F2"/>
<path d="M11.1179 25.8798V36.0013H1.00239C0.457815 36.0013 0.015625 35.5591 0.015625 35.0145V29.269C0.0631086 28.1917 0.499363 27.1871 1.26207 26.4199L1.52471 26.1543C2.33193 25.3427 3.40328 24.8945 4.54437 24.8945H10.1311C10.6757 24.8931 11.1179 25.3352 11.1179 25.8798Z" fill="#2D65F2"/>
<path d="M5.56675 11.1023C8.63255 11.1023 11.1179 8.61693 11.1179 5.55112C11.1179 2.48532 8.63255 0 5.56675 0C2.50095 0 0.015625 2.48532 0.015625 5.55112C0.015625 8.61693 2.50095 11.1023 5.56675 11.1023Z" fill="#2D65F2"/>
<path d="M201.27 14.2777C198.994 14.2777 197.141 12.4259 197.141 10.1481C197.141 7.87042 198.992 6.01855 201.27 6.01855C203.546 6.01855 205.4 7.87042 205.4 10.1481C205.4 12.4259 203.548 14.2777 201.27 14.2777ZM201.27 6.43552C199.222 6.43552 197.558 8.1019 197.558 10.1481C197.558 12.1959 199.224 13.8608 201.27 13.8608C203.318 13.8608 204.983 12.1944 204.983 10.1481C204.984 8.1019 203.318 6.43552 201.27 6.43552Z" fill="#2D65F2"/>
<path d="M199.285 9.19216H198.359V8.75293H200.732V9.19216H199.806V11.5485H199.287V9.19216H199.285Z" fill="#2D65F2"/>
<path d="M203.692 11.5466L203.687 9.69323L202.769 11.2261H202.537L201.619 9.71697V11.5466H201.123V8.75098H201.55L202.66 10.6043L203.751 8.75098H204.178L204.183 11.5466H203.692Z" fill="#2D65F2"/>
</svg>
