<svg width="115" height="20" viewBox="0 0 115 20" fill="none" xmlns="http://www.w3.org/2000/svg">
<path d="M26.9902 2.67871C27.2251 2.67871 27.343 2.79659 27.343 3.03154V4.54755C27.343 4.78332 27.2251 4.90038 26.9902 4.90038H19.8256V9.01233H26.2631C26.498 9.01233 26.6159 9.13021 26.6159 9.36516V10.8185C26.6159 11.0675 26.498 11.192 26.2631 11.192H19.8256V16.8414C19.8256 17.0903 19.7011 17.2148 19.4521 17.2148H17.5833C17.3475 17.2148 17.2305 17.0903 17.2305 16.8414V3.03154C17.2305 2.79659 17.3484 2.67871 17.5833 2.67871H26.9902Z" fill="white"/>
<path d="M29.9398 17.2156C29.6909 17.2156 29.5664 17.0911 29.5664 16.8422V3.03154C29.5664 2.79659 29.6909 2.67871 29.9398 2.67871H31.6636C31.9126 2.67871 32.037 2.79659 32.037 3.03154V16.8414C32.037 17.0903 31.9126 17.2148 31.6636 17.2148H29.9398V17.2156Z" fill="white"/>
<path d="M37.4985 12.5841V14.0795C37.4985 14.5923 37.5991 14.9484 37.7994 15.1487C37.9997 15.3498 38.3567 15.4496 38.8686 15.4496H41.0697C41.8033 15.4496 42.1702 15.0893 42.1702 14.3697V13.9962C42.1702 13.7473 42.2947 13.6228 42.5436 13.6228H44.3086C44.5435 13.6228 44.6614 13.7473 44.6614 13.9962V14.4117C44.6614 15.4224 44.4158 16.1594 43.9244 16.6235C43.4331 17.0876 42.6335 17.3193 41.5255 17.3193H38.2858C37.1778 17.3193 36.3576 17.053 35.825 16.5196C35.2917 15.9871 35.0254 15.1668 35.0254 14.0589V9.65676C35.0254 8.54963 35.2917 7.73268 35.825 7.20591C36.3576 6.67997 37.1778 6.41699 38.2858 6.41699H41.5049C42.612 6.41699 43.429 6.67997 43.9558 7.20591C44.4817 7.73186 44.7447 8.54881 44.7447 9.65676V12.2321C44.7447 12.4679 44.6202 12.5849 44.3713 12.5849H37.4985V12.5841ZM38.8694 8.28583C38.3575 8.28583 38.0005 8.38311 37.8002 8.57684C37.5991 8.77056 37.4993 9.13081 37.4993 9.65676V10.7161H42.2757V9.65676C42.2757 9.13081 42.1784 8.77056 41.9847 8.57684C41.791 8.38311 41.4307 8.28583 40.9048 8.28583H38.8694Z" fill="white"/>
<path d="M49.854 12.5841V14.0795C49.854 14.5923 49.9545 14.9484 50.1549 15.1487C50.3552 15.3498 50.7121 15.4496 51.2241 15.4496H53.4251C54.1588 15.4496 54.5257 15.0893 54.5257 14.3697V13.9962C54.5257 13.7473 54.6501 13.6228 54.8991 13.6228H56.6641C56.899 13.6228 57.0169 13.7473 57.0169 13.9962V14.4117C57.0169 15.4224 56.7712 16.1594 56.2799 16.6235C55.7886 17.0876 54.9889 17.3193 53.881 17.3193H50.6412C49.5333 17.3193 48.713 17.053 48.1805 16.5196C47.6471 15.9871 47.3809 15.1668 47.3809 14.0589V9.65676C47.3809 8.54963 47.6471 7.73268 48.1805 7.20591C48.713 6.67997 49.5333 6.41699 50.6412 6.41699H53.8604C54.9675 6.41699 55.7845 6.67997 56.3112 7.20591C56.8372 7.73186 57.1002 8.54881 57.1002 9.65676V12.2321C57.1002 12.4679 56.9757 12.5849 56.7267 12.5849H49.854V12.5841ZM51.2241 8.28583C50.7121 8.28583 50.3552 8.38311 50.1549 8.57684C49.9537 8.77056 49.854 9.13081 49.854 9.65676V10.7161H54.6304V9.65676C54.6304 9.13081 54.5331 8.77056 54.3393 8.57684C54.1456 8.38311 53.7854 8.28583 53.2594 8.28583H51.2241Z" fill="white"/>
<path d="M62.9984 8.5346V13.7059C62.9984 14.2178 63.099 14.5747 63.2993 14.7751C63.4996 14.9762 63.8566 15.076 64.3685 15.076H65.6355C65.8845 15.076 66.009 15.2004 66.009 15.4494V16.8409C66.009 17.0899 65.8845 17.2144 65.6355 17.2144H63.7667C62.6587 17.2144 61.8426 16.9481 61.3167 16.4147C60.7907 15.8822 60.5277 15.0619 60.5277 13.954V8.53377H58.804C58.5682 8.53377 58.4512 8.41671 58.4512 8.18095V6.87267C58.4512 6.63773 58.5691 6.51984 58.804 6.51984H60.5277V4.8167C60.5277 4.58175 60.6456 4.46387 60.8806 4.46387H62.6249C62.8739 4.46387 62.9984 4.58175 62.9984 4.8167V6.51984H65.6355C65.8845 6.51984 66.009 6.63773 66.009 6.87267V8.18095C66.009 8.41671 65.8845 8.53377 65.6355 8.53377H62.9984V8.5346Z" fill="white"/>
<path d="M68.8539 17.2156C68.6049 17.2156 68.4805 17.0911 68.4805 16.8422V3.03154C68.4805 2.79659 68.6049 2.67871 68.8539 2.67871H70.5777C70.8266 2.67871 70.9511 2.79659 70.9511 3.03154V7.68345H71.0756C71.2141 7.36524 71.4869 7.07424 71.8958 6.81127C72.3039 6.5483 72.8546 6.41639 73.547 6.41639H74.8965C76.0036 6.41639 76.8206 6.67937 77.3465 7.20531C77.8725 7.73126 78.1355 8.54821 78.1355 9.65616V13.9552C78.1355 15.0632 77.8725 15.8834 77.3465 16.416C76.8206 16.9493 76.0036 17.2156 74.8965 17.2156H68.8539ZM74.2947 15.1803C74.8207 15.1803 75.1809 15.0797 75.3747 14.8794C75.5684 14.679 75.6657 14.3221 75.6657 13.8102V9.80207C75.6657 9.27613 75.5684 8.91588 75.3747 8.72215C75.1809 8.52843 74.8207 8.43115 74.2947 8.43115H72.322C71.8101 8.43115 71.4531 8.52843 71.2528 8.72215C71.0517 8.91588 70.9519 9.27613 70.9519 9.80207V15.1803H74.2947Z" fill="white"/>
<path d="M81.5023 17.2156C81.2534 17.2156 81.1289 17.0911 81.1289 16.8422V3.03154C81.1289 2.79659 81.2534 2.67871 81.5023 2.67871H83.2261C83.4751 2.67871 83.5995 2.79659 83.5995 3.03154V16.8414C83.5995 17.0903 83.4751 17.2148 83.2261 17.2148H81.5023V17.2156Z" fill="white"/>
<path d="M89.8502 17.3193C88.7423 17.3193 87.922 17.053 87.3895 16.5196C86.8561 15.9871 86.5898 15.1668 86.5898 14.0589V9.65676C86.5898 8.54963 86.8561 7.73268 87.3895 7.20591C87.922 6.67997 88.7423 6.41699 89.8502 6.41699H93.4016C94.5087 6.41699 95.3257 6.67997 95.8524 7.20591C96.3784 7.73186 96.6414 8.54881 96.6414 9.65676V14.0589C96.6414 15.1668 96.3784 15.9871 95.8524 16.5196C95.3265 17.053 94.5095 17.3193 93.4016 17.3193H89.8502ZM92.799 15.2427C93.3109 15.2427 93.6679 15.1421 93.8682 14.9418C94.0685 14.7415 94.1691 14.3779 94.1691 13.8511V9.86367C94.1691 9.33773 94.0718 8.97748 93.8781 8.78375C93.6844 8.59003 93.3241 8.49275 92.7982 8.49275H90.4306C89.9186 8.49275 89.5617 8.59003 89.3614 8.78375C89.1602 8.97748 89.0605 9.33773 89.0605 9.86367V13.8511C89.0605 14.3771 89.161 14.7406 89.3614 14.9418C89.5617 15.1429 89.9186 15.2427 90.4306 15.2427H92.799Z" fill="white"/>
<path d="M98.4886 17.2152C98.3641 17.2152 98.2669 17.188 98.1976 17.1319C98.1284 17.0767 98.0938 17.0074 98.0938 16.9242C98.0938 16.8277 98.121 16.7445 98.177 16.6752L101.604 11.6293L98.5101 7.04001C98.4548 6.97076 98.4268 6.88751 98.4268 6.79105C98.4268 6.70779 98.4581 6.64267 98.52 6.59403C98.5826 6.54539 98.6683 6.52148 98.7796 6.52148H100.545C100.683 6.52148 100.794 6.54209 100.877 6.58414C100.96 6.62536 101.036 6.70202 101.105 6.81248L101.915 8.0375L103.015 9.74064H103.16L104.261 8.0375L105.07 6.81248C105.14 6.70202 105.215 6.62536 105.299 6.58414C105.382 6.54292 105.492 6.52148 105.631 6.52148H107.417C107.637 6.52148 107.749 6.61134 107.749 6.79105C107.749 6.88833 107.721 6.97159 107.665 7.04001L104.572 11.6293L107.977 16.6752C108.032 16.7445 108.06 16.8277 108.06 16.9242C108.06 17.0074 108.029 17.0767 107.967 17.1319C107.905 17.1872 107.811 17.2152 107.687 17.2152H105.943C105.804 17.2152 105.694 17.1913 105.61 17.1426C105.527 17.094 105.451 17.0149 105.382 16.9036L104.343 15.3463L103.159 13.5187H103.014L101.831 15.3463L100.793 16.9036C100.723 17.0149 100.648 17.094 100.564 17.1426C100.481 17.1913 100.371 17.2152 100.232 17.2152H98.4886Z" fill="white"/>
<path d="M13.1383 0.833436V5.22155C13.1383 5.68154 12.7657 6.05499 12.3049 6.05499H9.85489C8.99672 6.05499 8.1707 6.35918 7.51945 6.9082C7.44114 6.97333 7.3653 7.0434 7.29275 7.11595L7.12458 7.28412C7.071 7.3377 7.01989 7.39293 6.97042 7.44899C6.3876 8.10848 6.06362 8.96088 6.06362 9.84625V12.2963C6.06362 12.7563 5.69101 13.1297 5.23018 13.1297H0.842072C0.381251 13.1297 0.0078125 12.7563 0.0078125 12.2963V7.90816C0.0078125 7.44817 0.381251 7.07473 0.842072 7.07473H3.45944C4.42065 7.07473 5.34147 6.69305 6.02075 6.01377C6.36039 5.67413 6.62666 5.27348 6.8072 4.83822C6.98774 4.40295 7.08254 3.93141 7.08254 3.4508V0.833436C7.08254 0.373439 7.45598 1.36223e-06 7.9168 1.36223e-06H12.3049C12.7657 -0.000823006 13.1383 0.372614 13.1383 0.833436Z" fill="white"/>
<path d="M13.1386 7.50719V13.1302H7.51891C7.21636 13.1302 6.9707 12.8845 6.9707 12.582V9.38922C6.99708 8.79073 7.23945 8.23264 7.66317 7.80644L7.80909 7.65887C8.25754 7.20794 8.85274 6.95898 9.48668 6.95898H12.5904C12.8938 6.95898 13.1386 7.20382 13.1386 7.50719Z" fill="white"/>
<path d="M6.17573 14.3775V20.0005H0.556017C0.253474 20.0005 0.0078125 19.7548 0.0078125 19.4523V16.2603C0.0341923 15.6618 0.276556 15.1037 0.700281 14.6775L0.846193 14.53C1.29465 14.079 1.88984 13.8301 2.52378 13.8301H5.62753C5.93007 13.8293 6.17573 14.0749 6.17573 14.3775Z" fill="white"/>
<path d="M3.09177 6.16792C4.79499 6.16792 6.17573 4.78718 6.17573 3.08396C6.17573 1.38073 4.79499 0 3.09177 0C1.38855 0 0.0078125 1.38073 0.0078125 3.08396C0.0078125 4.78718 1.38855 6.16792 3.09177 6.16792Z" fill="white"/>
<path d="M111.816 7.93218C110.551 7.93218 109.521 6.90337 109.521 5.63797C109.521 4.37256 110.55 3.34375 111.816 3.34375C113.08 3.34375 114.11 4.37256 114.11 5.63797C114.11 6.90337 113.081 7.93218 111.816 7.93218ZM111.816 3.5754C110.678 3.5754 109.753 4.50116 109.753 5.63797C109.753 6.7756 110.679 7.70053 111.816 7.70053C112.953 7.70053 113.878 6.77477 113.878 5.63797C113.879 4.50116 112.953 3.5754 111.816 3.5754Z" fill="white"/>
<path d="M110.714 5.10632H110.199V4.8623H111.517V5.10632H111.003V6.41542H110.714V5.10632H110.714Z" fill="white"/>
<path d="M113.161 6.41444L113.159 5.3848L112.649 6.23637H112.52L112.01 5.39799V6.41444H111.734V4.86133H111.972L112.588 5.89096L113.194 4.86133H113.432L113.434 6.41444H113.161Z" fill="white"/>
</svg>
