<svg width="16" height="18" viewBox="0 0 16 18" fill="none" xmlns="http://www.w3.org/2000/svg">
<path d="M0.931885 16.4643V2.38824C0.931885 1.91566 1.09784 1.5134 1.42976 1.18147C1.76169 0.849552 2.16407 0.683594 2.63688 0.683594H7.94409C8.41692 0.683594 8.81929 0.849552 9.15121 1.18147C9.48314 1.5134 9.64911 1.91576 9.64911 2.38854V8.78929H10.4895C10.9977 8.78929 11.4328 8.97025 11.7947 9.33217C12.1566 9.69409 12.3376 10.1292 12.3376 10.6374V15.036C12.3376 15.36 12.452 15.6364 12.6808 15.8653C12.9097 16.0941 13.1866 16.2085 13.5116 16.2085C13.8366 16.2085 14.1135 16.0941 14.3424 15.8653C14.5712 15.6364 14.6857 15.3595 14.6857 15.0345V8.12777C14.5357 8.21752 14.3773 8.2797 14.2107 8.31432C14.044 8.34894 13.869 8.36624 13.6857 8.36624C13.1001 8.36624 12.6051 8.16079 12.2008 7.74989C11.7965 7.33899 11.5943 6.84049 11.5943 6.25437C11.5943 5.77832 11.7307 5.35248 12.0035 4.97684C12.2762 4.60121 12.6405 4.35409 13.0963 4.23549L11.2414 2.38067C11.1318 2.26817 11.0754 2.13639 11.0722 1.98532C11.069 1.83425 11.1263 1.69908 11.2443 1.57979C11.3533 1.47078 11.484 1.41499 11.6366 1.41242C11.7892 1.40985 11.9235 1.46402 12.0395 1.57492L15.1203 4.62089C15.3395 4.84089 15.5071 5.09271 15.6231 5.37634C15.7392 5.65998 15.7972 5.95239 15.7972 6.25359V15.0141C15.7972 15.6563 15.577 16.2011 15.1367 16.6487C14.6964 17.0963 14.1553 17.32 13.5135 17.32C12.8717 17.32 12.33 17.0972 11.8884 16.6514C11.4468 16.2056 11.226 15.6599 11.226 15.0143V10.2085C11.226 10.1188 11.1972 10.0451 11.1395 9.98737C11.0818 9.92967 11.0081 9.90082 10.9183 9.90082H9.64911V16.4643C9.64911 16.7018 9.5661 16.9038 9.40009 17.0703C9.23409 17.2368 9.03472 17.32 8.80199 17.32H1.78361C1.54719 17.32 1.34613 17.2368 1.18043 17.0703C1.01473 16.9038 0.931885 16.7018 0.931885 16.4643ZM2.33088 7.31242H8.25011V2.39029C8.25011 2.31338 8.21806 2.24286 8.15396 2.17874C8.08984 2.11464 8.01932 2.08259 7.94239 2.08259H2.63858C2.56167 2.08259 2.49115 2.11464 2.42703 2.17874C2.36293 2.24286 2.33088 2.31338 2.33088 2.39029V7.31242ZM13.6931 7.25472C13.9715 7.25472 14.2065 7.15889 14.3982 6.96722C14.5898 6.77555 14.6857 6.53893 14.6857 6.25737C14.6857 5.9822 14.5898 5.74967 14.3982 5.55977C14.2065 5.36987 13.9715 5.27492 13.6931 5.27492C13.4147 5.27492 13.1806 5.36987 12.9907 5.55977C12.8008 5.74967 12.7059 5.9822 12.7059 6.25737C12.7059 6.53893 12.8005 6.77555 12.9897 6.96722C13.1789 7.15889 13.4134 7.25472 13.6931 7.25472Z" fill="#2D65F2"/>
</svg>
