<svg width="24" height="24" viewBox="0 0 24 24" fill="none" xmlns="http://www.w3.org/2000/svg">
<path d="M8.0383 10.8442C8.27891 10.8442 8.48336 10.7605 8.65162 10.5931C8.81989 10.4257 8.90402 10.2217 8.90402 9.98111C8.90402 9.7405 8.82032 9.53605 8.65292 9.36779C8.48554 9.19952 8.28154 9.11539 8.04092 9.11539C7.80031 9.11539 7.59586 9.19908 7.4276 9.36646C7.25933 9.53386 7.1752 9.73787 7.1752 9.97849C7.1752 10.2191 7.25889 10.4235 7.42627 10.5918C7.59367 10.7601 7.79768 10.8442 8.0383 10.8442ZM12.009 10.8442C12.2473 10.8442 12.4515 10.7605 12.6213 10.5931C12.7912 10.4257 12.8761 10.2217 12.8761 9.98111C12.8761 9.7405 12.7918 9.53605 12.6231 9.36779C12.4544 9.19952 12.2504 9.11539 12.0111 9.11539C11.7718 9.11539 11.568 9.19908 11.3997 9.36646C11.2314 9.53386 11.1473 9.73787 11.1473 9.97849C11.1473 10.2191 11.2313 10.4235 11.3994 10.5918C11.5674 10.7601 11.7706 10.8442 12.009 10.8442ZM15.9575 10.8442C16.1981 10.8442 16.4026 10.7605 16.5708 10.5931C16.7391 10.4257 16.8232 10.2217 16.8232 9.98111C16.8232 9.7405 16.7396 9.53605 16.5722 9.36779C16.4048 9.19952 16.2008 9.11539 15.9601 9.11539C15.7195 9.11539 15.5151 9.19908 15.3468 9.36646C15.1786 9.53386 15.0944 9.73787 15.0944 9.97849C15.0944 10.2191 15.1781 10.4235 15.3455 10.5918C15.5129 10.7601 15.7169 10.8442 15.9575 10.8442ZM6.1166 17.3182L4.15695 19.2797C3.88578 19.5509 3.57536 19.6142 3.2257 19.4696C2.87601 19.3249 2.70117 19.0617 2.70117 18.6797L2.70117 4.38681C2.70117 3.91396 2.86714 3.51157 3.19907 3.17964C3.53101 2.84772 3.93325 2.68176 4.4058 2.68176L19.5926 2.68176C20.0652 2.68176 20.4674 2.84772 20.7994 3.17964C21.1313 3.51157 21.2973 3.91388 21.2973 4.38656V15.6134C21.2973 16.0861 21.1313 16.4884 20.7994 16.8203C20.4674 17.1523 20.0652 17.3182 19.5926 17.3182H6.1166Z" fill="#999999"/>
</svg>
