<svg width="100" height="22" viewBox="0 0 100 22" fill="none" xmlns="http://www.w3.org/2000/svg">
<path d="M1.93226 9.77659C1.93226 9.55127 1.94274 9.3312 1.9637 9.11636C1.98466 8.90152 2.03444 8.71026 2.11304 8.54259C2.19688 8.36967 2.3174 8.23081 2.4746 8.12601C2.63179 8.02121 2.84925 7.96881 3.12697 7.96881C3.42564 7.96881 3.65882 8.02121 3.8265 8.12601C3.99417 8.23081 4.11731 8.36967 4.19591 8.54259C4.27451 8.71026 4.32167 8.90152 4.33739 9.11636C4.35835 9.3312 4.36883 9.55127 4.36883 9.77659V16.6618H5.90937C6.1242 16.6618 6.33642 16.6723 6.54602 16.6933C6.75561 16.7142 6.94163 16.764 7.10407 16.8426C7.27175 16.9212 7.40536 17.0365 7.50492 17.1885C7.60448 17.3404 7.65426 17.5474 7.65426 17.8094C7.65426 18.0766 7.60448 18.2888 7.50492 18.446C7.40536 18.598 7.27175 18.7133 7.10407 18.7919C6.94163 18.8705 6.75561 18.9203 6.54602 18.9412C6.33642 18.9622 6.1242 18.9727 5.90937 18.9727H3.67716C3.39944 18.9727 3.15317 18.9622 2.93833 18.9412C2.72349 18.9203 2.54009 18.8705 2.38814 18.7919C2.24142 18.7133 2.12876 18.598 2.05016 18.446C1.97156 18.2888 1.93226 18.0766 1.93226 17.8094V9.77659ZM13.502 7.96881C13.7116 7.96881 13.9238 7.97667 14.1387 7.99239C14.3535 8.00811 14.5474 8.05265 14.7203 8.12601C14.8932 8.19937 15.0347 8.31203 15.1447 8.46399C15.2548 8.61071 15.3098 8.81768 15.3098 9.08492C15.3098 9.35216 15.2548 9.56175 15.1447 9.71371C15.0347 9.86043 14.8932 9.97047 14.7203 10.0438C14.5474 10.1172 14.3535 10.1617 14.1387 10.1774C13.9238 10.1932 13.7116 10.201 13.502 10.201H11.6314V12.3389H12.6217C12.8313 12.3389 13.0409 12.3468 13.2505 12.3625C13.4653 12.373 13.654 12.4149 13.8164 12.4882C13.9841 12.5564 14.1203 12.6638 14.2251 12.8105C14.3299 12.952 14.3823 13.1511 14.3823 13.4079C14.3823 13.6699 14.3299 13.8716 14.2251 14.0131C14.1203 14.1545 13.9841 14.262 13.8164 14.3353C13.654 14.4034 13.4653 14.4454 13.2505 14.4611C13.0409 14.4716 12.8313 14.4768 12.6217 14.4768H11.6314V16.7404H13.502C13.7116 16.7404 13.9238 16.7483 14.1387 16.764C14.3535 16.7797 14.5474 16.8243 14.7203 16.8976C14.8932 16.9658 15.0347 17.0758 15.1447 17.2278C15.2548 17.3745 15.3098 17.5788 15.3098 17.8408C15.3098 18.1133 15.2522 18.3255 15.1369 18.4775C15.0268 18.6294 14.8854 18.7421 14.7124 18.8155C14.5395 18.8888 14.3456 18.9334 14.1308 18.9491C13.916 18.9648 13.7064 18.9727 13.502 18.9727H10.4209C10.1275 18.9727 9.89957 18.9203 9.73713 18.8155C9.57993 18.7107 9.46465 18.5744 9.3913 18.4067C9.31794 18.2338 9.2734 18.0399 9.25768 17.8251C9.2472 17.6103 9.24196 17.3902 9.24196 17.1649V9.77659C9.24196 9.55127 9.2472 9.3312 9.25768 9.11636C9.2734 8.90152 9.31794 8.71026 9.3913 8.54259C9.46465 8.36967 9.57993 8.23081 9.73713 8.12601C9.89957 8.02121 10.1275 7.96881 10.4209 7.96881H13.502ZM18.9882 14.2253H21.4877L20.3244 10.0124H20.1515L18.9882 14.2253ZM23.9242 14.9956C23.9347 15.3519 23.9478 15.716 23.9635 16.0881C23.9792 16.4601 23.9871 16.819 23.9871 17.1649V17.4007C23.9871 17.5998 23.9792 17.7937 23.9635 17.9823C23.953 18.1657 23.9137 18.3334 23.8456 18.4853C23.7775 18.6321 23.6701 18.75 23.5234 18.839C23.3767 18.9281 23.1697 18.9727 22.9024 18.9727C22.63 18.9727 22.4204 18.9281 22.2737 18.839C22.1269 18.75 22.0169 18.6321 21.9435 18.4853C21.8754 18.3386 21.8335 18.1709 21.8178 17.9823C21.8073 17.7937 21.8021 17.5998 21.8021 17.4007V16.3003H18.6581V17.4007C18.6581 17.5998 18.6502 17.7937 18.6345 17.9823C18.624 18.1709 18.5821 18.3386 18.5088 18.4853C18.4406 18.6321 18.3332 18.75 18.1865 18.839C18.0398 18.9281 17.8302 18.9727 17.5577 18.9727C17.2852 18.9727 17.0756 18.9281 16.9289 18.839C16.7822 18.75 16.6748 18.6321 16.6067 18.4853C16.5386 18.3334 16.4993 18.1657 16.4888 17.9823C16.4783 17.7937 16.4731 17.5998 16.4731 17.4007V17.1649C16.4731 17.0024 16.4731 16.8295 16.4731 16.6461C16.4783 16.4627 16.4835 16.2767 16.4888 16.0881C16.494 15.8994 16.4993 15.7134 16.5045 15.53C16.5097 15.3414 16.515 15.1632 16.5202 14.9956C16.7822 14.0838 17.0573 13.1616 17.3455 12.2289C17.6337 11.2909 17.9088 10.3635 18.1708 9.44647C18.2232 9.2526 18.2861 9.06658 18.3594 8.88842C18.4328 8.70502 18.5297 8.54783 18.6502 8.41683C18.7708 8.28059 18.9253 8.17317 19.114 8.09457C19.3026 8.01073 19.5436 7.96881 19.8371 7.96881H20.6231C20.9113 7.96881 21.1497 8.01073 21.3383 8.09457C21.5322 8.17317 21.6894 8.28059 21.8099 8.41683C21.9304 8.54783 22.0248 8.70502 22.0929 8.88842C22.1662 9.06658 22.2317 9.2526 22.2894 9.44647L23.9242 14.9956ZM29.096 7.96881C29.5729 7.96881 30.0156 8.02907 30.4244 8.14959C30.8383 8.27011 31.1972 8.45089 31.5012 8.69192C31.8103 8.92772 32.0513 9.22378 32.2243 9.58009C32.4024 9.93641 32.4915 10.353 32.4915 10.8298V15.7029C32.4915 16.1117 32.447 16.4732 32.3579 16.7876C32.2688 17.0968 32.1509 17.3666 32.0042 17.5972C31.8627 17.8225 31.7003 18.0164 31.5169 18.1788C31.3335 18.336 31.1475 18.4644 30.9588 18.5639C30.5082 18.805 29.9973 18.9412 29.4261 18.9727H26.8167C26.518 18.9727 26.2874 18.9229 26.125 18.8233C25.9626 18.7185 25.8447 18.5823 25.7713 18.4146C25.6979 18.2417 25.6534 18.0478 25.6377 17.833C25.6272 17.6181 25.622 17.3954 25.622 17.1649V9.76087C25.622 9.53555 25.6272 9.31548 25.6377 9.10064C25.6534 8.8858 25.6979 8.69454 25.7713 8.52687C25.8447 8.35919 25.9626 8.22557 26.125 8.12601C26.2874 8.02121 26.518 7.96881 26.8167 7.96881H29.096ZM28.0114 9.80803V17.102H29.0332C29.2585 17.0915 29.4602 17.0391 29.6384 16.9448C29.7117 16.9081 29.7851 16.8583 29.8584 16.7955C29.9318 16.7326 29.9973 16.6592 30.0549 16.5754C30.1126 16.4863 30.1571 16.3815 30.1886 16.261C30.2252 16.1405 30.2436 16.0016 30.2436 15.8444V11.2071C30.2436 11.0342 30.2252 10.8822 30.1886 10.7512C30.1571 10.615 30.1126 10.4971 30.0549 10.3975C29.9973 10.298 29.9318 10.2141 29.8584 10.146C29.7851 10.0779 29.7117 10.0229 29.6384 9.98095C29.4602 9.88139 29.2585 9.82375 29.0332 9.80803H28.0114Z" fill="#303030"/>
<path d="M49.0606 0.945316C46.9785 0.945316 44.9431 1.56274 43.2119 2.71951C41.4807 3.87628 40.1314 5.52043 39.3346 7.44407C38.5378 9.3677 38.3293 11.4844 38.7355 13.5265C39.1417 15.5687 40.1443 17.4445 41.6166 18.9168C43.0889 20.389 44.9647 21.3917 47.0068 21.7979C49.049 22.2041 51.1657 21.9956 53.0893 21.1988C55.0129 20.402 56.6571 19.0527 57.8139 17.3215C58.9706 15.5902 59.5881 13.5549 59.5881 11.4727C59.5892 10.0899 59.3177 8.72046 58.7891 7.44268C58.2605 6.1649 57.4851 5.00391 56.5073 4.02611C55.5295 3.04832 54.3685 2.27292 53.0907 1.74428C51.8129 1.21564 50.4434 0.944143 49.0606 0.945316ZM49.0606 20.7601C47.2231 20.7601 45.4268 20.2152 43.8989 19.1943C42.371 18.1734 41.1802 16.7223 40.477 15.0246C39.7738 13.327 39.5898 11.4589 39.9483 9.6566C40.3067 7.85435 41.1916 6.19887 42.491 4.89951C43.7903 3.60016 45.4458 2.71529 47.2481 2.3568C49.0503 1.9983 50.9184 2.1823 52.6161 2.8855C54.3138 3.58871 55.7648 4.77954 56.7857 6.30742C57.8066 7.8353 58.3515 9.6316 58.3515 11.4692C58.3492 13.9325 57.3696 16.2943 55.6277 18.0362C53.8858 19.7781 51.524 20.7577 49.0606 20.7601Z" fill="#2D65F2"/>
<path d="M56.9113 9.65133C56.5702 8.17425 55.8194 6.82334 54.7451 5.75378C53.6708 4.68422 52.3166 3.9394 50.838 3.60488C49.3594 3.27037 47.8165 3.35972 46.3864 3.86269C44.9563 4.36565 43.6971 5.26182 42.7535 6.44825C41.8098 7.63468 41.22 9.06323 41.0517 10.5698C40.8835 12.0764 41.1436 13.5999 41.8023 14.9652C42.4609 16.3306 43.4914 17.4825 44.7753 18.2886C46.0591 19.0947 47.5444 19.5222 49.0603 19.5221C54.3097 19.5221 58.1121 14.5475 56.9113 9.65133ZM49.0603 4.64635C50.4264 4.64771 51.7607 5.05848 52.8911 5.82562C54.0215 6.59276 54.896 7.68108 55.4017 8.9501C51.7403 8.20247 46.4284 8.19355 42.7189 8.9501C43.2246 7.68108 44.0991 6.59276 45.2295 5.82562C46.3599 5.05848 47.6942 4.64771 49.0603 4.64635ZM42.7171 13.9908C43.3309 14.1097 43.9952 14.2156 44.7102 14.3084C45.0595 14.3499 45.3814 14.5182 45.6149 14.7813C45.8485 15.0444 45.9773 15.384 45.977 15.7358V17.5594C44.4938 16.8043 43.3353 15.5361 42.7171 13.9908ZM47.21 18.0412V15.734C47.2091 15.081 46.9696 14.4508 46.5365 13.9622C46.1033 13.4735 45.5064 13.16 44.8583 13.0808C44.01 12.9835 43.1682 12.8369 42.337 12.6418C42.2023 11.8667 42.2023 11.0742 42.337 10.299C46.0734 9.39439 52.0526 9.39439 55.7836 10.299C55.9183 11.0742 55.9183 11.8667 55.7836 12.6418C54.9524 12.8369 54.1106 12.9835 53.2623 13.0808C52.6142 13.16 52.0173 13.4735 51.5842 13.9622C51.151 14.4508 50.9115 15.081 50.9106 15.734V18.0394C49.7006 18.3802 48.42 18.3802 47.21 18.0394V18.0412ZM52.1436 17.5594V15.734C52.1437 15.3824 52.2727 15.0429 52.5061 14.7799C52.7395 14.5169 53.0613 14.3485 53.4104 14.3066C54.1242 14.2186 54.7885 14.1127 55.4035 13.989C54.7853 15.5343 53.6269 16.8025 52.1436 17.5576V17.5594Z" fill="#2D65F2"/>
<path d="M50.9096 12.0867C50.9096 11.7207 50.8011 11.363 50.5978 11.0587C50.3945 10.7544 50.1055 10.5172 49.7674 10.3772C49.4293 10.2371 49.0573 10.2005 48.6983 10.2719C48.3394 10.3433 48.0097 10.5195 47.7509 10.7783C47.4922 11.037 47.3159 11.3667 47.2445 11.7257C47.1731 12.0846 47.2098 12.4566 47.3498 12.7947C47.4899 13.1329 47.727 13.4218 48.0313 13.6252C48.3356 13.8285 48.6934 13.937 49.0593 13.937C49.5499 13.9365 50.0203 13.7414 50.3672 13.3945C50.7141 13.0476 50.9092 12.5773 50.9096 12.0867ZM49.0593 12.704C48.9372 12.704 48.8178 12.6678 48.7163 12.6C48.6148 12.5321 48.5357 12.4357 48.4889 12.3229C48.4422 12.2101 48.43 12.086 48.4538 11.9662C48.4776 11.8465 48.5364 11.7365 48.6228 11.6501C48.7091 11.5638 48.8191 11.505 48.9389 11.4811C49.0586 11.4573 49.1828 11.4696 49.2956 11.5163C49.4084 11.563 49.5048 11.6421 49.5726 11.7437C49.6405 11.8452 49.6767 11.9646 49.6767 12.0867C49.6762 12.2502 49.611 12.407 49.4953 12.5227C49.3797 12.6384 49.2229 12.7036 49.0593 12.704Z" fill="#2D65F2"/>
<path d="M67.6847 14.5212H70.1841L69.0209 10.3083H68.8479L67.6847 14.5212ZM72.6207 15.2915C72.6312 15.6478 72.6443 16.0119 72.66 16.384C72.6757 16.756 72.6836 17.1149 72.6836 17.4608V17.6966C72.6836 17.8957 72.6757 18.0896 72.66 18.2782C72.6495 18.4616 72.6102 18.6293 72.5421 18.7812C72.474 18.928 72.3666 19.0459 72.2198 19.1349C72.0731 19.224 71.8661 19.2686 71.5989 19.2686C71.3264 19.2686 71.1168 19.224 70.9701 19.1349C70.8234 19.0459 70.7134 18.928 70.64 18.7812C70.5719 18.6345 70.53 18.4668 70.5142 18.2782C70.5038 18.0896 70.4985 17.8957 70.4985 17.6966V16.5962H67.3546V17.6966C67.3546 17.8957 67.3467 18.0896 67.331 18.2782C67.3205 18.4668 67.2786 18.6345 67.2052 18.7812C67.1371 18.928 67.0297 19.0459 66.883 19.1349C66.7363 19.224 66.5267 19.2686 66.2542 19.2686C65.9817 19.2686 65.7721 19.224 65.6254 19.1349C65.4787 19.0459 65.3713 18.928 65.3031 18.7812C65.235 18.6293 65.1957 18.4616 65.1852 18.2782C65.1748 18.0896 65.1695 17.8957 65.1695 17.6966V17.4608C65.1695 17.2983 65.1695 17.1254 65.1695 16.942C65.1748 16.7586 65.18 16.5726 65.1852 16.384C65.1905 16.1953 65.1957 16.0093 65.201 15.8259C65.2062 15.6373 65.2114 15.4591 65.2167 15.2915C65.4787 14.3797 65.7538 13.4575 66.042 12.5248C66.3302 11.5868 66.6053 10.6594 66.8673 9.74237C66.9197 9.54849 66.9825 9.36248 67.0559 9.18432C67.1293 9.00092 67.2262 8.84373 67.3467 8.71273C67.4672 8.57649 67.6218 8.46907 67.8104 8.39047C67.9991 8.30663 68.2401 8.26471 68.5336 8.26471H69.3195C69.6077 8.26471 69.8462 8.30663 70.0348 8.39047C70.2287 8.46907 70.3859 8.57649 70.5064 8.71273C70.6269 8.84373 70.7212 9.00092 70.7893 9.18432C70.8627 9.36248 70.9282 9.54849 70.9858 9.74237L72.6207 15.2915ZM74.3813 10.0568C74.3813 9.83145 74.3918 9.61137 74.4127 9.39654C74.4389 9.1817 74.494 8.99044 74.5778 8.82277C74.6669 8.65509 74.7979 8.52147 74.9708 8.42191C75.1437 8.31711 75.3821 8.26471 75.6861 8.26471C75.99 8.26471 76.2284 8.31711 76.4013 8.42191C76.5795 8.52147 76.7105 8.65509 76.7943 8.82277C76.8834 8.99044 76.9384 9.1817 76.9594 9.39654C76.9803 9.61137 76.9908 9.83145 76.9908 10.0568V16.2504C77.0065 16.4809 77.0537 16.6853 77.1323 16.8634C77.1637 16.942 77.2056 17.018 77.258 17.0914C77.3104 17.1647 77.3707 17.2302 77.4388 17.2879C77.5122 17.3455 77.596 17.3927 77.6903 17.4293C77.7899 17.4608 77.9025 17.4765 78.0283 17.4765C78.1541 17.4765 78.2667 17.4608 78.3663 17.4293C78.4658 17.3927 78.5497 17.3455 78.6178 17.2879C78.6911 17.2302 78.754 17.1647 78.8064 17.0914C78.8588 17.018 78.9007 16.942 78.9322 16.8634C79.0108 16.6853 79.0553 16.4809 79.0658 16.2504V10.0568C79.0658 9.83145 79.0763 9.61137 79.0972 9.39654C79.1182 9.1817 79.1706 8.99044 79.2544 8.82277C79.3435 8.65509 79.4745 8.52147 79.6474 8.42191C79.8204 8.31711 80.0614 8.26471 80.3705 8.26471C80.6745 8.26471 80.9129 8.31711 81.0858 8.42191C81.2587 8.52147 81.3871 8.65509 81.4709 8.82277C81.56 8.99044 81.615 9.1817 81.636 9.39654C81.6622 9.61137 81.6753 9.83145 81.6753 10.0568V16.046C81.6753 16.591 81.5862 17.0678 81.408 17.4765C81.2351 17.8852 80.9862 18.2284 80.6614 18.5061C80.3417 18.7786 79.9566 18.9856 79.506 19.1271C79.0606 19.2633 78.568 19.3314 78.0283 19.3314C77.4833 19.3314 76.9882 19.2607 76.5428 19.1192C76.0974 18.9725 75.7123 18.7603 75.3874 18.4826C75.0677 18.2049 74.8188 17.8616 74.6407 17.4529C74.4678 17.0442 74.3813 16.5752 74.3813 16.046V10.0568ZM88.6234 8.26471C88.833 8.26471 89.0426 8.27257 89.2522 8.28829C89.4671 8.30401 89.6609 8.34855 89.8338 8.42191C90.0068 8.49527 90.1456 8.60793 90.2504 8.75989C90.3605 8.9066 90.4155 9.11358 90.4155 9.38082C90.4155 9.64281 90.3605 9.84979 90.2504 10.0017C90.1456 10.1485 90.0068 10.2585 89.8338 10.3319C89.6609 10.4052 89.4671 10.4524 89.2522 10.4733C89.0426 10.4891 88.833 10.4969 88.6234 10.4969H87.8217V17.4765C87.8217 17.7018 87.8139 17.9219 87.7981 18.1367C87.7877 18.3516 87.7457 18.5428 87.6724 18.7105C87.599 18.8782 87.4811 19.0144 87.3187 19.1192C87.1562 19.2188 86.9257 19.2686 86.627 19.2686C86.3283 19.2686 86.0978 19.2188 85.9353 19.1192C85.7729 19.0144 85.655 18.8782 85.5816 18.7105C85.5083 18.5428 85.4637 18.3516 85.448 18.1367C85.4376 17.9219 85.4323 17.7018 85.4323 17.4765V10.4969H84.6306C84.421 10.4969 84.2088 10.4891 83.994 10.4733C83.7844 10.4524 83.5931 10.4052 83.4202 10.3319C83.2473 10.2585 83.1058 10.1485 82.9957 10.0017C82.8909 9.84979 82.8385 9.64281 82.8385 9.38082C82.8385 9.11358 82.8909 8.9066 82.9957 8.75989C83.1058 8.60793 83.2473 8.49527 83.4202 8.42191C83.5931 8.34855 83.7844 8.30401 83.994 8.28829C84.2088 8.27257 84.421 8.26471 84.6306 8.26471H88.6234ZM91.2958 11.3772C91.2958 10.8742 91.3691 10.4471 91.5159 10.0961C91.6626 9.73975 91.8486 9.4437 92.0739 9.2079C92.3045 8.9721 92.556 8.78871 92.8285 8.65771C93.1062 8.52147 93.3734 8.41929 93.6302 8.35117C93.8922 8.28305 94.128 8.24113 94.3376 8.22541C94.5472 8.20969 94.7017 8.20183 94.8013 8.20183H95.0685C95.1681 8.20183 95.3227 8.20969 95.5323 8.22541C95.7419 8.24113 95.975 8.28305 96.2318 8.35117C96.4886 8.41929 96.7532 8.52147 97.0256 8.65771C97.3034 8.78871 97.5523 8.9721 97.7723 9.2079C97.9976 9.4437 98.181 9.73975 98.3225 10.0961C98.4692 10.4471 98.5426 10.8742 98.5426 11.3772V16.0774C98.5426 16.5962 98.4692 17.0363 98.3225 17.3979C98.181 17.7595 97.9976 18.0608 97.7723 18.3018C97.5523 18.5428 97.3034 18.7341 97.0256 18.8756C96.7532 19.0118 96.4886 19.114 96.2318 19.1821C95.975 19.2502 95.7419 19.2921 95.5323 19.3079C95.3227 19.3236 95.1681 19.3314 95.0685 19.3314H94.8013C94.7017 19.3314 94.5472 19.3236 94.3376 19.3079C94.128 19.2921 93.8922 19.2502 93.6302 19.1821C93.3734 19.114 93.1062 19.0118 92.8285 18.8756C92.556 18.7341 92.3045 18.5428 92.0739 18.3018C91.8486 18.0608 91.6626 17.7595 91.5159 17.3979C91.3691 17.0363 91.2958 16.5962 91.2958 16.0774V11.3772ZM93.9053 16.3761C93.9157 16.57 93.9603 16.7403 94.0389 16.887C94.107 17.018 94.2092 17.1359 94.3454 17.2407C94.4869 17.3455 94.686 17.3979 94.9428 17.3979C95.1943 17.3979 95.3882 17.3455 95.5244 17.2407C95.6606 17.1359 95.7628 17.018 95.8309 16.887C95.9043 16.7403 95.9488 16.57 95.9646 16.3761V11.2515C95.9488 11.0628 95.9043 10.8925 95.8309 10.7406C95.7628 10.6148 95.6606 10.4995 95.5244 10.3947C95.3882 10.2847 95.1943 10.2297 94.9428 10.2297C94.686 10.2297 94.4869 10.2847 94.3454 10.3947C94.2092 10.4995 94.107 10.6148 94.0389 10.7406C93.9603 10.8925 93.9157 11.0628 93.9053 11.2515V16.3761Z" fill="#6F6464"/>
</svg>
