<svg width="24" height="24" viewBox="0 0 24 24" fill="none" xmlns="http://www.w3.org/2000/svg">
<path d="M12.0004 20.7599C11.8107 20.7599 11.6243 20.7283 11.4411 20.6652C11.258 20.6021 11.0935 20.5025 10.9475 20.3667C10.2283 19.7064 9.49629 18.9739 8.75142 18.1691C8.00656 17.3643 7.3314 16.5253 6.72595 15.6523C6.1205 14.7792 5.62386 13.8856 5.23602 12.9715C4.84821 12.0574 4.6543 11.1593 4.6543 10.2773C4.6543 8.02856 5.38186 6.20533 6.83697 4.80756C8.29209 3.40981 10.0132 2.71094 12.0004 2.71094C13.9876 2.71094 15.7088 3.40981 17.1639 4.80756C18.619 6.20533 19.3465 8.02856 19.3465 10.2773C19.3465 11.1593 19.1534 12.0558 18.7672 12.9667C18.381 13.8776 17.8852 14.7704 17.2797 15.645C16.6743 16.5197 16.0007 17.3587 15.259 18.1619C14.5174 18.9651 13.7853 19.6968 13.0629 20.357C12.9193 20.4929 12.7544 20.5941 12.5684 20.6604C12.3824 20.7267 12.1931 20.7599 12.0004 20.7599ZM12.0033 11.8138C12.4866 11.8138 12.9003 11.6417 13.2442 11.2975C13.5881 10.9533 13.76 10.5395 13.76 10.0561C13.76 9.57279 13.5876 9.15915 13.2427 8.81524C12.8978 8.47134 12.4833 8.29939 11.999 8.29939C11.5147 8.29939 11.1014 8.47182 10.7591 8.81669C10.4168 9.16156 10.2456 9.57614 10.2456 10.0604C10.2456 10.5447 10.4177 10.958 10.7619 11.3003C11.1061 11.6426 11.5199 11.8138 12.0033 11.8138Z" fill="#999999"/>
</svg>
