<svg width="24" height="24" viewBox="0 0 24 24" fill="none" xmlns="http://www.w3.org/2000/svg">
<g clip-path="url(#clip0_2070_27371)">
<path d="M8.393 2.67188C7.883 3.17387 7.423 3.76187 7.026 4.40287C5.795 6.38287 5 9.06888 5 12.0029C5 14.9479 5.847 17.6349 7.1 19.6089C7.50406 20.2538 7.98269 20.8489 8.526 21.3819C6.61066 20.6717 4.95863 19.3922 3.79199 17.7153C2.62534 16.0385 1.99999 14.0446 2 12.0019C2 7.75187 4.653 4.11888 8.393 2.67188ZM11 3.23787V20.7369C10.29 20.3829 9.505 19.6669 8.788 18.5369C7.745 16.8939 7 14.5799 7 12.0019C7 9.41187 7.705 7.09787 8.724 5.45887C9.385 4.39587 10.121 3.69488 10.824 3.32387L11 3.23787ZM15.607 2.67188C17.4895 3.40049 19.1075 4.68155 20.2485 6.34673C21.3895 8.0119 22.0001 9.98329 22 12.0019C22 16.2529 19.347 19.8849 15.607 21.3319C16.117 20.8299 16.577 20.2419 16.974 19.6019C18.205 17.6199 19 14.9339 19 12.0019C19 9.06987 18.205 6.38287 16.974 4.40287C16.588 3.77443 16.1291 3.19275 15.607 2.67188ZM13 3.23787C13.755 3.58087 14.56 4.30787 15.276 5.45887C16.295 7.09887 17 9.41288 17 12.0019C17 14.5919 16.295 16.9059 15.276 18.5449C14.615 19.6079 13.879 20.3089 13.176 20.6809L13 20.7669V3.23687V3.23787Z" fill="#2D65F2"/>
</g>
<defs>
<clipPath id="clip0_2070_27371">
<rect width="24" height="24" fill="white"/>
</clipPath>
</defs>
</svg>
