<svg width="20" height="20" viewBox="0 0 20 20" fill="none" xmlns="http://www.w3.org/2000/svg">
<path d="M2.67108 19.2992C2.19371 19.2992 1.78992 19.1341 1.45971 18.8039C1.12947 18.4737 0.964355 18.0699 0.964355 17.5925V2.40762C0.964355 1.93516 1.12947 1.53296 1.45971 1.20103C1.78992 0.869092 2.19371 0.703125 2.67108 0.703125H17.856C18.3284 0.703125 18.7306 0.869092 19.0626 1.20103C19.3945 1.53296 19.5605 1.93516 19.5605 2.40762V17.5925C19.5605 18.0699 19.3945 18.4737 19.0626 18.8039C18.7306 19.1341 18.3284 19.2992 17.856 19.2992H2.67108ZM7.07271 11.8454C6.83634 11.8454 6.63611 11.7642 6.47201 11.6019C6.30791 11.4395 6.22586 11.2402 6.22586 11.0038C6.22586 10.7674 6.30703 10.5672 6.46938 10.4031C6.63173 10.239 6.83029 10.1569 7.06506 10.1569C7.29982 10.1569 7.50006 10.2381 7.66576 10.4005C7.83146 10.5628 7.91431 10.7622 7.91431 10.9985C7.91431 11.2349 7.83221 11.4352 7.66803 11.5992C7.50383 11.7634 7.30539 11.8454 7.07271 11.8454ZM13.4574 11.8454C13.221 11.8454 13.0208 11.7642 12.8567 11.6019C12.6926 11.4395 12.6105 11.2402 12.6105 11.0038C12.6105 10.7674 12.6917 10.5672 12.854 10.4031C13.0164 10.239 13.2149 10.1569 13.4497 10.1569C13.6844 10.1569 13.8847 10.2381 14.0504 10.4005C14.2161 10.5628 14.299 10.7622 14.299 10.9985C14.299 11.2349 14.2169 11.4352 14.0527 11.5992C13.8885 11.7634 13.69 11.8454 13.4574 11.8454ZM4.62108 15.8598C4.8153 15.8598 4.98084 15.7914 5.11771 15.6545C5.25456 15.5176 5.32298 15.3521 5.32298 15.1579V13.88H15.2018V15.1579C15.2018 15.3521 15.2695 15.5176 15.4047 15.6545C15.54 15.7914 15.7047 15.8598 15.8989 15.8598C16.0931 15.8598 16.2587 15.7914 16.3956 15.6545C16.5324 15.5176 16.6008 15.3521 16.6008 15.1579V9.50295C16.6008 9.4053 16.5933 9.30944 16.5782 9.21537C16.5632 9.12129 16.5406 9.03034 16.5105 8.94252L15.2451 5.30505C15.1246 4.9653 14.9199 4.68998 14.6311 4.4791C14.3423 4.2682 14.0122 4.16275 13.6406 4.16275H6.87938C6.50781 4.16275 6.17765 4.2682 5.88888 4.4791C5.6001 4.68998 5.39545 4.9653 5.27493 5.30505L4.01436 8.94218C3.98102 9.03023 3.95763 9.12101 3.94418 9.21453C3.93071 9.30803 3.92398 9.4039 3.92398 9.50215V15.1579C3.92398 15.3521 3.99161 15.5176 4.12686 15.6545C4.26211 15.7914 4.42685 15.8598 4.62108 15.8598ZM5.75951 8.12238L6.58548 5.7637C6.60471 5.69958 6.63997 5.6499 6.69126 5.61465C6.74254 5.57938 6.80344 5.56175 6.87396 5.56175H13.6509C13.7182 5.56175 13.7775 5.57938 13.8288 5.61465C13.88 5.6499 13.9169 5.69958 13.9393 5.7637L14.7653 8.12238H5.75951Z" fill="#2D65F2"/>
</svg>
