<svg width="16" height="18" viewBox="0 0 16 18" fill="none" xmlns="http://www.w3.org/2000/svg">
<path d="M8.26218 17.1839C8.06817 17.1839 7.90273 17.1154 7.76588 16.9784C7.62903 16.8414 7.56061 16.6759 7.56061 16.482V14.2243H1.34328C1.14937 14.2243 0.983899 14.1558 0.846882 14.0187C0.709866 13.8816 0.641357 13.7169 0.641357 13.5245C0.641357 13.3321 0.709866 13.1674 0.846882 13.0306C0.983899 12.8937 1.14937 12.8253 1.34328 12.8253H15.1817C15.3719 12.8253 15.5357 12.894 15.673 13.0313C15.8102 13.1686 15.8788 13.3324 15.8788 13.5227C15.8788 13.7167 15.8102 13.8822 15.673 14.019C15.5357 14.1559 15.3719 14.2243 15.1817 14.2243H8.95961V16.482C8.95961 16.6759 8.89095 16.8414 8.75363 16.9784C8.6163 17.1154 8.45248 17.1839 8.26218 17.1839ZM5.07526 7.83109C5.31162 7.83109 5.51186 7.74991 5.67596 7.58756C5.84006 7.42521 5.92211 7.22585 5.92211 6.98949C5.92211 6.75312 5.84093 6.55289 5.67858 6.38879C5.51623 6.22469 5.31687 6.14264 5.08051 6.14264C4.84414 6.14264 4.64391 6.22381 4.47981 6.38616C4.31571 6.54851 4.23366 6.74787 4.23366 6.98424C4.23366 7.2206 4.31483 7.42084 4.47718 7.58494C4.63952 7.74904 4.83887 7.83109 5.07526 7.83109ZM11.4599 7.83109C11.6962 7.83109 11.8965 7.74991 12.0606 7.58756C12.2247 7.42521 12.3067 7.22585 12.3067 6.98949C12.3067 6.75312 12.2256 6.55289 12.0632 6.38879C11.9009 6.22469 11.7015 6.14264 11.4652 6.14264C11.2288 6.14264 11.0286 6.22381 10.8645 6.38616C10.7004 6.54851 10.6183 6.74787 10.6183 6.98424C10.6183 7.2206 10.6995 7.42084 10.8618 7.58494C11.0242 7.74904 11.2235 7.83109 11.4599 7.83109ZM2.63333 11.8455C2.43933 11.8455 2.27391 11.777 2.13706 11.64C2.00021 11.5029 1.93178 11.3375 1.93178 11.1436V5.48864C1.93178 5.38939 1.93851 5.29338 1.95196 5.20061C1.96542 5.10785 1.98791 5.01715 2.01941 4.92851L3.28753 1.29074C3.4033 0.95242 3.60572 0.677454 3.89481 0.465837C4.18387 0.254237 4.51702 0.148438 4.89426 0.148438H11.651C12.024 0.148438 12.3553 0.254237 12.6449 0.465837C12.9344 0.677454 13.1387 0.95242 13.2577 1.29074L14.521 4.92816C14.5525 5.01601 14.575 5.1063 14.5884 5.19901C14.6019 5.29171 14.6086 5.38799 14.6086 5.48784V11.1436C14.6086 11.3375 14.54 11.5029 14.4027 11.64C14.2653 11.777 14.1015 11.8455 13.9112 11.8455C13.7172 11.8455 13.5518 11.777 13.4149 11.64C13.2781 11.5029 13.2096 11.3375 13.2096 11.1436V9.86569H3.33078V11.1436C3.33078 11.3375 3.26212 11.5029 3.12478 11.64C2.98747 11.777 2.82365 11.8455 2.63333 11.8455ZM3.76731 4.10806H12.7731L11.9471 1.74939C11.9279 1.68527 11.8926 1.63559 11.8414 1.60034C11.7901 1.56507 11.7292 1.54744 11.6587 1.54744H4.88176C4.81124 1.54744 4.75034 1.56507 4.69906 1.60034C4.64776 1.63559 4.6125 1.68527 4.59328 1.74939L3.76731 4.10806Z" fill="#2D65F2"/>
</svg>
