<svg width="25" height="24" viewBox="0 0 25 24" fill="none" xmlns="http://www.w3.org/2000/svg">
<path d="M2.2395 16.5909V13.7929H11.4223L3.79333 7.77264V10.9621H2.39433V5.60346H3.02603L14.5434 11.9602V4.91406H18.6308L23.2606 10.466V16.5909H20.9558C21.0834 17.3544 20.8896 18.0385 20.3745 18.6433C19.8594 19.2481 19.2017 19.5505 18.4014 19.5505C17.6012 19.5505 16.947 19.2481 16.439 18.6433C15.931 18.0385 15.7408 17.3544 15.8684 16.5909H9.57695C9.70454 17.3544 9.51452 18.0385 9.0069 18.6433C8.4993 19.2481 7.84478 19.5505 7.04333 19.5505C6.24189 19.5505 5.58737 19.2481 5.07975 18.6433C4.57215 18.0385 4.38214 17.3544 4.5097 16.5909H2.2395ZM7.04333 18.439C7.46321 18.439 7.81482 18.2941 8.09815 18.0044C8.38149 17.7147 8.52315 17.3663 8.52315 16.9592C8.52315 16.5522 8.38149 16.2038 8.09815 15.914C7.81482 15.6243 7.46321 15.4794 7.04333 15.4794C6.62346 15.4794 6.27186 15.6243 5.98853 15.914C5.70519 16.2038 5.56353 16.5522 5.56353 16.9592C5.56353 17.3663 5.70519 17.7147 5.98853 18.0044C6.27186 18.2941 6.62346 18.439 7.04333 18.439ZM18.402 18.439C18.8219 18.439 19.1735 18.2941 19.4568 18.0044C19.7401 17.7147 19.8818 17.3663 19.8818 16.9592C19.8818 16.5522 19.7401 16.2038 19.4568 15.914C19.1735 15.6243 18.8219 15.4794 18.402 15.4794C17.9821 15.4794 17.6305 15.6243 17.3472 15.914C17.0638 16.2038 16.9222 16.5522 16.9222 16.9592C16.9222 17.3663 17.0638 17.7147 17.3472 18.0044C17.6305 18.2941 17.9821 18.439 18.402 18.439ZM15.9424 10.466H21.4559L17.952 6.31306H15.9424V10.466Z" fill="#2D65F2"/>
</svg>
