<svg width="35" height="39" viewBox="0 0 35 39" fill="none" xmlns="http://www.w3.org/2000/svg">
<path d="M18.3718 4.94025C20.5452 4.94025 22.6699 5.58477 24.477 6.79231C26.2842 7.99984 27.6927 9.71616 28.5244 11.7242C29.3562 13.7323 29.5738 15.9419 29.1498 18.0736C28.7257 20.2054 27.6791 22.1635 26.1423 23.7004C24.6054 25.2373 22.6473 26.2839 20.5157 26.708C18.384 27.132 16.1744 26.9144 14.1664 26.0826C12.1584 25.2509 10.4422 23.8423 9.23465 22.0351C8.02715 20.2279 7.38265 18.1032 7.38265 15.9297C7.38265 13.0151 8.54043 10.2199 10.6013 8.15899C12.6622 6.09807 15.4573 4.94025 18.3718 4.94025ZM18.3718 3.05861C15.1904 3.06226 12.1238 4.24742 9.76683 6.3842C7.40984 8.52099 5.93048 11.4571 5.61573 14.6229C5.30097 17.7887 6.17326 20.9586 8.06338 23.5177C9.9535 26.0768 12.7267 27.8426 15.8451 28.4726C18.9634 29.1026 22.2046 28.5519 24.9399 26.9273C27.6752 25.3027 29.7096 22.7201 30.6485 19.6804C31.5874 16.6406 31.3639 13.3605 30.0213 10.4763C28.6786 7.59203 26.3126 5.3093 23.3822 4.07088C21.7971 3.3999 20.093 3.05561 18.3718 3.05861Z" fill="#999999"/>
<path d="M12.4485 26.0453L10.2637 24.418L8.69342 26.5262L10.8782 28.1536L12.4485 26.0453Z" fill="#999999"/>
<path opacity="0.5" d="M26.3403 23.8939C30.7388 19.4954 30.7388 12.364 26.3404 7.96543C21.9419 3.56689 14.8107 3.56689 10.4123 7.96543C6.01386 12.364 6.01386 19.4954 10.4123 23.894C14.8107 28.2925 21.9419 28.2925 26.3403 23.8939Z" fill="#DDDDDD"/>
<g opacity="0.49">
<path d="M27.9461 16.7304C27.7331 16.7304 27.5288 16.6458 27.3782 16.4952C27.2276 16.3446 27.143 16.1403 27.143 15.9273C27.1412 13.6011 26.2163 11.3708 24.5715 9.72592C22.9267 8.08106 20.6964 7.15619 18.3703 7.15436C18.2625 7.15789 18.1552 7.13971 18.0546 7.10092C17.9541 7.06213 17.8623 7.00351 17.7849 6.92854C17.7074 6.85358 17.6458 6.76381 17.6038 6.66456C17.5617 6.56532 17.54 6.45863 17.54 6.35083C17.54 6.24304 17.5617 6.13635 17.6038 6.03711C17.6458 5.93786 17.7074 5.84809 17.7849 5.77312C17.8623 5.69816 17.9541 5.63954 18.0546 5.60075C18.1552 5.56195 18.2625 5.54378 18.3703 5.54731C21.1222 5.55027 23.7606 6.64483 25.7066 8.59081C27.6525 10.5368 28.747 13.1753 28.75 15.9273C28.7498 16.1404 28.665 16.3447 28.5142 16.4953C28.3635 16.6458 28.1591 16.7304 27.9461 16.7304Z" fill="white"/>
</g>
<g style="mix-blend-mode:multiply">
<path d="M18.3703 4.66406C16.1427 4.66406 13.9651 5.32464 12.113 6.56225C10.2608 7.79986 8.81722 9.55893 7.96476 11.617C7.1123 13.6751 6.88926 15.9397 7.32384 18.1246C7.75842 20.3094 8.8311 22.3163 10.4062 23.8915C11.9814 25.4667 13.9882 26.5394 16.173 26.974C18.3578 27.4086 20.6224 27.1855 22.6804 26.333C24.7384 25.4806 26.4974 24.0369 27.735 22.1847C28.9726 20.3325 29.6331 18.1549 29.6331 15.9272C29.6331 14.4481 29.3418 12.9835 28.7758 11.617C28.2098 10.2505 27.3802 9.00885 26.3343 7.96297C25.2885 6.91709 24.0469 6.08745 22.6804 5.52142C21.3139 4.95539 19.8493 4.66406 18.3703 4.66406ZM18.3703 26.9158C16.1968 26.9158 14.0721 26.2713 12.265 25.0637C10.4578 23.8561 9.04928 22.1398 8.21756 20.1316C7.38584 18.1235 7.16827 15.9139 7.59236 13.7821C8.01645 11.6504 9.06315 9.69222 10.6001 8.15535C12.137 6.61849 14.0952 5.57191 16.2269 5.14798C18.3587 4.72405 20.5682 4.9418 22.5762 5.77369C24.5842 6.60559 26.3004 8.01427 27.5078 9.82159C28.7152 11.6289 29.3596 13.7537 29.3594 15.9272C29.3594 17.3703 29.0752 18.7993 28.5229 20.1326C27.9706 21.4658 27.1612 22.6772 26.1407 23.6976C25.1203 24.718 23.9088 25.5274 22.5756 26.0796C21.2423 26.6318 19.8133 26.9159 18.3703 26.9158Z" fill="#002D9F"/>
</g>
<g style="mix-blend-mode:multiply">
<path d="M11.7886 26.9387L10.2186 29.0475L9.64453 28.6197L11.2154 26.5117L11.7886 26.9387Z" fill="#6F6464"/>
</g>
<path d="M10.8284 28.0896L8.7706 26.5568C8.41566 26.2924 7.91362 26.3659 7.64925 26.7208L1.1744 35.4141C0.910032 35.769 0.983452 36.2711 1.33839 36.5354L3.39619 38.0682C3.75113 38.3326 4.25317 38.2592 4.51754 37.9042L10.9924 29.211C11.2568 28.856 11.1833 28.354 10.8284 28.0896Z" fill="#303030"/>
<g style="mix-blend-mode:screen">
<path d="M9.34559 26.989C9.18608 26.876 8.98868 26.8299 8.79563 26.8606C8.60258 26.8914 8.42924 26.9965 8.31269 27.1534L1.77103 35.9332C1.6537 36.0903 1.60291 36.2873 1.62965 36.4816C1.65638 36.6758 1.7585 36.8518 1.91392 36.9713L1.28902 36.5057C1.2105 36.4468 1.14435 36.3731 1.09436 36.2886C1.04437 36.2042 1.01152 36.1108 0.997686 36.0136C0.983855 35.9165 0.989315 35.8176 1.01375 35.7225C1.03819 35.6275 1.08113 35.5382 1.14011 35.4598L7.68177 26.68C7.74043 26.6012 7.81405 26.5347 7.89843 26.4844C7.98281 26.434 8.07628 26.4008 8.1735 26.3867C8.27072 26.3725 8.36978 26.3777 8.465 26.4019C8.56023 26.4261 8.64974 26.4688 8.72843 26.5276L9.34559 26.989Z" fill="#6F6464"/>
</g>
</svg>
