<svg width="21" height="18" viewBox="0 0 21 18" fill="none" xmlns="http://www.w3.org/2000/svg">
<path d="M7 8.52632L8.5 4.26316L17.5 4.26316L19 8.52632M17.5 13.2632C17.1022 13.2632 16.7206 13.1134 16.4393 12.8469C16.158 12.5804 16 12.219 16 11.8421C16 11.4652 16.158 11.1038 16.4393 10.8373C16.7206 10.5708 17.1022 10.4211 17.5 10.4211C17.8978 10.4211 18.2794 10.5708 18.5607 10.8373C18.842 11.1038 19 11.4652 19 11.8421C19 12.219 18.842 12.5804 18.5607 12.8469C18.2794 13.1134 17.8978 13.2632 17.5 13.2632ZM8.5 13.2632C8.10218 13.2632 7.72064 13.1134 7.43934 12.8469C7.15804 12.5804 7 12.219 7 11.8421C7 11.4652 7.15804 11.1038 7.43934 10.8373C7.72064 10.5708 8.10218 10.4211 8.5 10.4211C8.89782 10.4211 9.27936 10.5708 9.56066 10.8373C9.84196 11.1038 10 11.4652 10 11.8421C10 12.219 9.84196 12.5804 9.56066 12.8469C9.27936 13.1134 8.89782 13.2632 8.5 13.2632ZM18.92 3.78947C18.71 3.22105 18.14 2.84211 17.5 2.84211L8.5 2.84211C7.86 2.84211 7.29 3.22105 7.08 3.78947L5 9.47368L5 17.0526C5 17.3039 5.10536 17.5449 5.29289 17.7225C5.48043 17.9002 5.73478 18 6 18H7C7.26522 18 7.51957 17.9002 7.70711 17.7225C7.89464 17.5449 8 17.3039 8 17.0526V16.1053L18 16.1053V17.0526C18 17.3039 18.1054 17.5449 18.2929 17.7225C18.4804 17.9002 18.7348 18 19 18H20C20.2652 18 20.5196 17.9002 20.7071 17.7225C20.8946 17.5449 21 17.3039 21 17.0526L21 9.47368L18.92 3.78947ZM13.92 0.947368C13.71 0.378947 13.14 0 12.5 0L3.5 0C2.86 0 2.29 0.378947 2.08 0.947368L0 6.63158L0 14.2105C0 14.4618 0.105357 14.7028 0.292893 14.8804C0.48043 15.0581 0.734784 15.1579 1 15.1579H2C2.26522 15.1579 2.51957 15.0581 2.70711 14.8804C2.89464 14.7028 3 14.4618 3 14.2105L3 10.3358C2.81541 10.2731 2.64569 10.1765 2.50053 10.0516C2.35538 9.92666 2.23764 9.77586 2.15405 9.60781C2.07046 9.43975 2.02266 9.25773 2.01339 9.07216C2.00411 8.88659 2.03355 8.7011 2.1 8.52632C2.32 7.95789 2.87 7.57895 3.5 7.57895H3.57L4.27 5.68421L2 5.68421L3.5 1.42105L14.09 1.42105L13.92 0.947368Z" fill="#999999"/>
</svg>
